<svg xmlns="http://www.w3.org/2000/svg" xmlns:xlink="http://www.w3.org/1999/xlink" width="600" height="400" viewBox="0 0 2400 1600">
<defs>
  <clipPath id="clip820">
    <rect x="0" y="0" width="2400" height="1600"></rect>
  </clipPath>
</defs>
<path clip-path="url(#clip820)" d="M0 1600 L2400 1600 L2400 0 L0 0  Z" fill="#ffffff" fill-rule="evenodd" fill-opacity="1"></path>
<defs>
  <clipPath id="clip821">
    <rect x="480" y="0" width="1681" height="1600"></rect>
  </clipPath>
</defs>
<path clip-path="url(#clip820)" d="M219.866 1423.18 L2352.76 1423.18 L2352.76 123.472 L219.866 123.472  Z" fill="#ffffff" fill-rule="evenodd" fill-opacity="1"></path>
<defs>
  <clipPath id="clip822">
    <rect x="219" y="123" width="2134" height="1301"></rect>
  </clipPath>
</defs>
<polyline clip-path="url(#clip822)" style="stroke:#000000; stroke-linecap:round; stroke-linejoin:round; stroke-width:2; stroke-opacity:0.1; fill:none" points="492.037,1423.18 492.037,123.472 "></polyline>
<polyline clip-path="url(#clip822)" style="stroke:#000000; stroke-linecap:round; stroke-linejoin:round; stroke-width:2; stroke-opacity:0.1; fill:none" points="1021.55,1423.18 1021.55,123.472 "></polyline>
<polyline clip-path="url(#clip822)" style="stroke:#000000; stroke-linecap:round; stroke-linejoin:round; stroke-width:2; stroke-opacity:0.1; fill:none" points="1551.07,1423.18 1551.07,123.472 "></polyline>
<polyline clip-path="url(#clip822)" style="stroke:#000000; stroke-linecap:round; stroke-linejoin:round; stroke-width:2; stroke-opacity:0.1; fill:none" points="2080.58,1423.18 2080.58,123.472 "></polyline>
<polyline clip-path="url(#clip820)" style="stroke:#000000; stroke-linecap:round; stroke-linejoin:round; stroke-width:4; stroke-opacity:1; fill:none" points="219.866,1423.18 2352.76,1423.18 "></polyline>
<polyline clip-path="url(#clip820)" style="stroke:#000000; stroke-linecap:round; stroke-linejoin:round; stroke-width:4; stroke-opacity:1; fill:none" points="492.037,1423.18 492.037,1404.28 "></polyline>
<polyline clip-path="url(#clip820)" style="stroke:#000000; stroke-linecap:round; stroke-linejoin:round; stroke-width:4; stroke-opacity:1; fill:none" points="1021.55,1423.18 1021.55,1404.28 "></polyline>
<polyline clip-path="url(#clip820)" style="stroke:#000000; stroke-linecap:round; stroke-linejoin:round; stroke-width:4; stroke-opacity:1; fill:none" points="1551.07,1423.18 1551.07,1404.28 "></polyline>
<polyline clip-path="url(#clip820)" style="stroke:#000000; stroke-linecap:round; stroke-linejoin:round; stroke-width:4; stroke-opacity:1; fill:none" points="2080.58,1423.18 2080.58,1404.28 "></polyline>
<path clip-path="url(#clip820)" d="M482.419 1481.64 L490.058 1481.64 L490.058 1455.28 L481.748 1456.95 L481.748 1452.69 L490.012 1451.02 L494.688 1451.02 L494.688 1481.64 L502.327 1481.64 L502.327 1485.58 L482.419 1485.58 L482.419 1481.64 Z" fill="#000000" fill-rule="nonzero" fill-opacity="1"></path><path clip-path="url(#clip820)" d="M1016.21 1481.64 L1032.53 1481.64 L1032.53 1485.58 L1010.58 1485.58 L1010.58 1481.64 Q1013.24 1478.89 1017.83 1474.26 Q1022.43 1469.61 1023.61 1468.27 Q1025.86 1465.74 1026.74 1464.01 Q1027.64 1462.25 1027.64 1460.56 Q1027.64 1457.8 1025.7 1456.07 Q1023.78 1454.33 1020.67 1454.33 Q1018.47 1454.33 1016.02 1455.09 Q1013.59 1455.86 1010.81 1457.41 L1010.81 1452.69 Q1013.64 1451.55 1016.09 1450.97 Q1018.54 1450.39 1020.58 1450.39 Q1025.95 1450.39 1029.15 1453.08 Q1032.34 1455.77 1032.34 1460.26 Q1032.34 1462.39 1031.53 1464.31 Q1030.74 1466.2 1028.64 1468.8 Q1028.06 1469.47 1024.96 1472.69 Q1021.85 1475.88 1016.21 1481.64 Z" fill="#000000" fill-rule="nonzero" fill-opacity="1"></path><path clip-path="url(#clip820)" d="M1555.32 1466.95 Q1558.67 1467.66 1560.55 1469.93 Q1562.45 1472.2 1562.45 1475.53 Q1562.45 1480.65 1558.93 1483.45 Q1555.41 1486.25 1548.93 1486.25 Q1546.75 1486.25 1544.44 1485.81 Q1542.15 1485.39 1539.69 1484.54 L1539.69 1480.02 Q1541.64 1481.16 1543.95 1481.74 Q1546.27 1482.32 1548.79 1482.32 Q1553.19 1482.32 1555.48 1480.58 Q1557.79 1478.84 1557.79 1475.53 Q1557.79 1472.48 1555.64 1470.77 Q1553.51 1469.03 1549.69 1469.03 L1545.66 1469.03 L1545.66 1465.19 L1549.88 1465.19 Q1553.33 1465.19 1555.15 1463.82 Q1556.98 1462.43 1556.98 1459.84 Q1556.98 1457.18 1555.09 1455.77 Q1553.21 1454.33 1549.69 1454.33 Q1547.77 1454.33 1545.57 1454.75 Q1543.37 1455.16 1540.73 1456.04 L1540.73 1451.88 Q1543.4 1451.14 1545.71 1450.77 Q1548.05 1450.39 1550.11 1450.39 Q1555.43 1450.39 1558.53 1452.83 Q1561.64 1455.23 1561.64 1459.35 Q1561.64 1462.22 1559.99 1464.21 Q1558.35 1466.18 1555.32 1466.95 Z" fill="#000000" fill-rule="nonzero" fill-opacity="1"></path><path clip-path="url(#clip820)" d="M2083.59 1455.09 L2071.79 1473.54 L2083.59 1473.54 L2083.59 1455.09 M2082.37 1451.02 L2088.25 1451.02 L2088.25 1473.54 L2093.18 1473.54 L2093.18 1477.43 L2088.25 1477.43 L2088.25 1485.58 L2083.59 1485.58 L2083.59 1477.43 L2067.99 1477.43 L2067.99 1472.92 L2082.37 1451.02 Z" fill="#000000" fill-rule="nonzero" fill-opacity="1"></path><path clip-path="url(#clip820)" d="M1218.82 1539.24 Q1221.01 1535.29 1224.07 1533.41 Q1227.13 1531.54 1231.26 1531.54 Q1236.83 1531.54 1239.86 1535.45 Q1242.88 1539.33 1242.88 1546.53 L1242.88 1568.04 L1236.99 1568.04 L1236.99 1546.72 Q1236.99 1541.59 1235.18 1539.11 Q1233.36 1536.63 1229.64 1536.63 Q1225.09 1536.63 1222.45 1539.65 Q1219.81 1542.68 1219.81 1547.9 L1219.81 1568.04 L1213.92 1568.04 L1213.92 1546.72 Q1213.92 1541.56 1212.1 1539.11 Q1210.29 1536.63 1206.5 1536.63 Q1202.01 1536.63 1199.37 1539.68 Q1196.73 1542.71 1196.73 1547.9 L1196.73 1568.04 L1190.84 1568.04 L1190.84 1532.4 L1196.73 1532.4 L1196.73 1537.93 Q1198.73 1534.66 1201.54 1533.1 Q1204.34 1531.54 1208.19 1531.54 Q1212.07 1531.54 1214.78 1533.51 Q1217.51 1535.48 1218.82 1539.24 Z" fill="#000000" fill-rule="nonzero" fill-opacity="1"></path><path clip-path="url(#clip820)" d="M1268.38 1536.5 Q1263.67 1536.5 1260.93 1540.19 Q1258.19 1543.85 1258.19 1550.25 Q1258.19 1556.65 1260.9 1560.34 Q1263.63 1564 1268.38 1564 Q1273.05 1564 1275.79 1560.31 Q1278.53 1556.62 1278.53 1550.25 Q1278.53 1543.92 1275.79 1540.23 Q1273.05 1536.5 1268.38 1536.5 M1268.38 1531.54 Q1276.01 1531.54 1280.38 1536.5 Q1284.74 1541.47 1284.74 1550.25 Q1284.74 1559 1280.38 1564 Q1276.01 1568.97 1268.38 1568.97 Q1260.71 1568.97 1256.34 1564 Q1252.02 1559 1252.02 1550.25 Q1252.02 1541.47 1256.34 1536.5 Q1260.71 1531.54 1268.38 1531.54 Z" fill="#000000" fill-rule="nonzero" fill-opacity="1"></path><path clip-path="url(#clip820)" d="M1317.9 1537.81 L1317.9 1518.52 L1323.76 1518.52 L1323.76 1568.04 L1317.9 1568.04 L1317.9 1562.7 Q1316.05 1565.88 1313.22 1567.44 Q1310.42 1568.97 1306.47 1568.97 Q1300.01 1568.97 1295.94 1563.81 Q1291.9 1558.65 1291.9 1550.25 Q1291.9 1541.85 1295.94 1536.69 Q1300.01 1531.54 1306.47 1531.54 Q1310.42 1531.54 1313.22 1533.1 Q1316.05 1534.62 1317.9 1537.81 M1297.94 1550.25 Q1297.94 1556.71 1300.59 1560.4 Q1303.26 1564.07 1307.91 1564.07 Q1312.55 1564.07 1315.23 1560.4 Q1317.9 1556.71 1317.9 1550.25 Q1317.9 1543.79 1315.23 1540.13 Q1312.55 1536.44 1307.91 1536.44 Q1303.26 1536.44 1300.59 1540.13 Q1297.94 1543.79 1297.94 1550.25 Z" fill="#000000" fill-rule="nonzero" fill-opacity="1"></path><path clip-path="url(#clip820)" d="M1366.31 1548.76 L1366.31 1551.62 L1339.39 1551.62 Q1339.77 1557.67 1343.01 1560.85 Q1346.29 1564 1352.12 1564 Q1355.49 1564 1358.64 1563.17 Q1361.82 1562.35 1364.94 1560.69 L1364.94 1566.23 Q1361.79 1567.57 1358.48 1568.27 Q1355.17 1568.97 1351.77 1568.97 Q1343.24 1568.97 1338.24 1564 Q1333.27 1559.04 1333.27 1550.57 Q1333.27 1541.82 1337.98 1536.69 Q1342.73 1531.54 1350.75 1531.54 Q1357.94 1531.54 1362.11 1536.18 Q1366.31 1540.8 1366.31 1548.76 M1360.46 1547.04 Q1360.39 1542.23 1357.75 1539.37 Q1355.14 1536.5 1350.81 1536.5 Q1345.91 1536.5 1342.95 1539.27 Q1340.02 1542.04 1339.58 1547.07 L1360.46 1547.04 Z" fill="#000000" fill-rule="nonzero" fill-opacity="1"></path><path clip-path="url(#clip820)" d="M1375.92 1518.52 L1381.78 1518.52 L1381.78 1568.04 L1375.92 1568.04 L1375.92 1518.52 Z" fill="#000000" fill-rule="nonzero" fill-opacity="1"></path><polyline clip-path="url(#clip822)" style="stroke:#000000; stroke-linecap:round; stroke-linejoin:round; stroke-width:2; stroke-opacity:0.1; fill:none" points="219.866,1358.97 2352.76,1358.97 "></polyline>
<polyline clip-path="url(#clip822)" style="stroke:#000000; stroke-linecap:round; stroke-linejoin:round; stroke-width:2; stroke-opacity:0.1; fill:none" points="219.866,1176.21 2352.76,1176.21 "></polyline>
<polyline clip-path="url(#clip822)" style="stroke:#000000; stroke-linecap:round; stroke-linejoin:round; stroke-width:2; stroke-opacity:0.1; fill:none" points="219.866,993.449 2352.76,993.449 "></polyline>
<polyline clip-path="url(#clip822)" style="stroke:#000000; stroke-linecap:round; stroke-linejoin:round; stroke-width:2; stroke-opacity:0.1; fill:none" points="219.866,810.688 2352.76,810.688 "></polyline>
<polyline clip-path="url(#clip822)" style="stroke:#000000; stroke-linecap:round; stroke-linejoin:round; stroke-width:2; stroke-opacity:0.1; fill:none" points="219.866,627.926 2352.76,627.926 "></polyline>
<polyline clip-path="url(#clip822)" style="stroke:#000000; stroke-linecap:round; stroke-linejoin:round; stroke-width:2; stroke-opacity:0.1; fill:none" points="219.866,445.164 2352.76,445.164 "></polyline>
<polyline clip-path="url(#clip822)" style="stroke:#000000; stroke-linecap:round; stroke-linejoin:round; stroke-width:2; stroke-opacity:0.1; fill:none" points="219.866,262.403 2352.76,262.403 "></polyline>
<polyline clip-path="url(#clip820)" style="stroke:#000000; stroke-linecap:round; stroke-linejoin:round; stroke-width:4; stroke-opacity:1; fill:none" points="219.866,1423.18 219.866,123.472 "></polyline>
<polyline clip-path="url(#clip820)" style="stroke:#000000; stroke-linecap:round; stroke-linejoin:round; stroke-width:4; stroke-opacity:1; fill:none" points="219.866,1358.97 238.764,1358.97 "></polyline>
<polyline clip-path="url(#clip820)" style="stroke:#000000; stroke-linecap:round; stroke-linejoin:round; stroke-width:4; stroke-opacity:1; fill:none" points="219.866,1176.21 238.764,1176.21 "></polyline>
<polyline clip-path="url(#clip820)" style="stroke:#000000; stroke-linecap:round; stroke-linejoin:round; stroke-width:4; stroke-opacity:1; fill:none" points="219.866,993.449 238.764,993.449 "></polyline>
<polyline clip-path="url(#clip820)" style="stroke:#000000; stroke-linecap:round; stroke-linejoin:round; stroke-width:4; stroke-opacity:1; fill:none" points="219.866,810.688 238.764,810.688 "></polyline>
<polyline clip-path="url(#clip820)" style="stroke:#000000; stroke-linecap:round; stroke-linejoin:round; stroke-width:4; stroke-opacity:1; fill:none" points="219.866,627.926 238.764,627.926 "></polyline>
<polyline clip-path="url(#clip820)" style="stroke:#000000; stroke-linecap:round; stroke-linejoin:round; stroke-width:4; stroke-opacity:1; fill:none" points="219.866,445.164 238.764,445.164 "></polyline>
<polyline clip-path="url(#clip820)" style="stroke:#000000; stroke-linecap:round; stroke-linejoin:round; stroke-width:4; stroke-opacity:1; fill:none" points="219.866,262.403 238.764,262.403 "></polyline>
<path clip-path="url(#clip820)" d="M127.339 1344.77 Q123.728 1344.77 121.899 1348.34 Q120.093 1351.88 120.093 1359.01 Q120.093 1366.11 121.899 1369.68 Q123.728 1373.22 127.339 1373.22 Q130.973 1373.22 132.779 1369.68 Q134.607 1366.11 134.607 1359.01 Q134.607 1351.88 132.779 1348.34 Q130.973 1344.77 127.339 1344.77 M127.339 1341.07 Q133.149 1341.07 136.204 1345.67 Q139.283 1350.26 139.283 1359.01 Q139.283 1367.73 136.204 1372.34 Q133.149 1376.92 127.339 1376.92 Q121.529 1376.92 118.45 1372.34 Q115.394 1367.73 115.394 1359.01 Q115.394 1350.26 118.45 1345.67 Q121.529 1341.07 127.339 1341.07 Z" fill="#000000" fill-rule="nonzero" fill-opacity="1"></path><path clip-path="url(#clip820)" d="M147.501 1370.37 L152.385 1370.37 L152.385 1376.25 L147.501 1376.25 L147.501 1370.37 Z" fill="#000000" fill-rule="nonzero" fill-opacity="1"></path><path clip-path="url(#clip820)" d="M176.737 1357.62 Q180.093 1358.34 181.968 1360.6 Q183.866 1362.87 183.866 1366.21 Q183.866 1371.32 180.348 1374.12 Q176.829 1376.92 170.348 1376.92 Q168.172 1376.92 165.857 1376.48 Q163.565 1376.07 161.112 1375.21 L161.112 1370.7 Q163.056 1371.83 165.371 1372.41 Q167.686 1372.99 170.209 1372.99 Q174.607 1372.99 176.899 1371.25 Q179.214 1369.52 179.214 1366.21 Q179.214 1363.15 177.061 1361.44 Q174.931 1359.7 171.112 1359.7 L167.084 1359.7 L167.084 1355.86 L171.297 1355.86 Q174.746 1355.86 176.575 1354.49 Q178.403 1353.1 178.403 1350.51 Q178.403 1347.85 176.505 1346.44 Q174.63 1345 171.112 1345 Q169.19 1345 166.991 1345.42 Q164.792 1345.84 162.153 1346.72 L162.153 1342.55 Q164.815 1341.81 167.13 1341.44 Q169.468 1341.07 171.528 1341.07 Q176.852 1341.07 179.954 1343.5 Q183.056 1345.91 183.056 1350.03 Q183.056 1352.9 181.413 1354.89 Q179.769 1356.85 176.737 1357.62 Z" fill="#000000" fill-rule="nonzero" fill-opacity="1"></path><path clip-path="url(#clip820)" d="M126.205 1162.01 Q122.593 1162.01 120.765 1165.57 Q118.959 1169.12 118.959 1176.25 Q118.959 1183.35 120.765 1186.92 Q122.593 1190.46 126.205 1190.46 Q129.839 1190.46 131.644 1186.92 Q133.473 1183.35 133.473 1176.25 Q133.473 1169.12 131.644 1165.57 Q129.839 1162.01 126.205 1162.01 M126.205 1158.31 Q132.015 1158.31 135.07 1162.91 Q138.149 1167.5 138.149 1176.25 Q138.149 1184.97 135.07 1189.58 Q132.015 1194.16 126.205 1194.16 Q120.394 1194.16 117.316 1189.58 Q114.26 1184.97 114.26 1176.25 Q114.26 1167.5 117.316 1162.91 Q120.394 1158.31 126.205 1158.31 Z" fill="#000000" fill-rule="nonzero" fill-opacity="1"></path><path clip-path="url(#clip820)" d="M146.366 1187.61 L151.251 1187.61 L151.251 1193.49 L146.366 1193.49 L146.366 1187.61 Z" fill="#000000" fill-rule="nonzero" fill-opacity="1"></path><path clip-path="url(#clip820)" d="M174.283 1163.01 L162.477 1181.45 L174.283 1181.45 L174.283 1163.01 M173.056 1158.93 L178.936 1158.93 L178.936 1181.45 L183.866 1181.45 L183.866 1185.34 L178.936 1185.34 L178.936 1193.49 L174.283 1193.49 L174.283 1185.34 L158.681 1185.34 L158.681 1180.83 L173.056 1158.93 Z" fill="#000000" fill-rule="nonzero" fill-opacity="1"></path><path clip-path="url(#clip820)" d="M127.686 979.248 Q124.075 979.248 122.246 982.813 Q120.441 986.355 120.441 993.484 Q120.441 1000.59 122.246 1004.16 Q124.075 1007.7 127.686 1007.7 Q131.32 1007.7 133.126 1004.16 Q134.954 1000.59 134.954 993.484 Q134.954 986.355 133.126 982.813 Q131.32 979.248 127.686 979.248 M127.686 975.544 Q133.496 975.544 136.552 980.151 Q139.63 984.734 139.63 993.484 Q139.63 1002.21 136.552 1006.82 Q133.496 1011.4 127.686 1011.4 Q121.876 1011.4 118.797 1006.82 Q115.742 1002.21 115.742 993.484 Q115.742 984.734 118.797 980.151 Q121.876 975.544 127.686 975.544 Z" fill="#000000" fill-rule="nonzero" fill-opacity="1"></path><path clip-path="url(#clip820)" d="M147.848 1004.85 L152.732 1004.85 L152.732 1010.73 L147.848 1010.73 L147.848 1004.85 Z" fill="#000000" fill-rule="nonzero" fill-opacity="1"></path><path clip-path="url(#clip820)" d="M162.964 976.169 L181.32 976.169 L181.32 980.105 L167.246 980.105 L167.246 988.577 Q168.264 988.23 169.283 988.067 Q170.302 987.882 171.32 987.882 Q177.107 987.882 180.487 991.054 Q183.866 994.225 183.866 999.642 Q183.866 1005.22 180.394 1008.32 Q176.922 1011.4 170.602 1011.4 Q168.427 1011.4 166.158 1011.03 Q163.913 1010.66 161.505 1009.92 L161.505 1005.22 Q163.589 1006.35 165.811 1006.91 Q168.033 1007.47 170.51 1007.47 Q174.514 1007.47 176.852 1005.36 Q179.19 1003.25 179.19 999.642 Q179.19 996.03 176.852 993.924 Q174.514 991.817 170.51 991.817 Q168.635 991.817 166.76 992.234 Q164.908 992.651 162.964 993.53 L162.964 976.169 Z" fill="#000000" fill-rule="nonzero" fill-opacity="1"></path><path clip-path="url(#clip820)" d="M126.529 796.486 Q122.918 796.486 121.089 800.051 Q119.283 803.593 119.283 810.722 Q119.283 817.829 121.089 821.394 Q122.918 824.935 126.529 824.935 Q130.163 824.935 131.968 821.394 Q133.797 817.829 133.797 810.722 Q133.797 803.593 131.968 800.051 Q130.163 796.486 126.529 796.486 M126.529 792.783 Q132.339 792.783 135.394 797.389 Q138.473 801.972 138.473 810.722 Q138.473 819.449 135.394 824.056 Q132.339 828.639 126.529 828.639 Q120.718 828.639 117.64 824.056 Q114.584 819.449 114.584 810.722 Q114.584 801.972 117.64 797.389 Q120.718 792.783 126.529 792.783 Z" fill="#000000" fill-rule="nonzero" fill-opacity="1"></path><path clip-path="url(#clip820)" d="M146.691 822.088 L151.575 822.088 L151.575 827.968 L146.691 827.968 L146.691 822.088 Z" fill="#000000" fill-rule="nonzero" fill-opacity="1"></path><path clip-path="url(#clip820)" d="M172.339 808.824 Q169.19 808.824 167.339 810.977 Q165.51 813.13 165.51 816.88 Q165.51 820.607 167.339 822.783 Q169.19 824.935 172.339 824.935 Q175.487 824.935 177.315 822.783 Q179.167 820.607 179.167 816.88 Q179.167 813.13 177.315 810.977 Q175.487 808.824 172.339 808.824 M181.621 794.172 L181.621 798.431 Q179.862 797.597 178.056 797.158 Q176.274 796.718 174.514 796.718 Q169.885 796.718 167.431 799.843 Q165.001 802.968 164.653 809.287 Q166.019 807.273 168.079 806.209 Q170.139 805.121 172.616 805.121 Q177.825 805.121 180.834 808.292 Q183.866 811.44 183.866 816.88 Q183.866 822.204 180.718 825.421 Q177.57 828.639 172.339 828.639 Q166.343 828.639 163.172 824.056 Q160.001 819.449 160.001 810.722 Q160.001 802.528 163.89 797.667 Q167.778 792.783 174.329 792.783 Q176.089 792.783 177.871 793.13 Q179.676 793.477 181.621 794.172 Z" fill="#000000" fill-rule="nonzero" fill-opacity="1"></path><path clip-path="url(#clip820)" d="M127.593 613.725 Q123.982 613.725 122.154 617.289 Q120.348 620.831 120.348 627.961 Q120.348 635.067 122.154 638.632 Q123.982 642.174 127.593 642.174 Q131.228 642.174 133.033 638.632 Q134.862 635.067 134.862 627.961 Q134.862 620.831 133.033 617.289 Q131.228 613.725 127.593 613.725 M127.593 610.021 Q133.404 610.021 136.459 614.627 Q139.538 619.211 139.538 627.961 Q139.538 636.688 136.459 641.294 Q133.404 645.877 127.593 645.877 Q121.783 645.877 118.705 641.294 Q115.649 636.688 115.649 627.961 Q115.649 619.211 118.705 614.627 Q121.783 610.021 127.593 610.021 Z" fill="#000000" fill-rule="nonzero" fill-opacity="1"></path><path clip-path="url(#clip820)" d="M147.755 639.326 L152.64 639.326 L152.64 645.206 L147.755 645.206 L147.755 639.326 Z" fill="#000000" fill-rule="nonzero" fill-opacity="1"></path><path clip-path="url(#clip820)" d="M161.644 610.646 L183.866 610.646 L183.866 612.637 L171.32 645.206 L166.436 645.206 L178.241 614.581 L161.644 614.581 L161.644 610.646 Z" fill="#000000" fill-rule="nonzero" fill-opacity="1"></path><path clip-path="url(#clip820)" d="M126.783 430.963 Q123.172 430.963 121.343 434.528 Q119.538 438.069 119.538 445.199 Q119.538 452.305 121.343 455.87 Q123.172 459.412 126.783 459.412 Q130.417 459.412 132.223 455.87 Q134.052 452.305 134.052 445.199 Q134.052 438.069 132.223 434.528 Q130.417 430.963 126.783 430.963 M126.783 427.259 Q132.593 427.259 135.649 431.866 Q138.728 436.449 138.728 445.199 Q138.728 453.926 135.649 458.532 Q132.593 463.116 126.783 463.116 Q120.973 463.116 117.894 458.532 Q114.839 453.926 114.839 445.199 Q114.839 436.449 117.894 431.866 Q120.973 427.259 126.783 427.259 Z" fill="#000000" fill-rule="nonzero" fill-opacity="1"></path><path clip-path="url(#clip820)" d="M146.945 456.565 L151.829 456.565 L151.829 462.444 L146.945 462.444 L146.945 456.565 Z" fill="#000000" fill-rule="nonzero" fill-opacity="1"></path><path clip-path="url(#clip820)" d="M172.014 446.032 Q168.681 446.032 166.76 447.815 Q164.862 449.597 164.862 452.722 Q164.862 455.847 166.76 457.629 Q168.681 459.412 172.014 459.412 Q175.348 459.412 177.269 457.629 Q179.19 455.824 179.19 452.722 Q179.19 449.597 177.269 447.815 Q175.371 446.032 172.014 446.032 M167.339 444.042 Q164.329 443.301 162.64 441.241 Q160.973 439.181 160.973 436.218 Q160.973 432.074 163.913 429.667 Q166.876 427.259 172.014 427.259 Q177.176 427.259 180.116 429.667 Q183.056 432.074 183.056 436.218 Q183.056 439.181 181.366 441.241 Q179.7 443.301 176.714 444.042 Q180.093 444.829 181.968 447.12 Q183.866 449.412 183.866 452.722 Q183.866 457.745 180.788 460.43 Q177.732 463.116 172.014 463.116 Q166.297 463.116 163.218 460.43 Q160.163 457.745 160.163 452.722 Q160.163 449.412 162.061 447.12 Q163.959 444.829 167.339 444.042 M165.626 436.657 Q165.626 439.343 167.292 440.847 Q168.982 442.352 172.014 442.352 Q175.024 442.352 176.714 440.847 Q178.426 439.343 178.426 436.657 Q178.426 433.972 176.714 432.468 Q175.024 430.963 172.014 430.963 Q168.982 430.963 167.292 432.468 Q165.626 433.972 165.626 436.657 Z" fill="#000000" fill-rule="nonzero" fill-opacity="1"></path><path clip-path="url(#clip820)" d="M126.876 248.201 Q123.265 248.201 121.436 251.766 Q119.63 255.308 119.63 262.437 Q119.63 269.544 121.436 273.109 Q123.265 276.65 126.876 276.65 Q130.51 276.65 132.316 273.109 Q134.144 269.544 134.144 262.437 Q134.144 255.308 132.316 251.766 Q130.51 248.201 126.876 248.201 M126.876 244.498 Q132.686 244.498 135.742 249.104 Q138.82 253.687 138.82 262.437 Q138.82 271.164 135.742 275.771 Q132.686 280.354 126.876 280.354 Q121.066 280.354 117.987 275.771 Q114.931 271.164 114.931 262.437 Q114.931 253.687 117.987 249.104 Q121.066 244.498 126.876 244.498 Z" fill="#000000" fill-rule="nonzero" fill-opacity="1"></path><path clip-path="url(#clip820)" d="M147.038 273.803 L151.922 273.803 L151.922 279.683 L147.038 279.683 L147.038 273.803 Z" fill="#000000" fill-rule="nonzero" fill-opacity="1"></path><path clip-path="url(#clip820)" d="M162.246 278.965 L162.246 274.706 Q164.005 275.539 165.811 275.979 Q167.616 276.419 169.352 276.419 Q173.982 276.419 176.413 273.317 Q178.866 270.192 179.214 263.849 Q177.871 265.84 175.811 266.905 Q173.751 267.97 171.251 267.97 Q166.065 267.97 163.033 264.845 Q160.024 261.697 160.024 256.257 Q160.024 250.933 163.172 247.715 Q166.32 244.498 171.552 244.498 Q177.547 244.498 180.695 249.104 Q183.866 253.687 183.866 262.437 Q183.866 270.609 179.977 275.493 Q176.112 280.354 169.561 280.354 Q167.802 280.354 165.996 280.007 Q164.19 279.659 162.246 278.965 M171.552 264.312 Q174.7 264.312 176.528 262.16 Q178.38 260.007 178.38 256.257 Q178.38 252.53 176.528 250.377 Q174.7 248.201 171.552 248.201 Q168.403 248.201 166.552 250.377 Q164.723 252.53 164.723 256.257 Q164.723 260.007 166.552 262.16 Q168.403 264.312 171.552 264.312 Z" fill="#000000" fill-rule="nonzero" fill-opacity="1"></path><path clip-path="url(#clip820)" d="M45.7664 805.091 Q39.4007 805.091 35.8996 807.733 Q32.3984 810.343 32.3984 815.085 Q32.3984 819.796 35.8996 822.437 Q39.4007 825.047 45.7664 825.047 Q52.1003 825.047 55.6014 822.437 Q59.1026 819.796 59.1026 815.085 Q59.1026 810.343 55.6014 807.733 Q52.1003 805.091 45.7664 805.091 M59.58 799.234 Q68.683 799.234 73.1071 803.277 Q77.5631 807.319 77.5631 815.658 Q77.5631 818.745 77.0857 821.483 Q76.6401 824.22 75.6852 826.798 L69.9879 826.798 Q71.3884 824.22 72.0568 821.705 Q72.7252 819.191 72.7252 816.581 Q72.7252 810.82 69.7015 807.955 Q66.7096 805.091 60.6303 805.091 L57.7339 805.091 Q60.885 806.905 62.4446 809.738 Q64.0042 812.571 64.0042 816.517 Q64.0042 823.074 59.0071 827.084 Q54.01 831.095 45.7664 831.095 Q37.491 831.095 32.4939 827.084 Q27.4968 823.074 27.4968 816.517 Q27.4968 812.571 29.0564 809.738 Q30.616 806.905 33.7671 805.091 L28.3562 805.091 L28.3562 799.234 L59.58 799.234 Z" fill="#000000" fill-rule="nonzero" fill-opacity="1"></path><path clip-path="url(#clip820)" d="M46.0847 770.971 Q46.0847 778.068 47.7079 780.806 Q49.3312 783.543 53.2461 783.543 Q56.3653 783.543 58.2114 781.506 Q60.0256 779.437 60.0256 775.904 Q60.0256 771.034 56.5881 768.106 Q53.1188 765.146 47.3897 765.146 L46.0847 765.146 L46.0847 770.971 M43.6657 759.29 L64.0042 759.29 L64.0042 765.146 L58.5933 765.146 Q61.8398 767.151 63.3994 770.143 Q64.9272 773.135 64.9272 777.464 Q64.9272 782.938 61.8716 786.185 Q58.7843 789.399 53.6281 789.399 Q47.6125 789.399 44.5569 785.389 Q41.5014 781.347 41.5014 773.358 L41.5014 765.146 L40.9285 765.146 Q36.8862 765.146 34.6901 767.82 Q32.4621 770.461 32.4621 775.268 Q32.4621 778.323 33.1941 781.219 Q33.9262 784.116 35.3903 786.789 L29.9795 786.789 Q28.7381 783.575 28.1334 780.551 Q27.4968 777.527 27.4968 774.663 Q27.4968 766.928 31.5072 763.109 Q35.5176 759.29 43.6657 759.29 Z" fill="#000000" fill-rule="nonzero" fill-opacity="1"></path><path clip-path="url(#clip820)" d="M58.657 741.561 L77.5631 741.561 L77.5631 747.449 L28.3562 747.449 L28.3562 741.561 L33.7671 741.561 Q30.5842 739.715 29.0564 736.914 Q27.4968 734.081 27.4968 730.166 Q27.4968 723.673 32.6531 719.631 Q37.8093 715.557 46.212 715.557 Q54.6147 715.557 59.771 719.631 Q64.9272 723.673 64.9272 730.166 Q64.9272 734.081 63.3994 736.914 Q61.8398 739.715 58.657 741.561 M46.212 721.636 Q39.7508 721.636 36.0905 724.31 Q32.3984 726.952 32.3984 731.599 Q32.3984 736.246 36.0905 738.919 Q39.7508 741.561 46.212 741.561 Q52.6732 741.561 56.3653 738.919 Q60.0256 736.246 60.0256 731.599 Q60.0256 726.952 56.3653 724.31 Q52.6732 721.636 46.212 721.636 Z" fill="#000000" fill-rule="nonzero" fill-opacity="1"></path><path clip-path="url(#clip820)" d="M977.936 43.6931 L977.936 65.8515 L991.061 65.8515 Q997.664 65.8515 1000.82 63.1374 Q1004.02 60.3828 1004.02 54.752 Q1004.02 49.0808 1000.82 46.4072 Q997.664 43.6931 991.061 43.6931 L977.936 43.6931 M977.936 18.8205 L977.936 37.0496 L990.048 37.0496 Q996.044 37.0496 998.96 34.8216 Q1001.92 32.5531 1001.92 27.935 Q1001.92 23.3575 998.96 21.089 Q996.044 18.8205 990.048 18.8205 L977.936 18.8205 M969.753 12.096 L990.656 12.096 Q1000.01 12.096 1005.08 15.9849 Q1010.14 19.8737 1010.14 27.0438 Q1010.14 32.5936 1007.55 35.8748 Q1004.96 39.156 999.932 39.9662 Q1005.97 41.2625 1009.29 45.3944 Q1012.65 49.4858 1012.65 55.6432 Q1012.65 63.745 1007.14 68.1605 Q1001.63 72.576 991.466 72.576 L969.753 72.576 L969.753 12.096 Z" fill="#000000" fill-rule="nonzero" fill-opacity="1"></path><path clip-path="url(#clip820)" d="M1043.93 32.4315 Q1037.93 32.4315 1034.45 37.1306 Q1030.96 41.7891 1030.96 49.9314 Q1030.96 58.0738 1034.41 62.7728 Q1037.89 67.4314 1043.93 67.4314 Q1049.88 67.4314 1053.36 62.7323 Q1056.85 58.0333 1056.85 49.9314 Q1056.85 41.8701 1053.36 37.1711 Q1049.88 32.4315 1043.93 32.4315 M1043.93 26.1121 Q1053.65 26.1121 1059.2 32.4315 Q1064.75 38.7509 1064.75 49.9314 Q1064.75 61.0714 1059.2 67.4314 Q1053.65 73.7508 1043.93 73.7508 Q1034.16 73.7508 1028.61 67.4314 Q1023.1 61.0714 1023.1 49.9314 Q1023.1 38.7509 1028.61 32.4315 Q1034.16 26.1121 1043.93 26.1121 Z" fill="#000000" fill-rule="nonzero" fill-opacity="1"></path><path clip-path="url(#clip820)" d="M1112.26 27.2059 L1095.86 49.2833 L1113.11 72.576 L1104.32 72.576 L1091.12 54.752 L1077.91 72.576 L1069.12 72.576 L1086.74 48.8377 L1070.62 27.2059 L1079.41 27.2059 L1091.44 43.369 L1103.47 27.2059 L1112.26 27.2059 Z" fill="#000000" fill-rule="nonzero" fill-opacity="1"></path><path clip-path="url(#clip820)" d="M1130.86 65.7705 L1130.86 89.8329 L1123.36 89.8329 L1123.36 27.2059 L1130.86 27.2059 L1130.86 34.0924 Q1133.21 30.0415 1136.77 28.0971 Q1140.38 26.1121 1145.36 26.1121 Q1153.62 26.1121 1158.77 32.6746 Q1163.95 39.2371 1163.95 49.9314 Q1163.95 60.6258 1158.77 67.1883 Q1153.62 73.7508 1145.36 73.7508 Q1140.38 73.7508 1136.77 71.8063 Q1133.21 69.8214 1130.86 65.7705 M1156.22 49.9314 Q1156.22 41.7081 1152.81 37.0496 Q1149.45 32.3505 1143.54 32.3505 Q1137.62 32.3505 1134.22 37.0496 Q1130.86 41.7081 1130.86 49.9314 Q1130.86 58.1548 1134.22 62.8538 Q1137.62 67.5124 1143.54 67.5124 Q1149.45 67.5124 1152.81 62.8538 Q1156.22 58.1548 1156.22 49.9314 Z" fill="#000000" fill-rule="nonzero" fill-opacity="1"></path><path clip-path="url(#clip820)" d="M1176.31 9.54393 L1183.76 9.54393 L1183.76 72.576 L1176.31 72.576 L1176.31 9.54393 Z" fill="#000000" fill-rule="nonzero" fill-opacity="1"></path><path clip-path="url(#clip820)" d="M1216.94 32.4315 Q1210.94 32.4315 1207.46 37.1306 Q1203.98 41.7891 1203.98 49.9314 Q1203.98 58.0738 1207.42 62.7728 Q1210.9 67.4314 1216.94 67.4314 Q1222.89 67.4314 1226.38 62.7323 Q1229.86 58.0333 1229.86 49.9314 Q1229.86 41.8701 1226.38 37.1711 Q1222.89 32.4315 1216.94 32.4315 M1216.94 26.1121 Q1226.66 26.1121 1232.21 32.4315 Q1237.76 38.7509 1237.76 49.9314 Q1237.76 61.0714 1232.21 67.4314 Q1226.66 73.7508 1216.94 73.7508 Q1207.18 73.7508 1201.63 67.4314 Q1196.12 61.0714 1196.12 49.9314 Q1196.12 38.7509 1201.63 32.4315 Q1207.18 26.1121 1216.94 26.1121 Z" fill="#000000" fill-rule="nonzero" fill-opacity="1"></path><path clip-path="url(#clip820)" d="M1257.49 14.324 L1257.49 27.2059 L1272.84 27.2059 L1272.84 32.9987 L1257.49 32.9987 L1257.49 57.6282 Q1257.49 63.1779 1258.99 64.7578 Q1260.53 66.3376 1265.19 66.3376 L1272.84 66.3376 L1272.84 72.576 L1265.19 72.576 Q1256.56 72.576 1253.28 69.3758 Q1249.99 66.1351 1249.99 57.6282 L1249.99 32.9987 L1244.53 32.9987 L1244.53 27.2059 L1249.99 27.2059 L1249.99 14.324 L1257.49 14.324 Z" fill="#000000" fill-rule="nonzero" fill-opacity="1"></path><path clip-path="url(#clip820)" d="M1326.6 32.4315 Q1320.6 32.4315 1317.12 37.1306 Q1313.63 41.7891 1313.63 49.9314 Q1313.63 58.0738 1317.08 62.7728 Q1320.56 67.4314 1326.6 67.4314 Q1332.55 67.4314 1336.04 62.7323 Q1339.52 58.0333 1339.52 49.9314 Q1339.52 41.8701 1336.04 37.1711 Q1332.55 32.4315 1326.6 32.4315 M1326.6 26.1121 Q1336.32 26.1121 1341.87 32.4315 Q1347.42 38.7509 1347.42 49.9314 Q1347.42 61.0714 1341.87 67.4314 Q1336.32 73.7508 1326.6 73.7508 Q1316.83 73.7508 1311.28 67.4314 Q1305.78 61.0714 1305.78 49.9314 Q1305.78 38.7509 1311.28 32.4315 Q1316.83 26.1121 1326.6 26.1121 Z" fill="#000000" fill-rule="nonzero" fill-opacity="1"></path><path clip-path="url(#clip820)" d="M1382.74 9.54393 L1382.74 15.7418 L1375.61 15.7418 Q1371.6 15.7418 1370.02 17.3622 Q1368.48 18.9825 1368.48 23.1955 L1368.48 27.2059 L1380.76 27.2059 L1380.76 32.9987 L1368.48 32.9987 L1368.48 72.576 L1360.99 72.576 L1360.99 32.9987 L1353.86 32.9987 L1353.86 27.2059 L1360.99 27.2059 L1360.99 24.0462 Q1360.99 16.471 1364.51 13.0277 Q1368.04 9.54393 1375.69 9.54393 L1382.74 9.54393 Z" fill="#000000" fill-rule="nonzero" fill-opacity="1"></path><path clip-path="url(#clip820)" d="M1445.21 49.3643 Q1445.21 41.2625 1441.85 36.8065 Q1438.52 32.3505 1432.49 32.3505 Q1426.49 32.3505 1423.13 36.8065 Q1419.81 41.2625 1419.81 49.3643 Q1419.81 57.4256 1423.13 61.8816 Q1426.49 66.3376 1432.49 66.3376 Q1438.52 66.3376 1441.85 61.8816 Q1445.21 57.4256 1445.21 49.3643 M1452.66 66.9452 Q1452.66 78.5308 1447.52 84.1616 Q1442.37 89.8329 1431.76 89.8329 Q1427.83 89.8329 1424.35 89.2252 Q1420.86 88.6581 1417.58 87.4428 L1417.58 80.1917 Q1420.86 81.9741 1424.06 82.8248 Q1427.26 83.6755 1430.58 83.6755 Q1437.92 83.6755 1441.56 79.8271 Q1445.21 76.0193 1445.21 68.282 L1445.21 64.5957 Q1442.9 68.6061 1439.29 70.5911 Q1435.69 72.576 1430.67 72.576 Q1422.32 72.576 1417.22 66.2161 Q1412.11 59.8562 1412.11 49.3643 Q1412.11 38.832 1417.22 32.472 Q1422.32 26.1121 1430.67 26.1121 Q1435.69 26.1121 1439.29 28.0971 Q1442.9 30.082 1445.21 34.0924 L1445.21 27.2059 L1452.66 27.2059 L1452.66 66.9452 Z" fill="#000000" fill-rule="nonzero" fill-opacity="1"></path><path clip-path="url(#clip820)" d="M1488.63 49.7694 Q1479.6 49.7694 1476.12 51.8354 Q1472.63 53.9013 1472.63 58.8839 Q1472.63 62.8538 1475.23 65.2034 Q1477.86 67.5124 1482.35 67.5124 Q1488.55 67.5124 1492.28 63.1374 Q1496.05 58.7219 1496.05 51.4303 L1496.05 49.7694 L1488.63 49.7694 M1503.5 46.6907 L1503.5 72.576 L1496.05 72.576 L1496.05 65.6895 Q1493.49 69.8214 1489.69 71.8063 Q1485.88 73.7508 1480.37 73.7508 Q1473.4 73.7508 1469.27 69.8619 Q1465.18 65.9325 1465.18 59.3701 Q1465.18 51.7138 1470.28 47.825 Q1475.43 43.9361 1485.6 43.9361 L1496.05 43.9361 L1496.05 43.2069 Q1496.05 38.0623 1492.64 35.2672 Q1489.28 32.4315 1483.16 32.4315 Q1479.28 32.4315 1475.59 33.3632 Q1471.9 34.295 1468.5 36.1584 L1468.5 29.2718 Q1472.59 27.692 1476.44 26.9223 Q1480.29 26.1121 1483.93 26.1121 Q1493.78 26.1121 1498.64 31.2163 Q1503.5 36.3204 1503.5 46.6907 Z" fill="#000000" fill-rule="nonzero" fill-opacity="1"></path><path clip-path="url(#clip820)" d="M1526.06 65.7705 L1526.06 89.8329 L1518.57 89.8329 L1518.57 27.2059 L1526.06 27.2059 L1526.06 34.0924 Q1528.41 30.0415 1531.98 28.0971 Q1535.58 26.1121 1540.57 26.1121 Q1548.83 26.1121 1553.97 32.6746 Q1559.16 39.2371 1559.16 49.9314 Q1559.16 60.6258 1553.97 67.1883 Q1548.83 73.7508 1540.57 73.7508 Q1535.58 73.7508 1531.98 71.8063 Q1528.41 69.8214 1526.06 65.7705 M1551.42 49.9314 Q1551.42 41.7081 1548.02 37.0496 Q1544.66 32.3505 1538.74 32.3505 Q1532.83 32.3505 1529.43 37.0496 Q1526.06 41.7081 1526.06 49.9314 Q1526.06 58.1548 1529.43 62.8538 Q1532.83 67.5124 1538.74 67.5124 Q1544.66 67.5124 1548.02 62.8538 Q1551.42 58.1548 1551.42 49.9314 Z" fill="#000000" fill-rule="nonzero" fill-opacity="1"></path><path clip-path="url(#clip820)" d="M1600.44 28.5427 L1600.44 35.5912 Q1597.28 33.9709 1593.88 33.1607 Q1590.47 32.3505 1586.83 32.3505 Q1581.28 32.3505 1578.48 34.0519 Q1575.73 35.7533 1575.73 39.156 Q1575.73 41.7486 1577.71 43.2475 Q1579.7 44.7058 1585.69 46.0426 L1588.25 46.6097 Q1596.19 48.3111 1599.51 51.4303 Q1602.87 54.509 1602.87 60.0587 Q1602.87 66.3781 1597.85 70.0644 Q1592.86 73.7508 1584.11 73.7508 Q1580.47 73.7508 1576.5 73.0216 Q1572.57 72.3329 1568.19 70.9151 L1568.19 63.2184 Q1572.33 65.3654 1576.34 66.4591 Q1580.35 67.5124 1584.28 67.5124 Q1589.54 67.5124 1592.38 65.73 Q1595.21 63.9071 1595.21 60.6258 Q1595.21 57.5877 1593.15 55.9673 Q1591.12 54.3469 1584.19 52.8481 L1581.6 52.2405 Q1574.67 50.7821 1571.6 47.7845 Q1568.52 44.7463 1568.52 39.4801 Q1568.52 33.0797 1573.05 29.5959 Q1577.59 26.1121 1585.94 26.1121 Q1590.07 26.1121 1593.71 26.7198 Q1597.36 27.3274 1600.44 28.5427 Z" fill="#000000" fill-rule="nonzero" fill-opacity="1"></path><path clip-path="url(#clip822)" d="M492.037 1314.01 L386.134 1314.01 L597.941 1314.01 L492.037 1314.01 L492.037 1021.16 L492.037 1314.01  Z" fill="#009af9" fill-rule="evenodd" fill-opacity="1"></path>
<polyline clip-path="url(#clip822)" style="stroke:#000000; stroke-linecap:round; stroke-linejoin:round; stroke-width:4; stroke-opacity:1; fill:none" points="492.037,1314.01 386.134,1314.01 597.941,1314.01 492.037,1314.01 492.037,1021.16 492.037,1314.01 "></polyline>
<path clip-path="url(#clip822)" d="M703.844 1021.16 L703.844 907.009 L280.231 907.009 L280.231 1021.16 L703.844 1021.16 L703.844 907.009 L703.844 1021.16  Z" fill="#009af9" fill-rule="evenodd" fill-opacity="1"></path>
<polyline clip-path="url(#clip822)" style="stroke:#000000; stroke-linecap:round; stroke-linejoin:round; stroke-width:4; stroke-opacity:1; fill:none" points="703.844,1021.16 703.844,907.009 280.231,907.009 280.231,1021.16 703.844,1021.16 703.844,907.009 703.844,1021.16 "></polyline>
<path clip-path="url(#clip822)" d="M703.844 762.98 L280.231 762.98 L280.231 907.009 L703.844 907.009 L703.844 762.98 L492.037 762.98 L703.844 762.98  Z" fill="#009af9" fill-rule="evenodd" fill-opacity="1"></path>
<polyline clip-path="url(#clip822)" style="stroke:#000000; stroke-linecap:round; stroke-linejoin:round; stroke-width:4; stroke-opacity:1; fill:none" points="703.844,762.98 280.231,762.98 280.231,907.009 703.844,907.009 703.844,762.98 492.037,762.98 703.844,762.98 "></polyline>
<path clip-path="url(#clip822)" d="M492.037 483.445 L386.134 483.445 L597.941 483.445 L492.037 483.445 L492.037 762.98 L492.037 483.445  Z" fill="#009af9" fill-rule="evenodd" fill-opacity="1"></path>
<polyline clip-path="url(#clip822)" style="stroke:#000000; stroke-linecap:round; stroke-linejoin:round; stroke-width:4; stroke-opacity:1; fill:none" points="492.037,483.445 386.134,483.445 597.941,483.445 492.037,483.445 492.037,762.98 492.037,483.445 "></polyline>
<circle clip-path="url(#clip822)" cx="492.037" cy="264.605" r="14.4" fill="#009af9" fill-rule="evenodd" fill-opacity="1" stroke="#000000" stroke-opacity="1" stroke-width="3.2"></circle>
<polyline clip-path="url(#clip822)" style="stroke:#009af9; stroke-linecap:round; stroke-linejoin:round; stroke-width:0; stroke-opacity:1; fill:none" points="492.037,1314.01 386.134,1314.01 597.941,1314.01 492.037,1314.01 492.037,1021.16 "></polyline>
<polyline clip-path="url(#clip822)" style="stroke:#009af9; stroke-linecap:round; stroke-linejoin:round; stroke-width:0; stroke-opacity:1; fill:none" points="703.844,1021.16 703.844,907.009 280.231,907.009 280.231,1021.16 703.844,1021.16 703.844,907.009 "></polyline>
<polyline clip-path="url(#clip822)" style="stroke:#009af9; stroke-linecap:round; stroke-linejoin:round; stroke-width:0; stroke-opacity:1; fill:none" points="703.844,762.98 280.231,762.98 280.231,907.009 703.844,907.009 703.844,762.98 492.037,762.98 "></polyline>
<polyline clip-path="url(#clip822)" style="stroke:#009af9; stroke-linecap:round; stroke-linejoin:round; stroke-width:0; stroke-opacity:1; fill:none" points="492.037,483.445 386.134,483.445 597.941,483.445 492.037,483.445 492.037,762.98 "></polyline>
<path clip-path="url(#clip822)" d="M1021.55 1386.4 L915.65 1386.4 L1127.46 1386.4 L1021.55 1386.4 L1021.55 1200.97 L1021.55 1386.4  Z" fill="#e26f46" fill-rule="evenodd" fill-opacity="1"></path>
<polyline clip-path="url(#clip822)" style="stroke:#000000; stroke-linecap:round; stroke-linejoin:round; stroke-width:4; stroke-opacity:1; fill:none" points="1021.55,1386.4 915.65,1386.4 1127.46,1386.4 1021.55,1386.4 1021.55,1200.97 1021.55,1386.4 "></polyline>
<path clip-path="url(#clip822)" d="M1233.36 1200.97 L1233.36 1107.29 L809.747 1107.29 L809.747 1200.97 L1233.36 1200.97 L1233.36 1107.29 L1233.36 1200.97  Z" fill="#e26f46" fill-rule="evenodd" fill-opacity="1"></path>
<polyline clip-path="url(#clip822)" style="stroke:#000000; stroke-linecap:round; stroke-linejoin:round; stroke-width:4; stroke-opacity:1; fill:none" points="1233.36,1200.97 1233.36,1107.29 809.747,1107.29 809.747,1200.97 1233.36,1200.97 1233.36,1107.29 1233.36,1200.97 "></polyline>
<path clip-path="url(#clip822)" d="M1233.36 1004.75 L809.747 1004.75 L809.747 1107.29 L1233.36 1107.29 L1233.36 1004.75 L1021.55 1004.75 L1233.36 1004.75  Z" fill="#e26f46" fill-rule="evenodd" fill-opacity="1"></path>
<polyline clip-path="url(#clip822)" style="stroke:#000000; stroke-linecap:round; stroke-linejoin:round; stroke-width:4; stroke-opacity:1; fill:none" points="1233.36,1004.75 809.747,1004.75 809.747,1107.29 1233.36,1107.29 1233.36,1004.75 1021.55,1004.75 1233.36,1004.75 "></polyline>
<path clip-path="url(#clip822)" d="M1021.55 720.671 L915.65 720.671 L1127.46 720.671 L1021.55 720.671 L1021.55 1004.75 L1021.55 720.671  Z" fill="#e26f46" fill-rule="evenodd" fill-opacity="1"></path>
<polyline clip-path="url(#clip822)" style="stroke:#000000; stroke-linecap:round; stroke-linejoin:round; stroke-width:4; stroke-opacity:1; fill:none" points="1021.55,720.671 915.65,720.671 1127.46,720.671 1021.55,720.671 1021.55,1004.75 1021.55,720.671 "></polyline>
<circle clip-path="url(#clip822)" cx="1021.55" cy="684.798" r="14.4" fill="#e26f46" fill-rule="evenodd" fill-opacity="1" stroke="#000000" stroke-opacity="1" stroke-width="3.2"></circle>
<polyline clip-path="url(#clip822)" style="stroke:#e26f46; stroke-linecap:round; stroke-linejoin:round; stroke-width:0; stroke-opacity:1; fill:none" points="1021.55,1386.4 915.65,1386.4 1127.46,1386.4 1021.55,1386.4 1021.55,1200.97 "></polyline>
<polyline clip-path="url(#clip822)" style="stroke:#e26f46; stroke-linecap:round; stroke-linejoin:round; stroke-width:0; stroke-opacity:1; fill:none" points="1233.36,1200.97 1233.36,1107.29 809.747,1107.29 809.747,1200.97 1233.36,1200.97 1233.36,1107.29 "></polyline>
<polyline clip-path="url(#clip822)" style="stroke:#e26f46; stroke-linecap:round; stroke-linejoin:round; stroke-width:0; stroke-opacity:1; fill:none" points="1233.36,1004.75 809.747,1004.75 809.747,1107.29 1233.36,1107.29 1233.36,1004.75 1021.55,1004.75 "></polyline>
<polyline clip-path="url(#clip822)" style="stroke:#e26f46; stroke-linecap:round; stroke-linejoin:round; stroke-width:0; stroke-opacity:1; fill:none" points="1021.55,720.671 915.65,720.671 1127.46,720.671 1021.55,720.671 1021.55,1004.75 "></polyline>
<path clip-path="url(#clip822)" d="M1551.07 1351.17 L1445.17 1351.17 L1656.97 1351.17 L1551.07 1351.17 L1551.07 1061.97 L1551.07 1351.17  Z" fill="#3da44d" fill-rule="evenodd" fill-opacity="1"></path>
<polyline clip-path="url(#clip822)" style="stroke:#000000; stroke-linecap:round; stroke-linejoin:round; stroke-width:4; stroke-opacity:1; fill:none" points="1551.07,1351.17 1445.17,1351.17 1656.97,1351.17 1551.07,1351.17 1551.07,1061.97 1551.07,1351.17 "></polyline>
<path clip-path="url(#clip822)" d="M1762.88 1061.97 L1762.88 896.558 L1339.26 896.558 L1339.26 1061.97 L1762.88 1061.97 L1762.88 896.558 L1762.88 1061.97  Z" fill="#3da44d" fill-rule="evenodd" fill-opacity="1"></path>
<polyline clip-path="url(#clip822)" style="stroke:#000000; stroke-linecap:round; stroke-linejoin:round; stroke-width:4; stroke-opacity:1; fill:none" points="1762.88,1061.97 1762.88,896.558 1339.26,896.558 1339.26,1061.97 1762.88,1061.97 1762.88,896.558 1762.88,1061.97 "></polyline>
<path clip-path="url(#clip822)" d="M1762.88 765.35 L1339.26 765.35 L1339.26 896.558 L1762.88 896.558 L1762.88 765.35 L1551.07 765.35 L1762.88 765.35  Z" fill="#3da44d" fill-rule="evenodd" fill-opacity="1"></path>
<polyline clip-path="url(#clip822)" style="stroke:#000000; stroke-linecap:round; stroke-linejoin:round; stroke-width:4; stroke-opacity:1; fill:none" points="1762.88,765.35 1339.26,765.35 1339.26,896.558 1762.88,896.558 1762.88,765.35 1551.07,765.35 1762.88,765.35 "></polyline>
<path clip-path="url(#clip822)" d="M1551.07 369.644 L1445.17 369.644 L1656.97 369.644 L1551.07 369.644 L1551.07 765.35 L1551.07 369.644  Z" fill="#3da44d" fill-rule="evenodd" fill-opacity="1"></path>
<polyline clip-path="url(#clip822)" style="stroke:#000000; stroke-linecap:round; stroke-linejoin:round; stroke-width:4; stroke-opacity:1; fill:none" points="1551.07,369.644 1445.17,369.644 1656.97,369.644 1551.07,369.644 1551.07,765.35 1551.07,369.644 "></polyline>
<circle clip-path="url(#clip822)" cx="1551.07" cy="255.033" r="14.4" fill="#3da44d" fill-rule="evenodd" fill-opacity="1" stroke="#000000" stroke-opacity="1" stroke-width="3.2"></circle>
<circle clip-path="url(#clip822)" cx="1551.07" cy="160.256" r="14.4" fill="#3da44d" fill-rule="evenodd" fill-opacity="1" stroke="#000000" stroke-opacity="1" stroke-width="3.2"></circle>
<polyline clip-path="url(#clip822)" style="stroke:#3da44d; stroke-linecap:round; stroke-linejoin:round; stroke-width:0; stroke-opacity:1; fill:none" points="1551.07,1351.17 1445.17,1351.17 1656.97,1351.17 1551.07,1351.17 1551.07,1061.97 "></polyline>
<polyline clip-path="url(#clip822)" style="stroke:#3da44d; stroke-linecap:round; stroke-linejoin:round; stroke-width:0; stroke-opacity:1; fill:none" points="1762.88,1061.97 1762.88,896.558 1339.26,896.558 1339.26,1061.97 1762.88,1061.97 1762.88,896.558 "></polyline>
<polyline clip-path="url(#clip822)" style="stroke:#3da44d; stroke-linecap:round; stroke-linejoin:round; stroke-width:0; stroke-opacity:1; fill:none" points="1762.88,765.35 1339.26,765.35 1339.26,896.558 1762.88,896.558 1762.88,765.35 1551.07,765.35 "></polyline>
<polyline clip-path="url(#clip822)" style="stroke:#3da44d; stroke-linecap:round; stroke-linejoin:round; stroke-width:0; stroke-opacity:1; fill:none" points="1551.07,369.644 1445.17,369.644 1656.97,369.644 1551.07,369.644 1551.07,765.35 "></polyline>
<path clip-path="url(#clip822)" d="M2080.58 1386.2 L1974.68 1386.2 L2186.49 1386.2 L2080.58 1386.2 L2080.58 1136.95 L2080.58 1386.2  Z" fill="#c271d2" fill-rule="evenodd" fill-opacity="1"></path>
<polyline clip-path="url(#clip822)" style="stroke:#000000; stroke-linecap:round; stroke-linejoin:round; stroke-width:4; stroke-opacity:1; fill:none" points="2080.58,1386.2 1974.68,1386.2 2186.49,1386.2 2080.58,1386.2 2080.58,1136.95 2080.58,1386.2 "></polyline>
<path clip-path="url(#clip822)" d="M2292.39 1136.95 L2292.39 1029.59 L1868.78 1029.59 L1868.78 1136.95 L2292.39 1136.95 L2292.39 1029.59 L2292.39 1136.95  Z" fill="#c271d2" fill-rule="evenodd" fill-opacity="1"></path>
<polyline clip-path="url(#clip822)" style="stroke:#000000; stroke-linecap:round; stroke-linejoin:round; stroke-width:4; stroke-opacity:1; fill:none" points="2292.39,1136.95 2292.39,1029.59 1868.78,1029.59 1868.78,1136.95 2292.39,1136.95 2292.39,1029.59 2292.39,1136.95 "></polyline>
<path clip-path="url(#clip822)" d="M2292.39 920.187 L1868.78 920.187 L1868.78 1029.59 L2292.39 1029.59 L2292.39 920.187 L2080.58 920.187 L2292.39 920.187  Z" fill="#c271d2" fill-rule="evenodd" fill-opacity="1"></path>
<polyline clip-path="url(#clip822)" style="stroke:#000000; stroke-linecap:round; stroke-linejoin:round; stroke-width:4; stroke-opacity:1; fill:none" points="2292.39,920.187 1868.78,920.187 1868.78,1029.59 2292.39,1029.59 2292.39,920.187 2080.58,920.187 2292.39,920.187 "></polyline>
<path clip-path="url(#clip822)" d="M2080.58 647.48 L1974.68 647.48 L2186.49 647.48 L2080.58 647.48 L2080.58 920.187 L2080.58 647.48  Z" fill="#c271d2" fill-rule="evenodd" fill-opacity="1"></path>
<polyline clip-path="url(#clip822)" style="stroke:#000000; stroke-linecap:round; stroke-linejoin:round; stroke-width:4; stroke-opacity:1; fill:none" points="2080.58,647.48 1974.68,647.48 2186.49,647.48 2080.58,647.48 2080.58,920.187 2080.58,647.48 "></polyline>
<circle clip-path="url(#clip822)" cx="2080.58" cy="564.118" r="14.4" fill="#c271d2" fill-rule="evenodd" fill-opacity="1" stroke="#000000" stroke-opacity="1" stroke-width="3.2"></circle>
<circle clip-path="url(#clip822)" cx="2080.58" cy="430.209" r="14.4" fill="#c271d2" fill-rule="evenodd" fill-opacity="1" stroke="#000000" stroke-opacity="1" stroke-width="3.2"></circle>
<polyline clip-path="url(#clip822)" style="stroke:#c271d2; stroke-linecap:round; stroke-linejoin:round; stroke-width:0; stroke-opacity:1; fill:none" points="2080.58,1386.2 1974.68,1386.2 2186.49,1386.2 2080.58,1386.2 2080.58,1136.95 "></polyline>
<polyline clip-path="url(#clip822)" style="stroke:#c271d2; stroke-linecap:round; stroke-linejoin:round; stroke-width:0; stroke-opacity:1; fill:none" points="2292.39,1136.95 2292.39,1029.59 1868.78,1029.59 1868.78,1136.95 2292.39,1136.95 2292.39,1029.59 "></polyline>
<polyline clip-path="url(#clip822)" style="stroke:#c271d2; stroke-linecap:round; stroke-linejoin:round; stroke-width:0; stroke-opacity:1; fill:none" points="2292.39,920.187 1868.78,920.187 1868.78,1029.59 2292.39,1029.59 2292.39,920.187 2080.58,920.187 "></polyline>
<polyline clip-path="url(#clip822)" style="stroke:#c271d2; stroke-linecap:round; stroke-linejoin:round; stroke-width:0; stroke-opacity:1; fill:none" points="2080.58,647.48 1974.68,647.48 2186.49,647.48 2080.58,647.48 2080.58,920.187 "></polyline>
<path clip-path="url(#clip820)" d="M1969.97 425.996 L2281.66 425.996 L2281.66 166.796 L1969.97 166.796  Z" fill="#ffffff" fill-rule="evenodd" fill-opacity="1"></path>
<polyline clip-path="url(#clip820)" style="stroke:#000000; stroke-linecap:round; stroke-linejoin:round; stroke-width:4; stroke-opacity:1; fill:none" points="1969.97,425.996 2281.66,425.996 2281.66,166.796 1969.97,166.796 1969.97,425.996 "></polyline>
<path clip-path="url(#clip820)" d="M1993.67 239.372 L2135.86 239.372 L2135.86 197.9 L1993.67 197.9 L1993.67 239.372  Z" fill="#009af9" fill-rule="evenodd" fill-opacity="1"></path>
<polyline clip-path="url(#clip820)" style="stroke:#000000; stroke-linecap:round; stroke-linejoin:round; stroke-width:4; stroke-opacity:1; fill:none" points="1993.67,239.372 2135.86,239.372 2135.86,197.9 1993.67,197.9 1993.67,239.372 "></polyline>
<path clip-path="url(#clip820)" d="M2185.11 230.985 L2185.11 221.703 L2177.48 221.703 L2177.48 217.86 L2189.74 217.86 L2189.74 232.698 Q2187.04 234.619 2183.77 235.615 Q2180.51 236.587 2176.8 236.587 Q2168.7 236.587 2164.12 231.865 Q2159.56 227.119 2159.56 218.67 Q2159.56 210.198 2164.12 205.476 Q2168.7 200.731 2176.8 200.731 Q2180.18 200.731 2183.22 201.564 Q2186.27 202.397 2188.84 204.018 L2188.84 208.995 Q2186.25 206.796 2183.33 205.684 Q2180.41 204.573 2177.2 204.573 Q2170.85 204.573 2167.66 208.115 Q2164.49 211.657 2164.49 218.67 Q2164.49 225.661 2167.66 229.203 Q2170.85 232.744 2177.2 232.744 Q2179.67 232.744 2181.62 232.328 Q2183.56 231.888 2185.11 230.985 Z" fill="#000000" fill-rule="nonzero" fill-opacity="1"></path><path clip-path="url(#clip820)" d="M2202.96 205.198 L2202.96 218.184 L2208.84 218.184 Q2212.1 218.184 2213.89 216.495 Q2215.67 214.805 2215.67 211.68 Q2215.67 208.578 2213.89 206.888 Q2212.1 205.198 2208.84 205.198 L2202.96 205.198 M2198.29 201.356 L2208.84 201.356 Q2214.65 201.356 2217.61 203.995 Q2220.6 206.61 2220.6 211.68 Q2220.6 216.795 2217.61 219.411 Q2214.65 222.027 2208.84 222.027 L2202.96 222.027 L2202.96 235.916 L2198.29 235.916 L2198.29 201.356 Z" fill="#000000" fill-rule="nonzero" fill-opacity="1"></path><path clip-path="url(#clip820)" d="M1993.67 291.212 L2135.86 291.212 L2135.86 249.74 L1993.67 249.74 L1993.67 291.212  Z" fill="#e26f46" fill-rule="evenodd" fill-opacity="1"></path>
<polyline clip-path="url(#clip820)" style="stroke:#000000; stroke-linecap:round; stroke-linejoin:round; stroke-width:4; stroke-opacity:1; fill:none" points="1993.67,291.212 2135.86,291.212 2135.86,249.74 1993.67,249.74 1993.67,291.212 "></polyline>
<path clip-path="url(#clip820)" d="M2159.56 253.196 L2181.41 253.196 L2181.41 257.131 L2164.23 257.131 L2164.23 267.362 L2180.69 267.362 L2180.69 271.297 L2164.23 271.297 L2164.23 283.821 L2181.83 283.821 L2181.83 287.756 L2159.56 287.756 L2159.56 253.196 Z" fill="#000000" fill-rule="nonzero" fill-opacity="1"></path><path clip-path="url(#clip820)" d="M2193.96 283.821 L2210.28 283.821 L2210.28 287.756 L2188.33 287.756 L2188.33 283.821 Q2190.99 281.066 2195.58 276.436 Q2200.18 271.784 2201.36 270.441 Q2203.61 267.918 2204.49 266.182 Q2205.39 264.423 2205.39 262.733 Q2205.39 259.978 2203.45 258.242 Q2201.53 256.506 2198.42 256.506 Q2196.23 256.506 2193.77 257.27 Q2191.34 258.034 2188.56 259.585 L2188.56 254.862 Q2191.39 253.728 2193.84 253.149 Q2196.29 252.571 2198.33 252.571 Q2203.7 252.571 2206.9 255.256 Q2210.09 257.941 2210.09 262.432 Q2210.09 264.561 2209.28 266.483 Q2208.49 268.381 2206.39 270.973 Q2205.81 271.645 2202.71 274.862 Q2199.6 278.057 2193.96 283.821 Z" fill="#000000" fill-rule="nonzero" fill-opacity="1"></path><path clip-path="url(#clip820)" d="M2219.67 253.196 L2241.53 253.196 L2241.53 257.131 L2224.35 257.131 L2224.35 267.362 L2240.81 267.362 L2240.81 271.297 L2224.35 271.297 L2224.35 283.821 L2241.94 283.821 L2241.94 287.756 L2219.67 287.756 L2219.67 253.196 Z" fill="#000000" fill-rule="nonzero" fill-opacity="1"></path><path clip-path="url(#clip820)" d="M1993.67 343.052 L2135.86 343.052 L2135.86 301.58 L1993.67 301.58 L1993.67 343.052  Z" fill="#3da44d" fill-rule="evenodd" fill-opacity="1"></path>
<polyline clip-path="url(#clip820)" style="stroke:#000000; stroke-linecap:round; stroke-linejoin:round; stroke-width:4; stroke-opacity:1; fill:none" points="1993.67,343.052 2135.86,343.052 2135.86,301.58 1993.67,301.58 1993.67,343.052 "></polyline>
<path clip-path="url(#clip820)" d="M2159.56 305.036 L2164.28 305.036 L2171.55 334.249 L2178.79 305.036 L2184.05 305.036 L2191.32 334.249 L2198.56 305.036 L2203.31 305.036 L2194.63 339.596 L2188.75 339.596 L2181.46 309.596 L2174.1 339.596 L2168.22 339.596 L2159.56 305.036 Z" fill="#000000" fill-rule="nonzero" fill-opacity="1"></path><path clip-path="url(#clip820)" d="M2214.19 308.878 L2214.19 321.864 L2220.07 321.864 Q2223.33 321.864 2225.11 320.175 Q2226.9 318.485 2226.9 315.36 Q2226.9 312.258 2225.11 310.568 Q2223.33 308.878 2220.07 308.878 L2214.19 308.878 M2209.51 305.036 L2220.07 305.036 Q2225.88 305.036 2228.84 307.675 Q2231.83 310.29 2231.83 315.36 Q2231.83 320.475 2228.84 323.091 Q2225.88 325.707 2220.07 325.707 L2214.19 325.707 L2214.19 339.596 L2209.51 339.596 L2209.51 305.036 Z" fill="#000000" fill-rule="nonzero" fill-opacity="1"></path><path clip-path="url(#clip820)" d="M2238.1 305.036 L2257.96 305.036 L2257.96 308.971 L2242.78 308.971 L2242.78 319.156 L2256.48 319.156 L2256.48 323.091 L2242.78 323.091 L2242.78 339.596 L2238.1 339.596 L2238.1 305.036 Z" fill="#000000" fill-rule="nonzero" fill-opacity="1"></path><path clip-path="url(#clip820)" d="M1993.67 394.892 L2135.86 394.892 L2135.86 353.42 L1993.67 353.42 L1993.67 394.892  Z" fill="#c271d2" fill-rule="evenodd" fill-opacity="1"></path>
<polyline clip-path="url(#clip820)" style="stroke:#000000; stroke-linecap:round; stroke-linejoin:round; stroke-width:4; stroke-opacity:1; fill:none" points="1993.67,394.892 2135.86,394.892 2135.86,353.42 1993.67,353.42 1993.67,394.892 "></polyline>
<path clip-path="url(#clip820)" d="M2181.8 358.01 L2181.8 362.57 Q2179.14 361.297 2176.78 360.672 Q2174.42 360.047 2172.22 360.047 Q2168.4 360.047 2166.32 361.528 Q2164.26 363.01 2164.26 365.741 Q2164.26 368.033 2165.62 369.214 Q2167.01 370.371 2170.85 371.089 L2173.68 371.667 Q2178.91 372.663 2181.39 375.186 Q2183.89 377.686 2183.89 381.899 Q2183.89 386.922 2180.51 389.514 Q2177.15 392.107 2170.65 392.107 Q2168.19 392.107 2165.42 391.551 Q2162.66 390.996 2159.7 389.908 L2159.7 385.093 Q2162.54 386.69 2165.28 387.501 Q2168.01 388.311 2170.65 388.311 Q2174.65 388.311 2176.83 386.737 Q2179 385.163 2179 382.246 Q2179 379.7 2177.43 378.264 Q2175.88 376.829 2172.31 376.112 L2169.47 375.556 Q2164.23 374.515 2161.9 372.292 Q2159.56 370.07 2159.56 366.112 Q2159.56 361.528 2162.78 358.89 Q2166.02 356.251 2171.69 356.251 Q2174.12 356.251 2176.64 356.691 Q2179.16 357.13 2181.8 358.01 Z" fill="#000000" fill-rule="nonzero" fill-opacity="1"></path><path clip-path="url(#clip820)" d="M2195.85 360.718 L2195.85 373.704 L2201.73 373.704 Q2205 373.704 2206.78 372.015 Q2208.56 370.325 2208.56 367.2 Q2208.56 364.098 2206.78 362.408 Q2205 360.718 2201.73 360.718 L2195.85 360.718 M2191.18 356.876 L2201.73 356.876 Q2207.54 356.876 2210.51 359.515 Q2213.49 362.13 2213.49 367.2 Q2213.49 372.315 2210.51 374.931 Q2207.54 377.547 2201.73 377.547 L2195.85 377.547 L2195.85 391.436 L2191.18 391.436 L2191.18 356.876 Z" fill="#000000" fill-rule="nonzero" fill-opacity="1"></path><path clip-path="url(#clip820)" d="M2214.97 356.876 L2244.21 356.876 L2244.21 360.811 L2231.94 360.811 L2231.94 391.436 L2227.24 391.436 L2227.24 360.811 L2214.97 360.811 L2214.97 356.876 Z" fill="#000000" fill-rule="nonzero" fill-opacity="1"></path></svg>