<svg xmlns="http://www.w3.org/2000/svg" xmlns:xlink="http://www.w3.org/1999/xlink" width="600" height="400" viewBox="0 0 2400 1600">
<defs>
  <clipPath id="clip440">
    <rect x="0" y="0" width="2400" height="1600"></rect>
  </clipPath>
</defs>
<path clip-path="url(#clip440)" d="M0 1600 L2400 1600 L2400 0 L0 0  Z" fill="#ffffff" fill-rule="evenodd" fill-opacity="1"></path>
<defs>
  <clipPath id="clip441">
    <rect x="480" y="0" width="1681" height="1600"></rect>
  </clipPath>
</defs>
<path clip-path="url(#clip440)" d="M219.866 1423.18 L2352.76 1423.18 L2352.76 123.472 L219.866 123.472  Z" fill="#ffffff" fill-rule="evenodd" fill-opacity="1"></path>
<defs>
  <clipPath id="clip442">
    <rect x="219" y="123" width="2134" height="1301"></rect>
  </clipPath>
</defs>
<polyline clip-path="url(#clip442)" style="stroke:#000000; stroke-linecap:round; stroke-linejoin:round; stroke-width:2; stroke-opacity:0.1; fill:none" points="492.037,1423.18 492.037,123.472 "></polyline>
<polyline clip-path="url(#clip442)" style="stroke:#000000; stroke-linecap:round; stroke-linejoin:round; stroke-width:2; stroke-opacity:0.1; fill:none" points="1021.55,1423.18 1021.55,123.472 "></polyline>
<polyline clip-path="url(#clip442)" style="stroke:#000000; stroke-linecap:round; stroke-linejoin:round; stroke-width:2; stroke-opacity:0.1; fill:none" points="1551.07,1423.18 1551.07,123.472 "></polyline>
<polyline clip-path="url(#clip442)" style="stroke:#000000; stroke-linecap:round; stroke-linejoin:round; stroke-width:2; stroke-opacity:0.1; fill:none" points="2080.58,1423.18 2080.58,123.472 "></polyline>
<polyline clip-path="url(#clip440)" style="stroke:#000000; stroke-linecap:round; stroke-linejoin:round; stroke-width:4; stroke-opacity:1; fill:none" points="219.866,1423.18 2352.76,1423.18 "></polyline>
<polyline clip-path="url(#clip440)" style="stroke:#000000; stroke-linecap:round; stroke-linejoin:round; stroke-width:4; stroke-opacity:1; fill:none" points="492.037,1423.18 492.037,1404.28 "></polyline>
<polyline clip-path="url(#clip440)" style="stroke:#000000; stroke-linecap:round; stroke-linejoin:round; stroke-width:4; stroke-opacity:1; fill:none" points="1021.55,1423.18 1021.55,1404.28 "></polyline>
<polyline clip-path="url(#clip440)" style="stroke:#000000; stroke-linecap:round; stroke-linejoin:round; stroke-width:4; stroke-opacity:1; fill:none" points="1551.07,1423.18 1551.07,1404.28 "></polyline>
<polyline clip-path="url(#clip440)" style="stroke:#000000; stroke-linecap:round; stroke-linejoin:round; stroke-width:4; stroke-opacity:1; fill:none" points="2080.58,1423.18 2080.58,1404.28 "></polyline>
<path clip-path="url(#clip440)" d="M482.419 1481.64 L490.058 1481.64 L490.058 1455.28 L481.748 1456.95 L481.748 1452.69 L490.012 1451.02 L494.688 1451.02 L494.688 1481.64 L502.327 1481.64 L502.327 1485.58 L482.419 1485.58 L482.419 1481.64 Z" fill="#000000" fill-rule="nonzero" fill-opacity="1"></path><path clip-path="url(#clip440)" d="M1016.21 1481.64 L1032.53 1481.64 L1032.53 1485.58 L1010.58 1485.58 L1010.58 1481.64 Q1013.24 1478.89 1017.83 1474.26 Q1022.43 1469.61 1023.61 1468.27 Q1025.86 1465.74 1026.74 1464.01 Q1027.64 1462.25 1027.64 1460.56 Q1027.64 1457.8 1025.7 1456.07 Q1023.78 1454.33 1020.67 1454.33 Q1018.47 1454.33 1016.02 1455.09 Q1013.59 1455.86 1010.81 1457.41 L1010.81 1452.69 Q1013.64 1451.55 1016.09 1450.97 Q1018.54 1450.39 1020.58 1450.39 Q1025.95 1450.39 1029.15 1453.08 Q1032.34 1455.77 1032.34 1460.26 Q1032.34 1462.39 1031.53 1464.31 Q1030.74 1466.2 1028.64 1468.8 Q1028.06 1469.47 1024.96 1472.69 Q1021.85 1475.88 1016.21 1481.64 Z" fill="#000000" fill-rule="nonzero" fill-opacity="1"></path><path clip-path="url(#clip440)" d="M1555.32 1466.95 Q1558.67 1467.66 1560.55 1469.93 Q1562.45 1472.2 1562.45 1475.53 Q1562.45 1480.65 1558.93 1483.45 Q1555.41 1486.25 1548.93 1486.25 Q1546.75 1486.25 1544.44 1485.81 Q1542.15 1485.39 1539.69 1484.54 L1539.69 1480.02 Q1541.64 1481.16 1543.95 1481.74 Q1546.27 1482.32 1548.79 1482.32 Q1553.19 1482.32 1555.48 1480.58 Q1557.79 1478.84 1557.79 1475.53 Q1557.79 1472.48 1555.64 1470.77 Q1553.51 1469.03 1549.69 1469.03 L1545.66 1469.03 L1545.66 1465.19 L1549.88 1465.19 Q1553.33 1465.19 1555.15 1463.82 Q1556.98 1462.43 1556.98 1459.84 Q1556.98 1457.18 1555.09 1455.77 Q1553.21 1454.33 1549.69 1454.33 Q1547.77 1454.33 1545.57 1454.75 Q1543.37 1455.16 1540.73 1456.04 L1540.73 1451.88 Q1543.4 1451.14 1545.71 1450.77 Q1548.05 1450.39 1550.11 1450.39 Q1555.43 1450.39 1558.53 1452.83 Q1561.64 1455.23 1561.64 1459.35 Q1561.64 1462.22 1559.99 1464.21 Q1558.35 1466.18 1555.32 1466.95 Z" fill="#000000" fill-rule="nonzero" fill-opacity="1"></path><path clip-path="url(#clip440)" d="M2083.59 1455.09 L2071.79 1473.54 L2083.59 1473.54 L2083.59 1455.09 M2082.37 1451.02 L2088.25 1451.02 L2088.25 1473.54 L2093.18 1473.54 L2093.18 1477.43 L2088.25 1477.43 L2088.25 1485.58 L2083.59 1485.58 L2083.59 1477.43 L2067.99 1477.43 L2067.99 1472.92 L2082.37 1451.02 Z" fill="#000000" fill-rule="nonzero" fill-opacity="1"></path><path clip-path="url(#clip440)" d="M1218.82 1539.24 Q1221.01 1535.29 1224.07 1533.41 Q1227.13 1531.54 1231.26 1531.54 Q1236.83 1531.54 1239.86 1535.45 Q1242.88 1539.33 1242.88 1546.53 L1242.88 1568.04 L1236.99 1568.04 L1236.99 1546.72 Q1236.99 1541.59 1235.18 1539.11 Q1233.36 1536.63 1229.64 1536.63 Q1225.09 1536.63 1222.45 1539.65 Q1219.81 1542.68 1219.81 1547.9 L1219.81 1568.04 L1213.92 1568.04 L1213.92 1546.72 Q1213.92 1541.56 1212.1 1539.11 Q1210.29 1536.63 1206.5 1536.63 Q1202.01 1536.63 1199.37 1539.68 Q1196.73 1542.71 1196.73 1547.9 L1196.73 1568.04 L1190.84 1568.04 L1190.84 1532.4 L1196.73 1532.4 L1196.73 1537.93 Q1198.73 1534.66 1201.54 1533.1 Q1204.34 1531.54 1208.19 1531.54 Q1212.07 1531.54 1214.78 1533.51 Q1217.51 1535.48 1218.82 1539.24 Z" fill="#000000" fill-rule="nonzero" fill-opacity="1"></path><path clip-path="url(#clip440)" d="M1268.38 1536.5 Q1263.67 1536.5 1260.93 1540.19 Q1258.19 1543.85 1258.19 1550.25 Q1258.19 1556.65 1260.9 1560.34 Q1263.63 1564 1268.38 1564 Q1273.05 1564 1275.79 1560.31 Q1278.53 1556.62 1278.53 1550.25 Q1278.53 1543.92 1275.79 1540.23 Q1273.05 1536.5 1268.38 1536.5 M1268.38 1531.54 Q1276.01 1531.54 1280.38 1536.5 Q1284.74 1541.47 1284.74 1550.25 Q1284.74 1559 1280.38 1564 Q1276.01 1568.97 1268.38 1568.97 Q1260.71 1568.97 1256.34 1564 Q1252.02 1559 1252.02 1550.25 Q1252.02 1541.47 1256.34 1536.5 Q1260.71 1531.54 1268.38 1531.54 Z" fill="#000000" fill-rule="nonzero" fill-opacity="1"></path><path clip-path="url(#clip440)" d="M1317.9 1537.81 L1317.9 1518.52 L1323.76 1518.52 L1323.76 1568.04 L1317.9 1568.04 L1317.9 1562.7 Q1316.05 1565.88 1313.22 1567.44 Q1310.42 1568.97 1306.47 1568.97 Q1300.01 1568.97 1295.94 1563.81 Q1291.9 1558.65 1291.9 1550.25 Q1291.9 1541.85 1295.94 1536.69 Q1300.01 1531.54 1306.47 1531.54 Q1310.42 1531.54 1313.22 1533.1 Q1316.05 1534.62 1317.9 1537.81 M1297.94 1550.25 Q1297.94 1556.71 1300.59 1560.4 Q1303.26 1564.07 1307.91 1564.07 Q1312.55 1564.07 1315.23 1560.4 Q1317.9 1556.71 1317.9 1550.25 Q1317.9 1543.79 1315.23 1540.13 Q1312.55 1536.44 1307.91 1536.44 Q1303.26 1536.44 1300.59 1540.13 Q1297.94 1543.79 1297.94 1550.25 Z" fill="#000000" fill-rule="nonzero" fill-opacity="1"></path><path clip-path="url(#clip440)" d="M1366.31 1548.76 L1366.31 1551.62 L1339.39 1551.62 Q1339.77 1557.67 1343.01 1560.85 Q1346.29 1564 1352.12 1564 Q1355.49 1564 1358.64 1563.17 Q1361.82 1562.35 1364.94 1560.69 L1364.94 1566.23 Q1361.79 1567.57 1358.48 1568.27 Q1355.17 1568.97 1351.77 1568.97 Q1343.24 1568.97 1338.24 1564 Q1333.27 1559.04 1333.27 1550.57 Q1333.27 1541.82 1337.98 1536.69 Q1342.73 1531.54 1350.75 1531.54 Q1357.94 1531.54 1362.11 1536.18 Q1366.31 1540.8 1366.31 1548.76 M1360.46 1547.04 Q1360.39 1542.23 1357.75 1539.37 Q1355.14 1536.5 1350.81 1536.5 Q1345.91 1536.5 1342.95 1539.27 Q1340.02 1542.04 1339.58 1547.07 L1360.46 1547.04 Z" fill="#000000" fill-rule="nonzero" fill-opacity="1"></path><path clip-path="url(#clip440)" d="M1375.92 1518.52 L1381.78 1518.52 L1381.78 1568.04 L1375.92 1568.04 L1375.92 1518.52 Z" fill="#000000" fill-rule="nonzero" fill-opacity="1"></path><polyline clip-path="url(#clip442)" style="stroke:#000000; stroke-linecap:round; stroke-linejoin:round; stroke-width:2; stroke-opacity:0.1; fill:none" points="219.866,1410.46 2352.76,1410.46 "></polyline>
<polyline clip-path="url(#clip442)" style="stroke:#000000; stroke-linecap:round; stroke-linejoin:round; stroke-width:2; stroke-opacity:0.1; fill:none" points="219.866,1084.7 2352.76,1084.7 "></polyline>
<polyline clip-path="url(#clip442)" style="stroke:#000000; stroke-linecap:round; stroke-linejoin:round; stroke-width:2; stroke-opacity:0.1; fill:none" points="219.866,758.942 2352.76,758.942 "></polyline>
<polyline clip-path="url(#clip442)" style="stroke:#000000; stroke-linecap:round; stroke-linejoin:round; stroke-width:2; stroke-opacity:0.1; fill:none" points="219.866,433.185 2352.76,433.185 "></polyline>
<polyline clip-path="url(#clip440)" style="stroke:#000000; stroke-linecap:round; stroke-linejoin:round; stroke-width:4; stroke-opacity:1; fill:none" points="219.866,1423.18 219.866,123.472 "></polyline>
<polyline clip-path="url(#clip440)" style="stroke:#000000; stroke-linecap:round; stroke-linejoin:round; stroke-width:4; stroke-opacity:1; fill:none" points="219.866,1410.46 238.764,1410.46 "></polyline>
<polyline clip-path="url(#clip440)" style="stroke:#000000; stroke-linecap:round; stroke-linejoin:round; stroke-width:4; stroke-opacity:1; fill:none" points="219.866,1084.7 238.764,1084.7 "></polyline>
<polyline clip-path="url(#clip440)" style="stroke:#000000; stroke-linecap:round; stroke-linejoin:round; stroke-width:4; stroke-opacity:1; fill:none" points="219.866,758.942 238.764,758.942 "></polyline>
<polyline clip-path="url(#clip440)" style="stroke:#000000; stroke-linecap:round; stroke-linejoin:round; stroke-width:4; stroke-opacity:1; fill:none" points="219.866,433.185 238.764,433.185 "></polyline>
<path clip-path="url(#clip440)" d="M128.288 1396.26 Q124.677 1396.26 122.848 1399.82 Q121.043 1403.36 121.043 1410.49 Q121.043 1417.6 122.848 1421.16 Q124.677 1424.7 128.288 1424.7 Q131.922 1424.7 133.728 1421.16 Q135.556 1417.6 135.556 1410.49 Q135.556 1403.36 133.728 1399.82 Q131.922 1396.26 128.288 1396.26 M128.288 1392.55 Q134.098 1392.55 137.154 1397.16 Q140.232 1401.74 140.232 1410.49 Q140.232 1419.22 137.154 1423.82 Q134.098 1428.41 128.288 1428.41 Q122.478 1428.41 119.399 1423.82 Q116.343 1419.22 116.343 1410.49 Q116.343 1401.74 119.399 1397.16 Q122.478 1392.55 128.288 1392.55 Z" fill="#000000" fill-rule="nonzero" fill-opacity="1"></path><path clip-path="url(#clip440)" d="M148.45 1421.86 L153.334 1421.86 L153.334 1427.74 L148.45 1427.74 L148.45 1421.86 Z" fill="#000000" fill-rule="nonzero" fill-opacity="1"></path><path clip-path="url(#clip440)" d="M167.547 1423.8 L183.866 1423.8 L183.866 1427.74 L161.922 1427.74 L161.922 1423.8 Q164.584 1421.05 169.167 1416.42 Q173.774 1411.76 174.954 1410.42 Q177.2 1407.9 178.079 1406.16 Q178.982 1404.4 178.982 1402.71 Q178.982 1399.96 177.038 1398.22 Q175.116 1396.49 172.014 1396.49 Q169.815 1396.49 167.362 1397.25 Q164.931 1398.01 162.153 1399.57 L162.153 1394.84 Q164.977 1393.71 167.431 1393.13 Q169.885 1392.55 171.922 1392.55 Q177.292 1392.55 180.487 1395.24 Q183.681 1397.92 183.681 1402.41 Q183.681 1404.54 182.871 1406.46 Q182.084 1408.36 179.977 1410.95 Q179.399 1411.63 176.297 1414.84 Q173.195 1418.04 167.547 1423.8 Z" fill="#000000" fill-rule="nonzero" fill-opacity="1"></path><path clip-path="url(#clip440)" d="M126.205 1070.5 Q122.593 1070.5 120.765 1074.06 Q118.959 1077.6 118.959 1084.73 Q118.959 1091.84 120.765 1095.41 Q122.593 1098.95 126.205 1098.95 Q129.839 1098.95 131.644 1095.41 Q133.473 1091.84 133.473 1084.73 Q133.473 1077.6 131.644 1074.06 Q129.839 1070.5 126.205 1070.5 M126.205 1066.79 Q132.015 1066.79 135.07 1071.4 Q138.149 1075.98 138.149 1084.73 Q138.149 1093.46 135.07 1098.07 Q132.015 1102.65 126.205 1102.65 Q120.394 1102.65 117.316 1098.07 Q114.26 1093.46 114.26 1084.73 Q114.26 1075.98 117.316 1071.4 Q120.394 1066.79 126.205 1066.79 Z" fill="#000000" fill-rule="nonzero" fill-opacity="1"></path><path clip-path="url(#clip440)" d="M146.366 1096.1 L151.251 1096.1 L151.251 1101.98 L146.366 1101.98 L146.366 1096.1 Z" fill="#000000" fill-rule="nonzero" fill-opacity="1"></path><path clip-path="url(#clip440)" d="M174.283 1071.49 L162.477 1089.94 L174.283 1089.94 L174.283 1071.49 M173.056 1067.42 L178.936 1067.42 L178.936 1089.94 L183.866 1089.94 L183.866 1093.83 L178.936 1093.83 L178.936 1101.98 L174.283 1101.98 L174.283 1093.83 L158.681 1093.83 L158.681 1089.32 L173.056 1067.42 Z" fill="#000000" fill-rule="nonzero" fill-opacity="1"></path><path clip-path="url(#clip440)" d="M126.529 744.741 Q122.918 744.741 121.089 748.306 Q119.283 751.847 119.283 758.977 Q119.283 766.083 121.089 769.648 Q122.918 773.19 126.529 773.19 Q130.163 773.19 131.968 769.648 Q133.797 766.083 133.797 758.977 Q133.797 751.847 131.968 748.306 Q130.163 744.741 126.529 744.741 M126.529 741.037 Q132.339 741.037 135.394 745.644 Q138.473 750.227 138.473 758.977 Q138.473 767.704 135.394 772.31 Q132.339 776.894 126.529 776.894 Q120.718 776.894 117.64 772.31 Q114.584 767.704 114.584 758.977 Q114.584 750.227 117.64 745.644 Q120.718 741.037 126.529 741.037 Z" fill="#000000" fill-rule="nonzero" fill-opacity="1"></path><path clip-path="url(#clip440)" d="M146.691 770.343 L151.575 770.343 L151.575 776.222 L146.691 776.222 L146.691 770.343 Z" fill="#000000" fill-rule="nonzero" fill-opacity="1"></path><path clip-path="url(#clip440)" d="M172.339 757.079 Q169.19 757.079 167.339 759.232 Q165.51 761.384 165.51 765.134 Q165.51 768.861 167.339 771.037 Q169.19 773.19 172.339 773.19 Q175.487 773.19 177.315 771.037 Q179.167 768.861 179.167 765.134 Q179.167 761.384 177.315 759.232 Q175.487 757.079 172.339 757.079 M181.621 742.426 L181.621 746.685 Q179.862 745.852 178.056 745.412 Q176.274 744.972 174.514 744.972 Q169.885 744.972 167.431 748.097 Q165.001 751.222 164.653 757.542 Q166.019 755.528 168.079 754.463 Q170.139 753.375 172.616 753.375 Q177.825 753.375 180.834 756.546 Q183.866 759.695 183.866 765.134 Q183.866 770.458 180.718 773.676 Q177.57 776.894 172.339 776.894 Q166.343 776.894 163.172 772.31 Q160.001 767.704 160.001 758.977 Q160.001 750.783 163.89 745.922 Q167.778 741.037 174.329 741.037 Q176.089 741.037 177.871 741.384 Q179.676 741.732 181.621 742.426 Z" fill="#000000" fill-rule="nonzero" fill-opacity="1"></path><path clip-path="url(#clip440)" d="M126.783 418.984 Q123.172 418.984 121.343 422.549 Q119.538 426.09 119.538 433.22 Q119.538 440.326 121.343 443.891 Q123.172 447.433 126.783 447.433 Q130.417 447.433 132.223 443.891 Q134.052 440.326 134.052 433.22 Q134.052 426.09 132.223 422.549 Q130.417 418.984 126.783 418.984 M126.783 415.28 Q132.593 415.28 135.649 419.886 Q138.728 424.47 138.728 433.22 Q138.728 441.947 135.649 446.553 Q132.593 451.136 126.783 451.136 Q120.973 451.136 117.894 446.553 Q114.839 441.947 114.839 433.22 Q114.839 424.47 117.894 419.886 Q120.973 415.28 126.783 415.28 Z" fill="#000000" fill-rule="nonzero" fill-opacity="1"></path><path clip-path="url(#clip440)" d="M146.945 444.585 L151.829 444.585 L151.829 450.465 L146.945 450.465 L146.945 444.585 Z" fill="#000000" fill-rule="nonzero" fill-opacity="1"></path><path clip-path="url(#clip440)" d="M172.014 434.053 Q168.681 434.053 166.76 435.835 Q164.862 437.618 164.862 440.743 Q164.862 443.868 166.76 445.65 Q168.681 447.433 172.014 447.433 Q175.348 447.433 177.269 445.65 Q179.19 443.845 179.19 440.743 Q179.19 437.618 177.269 435.835 Q175.371 434.053 172.014 434.053 M167.339 432.062 Q164.329 431.322 162.64 429.261 Q160.973 427.201 160.973 424.238 Q160.973 420.095 163.913 417.687 Q166.876 415.28 172.014 415.28 Q177.176 415.28 180.116 417.687 Q183.056 420.095 183.056 424.238 Q183.056 427.201 181.366 429.261 Q179.7 431.322 176.714 432.062 Q180.093 432.849 181.968 435.141 Q183.866 437.433 183.866 440.743 Q183.866 445.766 180.788 448.451 Q177.732 451.136 172.014 451.136 Q166.297 451.136 163.218 448.451 Q160.163 445.766 160.163 440.743 Q160.163 437.433 162.061 435.141 Q163.959 432.849 167.339 432.062 M165.626 424.678 Q165.626 427.363 167.292 428.868 Q168.982 430.373 172.014 430.373 Q175.024 430.373 176.714 428.868 Q178.426 427.363 178.426 424.678 Q178.426 421.993 176.714 420.488 Q175.024 418.984 172.014 418.984 Q168.982 418.984 167.292 420.488 Q165.626 421.993 165.626 424.678 Z" fill="#000000" fill-rule="nonzero" fill-opacity="1"></path><path clip-path="url(#clip440)" d="M45.7664 805.091 Q39.4007 805.091 35.8996 807.733 Q32.3984 810.343 32.3984 815.085 Q32.3984 819.796 35.8996 822.437 Q39.4007 825.047 45.7664 825.047 Q52.1003 825.047 55.6014 822.437 Q59.1026 819.796 59.1026 815.085 Q59.1026 810.343 55.6014 807.733 Q52.1003 805.091 45.7664 805.091 M59.58 799.234 Q68.683 799.234 73.1071 803.277 Q77.5631 807.319 77.5631 815.658 Q77.5631 818.745 77.0857 821.483 Q76.6401 824.22 75.6852 826.798 L69.9879 826.798 Q71.3884 824.22 72.0568 821.705 Q72.7252 819.191 72.7252 816.581 Q72.7252 810.82 69.7015 807.955 Q66.7096 805.091 60.6303 805.091 L57.7339 805.091 Q60.885 806.905 62.4446 809.738 Q64.0042 812.571 64.0042 816.517 Q64.0042 823.074 59.0071 827.084 Q54.01 831.095 45.7664 831.095 Q37.491 831.095 32.4939 827.084 Q27.4968 823.074 27.4968 816.517 Q27.4968 812.571 29.0564 809.738 Q30.616 806.905 33.7671 805.091 L28.3562 805.091 L28.3562 799.234 L59.58 799.234 Z" fill="#000000" fill-rule="nonzero" fill-opacity="1"></path><path clip-path="url(#clip440)" d="M46.0847 770.971 Q46.0847 778.068 47.7079 780.806 Q49.3312 783.543 53.2461 783.543 Q56.3653 783.543 58.2114 781.506 Q60.0256 779.437 60.0256 775.904 Q60.0256 771.034 56.5881 768.106 Q53.1188 765.146 47.3897 765.146 L46.0847 765.146 L46.0847 770.971 M43.6657 759.29 L64.0042 759.29 L64.0042 765.146 L58.5933 765.146 Q61.8398 767.151 63.3994 770.143 Q64.9272 773.135 64.9272 777.464 Q64.9272 782.938 61.8716 786.185 Q58.7843 789.399 53.6281 789.399 Q47.6125 789.399 44.5569 785.389 Q41.5014 781.347 41.5014 773.358 L41.5014 765.146 L40.9285 765.146 Q36.8862 765.146 34.6901 767.82 Q32.4621 770.461 32.4621 775.268 Q32.4621 778.323 33.1941 781.219 Q33.9262 784.116 35.3903 786.789 L29.9795 786.789 Q28.7381 783.575 28.1334 780.551 Q27.4968 777.527 27.4968 774.663 Q27.4968 766.928 31.5072 763.109 Q35.5176 759.29 43.6657 759.29 Z" fill="#000000" fill-rule="nonzero" fill-opacity="1"></path><path clip-path="url(#clip440)" d="M58.657 741.561 L77.5631 741.561 L77.5631 747.449 L28.3562 747.449 L28.3562 741.561 L33.7671 741.561 Q30.5842 739.715 29.0564 736.914 Q27.4968 734.081 27.4968 730.166 Q27.4968 723.673 32.6531 719.631 Q37.8093 715.557 46.212 715.557 Q54.6147 715.557 59.771 719.631 Q64.9272 723.673 64.9272 730.166 Q64.9272 734.081 63.3994 736.914 Q61.8398 739.715 58.657 741.561 M46.212 721.636 Q39.7508 721.636 36.0905 724.31 Q32.3984 726.952 32.3984 731.599 Q32.3984 736.246 36.0905 738.919 Q39.7508 741.561 46.212 741.561 Q52.6732 741.561 56.3653 738.919 Q60.0256 736.246 60.0256 731.599 Q60.0256 726.952 56.3653 724.31 Q52.6732 721.636 46.212 721.636 Z" fill="#000000" fill-rule="nonzero" fill-opacity="1"></path><path clip-path="url(#clip440)" d="M977.936 43.6931 L977.936 65.8515 L991.061 65.8515 Q997.664 65.8515 1000.82 63.1374 Q1004.02 60.3828 1004.02 54.752 Q1004.02 49.0808 1000.82 46.4072 Q997.664 43.6931 991.061 43.6931 L977.936 43.6931 M977.936 18.8205 L977.936 37.0496 L990.048 37.0496 Q996.044 37.0496 998.96 34.8216 Q1001.92 32.5531 1001.92 27.935 Q1001.92 23.3575 998.96 21.089 Q996.044 18.8205 990.048 18.8205 L977.936 18.8205 M969.753 12.096 L990.656 12.096 Q1000.01 12.096 1005.08 15.9849 Q1010.14 19.8737 1010.14 27.0438 Q1010.14 32.5936 1007.55 35.8748 Q1004.96 39.156 999.932 39.9662 Q1005.97 41.2625 1009.29 45.3944 Q1012.65 49.4858 1012.65 55.6432 Q1012.65 63.745 1007.14 68.1605 Q1001.63 72.576 991.466 72.576 L969.753 72.576 L969.753 12.096 Z" fill="#000000" fill-rule="nonzero" fill-opacity="1"></path><path clip-path="url(#clip440)" d="M1043.93 32.4315 Q1037.93 32.4315 1034.45 37.1306 Q1030.96 41.7891 1030.96 49.9314 Q1030.96 58.0738 1034.41 62.7728 Q1037.89 67.4314 1043.93 67.4314 Q1049.88 67.4314 1053.36 62.7323 Q1056.85 58.0333 1056.85 49.9314 Q1056.85 41.8701 1053.36 37.1711 Q1049.88 32.4315 1043.93 32.4315 M1043.93 26.1121 Q1053.65 26.1121 1059.2 32.4315 Q1064.75 38.7509 1064.75 49.9314 Q1064.75 61.0714 1059.2 67.4314 Q1053.65 73.7508 1043.93 73.7508 Q1034.16 73.7508 1028.61 67.4314 Q1023.1 61.0714 1023.1 49.9314 Q1023.1 38.7509 1028.61 32.4315 Q1034.16 26.1121 1043.93 26.1121 Z" fill="#000000" fill-rule="nonzero" fill-opacity="1"></path><path clip-path="url(#clip440)" d="M1112.26 27.2059 L1095.86 49.2833 L1113.11 72.576 L1104.32 72.576 L1091.12 54.752 L1077.91 72.576 L1069.12 72.576 L1086.74 48.8377 L1070.62 27.2059 L1079.41 27.2059 L1091.44 43.369 L1103.47 27.2059 L1112.26 27.2059 Z" fill="#000000" fill-rule="nonzero" fill-opacity="1"></path><path clip-path="url(#clip440)" d="M1130.86 65.7705 L1130.86 89.8329 L1123.36 89.8329 L1123.36 27.2059 L1130.86 27.2059 L1130.86 34.0924 Q1133.21 30.0415 1136.77 28.0971 Q1140.38 26.1121 1145.36 26.1121 Q1153.62 26.1121 1158.77 32.6746 Q1163.95 39.2371 1163.95 49.9314 Q1163.95 60.6258 1158.77 67.1883 Q1153.62 73.7508 1145.36 73.7508 Q1140.38 73.7508 1136.77 71.8063 Q1133.21 69.8214 1130.86 65.7705 M1156.22 49.9314 Q1156.22 41.7081 1152.81 37.0496 Q1149.45 32.3505 1143.54 32.3505 Q1137.62 32.3505 1134.22 37.0496 Q1130.86 41.7081 1130.86 49.9314 Q1130.86 58.1548 1134.22 62.8538 Q1137.62 67.5124 1143.54 67.5124 Q1149.45 67.5124 1152.81 62.8538 Q1156.22 58.1548 1156.22 49.9314 Z" fill="#000000" fill-rule="nonzero" fill-opacity="1"></path><path clip-path="url(#clip440)" d="M1176.31 9.54393 L1183.76 9.54393 L1183.76 72.576 L1176.31 72.576 L1176.31 9.54393 Z" fill="#000000" fill-rule="nonzero" fill-opacity="1"></path><path clip-path="url(#clip440)" d="M1216.94 32.4315 Q1210.94 32.4315 1207.46 37.1306 Q1203.98 41.7891 1203.98 49.9314 Q1203.98 58.0738 1207.42 62.7728 Q1210.9 67.4314 1216.94 67.4314 Q1222.89 67.4314 1226.38 62.7323 Q1229.86 58.0333 1229.86 49.9314 Q1229.86 41.8701 1226.38 37.1711 Q1222.89 32.4315 1216.94 32.4315 M1216.94 26.1121 Q1226.66 26.1121 1232.21 32.4315 Q1237.76 38.7509 1237.76 49.9314 Q1237.76 61.0714 1232.21 67.4314 Q1226.66 73.7508 1216.94 73.7508 Q1207.18 73.7508 1201.63 67.4314 Q1196.12 61.0714 1196.12 49.9314 Q1196.12 38.7509 1201.63 32.4315 Q1207.18 26.1121 1216.94 26.1121 Z" fill="#000000" fill-rule="nonzero" fill-opacity="1"></path><path clip-path="url(#clip440)" d="M1257.49 14.324 L1257.49 27.2059 L1272.84 27.2059 L1272.84 32.9987 L1257.49 32.9987 L1257.49 57.6282 Q1257.49 63.1779 1258.99 64.7578 Q1260.53 66.3376 1265.19 66.3376 L1272.84 66.3376 L1272.84 72.576 L1265.19 72.576 Q1256.56 72.576 1253.28 69.3758 Q1249.99 66.1351 1249.99 57.6282 L1249.99 32.9987 L1244.53 32.9987 L1244.53 27.2059 L1249.99 27.2059 L1249.99 14.324 L1257.49 14.324 Z" fill="#000000" fill-rule="nonzero" fill-opacity="1"></path><path clip-path="url(#clip440)" d="M1326.6 32.4315 Q1320.6 32.4315 1317.12 37.1306 Q1313.63 41.7891 1313.63 49.9314 Q1313.63 58.0738 1317.08 62.7728 Q1320.56 67.4314 1326.6 67.4314 Q1332.55 67.4314 1336.04 62.7323 Q1339.52 58.0333 1339.52 49.9314 Q1339.52 41.8701 1336.04 37.1711 Q1332.55 32.4315 1326.6 32.4315 M1326.6 26.1121 Q1336.32 26.1121 1341.87 32.4315 Q1347.42 38.7509 1347.42 49.9314 Q1347.42 61.0714 1341.87 67.4314 Q1336.32 73.7508 1326.6 73.7508 Q1316.83 73.7508 1311.28 67.4314 Q1305.78 61.0714 1305.78 49.9314 Q1305.78 38.7509 1311.28 32.4315 Q1316.83 26.1121 1326.6 26.1121 Z" fill="#000000" fill-rule="nonzero" fill-opacity="1"></path><path clip-path="url(#clip440)" d="M1382.74 9.54393 L1382.74 15.7418 L1375.61 15.7418 Q1371.6 15.7418 1370.02 17.3622 Q1368.48 18.9825 1368.48 23.1955 L1368.48 27.2059 L1380.76 27.2059 L1380.76 32.9987 L1368.48 32.9987 L1368.48 72.576 L1360.99 72.576 L1360.99 32.9987 L1353.86 32.9987 L1353.86 27.2059 L1360.99 27.2059 L1360.99 24.0462 Q1360.99 16.471 1364.51 13.0277 Q1368.04 9.54393 1375.69 9.54393 L1382.74 9.54393 Z" fill="#000000" fill-rule="nonzero" fill-opacity="1"></path><path clip-path="url(#clip440)" d="M1445.21 49.3643 Q1445.21 41.2625 1441.85 36.8065 Q1438.52 32.3505 1432.49 32.3505 Q1426.49 32.3505 1423.13 36.8065 Q1419.81 41.2625 1419.81 49.3643 Q1419.81 57.4256 1423.13 61.8816 Q1426.49 66.3376 1432.49 66.3376 Q1438.52 66.3376 1441.85 61.8816 Q1445.21 57.4256 1445.21 49.3643 M1452.66 66.9452 Q1452.66 78.5308 1447.52 84.1616 Q1442.37 89.8329 1431.76 89.8329 Q1427.83 89.8329 1424.35 89.2252 Q1420.86 88.6581 1417.58 87.4428 L1417.58 80.1917 Q1420.86 81.9741 1424.06 82.8248 Q1427.26 83.6755 1430.58 83.6755 Q1437.92 83.6755 1441.56 79.8271 Q1445.21 76.0193 1445.21 68.282 L1445.21 64.5957 Q1442.9 68.6061 1439.29 70.5911 Q1435.69 72.576 1430.67 72.576 Q1422.32 72.576 1417.22 66.2161 Q1412.11 59.8562 1412.11 49.3643 Q1412.11 38.832 1417.22 32.472 Q1422.32 26.1121 1430.67 26.1121 Q1435.69 26.1121 1439.29 28.0971 Q1442.9 30.082 1445.21 34.0924 L1445.21 27.2059 L1452.66 27.2059 L1452.66 66.9452 Z" fill="#000000" fill-rule="nonzero" fill-opacity="1"></path><path clip-path="url(#clip440)" d="M1488.63 49.7694 Q1479.6 49.7694 1476.12 51.8354 Q1472.63 53.9013 1472.63 58.8839 Q1472.63 62.8538 1475.23 65.2034 Q1477.86 67.5124 1482.35 67.5124 Q1488.55 67.5124 1492.28 63.1374 Q1496.05 58.7219 1496.05 51.4303 L1496.05 49.7694 L1488.63 49.7694 M1503.5 46.6907 L1503.5 72.576 L1496.05 72.576 L1496.05 65.6895 Q1493.49 69.8214 1489.69 71.8063 Q1485.88 73.7508 1480.37 73.7508 Q1473.4 73.7508 1469.27 69.8619 Q1465.18 65.9325 1465.18 59.3701 Q1465.18 51.7138 1470.28 47.825 Q1475.43 43.9361 1485.6 43.9361 L1496.05 43.9361 L1496.05 43.2069 Q1496.05 38.0623 1492.64 35.2672 Q1489.28 32.4315 1483.16 32.4315 Q1479.28 32.4315 1475.59 33.3632 Q1471.9 34.295 1468.5 36.1584 L1468.5 29.2718 Q1472.59 27.692 1476.44 26.9223 Q1480.29 26.1121 1483.93 26.1121 Q1493.78 26.1121 1498.64 31.2163 Q1503.5 36.3204 1503.5 46.6907 Z" fill="#000000" fill-rule="nonzero" fill-opacity="1"></path><path clip-path="url(#clip440)" d="M1526.06 65.7705 L1526.06 89.8329 L1518.57 89.8329 L1518.57 27.2059 L1526.06 27.2059 L1526.06 34.0924 Q1528.41 30.0415 1531.98 28.0971 Q1535.58 26.1121 1540.57 26.1121 Q1548.83 26.1121 1553.97 32.6746 Q1559.16 39.2371 1559.16 49.9314 Q1559.16 60.6258 1553.97 67.1883 Q1548.83 73.7508 1540.57 73.7508 Q1535.58 73.7508 1531.98 71.8063 Q1528.41 69.8214 1526.06 65.7705 M1551.42 49.9314 Q1551.42 41.7081 1548.02 37.0496 Q1544.66 32.3505 1538.74 32.3505 Q1532.83 32.3505 1529.43 37.0496 Q1526.06 41.7081 1526.06 49.9314 Q1526.06 58.1548 1529.43 62.8538 Q1532.83 67.5124 1538.74 67.5124 Q1544.66 67.5124 1548.02 62.8538 Q1551.42 58.1548 1551.42 49.9314 Z" fill="#000000" fill-rule="nonzero" fill-opacity="1"></path><path clip-path="url(#clip440)" d="M1600.44 28.5427 L1600.44 35.5912 Q1597.28 33.9709 1593.88 33.1607 Q1590.47 32.3505 1586.83 32.3505 Q1581.28 32.3505 1578.48 34.0519 Q1575.73 35.7533 1575.73 39.156 Q1575.73 41.7486 1577.71 43.2475 Q1579.7 44.7058 1585.69 46.0426 L1588.25 46.6097 Q1596.19 48.3111 1599.51 51.4303 Q1602.87 54.509 1602.87 60.0587 Q1602.87 66.3781 1597.85 70.0644 Q1592.86 73.7508 1584.11 73.7508 Q1580.47 73.7508 1576.5 73.0216 Q1572.57 72.3329 1568.19 70.9151 L1568.19 63.2184 Q1572.33 65.3654 1576.34 66.4591 Q1580.35 67.5124 1584.28 67.5124 Q1589.54 67.5124 1592.38 65.73 Q1595.21 63.9071 1595.21 60.6258 Q1595.21 57.5877 1593.15 55.9673 Q1591.12 54.3469 1584.19 52.8481 L1581.6 52.2405 Q1574.67 50.7821 1571.6 47.7845 Q1568.52 44.7463 1568.52 39.4801 Q1568.52 33.0797 1573.05 29.5959 Q1577.59 26.1121 1585.94 26.1121 Q1590.07 26.1121 1593.71 26.7198 Q1597.36 27.3274 1600.44 28.5427 Z" fill="#000000" fill-rule="nonzero" fill-opacity="1"></path><path clip-path="url(#clip442)" d="M492.037 1307.05 L386.134 1307.05 L597.941 1307.05 L492.037 1307.05 L492.037 1003.12 L492.037 1307.05  Z" fill="#009af9" fill-rule="evenodd" fill-opacity="1"></path>
<polyline clip-path="url(#clip442)" style="stroke:#000000; stroke-linecap:round; stroke-linejoin:round; stroke-width:4; stroke-opacity:1; fill:none" points="492.037,1307.05 386.134,1307.05 597.941,1307.05 492.037,1307.05 492.037,1003.12 492.037,1307.05 "></polyline>
<path clip-path="url(#clip442)" d="M703.844 1003.12 L703.844 873.651 L280.231 873.651 L280.231 1003.12 L703.844 1003.12 L703.844 873.651 L703.844 1003.12  Z" fill="#009af9" fill-rule="evenodd" fill-opacity="1"></path>
<polyline clip-path="url(#clip442)" style="stroke:#000000; stroke-linecap:round; stroke-linejoin:round; stroke-width:4; stroke-opacity:1; fill:none" points="703.844,1003.12 703.844,873.651 280.231,873.651 280.231,1003.12 703.844,1003.12 703.844,873.651 703.844,1003.12 "></polyline>
<path clip-path="url(#clip442)" d="M703.844 760.668 L280.231 760.668 L280.231 873.651 L703.844 873.651 L703.844 760.668 L492.037 760.668 L703.844 760.668  Z" fill="#009af9" fill-rule="evenodd" fill-opacity="1"></path>
<polyline clip-path="url(#clip442)" style="stroke:#000000; stroke-linecap:round; stroke-linejoin:round; stroke-width:4; stroke-opacity:1; fill:none" points="703.844,760.668 280.231,760.668 280.231,873.651 703.844,873.651 703.844,760.668 492.037,760.668 703.844,760.668 "></polyline>
<path clip-path="url(#clip442)" d="M492.037 406.402 L386.134 406.402 L597.941 406.402 L492.037 406.402 L492.037 760.668 L492.037 406.402  Z" fill="#009af9" fill-rule="evenodd" fill-opacity="1"></path>
<polyline clip-path="url(#clip442)" style="stroke:#000000; stroke-linecap:round; stroke-linejoin:round; stroke-width:4; stroke-opacity:1; fill:none" points="492.037,406.402 386.134,406.402 597.941,406.402 492.037,406.402 492.037,760.668 492.037,406.402 "></polyline>
<polyline clip-path="url(#clip442)" style="stroke:#009af9; stroke-linecap:round; stroke-linejoin:round; stroke-width:0; stroke-opacity:1; fill:none" points="492.037,1307.05 386.134,1307.05 597.941,1307.05 492.037,1307.05 492.037,1003.12 "></polyline>
<polyline clip-path="url(#clip442)" style="stroke:#009af9; stroke-linecap:round; stroke-linejoin:round; stroke-width:0; stroke-opacity:1; fill:none" points="703.844,1003.12 703.844,873.651 280.231,873.651 280.231,1003.12 703.844,1003.12 703.844,873.651 "></polyline>
<polyline clip-path="url(#clip442)" style="stroke:#009af9; stroke-linecap:round; stroke-linejoin:round; stroke-width:0; stroke-opacity:1; fill:none" points="703.844,760.668 280.231,760.668 280.231,873.651 703.844,873.651 703.844,760.668 492.037,760.668 "></polyline>
<polyline clip-path="url(#clip442)" style="stroke:#009af9; stroke-linecap:round; stroke-linejoin:round; stroke-width:0; stroke-opacity:1; fill:none" points="492.037,406.402 386.134,406.402 597.941,406.402 492.037,406.402 492.037,760.668 "></polyline>
<path clip-path="url(#clip442)" d="M1021.55 1308.39 L915.65 1308.39 L1127.46 1308.39 L1021.55 1308.39 L1021.55 1066.8 L1021.55 1308.39  Z" fill="#e26f46" fill-rule="evenodd" fill-opacity="1"></path>
<polyline clip-path="url(#clip442)" style="stroke:#000000; stroke-linecap:round; stroke-linejoin:round; stroke-width:4; stroke-opacity:1; fill:none" points="1021.55,1308.39 915.65,1308.39 1127.46,1308.39 1021.55,1308.39 1021.55,1066.8 1021.55,1308.39 "></polyline>
<path clip-path="url(#clip442)" d="M1233.36 1066.8 L1233.36 979.986 L809.747 979.986 L809.747 1066.8 L1233.36 1066.8 L1233.36 979.986 L1233.36 1066.8  Z" fill="#e26f46" fill-rule="evenodd" fill-opacity="1"></path>
<polyline clip-path="url(#clip442)" style="stroke:#000000; stroke-linecap:round; stroke-linejoin:round; stroke-width:4; stroke-opacity:1; fill:none" points="1233.36,1066.8 1233.36,979.986 809.747,979.986 809.747,1066.8 1233.36,1066.8 1233.36,979.986 1233.36,1066.8 "></polyline>
<path clip-path="url(#clip442)" d="M1233.36 822.111 L809.747 822.111 L809.747 979.986 L1233.36 979.986 L1233.36 822.111 L1021.55 822.111 L1233.36 822.111  Z" fill="#e26f46" fill-rule="evenodd" fill-opacity="1"></path>
<polyline clip-path="url(#clip442)" style="stroke:#000000; stroke-linecap:round; stroke-linejoin:round; stroke-width:4; stroke-opacity:1; fill:none" points="1233.36,822.111 809.747,822.111 809.747,979.986 1233.36,979.986 1233.36,822.111 1021.55,822.111 1233.36,822.111 "></polyline>
<path clip-path="url(#clip442)" d="M1021.55 503.394 L915.65 503.394 L1127.46 503.394 L1021.55 503.394 L1021.55 822.111 L1021.55 503.394  Z" fill="#e26f46" fill-rule="evenodd" fill-opacity="1"></path>
<polyline clip-path="url(#clip442)" style="stroke:#000000; stroke-linecap:round; stroke-linejoin:round; stroke-width:4; stroke-opacity:1; fill:none" points="1021.55,503.394 915.65,503.394 1127.46,503.394 1021.55,503.394 1021.55,822.111 1021.55,503.394 "></polyline>
<circle clip-path="url(#clip442)" cx="1021.55" cy="388.447" r="14.4" fill="#e26f46" fill-rule="evenodd" fill-opacity="1" stroke="#000000" stroke-opacity="1" stroke-width="3.2"></circle>
<polyline clip-path="url(#clip442)" style="stroke:#e26f46; stroke-linecap:round; stroke-linejoin:round; stroke-width:0; stroke-opacity:1; fill:none" points="1021.55,1308.39 915.65,1308.39 1127.46,1308.39 1021.55,1308.39 1021.55,1066.8 "></polyline>
<polyline clip-path="url(#clip442)" style="stroke:#e26f46; stroke-linecap:round; stroke-linejoin:round; stroke-width:0; stroke-opacity:1; fill:none" points="1233.36,1066.8 1233.36,979.986 809.747,979.986 809.747,1066.8 1233.36,1066.8 1233.36,979.986 "></polyline>
<polyline clip-path="url(#clip442)" style="stroke:#e26f46; stroke-linecap:round; stroke-linejoin:round; stroke-width:0; stroke-opacity:1; fill:none" points="1233.36,822.111 809.747,822.111 809.747,979.986 1233.36,979.986 1233.36,822.111 1021.55,822.111 "></polyline>
<polyline clip-path="url(#clip442)" style="stroke:#e26f46; stroke-linecap:round; stroke-linejoin:round; stroke-width:0; stroke-opacity:1; fill:none" points="1021.55,503.394 915.65,503.394 1127.46,503.394 1021.55,503.394 1021.55,822.111 "></polyline>
<path clip-path="url(#clip442)" d="M1551.07 1134.56 L1445.17 1134.56 L1656.97 1134.56 L1551.07 1134.56 L1551.07 806.926 L1551.07 1134.56  Z" fill="#3da44d" fill-rule="evenodd" fill-opacity="1"></path>
<polyline clip-path="url(#clip442)" style="stroke:#000000; stroke-linecap:round; stroke-linejoin:round; stroke-width:4; stroke-opacity:1; fill:none" points="1551.07,1134.56 1445.17,1134.56 1656.97,1134.56 1551.07,1134.56 1551.07,806.926 1551.07,1134.56 "></polyline>
<path clip-path="url(#clip442)" d="M1762.88 806.926 L1762.88 713.098 L1339.26 713.098 L1339.26 806.926 L1762.88 806.926 L1762.88 713.098 L1762.88 806.926  Z" fill="#3da44d" fill-rule="evenodd" fill-opacity="1"></path>
<polyline clip-path="url(#clip442)" style="stroke:#000000; stroke-linecap:round; stroke-linejoin:round; stroke-width:4; stroke-opacity:1; fill:none" points="1762.88,806.926 1762.88,713.098 1339.26,713.098 1339.26,806.926 1762.88,806.926 1762.88,713.098 1762.88,806.926 "></polyline>
<path clip-path="url(#clip442)" d="M1762.88 566.648 L1339.26 566.648 L1339.26 713.098 L1762.88 713.098 L1762.88 566.648 L1551.07 566.648 L1762.88 566.648  Z" fill="#3da44d" fill-rule="evenodd" fill-opacity="1"></path>
<polyline clip-path="url(#clip442)" style="stroke:#000000; stroke-linecap:round; stroke-linejoin:round; stroke-width:4; stroke-opacity:1; fill:none" points="1762.88,566.648 1339.26,566.648 1339.26,713.098 1762.88,713.098 1762.88,566.648 1551.07,566.648 1762.88,566.648 "></polyline>
<path clip-path="url(#clip442)" d="M1551.07 220.521 L1445.17 220.521 L1656.97 220.521 L1551.07 220.521 L1551.07 566.648 L1551.07 220.521  Z" fill="#3da44d" fill-rule="evenodd" fill-opacity="1"></path>
<polyline clip-path="url(#clip442)" style="stroke:#000000; stroke-linecap:round; stroke-linejoin:round; stroke-width:4; stroke-opacity:1; fill:none" points="1551.07,220.521 1445.17,220.521 1656.97,220.521 1551.07,220.521 1551.07,566.648 1551.07,220.521 "></polyline>
<circle clip-path="url(#clip442)" cx="1551.07" cy="1227.2" r="14.4" fill="#3da44d" fill-rule="evenodd" fill-opacity="1" stroke="#000000" stroke-opacity="1" stroke-width="3.2"></circle>
<circle clip-path="url(#clip442)" cx="1551.07" cy="160.256" r="14.4" fill="#3da44d" fill-rule="evenodd" fill-opacity="1" stroke="#000000" stroke-opacity="1" stroke-width="3.2"></circle>
<polyline clip-path="url(#clip442)" style="stroke:#3da44d; stroke-linecap:round; stroke-linejoin:round; stroke-width:0; stroke-opacity:1; fill:none" points="1551.07,1134.56 1445.17,1134.56 1656.97,1134.56 1551.07,1134.56 1551.07,806.926 "></polyline>
<polyline clip-path="url(#clip442)" style="stroke:#3da44d; stroke-linecap:round; stroke-linejoin:round; stroke-width:0; stroke-opacity:1; fill:none" points="1762.88,806.926 1762.88,713.098 1339.26,713.098 1339.26,806.926 1762.88,806.926 1762.88,713.098 "></polyline>
<polyline clip-path="url(#clip442)" style="stroke:#3da44d; stroke-linecap:round; stroke-linejoin:round; stroke-width:0; stroke-opacity:1; fill:none" points="1762.88,566.648 1339.26,566.648 1339.26,713.098 1762.88,713.098 1762.88,566.648 1551.07,566.648 "></polyline>
<polyline clip-path="url(#clip442)" style="stroke:#3da44d; stroke-linecap:round; stroke-linejoin:round; stroke-width:0; stroke-opacity:1; fill:none" points="1551.07,220.521 1445.17,220.521 1656.97,220.521 1551.07,220.521 1551.07,566.648 "></polyline>
<path clip-path="url(#clip442)" d="M2080.58 1386.4 L1974.68 1386.4 L2186.49 1386.4 L2080.58 1386.4 L2080.58 1044.03 L2080.58 1386.4  Z" fill="#c271d2" fill-rule="evenodd" fill-opacity="1"></path>
<polyline clip-path="url(#clip442)" style="stroke:#000000; stroke-linecap:round; stroke-linejoin:round; stroke-width:4; stroke-opacity:1; fill:none" points="2080.58,1386.4 1974.68,1386.4 2186.49,1386.4 2080.58,1386.4 2080.58,1044.03 2080.58,1386.4 "></polyline>
<path clip-path="url(#clip442)" d="M2292.39 1044.03 L2292.39 912.393 L1868.78 912.393 L1868.78 1044.03 L2292.39 1044.03 L2292.39 912.393 L2292.39 1044.03  Z" fill="#c271d2" fill-rule="evenodd" fill-opacity="1"></path>
<polyline clip-path="url(#clip442)" style="stroke:#000000; stroke-linecap:round; stroke-linejoin:round; stroke-width:4; stroke-opacity:1; fill:none" points="2292.39,1044.03 2292.39,912.393 1868.78,912.393 1868.78,1044.03 2292.39,1044.03 2292.39,912.393 2292.39,1044.03 "></polyline>
<path clip-path="url(#clip442)" d="M2292.39 773.806 L1868.78 773.806 L1868.78 912.393 L2292.39 912.393 L2292.39 773.806 L2080.58 773.806 L2292.39 773.806  Z" fill="#c271d2" fill-rule="evenodd" fill-opacity="1"></path>
<polyline clip-path="url(#clip442)" style="stroke:#000000; stroke-linecap:round; stroke-linejoin:round; stroke-width:4; stroke-opacity:1; fill:none" points="2292.39,773.806 1868.78,773.806 1868.78,912.393 2292.39,912.393 2292.39,773.806 2080.58,773.806 2292.39,773.806 "></polyline>
<path clip-path="url(#clip442)" d="M2080.58 434.543 L1974.68 434.543 L2186.49 434.543 L2080.58 434.543 L2080.58 773.806 L2080.58 434.543  Z" fill="#c271d2" fill-rule="evenodd" fill-opacity="1"></path>
<polyline clip-path="url(#clip442)" style="stroke:#000000; stroke-linecap:round; stroke-linejoin:round; stroke-width:4; stroke-opacity:1; fill:none" points="2080.58,434.543 1974.68,434.543 2186.49,434.543 2080.58,434.543 2080.58,773.806 2080.58,434.543 "></polyline>
<circle clip-path="url(#clip442)" cx="2080.58" cy="311.747" r="14.4" fill="#c271d2" fill-rule="evenodd" fill-opacity="1" stroke="#000000" stroke-opacity="1" stroke-width="3.2"></circle>
<circle clip-path="url(#clip442)" cx="2080.58" cy="331.287" r="14.4" fill="#c271d2" fill-rule="evenodd" fill-opacity="1" stroke="#000000" stroke-opacity="1" stroke-width="3.2"></circle>
<polyline clip-path="url(#clip442)" style="stroke:#c271d2; stroke-linecap:round; stroke-linejoin:round; stroke-width:0; stroke-opacity:1; fill:none" points="2080.58,1386.4 1974.68,1386.4 2186.49,1386.4 2080.58,1386.4 2080.58,1044.03 "></polyline>
<polyline clip-path="url(#clip442)" style="stroke:#c271d2; stroke-linecap:round; stroke-linejoin:round; stroke-width:0; stroke-opacity:1; fill:none" points="2292.39,1044.03 2292.39,912.393 1868.78,912.393 1868.78,1044.03 2292.39,1044.03 2292.39,912.393 "></polyline>
<polyline clip-path="url(#clip442)" style="stroke:#c271d2; stroke-linecap:round; stroke-linejoin:round; stroke-width:0; stroke-opacity:1; fill:none" points="2292.39,773.806 1868.78,773.806 1868.78,912.393 2292.39,912.393 2292.39,773.806 2080.58,773.806 "></polyline>
<polyline clip-path="url(#clip442)" style="stroke:#c271d2; stroke-linecap:round; stroke-linejoin:round; stroke-width:0; stroke-opacity:1; fill:none" points="2080.58,434.543 1974.68,434.543 2186.49,434.543 2080.58,434.543 2080.58,773.806 "></polyline>
<path clip-path="url(#clip440)" d="M290.963 425.996 L602.654 425.996 L602.654 166.796 L290.963 166.796  Z" fill="#ffffff" fill-rule="evenodd" fill-opacity="1"></path>
<polyline clip-path="url(#clip440)" style="stroke:#000000; stroke-linecap:round; stroke-linejoin:round; stroke-width:4; stroke-opacity:1; fill:none" points="290.963,425.996 602.654,425.996 602.654,166.796 290.963,166.796 290.963,425.996 "></polyline>
<path clip-path="url(#clip440)" d="M314.661 239.372 L456.854 239.372 L456.854 197.9 L314.661 197.9 L314.661 239.372  Z" fill="#009af9" fill-rule="evenodd" fill-opacity="1"></path>
<polyline clip-path="url(#clip440)" style="stroke:#000000; stroke-linecap:round; stroke-linejoin:round; stroke-width:4; stroke-opacity:1; fill:none" points="314.661,239.372 456.854,239.372 456.854,197.9 314.661,197.9 314.661,239.372 "></polyline>
<path clip-path="url(#clip440)" d="M506.108 230.985 L506.108 221.703 L498.469 221.703 L498.469 217.86 L510.738 217.86 L510.738 232.698 Q508.029 234.619 504.766 235.615 Q501.502 236.587 497.798 236.587 Q489.696 236.587 485.113 231.865 Q480.553 227.119 480.553 218.67 Q480.553 210.198 485.113 205.476 Q489.696 200.731 497.798 200.731 Q501.178 200.731 504.21 201.564 Q507.266 202.397 509.835 204.018 L509.835 208.995 Q507.242 206.796 504.326 205.684 Q501.409 204.573 498.192 204.573 Q491.849 204.573 488.655 208.115 Q485.483 211.657 485.483 218.67 Q485.483 225.661 488.655 229.203 Q491.849 232.744 498.192 232.744 Q500.668 232.744 502.613 232.328 Q504.557 231.888 506.108 230.985 Z" fill="#000000" fill-rule="nonzero" fill-opacity="1"></path><path clip-path="url(#clip440)" d="M523.955 205.198 L523.955 218.184 L529.835 218.184 Q533.099 218.184 534.881 216.495 Q536.664 214.805 536.664 211.68 Q536.664 208.578 534.881 206.888 Q533.099 205.198 529.835 205.198 L523.955 205.198 M519.279 201.356 L529.835 201.356 Q535.645 201.356 538.608 203.995 Q541.594 206.61 541.594 211.68 Q541.594 216.795 538.608 219.411 Q535.645 222.027 529.835 222.027 L523.955 222.027 L523.955 235.916 L519.279 235.916 L519.279 201.356 Z" fill="#000000" fill-rule="nonzero" fill-opacity="1"></path><path clip-path="url(#clip440)" d="M314.661 291.212 L456.854 291.212 L456.854 249.74 L314.661 249.74 L314.661 291.212  Z" fill="#e26f46" fill-rule="evenodd" fill-opacity="1"></path>
<polyline clip-path="url(#clip440)" style="stroke:#000000; stroke-linecap:round; stroke-linejoin:round; stroke-width:4; stroke-opacity:1; fill:none" points="314.661,291.212 456.854,291.212 456.854,249.74 314.661,249.74 314.661,291.212 "></polyline>
<path clip-path="url(#clip440)" d="M480.553 253.196 L502.405 253.196 L502.405 257.131 L485.229 257.131 L485.229 267.362 L501.687 267.362 L501.687 271.297 L485.229 271.297 L485.229 283.821 L502.821 283.821 L502.821 287.756 L480.553 287.756 L480.553 253.196 Z" fill="#000000" fill-rule="nonzero" fill-opacity="1"></path><path clip-path="url(#clip440)" d="M514.951 283.821 L531.27 283.821 L531.27 287.756 L509.326 287.756 L509.326 283.821 Q511.988 281.066 516.571 276.436 Q521.178 271.784 522.358 270.441 Q524.603 267.918 525.483 266.182 Q526.386 264.423 526.386 262.733 Q526.386 259.978 524.441 258.242 Q522.52 256.506 519.418 256.506 Q517.219 256.506 514.766 257.27 Q512.335 258.034 509.557 259.585 L509.557 254.862 Q512.381 253.728 514.835 253.149 Q517.289 252.571 519.326 252.571 Q524.696 252.571 527.89 255.256 Q531.085 257.941 531.085 262.432 Q531.085 264.561 530.275 266.483 Q529.488 268.381 527.381 270.973 Q526.803 271.645 523.701 274.862 Q520.599 278.057 514.951 283.821 Z" fill="#000000" fill-rule="nonzero" fill-opacity="1"></path><path clip-path="url(#clip440)" d="M540.668 253.196 L562.52 253.196 L562.52 257.131 L545.344 257.131 L545.344 267.362 L561.802 267.362 L561.802 271.297 L545.344 271.297 L545.344 283.821 L562.937 283.821 L562.937 287.756 L540.668 287.756 L540.668 253.196 Z" fill="#000000" fill-rule="nonzero" fill-opacity="1"></path><path clip-path="url(#clip440)" d="M314.661 343.052 L456.854 343.052 L456.854 301.58 L314.661 301.58 L314.661 343.052  Z" fill="#3da44d" fill-rule="evenodd" fill-opacity="1"></path>
<polyline clip-path="url(#clip440)" style="stroke:#000000; stroke-linecap:round; stroke-linejoin:round; stroke-width:4; stroke-opacity:1; fill:none" points="314.661,343.052 456.854,343.052 456.854,301.58 314.661,301.58 314.661,343.052 "></polyline>
<path clip-path="url(#clip440)" d="M480.553 305.036 L485.275 305.036 L492.543 334.249 L499.789 305.036 L505.043 305.036 L512.312 334.249 L519.557 305.036 L524.303 305.036 L515.622 339.596 L509.742 339.596 L502.451 309.596 L495.09 339.596 L489.21 339.596 L480.553 305.036 Z" fill="#000000" fill-rule="nonzero" fill-opacity="1"></path><path clip-path="url(#clip440)" d="M535.182 308.878 L535.182 321.864 L541.062 321.864 Q544.326 321.864 546.108 320.175 Q547.89 318.485 547.89 315.36 Q547.89 312.258 546.108 310.568 Q544.326 308.878 541.062 308.878 L535.182 308.878 M530.506 305.036 L541.062 305.036 Q546.872 305.036 549.835 307.675 Q552.821 310.29 552.821 315.36 Q552.821 320.475 549.835 323.091 Q546.872 325.707 541.062 325.707 L535.182 325.707 L535.182 339.596 L530.506 339.596 L530.506 305.036 Z" fill="#000000" fill-rule="nonzero" fill-opacity="1"></path><path clip-path="url(#clip440)" d="M559.094 305.036 L578.955 305.036 L578.955 308.971 L563.77 308.971 L563.77 319.156 L577.474 319.156 L577.474 323.091 L563.77 323.091 L563.77 339.596 L559.094 339.596 L559.094 305.036 Z" fill="#000000" fill-rule="nonzero" fill-opacity="1"></path><path clip-path="url(#clip440)" d="M314.661 394.892 L456.854 394.892 L456.854 353.42 L314.661 353.42 L314.661 394.892  Z" fill="#c271d2" fill-rule="evenodd" fill-opacity="1"></path>
<polyline clip-path="url(#clip440)" style="stroke:#000000; stroke-linecap:round; stroke-linejoin:round; stroke-width:4; stroke-opacity:1; fill:none" points="314.661,394.892 456.854,394.892 456.854,353.42 314.661,353.42 314.661,394.892 "></polyline>
<path clip-path="url(#clip440)" d="M502.798 358.01 L502.798 362.57 Q500.136 361.297 497.775 360.672 Q495.414 360.047 493.215 360.047 Q489.395 360.047 487.312 361.528 Q485.252 363.01 485.252 365.741 Q485.252 368.033 486.618 369.214 Q488.006 370.371 491.849 371.089 L494.673 371.667 Q499.905 372.663 502.381 375.186 Q504.881 377.686 504.881 381.899 Q504.881 386.922 501.502 389.514 Q498.145 392.107 491.641 392.107 Q489.187 392.107 486.409 391.551 Q483.655 390.996 480.692 389.908 L480.692 385.093 Q483.539 386.69 486.27 387.501 Q489.002 388.311 491.641 388.311 Q495.645 388.311 497.821 386.737 Q499.997 385.163 499.997 382.246 Q499.997 379.7 498.423 378.264 Q496.872 376.829 493.307 376.112 L490.46 375.556 Q485.229 374.515 482.891 372.292 Q480.553 370.07 480.553 366.112 Q480.553 361.528 483.77 358.89 Q487.011 356.251 492.682 356.251 Q495.113 356.251 497.636 356.691 Q500.159 357.13 502.798 358.01 Z" fill="#000000" fill-rule="nonzero" fill-opacity="1"></path><path clip-path="url(#clip440)" d="M516.849 360.718 L516.849 373.704 L522.728 373.704 Q525.992 373.704 527.775 372.015 Q529.557 370.325 529.557 367.2 Q529.557 364.098 527.775 362.408 Q525.992 360.718 522.728 360.718 L516.849 360.718 M512.173 356.876 L522.728 356.876 Q528.539 356.876 531.502 359.515 Q534.488 362.13 534.488 367.2 Q534.488 372.315 531.502 374.931 Q528.539 377.547 522.728 377.547 L516.849 377.547 L516.849 391.436 L512.173 391.436 L512.173 356.876 Z" fill="#000000" fill-rule="nonzero" fill-opacity="1"></path><path clip-path="url(#clip440)" d="M535.969 356.876 L565.205 356.876 L565.205 360.811 L552.937 360.811 L552.937 391.436 L548.238 391.436 L548.238 360.811 L535.969 360.811 L535.969 356.876 Z" fill="#000000" fill-rule="nonzero" fill-opacity="1"></path></svg>