<svg xmlns="http://www.w3.org/2000/svg" xmlns:xlink="http://www.w3.org/1999/xlink" width="600" height="400" viewBox="0 0 2400 1600">
<defs>
  <clipPath id="clip800">
    <rect x="0" y="0" width="2400" height="1600"></rect>
  </clipPath>
</defs>
<path clip-path="url(#clip800)" d="M0 1600 L2400 1600 L2400 0 L0 0  Z" fill="#ffffff" fill-rule="evenodd" fill-opacity="1"></path>
<defs>
  <clipPath id="clip801">
    <rect x="480" y="0" width="1681" height="1600"></rect>
  </clipPath>
</defs>
<path clip-path="url(#clip800)" d="M249.542 1423.18 L2352.76 1423.18 L2352.76 123.472 L249.542 123.472  Z" fill="#ffffff" fill-rule="evenodd" fill-opacity="1"></path>
<defs>
  <clipPath id="clip802">
    <rect x="249" y="123" width="2104" height="1301"></rect>
  </clipPath>
</defs>
<polyline clip-path="url(#clip802)" style="stroke:#000000; stroke-linecap:round; stroke-linejoin:round; stroke-width:2; stroke-opacity:0.1; fill:none" points="517.926,1423.18 517.926,123.472 "></polyline>
<polyline clip-path="url(#clip802)" style="stroke:#000000; stroke-linecap:round; stroke-linejoin:round; stroke-width:2; stroke-opacity:0.1; fill:none" points="1040.07,1423.18 1040.07,123.472 "></polyline>
<polyline clip-path="url(#clip802)" style="stroke:#000000; stroke-linecap:round; stroke-linejoin:round; stroke-width:2; stroke-opacity:0.1; fill:none" points="1562.22,1423.18 1562.22,123.472 "></polyline>
<polyline clip-path="url(#clip802)" style="stroke:#000000; stroke-linecap:round; stroke-linejoin:round; stroke-width:2; stroke-opacity:0.1; fill:none" points="2084.37,1423.18 2084.37,123.472 "></polyline>
<polyline clip-path="url(#clip800)" style="stroke:#000000; stroke-linecap:round; stroke-linejoin:round; stroke-width:4; stroke-opacity:1; fill:none" points="249.542,1423.18 2352.76,1423.18 "></polyline>
<polyline clip-path="url(#clip800)" style="stroke:#000000; stroke-linecap:round; stroke-linejoin:round; stroke-width:4; stroke-opacity:1; fill:none" points="517.926,1423.18 517.926,1404.28 "></polyline>
<polyline clip-path="url(#clip800)" style="stroke:#000000; stroke-linecap:round; stroke-linejoin:round; stroke-width:4; stroke-opacity:1; fill:none" points="1040.07,1423.18 1040.07,1404.28 "></polyline>
<polyline clip-path="url(#clip800)" style="stroke:#000000; stroke-linecap:round; stroke-linejoin:round; stroke-width:4; stroke-opacity:1; fill:none" points="1562.22,1423.18 1562.22,1404.28 "></polyline>
<polyline clip-path="url(#clip800)" style="stroke:#000000; stroke-linecap:round; stroke-linejoin:round; stroke-width:4; stroke-opacity:1; fill:none" points="2084.37,1423.18 2084.37,1404.28 "></polyline>
<path clip-path="url(#clip800)" d="M508.308 1481.64 L515.947 1481.64 L515.947 1455.28 L507.637 1456.95 L507.637 1452.69 L515.901 1451.02 L520.577 1451.02 L520.577 1481.64 L528.216 1481.64 L528.216 1485.58 L508.308 1485.58 L508.308 1481.64 Z" fill="#000000" fill-rule="nonzero" fill-opacity="1"></path><path clip-path="url(#clip800)" d="M1034.73 1481.64 L1051.05 1481.64 L1051.05 1485.58 L1029.1 1485.58 L1029.1 1481.64 Q1031.76 1478.89 1036.35 1474.26 Q1040.95 1469.61 1042.13 1468.27 Q1044.38 1465.74 1045.26 1464.01 Q1046.16 1462.25 1046.16 1460.56 Q1046.16 1457.8 1044.22 1456.07 Q1042.3 1454.33 1039.2 1454.33 Q1037 1454.33 1034.54 1455.09 Q1032.11 1455.86 1029.33 1457.41 L1029.33 1452.69 Q1032.16 1451.55 1034.61 1450.97 Q1037.07 1450.39 1039.1 1450.39 Q1044.47 1450.39 1047.67 1453.08 Q1050.86 1455.77 1050.86 1460.26 Q1050.86 1462.39 1050.05 1464.31 Q1049.26 1466.2 1047.16 1468.8 Q1046.58 1469.47 1043.48 1472.69 Q1040.38 1475.88 1034.73 1481.64 Z" fill="#000000" fill-rule="nonzero" fill-opacity="1"></path><path clip-path="url(#clip800)" d="M1566.47 1466.95 Q1569.83 1467.66 1571.7 1469.93 Q1573.6 1472.2 1573.6 1475.53 Q1573.6 1480.65 1570.08 1483.45 Q1566.56 1486.25 1560.08 1486.25 Q1557.91 1486.25 1555.59 1485.81 Q1553.3 1485.39 1550.85 1484.54 L1550.85 1480.02 Q1552.79 1481.16 1555.11 1481.74 Q1557.42 1482.32 1559.94 1482.32 Q1564.34 1482.32 1566.63 1480.58 Q1568.95 1478.84 1568.95 1475.53 Q1568.95 1472.48 1566.79 1470.77 Q1564.67 1469.03 1560.85 1469.03 L1556.82 1469.03 L1556.82 1465.19 L1561.03 1465.19 Q1564.48 1465.19 1566.31 1463.82 Q1568.14 1462.43 1568.14 1459.84 Q1568.14 1457.18 1566.24 1455.77 Q1564.36 1454.33 1560.85 1454.33 Q1558.92 1454.33 1556.73 1454.75 Q1554.53 1455.16 1551.89 1456.04 L1551.89 1451.88 Q1554.55 1451.14 1556.86 1450.77 Q1559.2 1450.39 1561.26 1450.39 Q1566.59 1450.39 1569.69 1452.83 Q1572.79 1455.23 1572.79 1459.35 Q1572.79 1462.22 1571.15 1464.21 Q1569.5 1466.18 1566.47 1466.95 Z" fill="#000000" fill-rule="nonzero" fill-opacity="1"></path><path clip-path="url(#clip800)" d="M2087.38 1455.09 L2075.58 1473.54 L2087.38 1473.54 L2087.38 1455.09 M2086.15 1451.02 L2092.03 1451.02 L2092.03 1473.54 L2096.96 1473.54 L2096.96 1477.43 L2092.03 1477.43 L2092.03 1485.58 L2087.38 1485.58 L2087.38 1477.43 L2071.78 1477.43 L2071.78 1472.92 L2086.15 1451.02 Z" fill="#000000" fill-rule="nonzero" fill-opacity="1"></path><path clip-path="url(#clip800)" d="M1233.66 1539.24 Q1235.85 1535.29 1238.91 1533.41 Q1241.96 1531.54 1246.1 1531.54 Q1251.67 1531.54 1254.7 1535.45 Q1257.72 1539.33 1257.72 1546.53 L1257.72 1568.04 L1251.83 1568.04 L1251.83 1546.72 Q1251.83 1541.59 1250.02 1539.11 Q1248.2 1536.63 1244.48 1536.63 Q1239.93 1536.63 1237.29 1539.65 Q1234.64 1542.68 1234.64 1547.9 L1234.64 1568.04 L1228.75 1568.04 L1228.75 1546.72 Q1228.75 1541.56 1226.94 1539.11 Q1225.13 1536.63 1221.34 1536.63 Q1216.85 1536.63 1214.21 1539.68 Q1211.57 1542.71 1211.57 1547.9 L1211.57 1568.04 L1205.68 1568.04 L1205.68 1532.4 L1211.57 1532.4 L1211.57 1537.93 Q1213.57 1534.66 1216.37 1533.1 Q1219.17 1531.54 1223.03 1531.54 Q1226.91 1531.54 1229.61 1533.51 Q1232.35 1535.48 1233.66 1539.24 Z" fill="#000000" fill-rule="nonzero" fill-opacity="1"></path><path clip-path="url(#clip800)" d="M1283.21 1536.5 Q1278.5 1536.5 1275.77 1540.19 Q1273.03 1543.85 1273.03 1550.25 Q1273.03 1556.65 1275.73 1560.34 Q1278.47 1564 1283.21 1564 Q1287.89 1564 1290.63 1560.31 Q1293.37 1556.62 1293.37 1550.25 Q1293.37 1543.92 1290.63 1540.23 Q1287.89 1536.5 1283.21 1536.5 M1283.21 1531.54 Q1290.85 1531.54 1295.21 1536.5 Q1299.57 1541.47 1299.57 1550.25 Q1299.57 1559 1295.21 1564 Q1290.85 1568.97 1283.21 1568.97 Q1275.54 1568.97 1271.18 1564 Q1266.85 1559 1266.85 1550.25 Q1266.85 1541.47 1271.18 1536.5 Q1275.54 1531.54 1283.21 1531.54 Z" fill="#000000" fill-rule="nonzero" fill-opacity="1"></path><path clip-path="url(#clip800)" d="M1332.74 1537.81 L1332.74 1518.52 L1338.6 1518.52 L1338.6 1568.04 L1332.74 1568.04 L1332.74 1562.7 Q1330.89 1565.88 1328.06 1567.44 Q1325.26 1568.97 1321.31 1568.97 Q1314.85 1568.97 1310.78 1563.81 Q1306.73 1558.65 1306.73 1550.25 Q1306.73 1541.85 1310.78 1536.69 Q1314.85 1531.54 1321.31 1531.54 Q1325.26 1531.54 1328.06 1533.1 Q1330.89 1534.62 1332.74 1537.81 M1312.78 1550.25 Q1312.78 1556.71 1315.42 1560.4 Q1318.1 1564.07 1322.74 1564.07 Q1327.39 1564.07 1330.07 1560.4 Q1332.74 1556.71 1332.74 1550.25 Q1332.74 1543.79 1330.07 1540.13 Q1327.39 1536.44 1322.74 1536.44 Q1318.1 1536.44 1315.42 1540.13 Q1312.78 1543.79 1312.78 1550.25 Z" fill="#000000" fill-rule="nonzero" fill-opacity="1"></path><path clip-path="url(#clip800)" d="M1381.15 1548.76 L1381.15 1551.62 L1354.22 1551.62 Q1354.6 1557.67 1357.85 1560.85 Q1361.13 1564 1366.95 1564 Q1370.33 1564 1373.48 1563.17 Q1376.66 1562.35 1379.78 1560.69 L1379.78 1566.23 Q1376.63 1567.57 1373.32 1568.27 Q1370.01 1568.97 1366.6 1568.97 Q1358.07 1568.97 1353.08 1564 Q1348.11 1559.04 1348.11 1550.57 Q1348.11 1541.82 1352.82 1536.69 Q1357.57 1531.54 1365.59 1531.54 Q1372.78 1531.54 1376.95 1536.18 Q1381.15 1540.8 1381.15 1548.76 M1375.29 1547.04 Q1375.23 1542.23 1372.59 1539.37 Q1369.98 1536.5 1365.65 1536.5 Q1360.75 1536.5 1357.79 1539.27 Q1354.86 1542.04 1354.41 1547.07 L1375.29 1547.04 Z" fill="#000000" fill-rule="nonzero" fill-opacity="1"></path><path clip-path="url(#clip800)" d="M1390.76 1518.52 L1396.62 1518.52 L1396.62 1568.04 L1390.76 1568.04 L1390.76 1518.52 Z" fill="#000000" fill-rule="nonzero" fill-opacity="1"></path><polyline clip-path="url(#clip802)" style="stroke:#000000; stroke-linecap:round; stroke-linejoin:round; stroke-width:2; stroke-opacity:0.1; fill:none" points="249.542,1212.91 2352.76,1212.91 "></polyline>
<polyline clip-path="url(#clip802)" style="stroke:#000000; stroke-linecap:round; stroke-linejoin:round; stroke-width:2; stroke-opacity:0.1; fill:none" points="249.542,949.023 2352.76,949.023 "></polyline>
<polyline clip-path="url(#clip802)" style="stroke:#000000; stroke-linecap:round; stroke-linejoin:round; stroke-width:2; stroke-opacity:0.1; fill:none" points="249.542,685.134 2352.76,685.134 "></polyline>
<polyline clip-path="url(#clip802)" style="stroke:#000000; stroke-linecap:round; stroke-linejoin:round; stroke-width:2; stroke-opacity:0.1; fill:none" points="249.542,421.246 2352.76,421.246 "></polyline>
<polyline clip-path="url(#clip802)" style="stroke:#000000; stroke-linecap:round; stroke-linejoin:round; stroke-width:2; stroke-opacity:0.1; fill:none" points="249.542,157.358 2352.76,157.358 "></polyline>
<polyline clip-path="url(#clip800)" style="stroke:#000000; stroke-linecap:round; stroke-linejoin:round; stroke-width:4; stroke-opacity:1; fill:none" points="249.542,1423.18 249.542,123.472 "></polyline>
<polyline clip-path="url(#clip800)" style="stroke:#000000; stroke-linecap:round; stroke-linejoin:round; stroke-width:4; stroke-opacity:1; fill:none" points="249.542,1212.91 268.44,1212.91 "></polyline>
<polyline clip-path="url(#clip800)" style="stroke:#000000; stroke-linecap:round; stroke-linejoin:round; stroke-width:4; stroke-opacity:1; fill:none" points="249.542,949.023 268.44,949.023 "></polyline>
<polyline clip-path="url(#clip800)" style="stroke:#000000; stroke-linecap:round; stroke-linejoin:round; stroke-width:4; stroke-opacity:1; fill:none" points="249.542,685.134 268.44,685.134 "></polyline>
<polyline clip-path="url(#clip800)" style="stroke:#000000; stroke-linecap:round; stroke-linejoin:round; stroke-width:4; stroke-opacity:1; fill:none" points="249.542,421.246 268.44,421.246 "></polyline>
<polyline clip-path="url(#clip800)" style="stroke:#000000; stroke-linecap:round; stroke-linejoin:round; stroke-width:4; stroke-opacity:1; fill:none" points="249.542,157.358 268.44,157.358 "></polyline>
<path clip-path="url(#clip800)" d="M127.2 1198.71 Q123.589 1198.71 121.76 1202.27 Q119.955 1205.82 119.955 1212.95 Q119.955 1220.05 121.76 1223.62 Q123.589 1227.16 127.2 1227.16 Q130.834 1227.16 132.64 1223.62 Q134.468 1220.05 134.468 1212.95 Q134.468 1205.82 132.64 1202.27 Q130.834 1198.71 127.2 1198.71 M127.2 1195.01 Q133.01 1195.01 136.066 1199.61 Q139.144 1204.2 139.144 1212.95 Q139.144 1221.67 136.066 1226.28 Q133.01 1230.86 127.2 1230.86 Q121.39 1230.86 118.311 1226.28 Q115.256 1221.67 115.256 1212.95 Q115.256 1204.2 118.311 1199.61 Q121.39 1195.01 127.2 1195.01 Z" fill="#000000" fill-rule="nonzero" fill-opacity="1"></path><path clip-path="url(#clip800)" d="M147.362 1224.31 L152.246 1224.31 L152.246 1230.19 L147.362 1230.19 L147.362 1224.31 Z" fill="#000000" fill-rule="nonzero" fill-opacity="1"></path><path clip-path="url(#clip800)" d="M172.431 1198.71 Q168.82 1198.71 166.991 1202.27 Q165.186 1205.82 165.186 1212.95 Q165.186 1220.05 166.991 1223.62 Q168.82 1227.16 172.431 1227.16 Q176.065 1227.16 177.871 1223.62 Q179.7 1220.05 179.7 1212.95 Q179.7 1205.82 177.871 1202.27 Q176.065 1198.71 172.431 1198.71 M172.431 1195.01 Q178.241 1195.01 181.297 1199.61 Q184.376 1204.2 184.376 1212.95 Q184.376 1221.67 181.297 1226.28 Q178.241 1230.86 172.431 1230.86 Q166.621 1230.86 163.542 1226.28 Q160.487 1221.67 160.487 1212.95 Q160.487 1204.2 163.542 1199.61 Q166.621 1195.01 172.431 1195.01 Z" fill="#000000" fill-rule="nonzero" fill-opacity="1"></path><path clip-path="url(#clip800)" d="M192.639 1195.63 L210.996 1195.63 L210.996 1199.57 L196.922 1199.57 L196.922 1208.04 Q197.94 1207.69 198.959 1207.53 Q199.977 1207.34 200.996 1207.34 Q206.783 1207.34 210.162 1210.52 Q213.542 1213.69 213.542 1219.1 Q213.542 1224.68 210.07 1227.78 Q206.598 1230.86 200.278 1230.86 Q198.102 1230.86 195.834 1230.49 Q193.588 1230.12 191.181 1229.38 L191.181 1224.68 Q193.264 1225.82 195.487 1226.37 Q197.709 1226.93 200.186 1226.93 Q204.19 1226.93 206.528 1224.82 Q208.866 1222.71 208.866 1219.1 Q208.866 1215.49 206.528 1213.39 Q204.19 1211.28 200.186 1211.28 Q198.311 1211.28 196.436 1211.7 Q194.584 1212.11 192.639 1212.99 L192.639 1195.63 Z" fill="#000000" fill-rule="nonzero" fill-opacity="1"></path><path clip-path="url(#clip800)" d="M126.205 934.821 Q122.593 934.821 120.765 938.386 Q118.959 941.928 118.959 949.057 Q118.959 956.164 120.765 959.729 Q122.593 963.27 126.205 963.27 Q129.839 963.27 131.644 959.729 Q133.473 956.164 133.473 949.057 Q133.473 941.928 131.644 938.386 Q129.839 934.821 126.205 934.821 M126.205 931.118 Q132.015 931.118 135.07 935.724 Q138.149 940.307 138.149 949.057 Q138.149 957.784 135.07 962.391 Q132.015 966.974 126.205 966.974 Q120.394 966.974 117.316 962.391 Q114.26 957.784 114.26 949.057 Q114.26 940.307 117.316 935.724 Q120.394 931.118 126.205 931.118 Z" fill="#000000" fill-rule="nonzero" fill-opacity="1"></path><path clip-path="url(#clip800)" d="M146.366 960.423 L151.251 960.423 L151.251 966.303 L146.366 966.303 L146.366 960.423 Z" fill="#000000" fill-rule="nonzero" fill-opacity="1"></path><path clip-path="url(#clip800)" d="M162.246 962.368 L169.885 962.368 L169.885 936.002 L161.575 937.669 L161.575 933.409 L169.839 931.743 L174.514 931.743 L174.514 962.368 L182.153 962.368 L182.153 966.303 L162.246 966.303 L162.246 962.368 Z" fill="#000000" fill-rule="nonzero" fill-opacity="1"></path><path clip-path="url(#clip800)" d="M201.598 934.821 Q197.987 934.821 196.158 938.386 Q194.352 941.928 194.352 949.057 Q194.352 956.164 196.158 959.729 Q197.987 963.27 201.598 963.27 Q205.232 963.27 207.037 959.729 Q208.866 956.164 208.866 949.057 Q208.866 941.928 207.037 938.386 Q205.232 934.821 201.598 934.821 M201.598 931.118 Q207.408 931.118 210.463 935.724 Q213.542 940.307 213.542 949.057 Q213.542 957.784 210.463 962.391 Q207.408 966.974 201.598 966.974 Q195.787 966.974 192.709 962.391 Q189.653 957.784 189.653 949.057 Q189.653 940.307 192.709 935.724 Q195.787 931.118 201.598 931.118 Z" fill="#000000" fill-rule="nonzero" fill-opacity="1"></path><path clip-path="url(#clip800)" d="M127.2 670.933 Q123.589 670.933 121.76 674.498 Q119.955 678.04 119.955 685.169 Q119.955 692.276 121.76 695.84 Q123.589 699.382 127.2 699.382 Q130.834 699.382 132.64 695.84 Q134.468 692.276 134.468 685.169 Q134.468 678.04 132.64 674.498 Q130.834 670.933 127.2 670.933 M127.2 667.229 Q133.01 667.229 136.066 671.836 Q139.144 676.419 139.144 685.169 Q139.144 693.896 136.066 698.502 Q133.01 703.086 127.2 703.086 Q121.39 703.086 118.311 698.502 Q115.256 693.896 115.256 685.169 Q115.256 676.419 118.311 671.836 Q121.39 667.229 127.2 667.229 Z" fill="#000000" fill-rule="nonzero" fill-opacity="1"></path><path clip-path="url(#clip800)" d="M147.362 696.535 L152.246 696.535 L152.246 702.414 L147.362 702.414 L147.362 696.535 Z" fill="#000000" fill-rule="nonzero" fill-opacity="1"></path><path clip-path="url(#clip800)" d="M163.241 698.479 L170.88 698.479 L170.88 672.114 L162.57 673.78 L162.57 669.521 L170.834 667.854 L175.51 667.854 L175.51 698.479 L183.149 698.479 L183.149 702.414 L163.241 702.414 L163.241 698.479 Z" fill="#000000" fill-rule="nonzero" fill-opacity="1"></path><path clip-path="url(#clip800)" d="M192.639 667.854 L210.996 667.854 L210.996 671.79 L196.922 671.79 L196.922 680.262 Q197.94 679.915 198.959 679.753 Q199.977 679.567 200.996 679.567 Q206.783 679.567 210.162 682.739 Q213.542 685.91 213.542 691.327 Q213.542 696.905 210.07 700.007 Q206.598 703.086 200.278 703.086 Q198.102 703.086 195.834 702.715 Q193.588 702.345 191.181 701.604 L191.181 696.905 Q193.264 698.04 195.487 698.595 Q197.709 699.151 200.186 699.151 Q204.19 699.151 206.528 697.044 Q208.866 694.938 208.866 691.327 Q208.866 687.715 206.528 685.609 Q204.19 683.503 200.186 683.503 Q198.311 683.503 196.436 683.919 Q194.584 684.336 192.639 685.216 L192.639 667.854 Z" fill="#000000" fill-rule="nonzero" fill-opacity="1"></path><path clip-path="url(#clip800)" d="M126.205 407.045 Q122.593 407.045 120.765 410.61 Q118.959 414.151 118.959 421.281 Q118.959 428.387 120.765 431.952 Q122.593 435.494 126.205 435.494 Q129.839 435.494 131.644 431.952 Q133.473 428.387 133.473 421.281 Q133.473 414.151 131.644 410.61 Q129.839 407.045 126.205 407.045 M126.205 403.341 Q132.015 403.341 135.07 407.948 Q138.149 412.531 138.149 421.281 Q138.149 430.008 135.07 434.614 Q132.015 439.198 126.205 439.198 Q120.394 439.198 117.316 434.614 Q114.26 430.008 114.26 421.281 Q114.26 412.531 117.316 407.948 Q120.394 403.341 126.205 403.341 Z" fill="#000000" fill-rule="nonzero" fill-opacity="1"></path><path clip-path="url(#clip800)" d="M146.366 432.647 L151.251 432.647 L151.251 438.526 L146.366 438.526 L146.366 432.647 Z" fill="#000000" fill-rule="nonzero" fill-opacity="1"></path><path clip-path="url(#clip800)" d="M165.464 434.591 L181.783 434.591 L181.783 438.526 L159.839 438.526 L159.839 434.591 Q162.501 431.837 167.084 427.207 Q171.69 422.554 172.871 421.212 Q175.116 418.688 175.996 416.952 Q176.899 415.193 176.899 413.503 Q176.899 410.749 174.954 409.013 Q173.033 407.276 169.931 407.276 Q167.732 407.276 165.278 408.04 Q162.848 408.804 160.07 410.355 L160.07 405.633 Q162.894 404.499 165.348 403.92 Q167.802 403.341 169.839 403.341 Q175.209 403.341 178.403 406.026 Q181.598 408.712 181.598 413.202 Q181.598 415.332 180.788 417.253 Q180.001 419.151 177.894 421.744 Q177.315 422.415 174.214 425.633 Q171.112 428.827 165.464 434.591 Z" fill="#000000" fill-rule="nonzero" fill-opacity="1"></path><path clip-path="url(#clip800)" d="M201.598 407.045 Q197.987 407.045 196.158 410.61 Q194.352 414.151 194.352 421.281 Q194.352 428.387 196.158 431.952 Q197.987 435.494 201.598 435.494 Q205.232 435.494 207.037 431.952 Q208.866 428.387 208.866 421.281 Q208.866 414.151 207.037 410.61 Q205.232 407.045 201.598 407.045 M201.598 403.341 Q207.408 403.341 210.463 407.948 Q213.542 412.531 213.542 421.281 Q213.542 430.008 210.463 434.614 Q207.408 439.198 201.598 439.198 Q195.787 439.198 192.709 434.614 Q189.653 430.008 189.653 421.281 Q189.653 412.531 192.709 407.948 Q195.787 403.341 201.598 403.341 Z" fill="#000000" fill-rule="nonzero" fill-opacity="1"></path><path clip-path="url(#clip800)" d="M127.2 143.157 Q123.589 143.157 121.76 146.722 Q119.955 150.263 119.955 157.393 Q119.955 164.499 121.76 168.064 Q123.589 171.606 127.2 171.606 Q130.834 171.606 132.64 168.064 Q134.468 164.499 134.468 157.393 Q134.468 150.263 132.64 146.722 Q130.834 143.157 127.2 143.157 M127.2 139.453 Q133.01 139.453 136.066 144.06 Q139.144 148.643 139.144 157.393 Q139.144 166.12 136.066 170.726 Q133.01 175.309 127.2 175.309 Q121.39 175.309 118.311 170.726 Q115.256 166.12 115.256 157.393 Q115.256 148.643 118.311 144.06 Q121.39 139.453 127.2 139.453 Z" fill="#000000" fill-rule="nonzero" fill-opacity="1"></path><path clip-path="url(#clip800)" d="M147.362 168.758 L152.246 168.758 L152.246 174.638 L147.362 174.638 L147.362 168.758 Z" fill="#000000" fill-rule="nonzero" fill-opacity="1"></path><path clip-path="url(#clip800)" d="M166.459 170.703 L182.778 170.703 L182.778 174.638 L160.834 174.638 L160.834 170.703 Q163.496 167.948 168.079 163.319 Q172.686 158.666 173.866 157.323 Q176.112 154.8 176.991 153.064 Q177.894 151.305 177.894 149.615 Q177.894 146.86 175.95 145.124 Q174.028 143.388 170.927 143.388 Q168.727 143.388 166.274 144.152 Q163.843 144.916 161.065 146.467 L161.065 141.745 Q163.89 140.61 166.343 140.032 Q168.797 139.453 170.834 139.453 Q176.204 139.453 179.399 142.138 Q182.593 144.823 182.593 149.314 Q182.593 151.444 181.783 153.365 Q180.996 155.263 178.889 157.856 Q178.311 158.527 175.209 161.745 Q172.107 164.939 166.459 170.703 Z" fill="#000000" fill-rule="nonzero" fill-opacity="1"></path><path clip-path="url(#clip800)" d="M192.639 140.078 L210.996 140.078 L210.996 144.013 L196.922 144.013 L196.922 152.485 Q197.94 152.138 198.959 151.976 Q199.977 151.791 200.996 151.791 Q206.783 151.791 210.162 154.962 Q213.542 158.134 213.542 163.55 Q213.542 169.129 210.07 172.231 Q206.598 175.309 200.278 175.309 Q198.102 175.309 195.834 174.939 Q193.588 174.569 191.181 173.828 L191.181 169.129 Q193.264 170.263 195.487 170.819 Q197.709 171.374 200.186 171.374 Q204.19 171.374 206.528 169.268 Q208.866 167.161 208.866 163.55 Q208.866 159.939 206.528 157.833 Q204.19 155.726 200.186 155.726 Q198.311 155.726 196.436 156.143 Q194.584 156.559 192.639 157.439 L192.639 140.078 Z" fill="#000000" fill-rule="nonzero" fill-opacity="1"></path><path clip-path="url(#clip800)" d="M45.7664 805.091 Q39.4007 805.091 35.8996 807.733 Q32.3984 810.343 32.3984 815.085 Q32.3984 819.796 35.8996 822.437 Q39.4007 825.047 45.7664 825.047 Q52.1003 825.047 55.6014 822.437 Q59.1026 819.796 59.1026 815.085 Q59.1026 810.343 55.6014 807.733 Q52.1003 805.091 45.7664 805.091 M59.58 799.234 Q68.683 799.234 73.1071 803.277 Q77.5631 807.319 77.5631 815.658 Q77.5631 818.745 77.0857 821.483 Q76.6401 824.22 75.6852 826.798 L69.9879 826.798 Q71.3884 824.22 72.0568 821.705 Q72.7252 819.191 72.7252 816.581 Q72.7252 810.82 69.7015 807.955 Q66.7096 805.091 60.6303 805.091 L57.7339 805.091 Q60.885 806.905 62.4446 809.738 Q64.0042 812.571 64.0042 816.517 Q64.0042 823.074 59.0071 827.084 Q54.01 831.095 45.7664 831.095 Q37.491 831.095 32.4939 827.084 Q27.4968 823.074 27.4968 816.517 Q27.4968 812.571 29.0564 809.738 Q30.616 806.905 33.7671 805.091 L28.3562 805.091 L28.3562 799.234 L59.58 799.234 Z" fill="#000000" fill-rule="nonzero" fill-opacity="1"></path><path clip-path="url(#clip800)" d="M46.0847 770.971 Q46.0847 778.068 47.7079 780.806 Q49.3312 783.543 53.2461 783.543 Q56.3653 783.543 58.2114 781.506 Q60.0256 779.437 60.0256 775.904 Q60.0256 771.034 56.5881 768.106 Q53.1188 765.146 47.3897 765.146 L46.0847 765.146 L46.0847 770.971 M43.6657 759.29 L64.0042 759.29 L64.0042 765.146 L58.5933 765.146 Q61.8398 767.151 63.3994 770.143 Q64.9272 773.135 64.9272 777.464 Q64.9272 782.938 61.8716 786.185 Q58.7843 789.399 53.6281 789.399 Q47.6125 789.399 44.5569 785.389 Q41.5014 781.347 41.5014 773.358 L41.5014 765.146 L40.9285 765.146 Q36.8862 765.146 34.6901 767.82 Q32.4621 770.461 32.4621 775.268 Q32.4621 778.323 33.1941 781.219 Q33.9262 784.116 35.3903 786.789 L29.9795 786.789 Q28.7381 783.575 28.1334 780.551 Q27.4968 777.527 27.4968 774.663 Q27.4968 766.928 31.5072 763.109 Q35.5176 759.29 43.6657 759.29 Z" fill="#000000" fill-rule="nonzero" fill-opacity="1"></path><path clip-path="url(#clip800)" d="M58.657 741.561 L77.5631 741.561 L77.5631 747.449 L28.3562 747.449 L28.3562 741.561 L33.7671 741.561 Q30.5842 739.715 29.0564 736.914 Q27.4968 734.081 27.4968 730.166 Q27.4968 723.673 32.6531 719.631 Q37.8093 715.557 46.212 715.557 Q54.6147 715.557 59.771 719.631 Q64.9272 723.673 64.9272 730.166 Q64.9272 734.081 63.3994 736.914 Q61.8398 739.715 58.657 741.561 M46.212 721.636 Q39.7508 721.636 36.0905 724.31 Q32.3984 726.952 32.3984 731.599 Q32.3984 736.246 36.0905 738.919 Q39.7508 741.561 46.212 741.561 Q52.6732 741.561 56.3653 738.919 Q60.0256 736.246 60.0256 731.599 Q60.0256 726.952 56.3653 724.31 Q52.6732 721.636 46.212 721.636 Z" fill="#000000" fill-rule="nonzero" fill-opacity="1"></path><path clip-path="url(#clip800)" d="M992.774 43.6931 L992.774 65.8515 L1005.9 65.8515 Q1012.5 65.8515 1015.66 63.1374 Q1018.86 60.3828 1018.86 54.752 Q1018.86 49.0808 1015.66 46.4072 Q1012.5 43.6931 1005.9 43.6931 L992.774 43.6931 M992.774 18.8205 L992.774 37.0496 L1004.89 37.0496 Q1010.88 37.0496 1013.8 34.8216 Q1016.76 32.5531 1016.76 27.935 Q1016.76 23.3575 1013.8 21.089 Q1010.88 18.8205 1004.89 18.8205 L992.774 18.8205 M984.591 12.096 L1005.49 12.096 Q1014.85 12.096 1019.91 15.9849 Q1024.98 19.8737 1024.98 27.0438 Q1024.98 32.5936 1022.39 35.8748 Q1019.79 39.156 1014.77 39.9662 Q1020.81 41.2625 1024.13 45.3944 Q1027.49 49.4858 1027.49 55.6432 Q1027.49 63.745 1021.98 68.1605 Q1016.47 72.576 1006.3 72.576 L984.591 72.576 L984.591 12.096 Z" fill="#000000" fill-rule="nonzero" fill-opacity="1"></path><path clip-path="url(#clip800)" d="M1058.76 32.4315 Q1052.77 32.4315 1049.28 37.1306 Q1045.8 41.7891 1045.8 49.9314 Q1045.8 58.0738 1049.24 62.7728 Q1052.73 67.4314 1058.76 67.4314 Q1064.72 67.4314 1068.2 62.7323 Q1071.69 58.0333 1071.69 49.9314 Q1071.69 41.8701 1068.2 37.1711 Q1064.72 32.4315 1058.76 32.4315 M1058.76 26.1121 Q1068.49 26.1121 1074.04 32.4315 Q1079.58 38.7509 1079.58 49.9314 Q1079.58 61.0714 1074.04 67.4314 Q1068.49 73.7508 1058.76 73.7508 Q1049 73.7508 1043.45 67.4314 Q1037.94 61.0714 1037.94 49.9314 Q1037.94 38.7509 1043.45 32.4315 Q1049 26.1121 1058.76 26.1121 Z" fill="#000000" fill-rule="nonzero" fill-opacity="1"></path><path clip-path="url(#clip800)" d="M1127.1 27.2059 L1110.7 49.2833 L1127.95 72.576 L1119.16 72.576 L1105.96 54.752 L1092.75 72.576 L1083.96 72.576 L1101.58 48.8377 L1085.46 27.2059 L1094.25 27.2059 L1106.28 43.369 L1118.31 27.2059 L1127.1 27.2059 Z" fill="#000000" fill-rule="nonzero" fill-opacity="1"></path><path clip-path="url(#clip800)" d="M1145.7 65.7705 L1145.7 89.8329 L1138.2 89.8329 L1138.2 27.2059 L1145.7 27.2059 L1145.7 34.0924 Q1148.05 30.0415 1151.61 28.0971 Q1155.22 26.1121 1160.2 26.1121 Q1168.46 26.1121 1173.61 32.6746 Q1178.79 39.2371 1178.79 49.9314 Q1178.79 60.6258 1173.61 67.1883 Q1168.46 73.7508 1160.2 73.7508 Q1155.22 73.7508 1151.61 71.8063 Q1148.05 69.8214 1145.7 65.7705 M1171.05 49.9314 Q1171.05 41.7081 1167.65 37.0496 Q1164.29 32.3505 1158.37 32.3505 Q1152.46 32.3505 1149.06 37.0496 Q1145.7 41.7081 1145.7 49.9314 Q1145.7 58.1548 1149.06 62.8538 Q1152.46 67.5124 1158.37 67.5124 Q1164.29 67.5124 1167.65 62.8538 Q1171.05 58.1548 1171.05 49.9314 Z" fill="#000000" fill-rule="nonzero" fill-opacity="1"></path><path clip-path="url(#clip800)" d="M1191.15 9.54393 L1198.6 9.54393 L1198.6 72.576 L1191.15 72.576 L1191.15 9.54393 Z" fill="#000000" fill-rule="nonzero" fill-opacity="1"></path><path clip-path="url(#clip800)" d="M1231.78 32.4315 Q1225.78 32.4315 1222.3 37.1306 Q1218.81 41.7891 1218.81 49.9314 Q1218.81 58.0738 1222.26 62.7728 Q1225.74 67.4314 1231.78 67.4314 Q1237.73 67.4314 1241.22 62.7323 Q1244.7 58.0333 1244.7 49.9314 Q1244.7 41.8701 1241.22 37.1711 Q1237.73 32.4315 1231.78 32.4315 M1231.78 26.1121 Q1241.5 26.1121 1247.05 32.4315 Q1252.6 38.7509 1252.6 49.9314 Q1252.6 61.0714 1247.05 67.4314 Q1241.5 73.7508 1231.78 73.7508 Q1222.01 73.7508 1216.46 67.4314 Q1210.96 61.0714 1210.96 49.9314 Q1210.96 38.7509 1216.46 32.4315 Q1222.01 26.1121 1231.78 26.1121 Z" fill="#000000" fill-rule="nonzero" fill-opacity="1"></path><path clip-path="url(#clip800)" d="M1272.33 14.324 L1272.33 27.2059 L1287.68 27.2059 L1287.68 32.9987 L1272.33 32.9987 L1272.33 57.6282 Q1272.33 63.1779 1273.83 64.7578 Q1275.36 66.3376 1280.02 66.3376 L1287.68 66.3376 L1287.68 72.576 L1280.02 72.576 Q1271.4 72.576 1268.11 69.3758 Q1264.83 66.1351 1264.83 57.6282 L1264.83 32.9987 L1259.36 32.9987 L1259.36 27.2059 L1264.83 27.2059 L1264.83 14.324 L1272.33 14.324 Z" fill="#000000" fill-rule="nonzero" fill-opacity="1"></path><path clip-path="url(#clip800)" d="M1341.44 32.4315 Q1335.44 32.4315 1331.96 37.1306 Q1328.47 41.7891 1328.47 49.9314 Q1328.47 58.0738 1331.92 62.7728 Q1335.4 67.4314 1341.44 67.4314 Q1347.39 67.4314 1350.87 62.7323 Q1354.36 58.0333 1354.36 49.9314 Q1354.36 41.8701 1350.87 37.1711 Q1347.39 32.4315 1341.44 32.4315 M1341.44 26.1121 Q1351.16 26.1121 1356.71 32.4315 Q1362.26 38.7509 1362.26 49.9314 Q1362.26 61.0714 1356.71 67.4314 Q1351.16 73.7508 1341.44 73.7508 Q1331.67 73.7508 1326.12 67.4314 Q1320.61 61.0714 1320.61 49.9314 Q1320.61 38.7509 1326.12 32.4315 Q1331.67 26.1121 1341.44 26.1121 Z" fill="#000000" fill-rule="nonzero" fill-opacity="1"></path><path clip-path="url(#clip800)" d="M1397.58 9.54393 L1397.58 15.7418 L1390.45 15.7418 Q1386.44 15.7418 1384.86 17.3622 Q1383.32 18.9825 1383.32 23.1955 L1383.32 27.2059 L1395.6 27.2059 L1395.6 32.9987 L1383.32 32.9987 L1383.32 72.576 L1375.83 72.576 L1375.83 32.9987 L1368.7 32.9987 L1368.7 27.2059 L1375.83 27.2059 L1375.83 24.0462 Q1375.83 16.471 1379.35 13.0277 Q1382.88 9.54393 1390.53 9.54393 L1397.58 9.54393 Z" fill="#000000" fill-rule="nonzero" fill-opacity="1"></path><path clip-path="url(#clip800)" d="M1460.05 49.3643 Q1460.05 41.2625 1456.68 36.8065 Q1453.36 32.3505 1447.33 32.3505 Q1441.33 32.3505 1437.97 36.8065 Q1434.65 41.2625 1434.65 49.3643 Q1434.65 57.4256 1437.97 61.8816 Q1441.33 66.3376 1447.33 66.3376 Q1453.36 66.3376 1456.68 61.8816 Q1460.05 57.4256 1460.05 49.3643 M1467.5 66.9452 Q1467.5 78.5308 1462.35 84.1616 Q1457.21 89.8329 1446.6 89.8329 Q1442.67 89.8329 1439.18 89.2252 Q1435.7 88.6581 1432.42 87.4428 L1432.42 80.1917 Q1435.7 81.9741 1438.9 82.8248 Q1442.1 83.6755 1445.42 83.6755 Q1452.75 83.6755 1456.4 79.8271 Q1460.05 76.0193 1460.05 68.282 L1460.05 64.5957 Q1457.74 68.6061 1454.13 70.5911 Q1450.53 72.576 1445.5 72.576 Q1437.16 72.576 1432.05 66.2161 Q1426.95 59.8562 1426.95 49.3643 Q1426.95 38.832 1432.05 32.472 Q1437.16 26.1121 1445.5 26.1121 Q1450.53 26.1121 1454.13 28.0971 Q1457.74 30.082 1460.05 34.0924 L1460.05 27.2059 L1467.5 27.2059 L1467.5 66.9452 Z" fill="#000000" fill-rule="nonzero" fill-opacity="1"></path><path clip-path="url(#clip800)" d="M1503.47 49.7694 Q1494.44 49.7694 1490.95 51.8354 Q1487.47 53.9013 1487.47 58.8839 Q1487.47 62.8538 1490.06 65.2034 Q1492.7 67.5124 1497.19 67.5124 Q1503.39 67.5124 1507.12 63.1374 Q1510.88 58.7219 1510.88 51.4303 L1510.88 49.7694 L1503.47 49.7694 M1518.34 46.6907 L1518.34 72.576 L1510.88 72.576 L1510.88 65.6895 Q1508.33 69.8214 1504.52 71.8063 Q1500.72 73.7508 1495.21 73.7508 Q1488.24 73.7508 1484.11 69.8619 Q1480.02 65.9325 1480.02 59.3701 Q1480.02 51.7138 1485.12 47.825 Q1490.27 43.9361 1500.43 43.9361 L1510.88 43.9361 L1510.88 43.2069 Q1510.88 38.0623 1507.48 35.2672 Q1504.12 32.4315 1498 32.4315 Q1494.11 32.4315 1490.43 33.3632 Q1486.74 34.295 1483.34 36.1584 L1483.34 29.2718 Q1487.43 27.692 1491.28 26.9223 Q1495.13 26.1121 1498.77 26.1121 Q1508.62 26.1121 1513.48 31.2163 Q1518.34 36.3204 1518.34 46.6907 Z" fill="#000000" fill-rule="nonzero" fill-opacity="1"></path><path clip-path="url(#clip800)" d="M1540.9 65.7705 L1540.9 89.8329 L1533.41 89.8329 L1533.41 27.2059 L1540.9 27.2059 L1540.9 34.0924 Q1543.25 30.0415 1546.82 28.0971 Q1550.42 26.1121 1555.4 26.1121 Q1563.67 26.1121 1568.81 32.6746 Q1574 39.2371 1574 49.9314 Q1574 60.6258 1568.81 67.1883 Q1563.67 73.7508 1555.4 73.7508 Q1550.42 73.7508 1546.82 71.8063 Q1543.25 69.8214 1540.9 65.7705 M1566.26 49.9314 Q1566.26 41.7081 1562.86 37.0496 Q1559.5 32.3505 1553.58 32.3505 Q1547.67 32.3505 1544.26 37.0496 Q1540.9 41.7081 1540.9 49.9314 Q1540.9 58.1548 1544.26 62.8538 Q1547.67 67.5124 1553.58 67.5124 Q1559.5 67.5124 1562.86 62.8538 Q1566.26 58.1548 1566.26 49.9314 Z" fill="#000000" fill-rule="nonzero" fill-opacity="1"></path><path clip-path="url(#clip800)" d="M1615.28 28.5427 L1615.28 35.5912 Q1612.12 33.9709 1608.71 33.1607 Q1605.31 32.3505 1601.67 32.3505 Q1596.12 32.3505 1593.32 34.0519 Q1590.57 35.7533 1590.57 39.156 Q1590.57 41.7486 1592.55 43.2475 Q1594.54 44.7058 1600.53 46.0426 L1603.08 46.6097 Q1611.02 48.3111 1614.34 51.4303 Q1617.71 54.509 1617.71 60.0587 Q1617.71 66.3781 1612.68 70.0644 Q1607.7 73.7508 1598.95 73.7508 Q1595.31 73.7508 1591.34 73.0216 Q1587.41 72.3329 1583.03 70.9151 L1583.03 63.2184 Q1587.16 65.3654 1591.17 66.4591 Q1595.18 67.5124 1599.11 67.5124 Q1604.38 67.5124 1607.22 65.73 Q1610.05 63.9071 1610.05 60.6258 Q1610.05 57.5877 1607.98 55.9673 Q1605.96 54.3469 1599.03 52.8481 L1596.44 52.2405 Q1589.51 50.7821 1586.43 47.7845 Q1583.36 44.7463 1583.36 39.4801 Q1583.36 33.0797 1587.89 29.5959 Q1592.43 26.1121 1600.77 26.1121 Q1604.91 26.1121 1608.55 26.7198 Q1612.2 27.3274 1615.28 28.5427 Z" fill="#000000" fill-rule="nonzero" fill-opacity="1"></path><path clip-path="url(#clip802)" d="M517.926 1386.4 L413.497 1386.4 L622.356 1386.4 L517.926 1386.4 L517.926 1225.9 L517.926 1386.4  Z" fill="#009af9" fill-rule="evenodd" fill-opacity="1"></path>
<polyline clip-path="url(#clip802)" style="stroke:#000000; stroke-linecap:round; stroke-linejoin:round; stroke-width:4; stroke-opacity:1; fill:none" points="517.926,1386.4 413.497,1386.4 622.356,1386.4 517.926,1386.4 517.926,1225.9 517.926,1386.4 "></polyline>
<path clip-path="url(#clip802)" d="M726.786 1225.9 L726.786 1159.35 L309.067 1159.35 L309.067 1225.9 L726.786 1225.9 L726.786 1159.35 L726.786 1225.9  Z" fill="#009af9" fill-rule="evenodd" fill-opacity="1"></path>
<polyline clip-path="url(#clip802)" style="stroke:#000000; stroke-linecap:round; stroke-linejoin:round; stroke-width:4; stroke-opacity:1; fill:none" points="726.786,1225.9 726.786,1159.35 309.067,1159.35 309.067,1225.9 726.786,1225.9 726.786,1159.35 726.786,1225.9 "></polyline>
<path clip-path="url(#clip802)" d="M726.786 1047.6 L309.067 1047.6 L309.067 1159.35 L726.786 1159.35 L726.786 1047.6 L517.926 1047.6 L726.786 1047.6  Z" fill="#009af9" fill-rule="evenodd" fill-opacity="1"></path>
<polyline clip-path="url(#clip802)" style="stroke:#000000; stroke-linecap:round; stroke-linejoin:round; stroke-width:4; stroke-opacity:1; fill:none" points="726.786,1047.6 309.067,1047.6 309.067,1159.35 726.786,1159.35 726.786,1047.6 517.926,1047.6 726.786,1047.6 "></polyline>
<path clip-path="url(#clip802)" d="M517.926 812.142 L413.497 812.142 L622.356 812.142 L517.926 812.142 L517.926 1047.6 L517.926 812.142  Z" fill="#009af9" fill-rule="evenodd" fill-opacity="1"></path>
<polyline clip-path="url(#clip802)" style="stroke:#000000; stroke-linecap:round; stroke-linejoin:round; stroke-width:4; stroke-opacity:1; fill:none" points="517.926,812.142 413.497,812.142 622.356,812.142 517.926,812.142 517.926,1047.6 517.926,812.142 "></polyline>
<circle clip-path="url(#clip802)" cx="517.926" cy="604.776" r="14.4" fill="#009af9" fill-rule="evenodd" fill-opacity="1" stroke="#000000" stroke-opacity="1" stroke-width="3.2"></circle>
<circle clip-path="url(#clip802)" cx="517.926" cy="584.52" r="14.4" fill="#009af9" fill-rule="evenodd" fill-opacity="1" stroke="#000000" stroke-opacity="1" stroke-width="3.2"></circle>
<polyline clip-path="url(#clip802)" style="stroke:#009af9; stroke-linecap:round; stroke-linejoin:round; stroke-width:0; stroke-opacity:1; fill:none" points="517.926,1386.4 413.497,1386.4 622.356,1386.4 517.926,1386.4 517.926,1225.9 "></polyline>
<polyline clip-path="url(#clip802)" style="stroke:#009af9; stroke-linecap:round; stroke-linejoin:round; stroke-width:0; stroke-opacity:1; fill:none" points="726.786,1225.9 726.786,1159.35 309.067,1159.35 309.067,1225.9 726.786,1225.9 726.786,1159.35 "></polyline>
<polyline clip-path="url(#clip802)" style="stroke:#009af9; stroke-linecap:round; stroke-linejoin:round; stroke-width:0; stroke-opacity:1; fill:none" points="726.786,1047.6 309.067,1047.6 309.067,1159.35 726.786,1159.35 726.786,1047.6 517.926,1047.6 "></polyline>
<polyline clip-path="url(#clip802)" style="stroke:#009af9; stroke-linecap:round; stroke-linejoin:round; stroke-width:0; stroke-opacity:1; fill:none" points="517.926,812.142 413.497,812.142 622.356,812.142 517.926,812.142 517.926,1047.6 "></polyline>
<path clip-path="url(#clip802)" d="M1040.07 1179.11 L935.645 1179.11 L1144.5 1179.11 L1040.07 1179.11 L1040.07 1044.26 L1040.07 1179.11  Z" fill="#e26f46" fill-rule="evenodd" fill-opacity="1"></path>
<polyline clip-path="url(#clip802)" style="stroke:#000000; stroke-linecap:round; stroke-linejoin:round; stroke-width:4; stroke-opacity:1; fill:none" points="1040.07,1179.11 935.645,1179.11 1144.5,1179.11 1040.07,1179.11 1040.07,1044.26 1040.07,1179.11 "></polyline>
<path clip-path="url(#clip802)" d="M1248.93 1044.26 L1248.93 963.761 L831.215 963.761 L831.215 1044.26 L1248.93 1044.26 L1248.93 963.761 L1248.93 1044.26  Z" fill="#e26f46" fill-rule="evenodd" fill-opacity="1"></path>
<polyline clip-path="url(#clip802)" style="stroke:#000000; stroke-linecap:round; stroke-linejoin:round; stroke-width:4; stroke-opacity:1; fill:none" points="1248.93,1044.26 1248.93,963.761 831.215,963.761 831.215,1044.26 1248.93,1044.26 1248.93,963.761 1248.93,1044.26 "></polyline>
<path clip-path="url(#clip802)" d="M1248.93 889.449 L831.215 889.449 L831.215 963.761 L1248.93 963.761 L1248.93 889.449 L1040.07 889.449 L1248.93 889.449  Z" fill="#e26f46" fill-rule="evenodd" fill-opacity="1"></path>
<polyline clip-path="url(#clip802)" style="stroke:#000000; stroke-linecap:round; stroke-linejoin:round; stroke-width:4; stroke-opacity:1; fill:none" points="1248.93,889.449 831.215,889.449 831.215,963.761 1248.93,963.761 1248.93,889.449 1040.07,889.449 1248.93,889.449 "></polyline>
<path clip-path="url(#clip802)" d="M1040.07 716.678 L935.645 716.678 L1144.5 716.678 L1040.07 716.678 L1040.07 889.449 L1040.07 716.678  Z" fill="#e26f46" fill-rule="evenodd" fill-opacity="1"></path>
<polyline clip-path="url(#clip802)" style="stroke:#000000; stroke-linecap:round; stroke-linejoin:round; stroke-width:4; stroke-opacity:1; fill:none" points="1040.07,716.678 935.645,716.678 1144.5,716.678 1040.07,716.678 1040.07,889.449 1040.07,716.678 "></polyline>
<circle clip-path="url(#clip802)" cx="1040.07" cy="586.325" r="14.4" fill="#e26f46" fill-rule="evenodd" fill-opacity="1" stroke="#000000" stroke-opacity="1" stroke-width="3.2"></circle>
<circle clip-path="url(#clip802)" cx="1040.07" cy="621.041" r="14.4" fill="#e26f46" fill-rule="evenodd" fill-opacity="1" stroke="#000000" stroke-opacity="1" stroke-width="3.2"></circle>
<circle clip-path="url(#clip802)" cx="1040.07" cy="484.559" r="14.4" fill="#e26f46" fill-rule="evenodd" fill-opacity="1" stroke="#000000" stroke-opacity="1" stroke-width="3.2"></circle>
<polyline clip-path="url(#clip802)" style="stroke:#e26f46; stroke-linecap:round; stroke-linejoin:round; stroke-width:0; stroke-opacity:1; fill:none" points="1040.07,1179.11 935.645,1179.11 1144.5,1179.11 1040.07,1179.11 1040.07,1044.26 "></polyline>
<polyline clip-path="url(#clip802)" style="stroke:#e26f46; stroke-linecap:round; stroke-linejoin:round; stroke-width:0; stroke-opacity:1; fill:none" points="1248.93,1044.26 1248.93,963.761 831.215,963.761 831.215,1044.26 1248.93,1044.26 1248.93,963.761 "></polyline>
<polyline clip-path="url(#clip802)" style="stroke:#e26f46; stroke-linecap:round; stroke-linejoin:round; stroke-width:0; stroke-opacity:1; fill:none" points="1248.93,889.449 831.215,889.449 831.215,963.761 1248.93,963.761 1248.93,889.449 1040.07,889.449 "></polyline>
<polyline clip-path="url(#clip802)" style="stroke:#e26f46; stroke-linecap:round; stroke-linejoin:round; stroke-width:0; stroke-opacity:1; fill:none" points="1040.07,716.678 935.645,716.678 1144.5,716.678 1040.07,716.678 1040.07,889.449 "></polyline>
<path clip-path="url(#clip802)" d="M1562.22 1137.02 L1457.79 1137.02 L1666.65 1137.02 L1562.22 1137.02 L1562.22 920.968 L1562.22 1137.02  Z" fill="#3da44d" fill-rule="evenodd" fill-opacity="1"></path>
<polyline clip-path="url(#clip802)" style="stroke:#000000; stroke-linecap:round; stroke-linejoin:round; stroke-width:4; stroke-opacity:1; fill:none" points="1562.22,1137.02 1457.79,1137.02 1666.65,1137.02 1562.22,1137.02 1562.22,920.968 1562.22,1137.02 "></polyline>
<path clip-path="url(#clip802)" d="M1771.08 920.968 L1771.08 817.613 L1353.36 817.613 L1353.36 920.968 L1771.08 920.968 L1771.08 817.613 L1771.08 920.968  Z" fill="#3da44d" fill-rule="evenodd" fill-opacity="1"></path>
<polyline clip-path="url(#clip802)" style="stroke:#000000; stroke-linecap:round; stroke-linejoin:round; stroke-width:4; stroke-opacity:1; fill:none" points="1771.08,920.968 1771.08,817.613 1353.36,817.613 1353.36,920.968 1771.08,920.968 1771.08,817.613 1771.08,920.968 "></polyline>
<path clip-path="url(#clip802)" d="M1771.08 714.776 L1353.36 714.776 L1353.36 817.613 L1771.08 817.613 L1771.08 714.776 L1562.22 714.776 L1771.08 714.776  Z" fill="#3da44d" fill-rule="evenodd" fill-opacity="1"></path>
<polyline clip-path="url(#clip802)" style="stroke:#000000; stroke-linecap:round; stroke-linejoin:round; stroke-width:4; stroke-opacity:1; fill:none" points="1771.08,714.776 1353.36,714.776 1353.36,817.613 1771.08,817.613 1771.08,714.776 1562.22,714.776 1771.08,714.776 "></polyline>
<path clip-path="url(#clip802)" d="M1562.22 460.741 L1457.79 460.741 L1666.65 460.741 L1562.22 460.741 L1562.22 714.776 L1562.22 460.741  Z" fill="#3da44d" fill-rule="evenodd" fill-opacity="1"></path>
<polyline clip-path="url(#clip802)" style="stroke:#000000; stroke-linecap:round; stroke-linejoin:round; stroke-width:4; stroke-opacity:1; fill:none" points="1562.22,460.741 1457.79,460.741 1666.65,460.741 1562.22,460.741 1562.22,714.776 1562.22,460.741 "></polyline>
<circle clip-path="url(#clip802)" cx="1562.22" cy="160.256" r="14.4" fill="#3da44d" fill-rule="evenodd" fill-opacity="1" stroke="#000000" stroke-opacity="1" stroke-width="3.2"></circle>
<circle clip-path="url(#clip802)" cx="1562.22" cy="329.694" r="14.4" fill="#3da44d" fill-rule="evenodd" fill-opacity="1" stroke="#000000" stroke-opacity="1" stroke-width="3.2"></circle>
<circle clip-path="url(#clip802)" cx="1562.22" cy="340.177" r="14.4" fill="#3da44d" fill-rule="evenodd" fill-opacity="1" stroke="#000000" stroke-opacity="1" stroke-width="3.2"></circle>
<circle clip-path="url(#clip802)" cx="1562.22" cy="343.518" r="14.4" fill="#3da44d" fill-rule="evenodd" fill-opacity="1" stroke="#000000" stroke-opacity="1" stroke-width="3.2"></circle>
<circle clip-path="url(#clip802)" cx="1562.22" cy="354.025" r="14.4" fill="#3da44d" fill-rule="evenodd" fill-opacity="1" stroke="#000000" stroke-opacity="1" stroke-width="3.2"></circle>
<polyline clip-path="url(#clip802)" style="stroke:#3da44d; stroke-linecap:round; stroke-linejoin:round; stroke-width:0; stroke-opacity:1; fill:none" points="1562.22,1137.02 1457.79,1137.02 1666.65,1137.02 1562.22,1137.02 1562.22,920.968 "></polyline>
<polyline clip-path="url(#clip802)" style="stroke:#3da44d; stroke-linecap:round; stroke-linejoin:round; stroke-width:0; stroke-opacity:1; fill:none" points="1771.08,920.968 1771.08,817.613 1353.36,817.613 1353.36,920.968 1771.08,920.968 1771.08,817.613 "></polyline>
<polyline clip-path="url(#clip802)" style="stroke:#3da44d; stroke-linecap:round; stroke-linejoin:round; stroke-width:0; stroke-opacity:1; fill:none" points="1771.08,714.776 1353.36,714.776 1353.36,817.613 1771.08,817.613 1771.08,714.776 1562.22,714.776 "></polyline>
<polyline clip-path="url(#clip802)" style="stroke:#3da44d; stroke-linecap:round; stroke-linejoin:round; stroke-width:0; stroke-opacity:1; fill:none" points="1562.22,460.741 1457.79,460.741 1666.65,460.741 1562.22,460.741 1562.22,714.776 "></polyline>
<path clip-path="url(#clip802)" d="M2084.37 1224.95 L1979.94 1224.95 L2188.8 1224.95 L2084.37 1224.95 L2084.37 1004.14 L2084.37 1224.95  Z" fill="#c271d2" fill-rule="evenodd" fill-opacity="1"></path>
<polyline clip-path="url(#clip802)" style="stroke:#000000; stroke-linecap:round; stroke-linejoin:round; stroke-width:4; stroke-opacity:1; fill:none" points="2084.37,1224.95 1979.94,1224.95 2188.8,1224.95 2084.37,1224.95 2084.37,1004.14 2084.37,1224.95 "></polyline>
<path clip-path="url(#clip802)" d="M2293.23 1004.14 L2293.23 931.234 L1875.51 931.234 L1875.51 1004.14 L2293.23 1004.14 L2293.23 931.234 L2293.23 1004.14  Z" fill="#c271d2" fill-rule="evenodd" fill-opacity="1"></path>
<polyline clip-path="url(#clip802)" style="stroke:#000000; stroke-linecap:round; stroke-linejoin:round; stroke-width:4; stroke-opacity:1; fill:none" points="2293.23,1004.14 2293.23,931.234 1875.51,931.234 1875.51,1004.14 2293.23,1004.14 2293.23,931.234 2293.23,1004.14 "></polyline>
<path clip-path="url(#clip802)" d="M2293.23 817.41 L1875.51 817.41 L1875.51 931.234 L2293.23 931.234 L2293.23 817.41 L2084.37 817.41 L2293.23 817.41  Z" fill="#c271d2" fill-rule="evenodd" fill-opacity="1"></path>
<polyline clip-path="url(#clip802)" style="stroke:#000000; stroke-linecap:round; stroke-linejoin:round; stroke-width:4; stroke-opacity:1; fill:none" points="2293.23,817.41 1875.51,817.41 1875.51,931.234 2293.23,931.234 2293.23,817.41 2084.37,817.41 2293.23,817.41 "></polyline>
<path clip-path="url(#clip802)" d="M2084.37 546.428 L1979.94 546.428 L2188.8 546.428 L2084.37 546.428 L2084.37 817.41 L2084.37 546.428  Z" fill="#c271d2" fill-rule="evenodd" fill-opacity="1"></path>
<polyline clip-path="url(#clip802)" style="stroke:#000000; stroke-linecap:round; stroke-linejoin:round; stroke-width:4; stroke-opacity:1; fill:none" points="2084.37,546.428 1979.94,546.428 2188.8,546.428 2084.37,546.428 2084.37,817.41 2084.37,546.428 "></polyline>
<circle clip-path="url(#clip802)" cx="2084.37" cy="453.713" r="14.4" fill="#c271d2" fill-rule="evenodd" fill-opacity="1" stroke="#000000" stroke-opacity="1" stroke-width="3.2"></circle>
<circle clip-path="url(#clip802)" cx="2084.37" cy="537.137" r="14.4" fill="#c271d2" fill-rule="evenodd" fill-opacity="1" stroke="#000000" stroke-opacity="1" stroke-width="3.2"></circle>
<polyline clip-path="url(#clip802)" style="stroke:#c271d2; stroke-linecap:round; stroke-linejoin:round; stroke-width:0; stroke-opacity:1; fill:none" points="2084.37,1224.95 1979.94,1224.95 2188.8,1224.95 2084.37,1224.95 2084.37,1004.14 "></polyline>
<polyline clip-path="url(#clip802)" style="stroke:#c271d2; stroke-linecap:round; stroke-linejoin:round; stroke-width:0; stroke-opacity:1; fill:none" points="2293.23,1004.14 2293.23,931.234 1875.51,931.234 1875.51,1004.14 2293.23,1004.14 2293.23,931.234 "></polyline>
<polyline clip-path="url(#clip802)" style="stroke:#c271d2; stroke-linecap:round; stroke-linejoin:round; stroke-width:0; stroke-opacity:1; fill:none" points="2293.23,817.41 1875.51,817.41 1875.51,931.234 2293.23,931.234 2293.23,817.41 2084.37,817.41 "></polyline>
<polyline clip-path="url(#clip802)" style="stroke:#c271d2; stroke-linecap:round; stroke-linejoin:round; stroke-width:0; stroke-opacity:1; fill:none" points="2084.37,546.428 1979.94,546.428 2188.8,546.428 2084.37,546.428 2084.37,817.41 "></polyline>
<path clip-path="url(#clip800)" d="M1973.93 425.996 L2282.65 425.996 L2282.65 166.796 L1973.93 166.796  Z" fill="#ffffff" fill-rule="evenodd" fill-opacity="1"></path>
<polyline clip-path="url(#clip800)" style="stroke:#000000; stroke-linecap:round; stroke-linejoin:round; stroke-width:4; stroke-opacity:1; fill:none" points="1973.93,425.996 2282.65,425.996 2282.65,166.796 1973.93,166.796 1973.93,425.996 "></polyline>
<path clip-path="url(#clip800)" d="M1997.29 239.372 L2137.51 239.372 L2137.51 197.9 L1997.29 197.9 L1997.29 239.372  Z" fill="#009af9" fill-rule="evenodd" fill-opacity="1"></path>
<polyline clip-path="url(#clip800)" style="stroke:#000000; stroke-linecap:round; stroke-linejoin:round; stroke-width:4; stroke-opacity:1; fill:none" points="1997.29,239.372 2137.51,239.372 2137.51,197.9 1997.29,197.9 1997.29,239.372 "></polyline>
<path clip-path="url(#clip800)" d="M2186.43 230.985 L2186.43 221.703 L2178.79 221.703 L2178.79 217.86 L2191.06 217.86 L2191.06 232.698 Q2188.35 234.619 2185.09 235.615 Q2181.83 236.587 2178.12 236.587 Q2170.02 236.587 2165.44 231.865 Q2160.88 227.119 2160.88 218.67 Q2160.88 210.198 2165.44 205.476 Q2170.02 200.731 2178.12 200.731 Q2181.5 200.731 2184.53 201.564 Q2187.59 202.397 2190.16 204.018 L2190.16 208.995 Q2187.57 206.796 2184.65 205.684 Q2181.73 204.573 2178.52 204.573 Q2172.17 204.573 2168.98 208.115 Q2165.81 211.657 2165.81 218.67 Q2165.81 225.661 2168.98 229.203 Q2172.17 232.744 2178.52 232.744 Q2180.99 232.744 2182.94 232.328 Q2184.88 231.888 2186.43 230.985 Z" fill="#000000" fill-rule="nonzero" fill-opacity="1"></path><path clip-path="url(#clip800)" d="M2204.28 205.198 L2204.28 218.184 L2210.16 218.184 Q2213.42 218.184 2215.21 216.495 Q2216.99 214.805 2216.99 211.68 Q2216.99 208.578 2215.21 206.888 Q2213.42 205.198 2210.16 205.198 L2204.28 205.198 M2199.6 201.356 L2210.16 201.356 Q2215.97 201.356 2218.93 203.995 Q2221.92 206.61 2221.92 211.68 Q2221.92 216.795 2218.93 219.411 Q2215.97 222.027 2210.16 222.027 L2204.28 222.027 L2204.28 235.916 L2199.6 235.916 L2199.6 201.356 Z" fill="#000000" fill-rule="nonzero" fill-opacity="1"></path><path clip-path="url(#clip800)" d="M1997.29 291.212 L2137.51 291.212 L2137.51 249.74 L1997.29 249.74 L1997.29 291.212  Z" fill="#e26f46" fill-rule="evenodd" fill-opacity="1"></path>
<polyline clip-path="url(#clip800)" style="stroke:#000000; stroke-linecap:round; stroke-linejoin:round; stroke-width:4; stroke-opacity:1; fill:none" points="1997.29,291.212 2137.51,291.212 2137.51,249.74 1997.29,249.74 1997.29,291.212 "></polyline>
<path clip-path="url(#clip800)" d="M2160.88 253.196 L2182.73 253.196 L2182.73 257.131 L2165.55 257.131 L2165.55 267.362 L2182.01 267.362 L2182.01 271.297 L2165.55 271.297 L2165.55 283.821 L2183.15 283.821 L2183.15 287.756 L2160.88 287.756 L2160.88 253.196 Z" fill="#000000" fill-rule="nonzero" fill-opacity="1"></path><path clip-path="url(#clip800)" d="M2195.28 283.821 L2211.59 283.821 L2211.59 287.756 L2189.65 287.756 L2189.65 283.821 Q2192.31 281.066 2196.9 276.436 Q2201.5 271.784 2202.68 270.441 Q2204.93 267.918 2205.81 266.182 Q2206.71 264.423 2206.71 262.733 Q2206.71 259.978 2204.77 258.242 Q2202.84 256.506 2199.74 256.506 Q2197.54 256.506 2195.09 257.27 Q2192.66 258.034 2189.88 259.585 L2189.88 254.862 Q2192.71 253.728 2195.16 253.149 Q2197.61 252.571 2199.65 252.571 Q2205.02 252.571 2208.22 255.256 Q2211.41 257.941 2211.41 262.432 Q2211.41 264.561 2210.6 266.483 Q2209.81 268.381 2207.71 270.973 Q2207.13 271.645 2204.03 274.862 Q2200.92 278.057 2195.28 283.821 Z" fill="#000000" fill-rule="nonzero" fill-opacity="1"></path><path clip-path="url(#clip800)" d="M2220.99 253.196 L2242.84 253.196 L2242.84 257.131 L2225.67 257.131 L2225.67 267.362 L2242.13 267.362 L2242.13 271.297 L2225.67 271.297 L2225.67 283.821 L2243.26 283.821 L2243.26 287.756 L2220.99 287.756 L2220.99 253.196 Z" fill="#000000" fill-rule="nonzero" fill-opacity="1"></path><path clip-path="url(#clip800)" d="M1997.29 343.052 L2137.51 343.052 L2137.51 301.58 L1997.29 301.58 L1997.29 343.052  Z" fill="#3da44d" fill-rule="evenodd" fill-opacity="1"></path>
<polyline clip-path="url(#clip800)" style="stroke:#000000; stroke-linecap:round; stroke-linejoin:round; stroke-width:4; stroke-opacity:1; fill:none" points="1997.29,343.052 2137.51,343.052 2137.51,301.58 1997.29,301.58 1997.29,343.052 "></polyline>
<path clip-path="url(#clip800)" d="M2160.88 305.036 L2165.6 305.036 L2172.87 334.249 L2180.11 305.036 L2185.37 305.036 L2192.64 334.249 L2199.88 305.036 L2204.63 305.036 L2195.95 339.596 L2190.07 339.596 L2182.78 309.596 L2175.41 339.596 L2169.53 339.596 L2160.88 305.036 Z" fill="#000000" fill-rule="nonzero" fill-opacity="1"></path><path clip-path="url(#clip800)" d="M2215.51 308.878 L2215.51 321.864 L2221.39 321.864 Q2224.65 321.864 2226.43 320.175 Q2228.22 318.485 2228.22 315.36 Q2228.22 312.258 2226.43 310.568 Q2224.65 308.878 2221.39 308.878 L2215.51 308.878 M2210.83 305.036 L2221.39 305.036 Q2227.2 305.036 2230.16 307.675 Q2233.15 310.29 2233.15 315.36 Q2233.15 320.475 2230.16 323.091 Q2227.2 325.707 2221.39 325.707 L2215.51 325.707 L2215.51 339.596 L2210.83 339.596 L2210.83 305.036 Z" fill="#000000" fill-rule="nonzero" fill-opacity="1"></path><path clip-path="url(#clip800)" d="M2239.42 305.036 L2259.28 305.036 L2259.28 308.971 L2244.09 308.971 L2244.09 319.156 L2257.8 319.156 L2257.8 323.091 L2244.09 323.091 L2244.09 339.596 L2239.42 339.596 L2239.42 305.036 Z" fill="#000000" fill-rule="nonzero" fill-opacity="1"></path><path clip-path="url(#clip800)" d="M1997.29 394.892 L2137.51 394.892 L2137.51 353.42 L1997.29 353.42 L1997.29 394.892  Z" fill="#c271d2" fill-rule="evenodd" fill-opacity="1"></path>
<polyline clip-path="url(#clip800)" style="stroke:#000000; stroke-linecap:round; stroke-linejoin:round; stroke-width:4; stroke-opacity:1; fill:none" points="1997.29,394.892 2137.51,394.892 2137.51,353.42 1997.29,353.42 1997.29,394.892 "></polyline>
<path clip-path="url(#clip800)" d="M2183.12 358.01 L2183.12 362.57 Q2180.46 361.297 2178.1 360.672 Q2175.74 360.047 2173.54 360.047 Q2169.72 360.047 2167.64 361.528 Q2165.58 363.01 2165.58 365.741 Q2165.58 368.033 2166.94 369.214 Q2168.33 370.371 2172.17 371.089 L2175 371.667 Q2180.23 372.663 2182.71 375.186 Q2185.21 377.686 2185.21 381.899 Q2185.21 386.922 2181.83 389.514 Q2178.47 392.107 2171.97 392.107 Q2169.51 392.107 2166.73 391.551 Q2163.98 390.996 2161.02 389.908 L2161.02 385.093 Q2163.86 386.69 2166.6 387.501 Q2169.33 388.311 2171.97 388.311 Q2175.97 388.311 2178.15 386.737 Q2180.32 385.163 2180.32 382.246 Q2180.32 379.7 2178.75 378.264 Q2177.2 376.829 2173.63 376.112 L2170.78 375.556 Q2165.55 374.515 2163.22 372.292 Q2160.88 370.07 2160.88 366.112 Q2160.88 361.528 2164.1 358.89 Q2167.34 356.251 2173.01 356.251 Q2175.44 356.251 2177.96 356.691 Q2180.48 357.13 2183.12 358.01 Z" fill="#000000" fill-rule="nonzero" fill-opacity="1"></path><path clip-path="url(#clip800)" d="M2197.17 360.718 L2197.17 373.704 L2203.05 373.704 Q2206.32 373.704 2208.1 372.015 Q2209.88 370.325 2209.88 367.2 Q2209.88 364.098 2208.1 362.408 Q2206.32 360.718 2203.05 360.718 L2197.17 360.718 M2192.5 356.876 L2203.05 356.876 Q2208.86 356.876 2211.83 359.515 Q2214.81 362.13 2214.81 367.2 Q2214.81 372.315 2211.83 374.931 Q2208.86 377.547 2203.05 377.547 L2197.17 377.547 L2197.17 391.436 L2192.5 391.436 L2192.5 356.876 Z" fill="#000000" fill-rule="nonzero" fill-opacity="1"></path><path clip-path="url(#clip800)" d="M2216.29 356.876 L2245.53 356.876 L2245.53 360.811 L2233.26 360.811 L2233.26 391.436 L2228.56 391.436 L2228.56 360.811 L2216.29 360.811 L2216.29 356.876 Z" fill="#000000" fill-rule="nonzero" fill-opacity="1"></path></svg>