<svg xmlns="http://www.w3.org/2000/svg" xmlns:xlink="http://www.w3.org/1999/xlink" width="600" height="400" viewBox="0 0 2400 1600">
<defs>
  <clipPath id="clip790">
    <rect x="0" y="0" width="2400" height="1600"></rect>
  </clipPath>
</defs>
<path clip-path="url(#clip790)" d="M0 1600 L2400 1600 L2400 0 L0 0  Z" fill="#ffffff" fill-rule="evenodd" fill-opacity="1"></path>
<defs>
  <clipPath id="clip791">
    <rect x="480" y="0" width="1681" height="1600"></rect>
  </clipPath>
</defs>
<path clip-path="url(#clip790)" d="M219.866 1423.18 L2352.76 1423.18 L2352.76 123.472 L219.866 123.472  Z" fill="#ffffff" fill-rule="evenodd" fill-opacity="1"></path>
<defs>
  <clipPath id="clip792">
    <rect x="219" y="123" width="2134" height="1301"></rect>
  </clipPath>
</defs>
<polyline clip-path="url(#clip792)" style="stroke:#000000; stroke-linecap:round; stroke-linejoin:round; stroke-width:2; stroke-opacity:0.1; fill:none" points="492.037,1423.18 492.037,123.472 "></polyline>
<polyline clip-path="url(#clip792)" style="stroke:#000000; stroke-linecap:round; stroke-linejoin:round; stroke-width:2; stroke-opacity:0.1; fill:none" points="1021.55,1423.18 1021.55,123.472 "></polyline>
<polyline clip-path="url(#clip792)" style="stroke:#000000; stroke-linecap:round; stroke-linejoin:round; stroke-width:2; stroke-opacity:0.1; fill:none" points="1551.07,1423.18 1551.07,123.472 "></polyline>
<polyline clip-path="url(#clip792)" style="stroke:#000000; stroke-linecap:round; stroke-linejoin:round; stroke-width:2; stroke-opacity:0.1; fill:none" points="2080.58,1423.18 2080.58,123.472 "></polyline>
<polyline clip-path="url(#clip790)" style="stroke:#000000; stroke-linecap:round; stroke-linejoin:round; stroke-width:4; stroke-opacity:1; fill:none" points="219.866,1423.18 2352.76,1423.18 "></polyline>
<polyline clip-path="url(#clip790)" style="stroke:#000000; stroke-linecap:round; stroke-linejoin:round; stroke-width:4; stroke-opacity:1; fill:none" points="492.037,1423.18 492.037,1404.28 "></polyline>
<polyline clip-path="url(#clip790)" style="stroke:#000000; stroke-linecap:round; stroke-linejoin:round; stroke-width:4; stroke-opacity:1; fill:none" points="1021.55,1423.18 1021.55,1404.28 "></polyline>
<polyline clip-path="url(#clip790)" style="stroke:#000000; stroke-linecap:round; stroke-linejoin:round; stroke-width:4; stroke-opacity:1; fill:none" points="1551.07,1423.18 1551.07,1404.28 "></polyline>
<polyline clip-path="url(#clip790)" style="stroke:#000000; stroke-linecap:round; stroke-linejoin:round; stroke-width:4; stroke-opacity:1; fill:none" points="2080.58,1423.18 2080.58,1404.28 "></polyline>
<path clip-path="url(#clip790)" d="M482.419 1481.64 L490.058 1481.64 L490.058 1455.28 L481.748 1456.95 L481.748 1452.69 L490.012 1451.02 L494.688 1451.02 L494.688 1481.64 L502.327 1481.64 L502.327 1485.58 L482.419 1485.58 L482.419 1481.64 Z" fill="#000000" fill-rule="nonzero" fill-opacity="1"></path><path clip-path="url(#clip790)" d="M1016.21 1481.64 L1032.53 1481.64 L1032.53 1485.58 L1010.58 1485.58 L1010.58 1481.64 Q1013.24 1478.89 1017.83 1474.26 Q1022.43 1469.61 1023.61 1468.27 Q1025.86 1465.74 1026.74 1464.01 Q1027.64 1462.25 1027.64 1460.56 Q1027.64 1457.8 1025.7 1456.07 Q1023.78 1454.33 1020.67 1454.33 Q1018.47 1454.33 1016.02 1455.09 Q1013.59 1455.86 1010.81 1457.41 L1010.81 1452.69 Q1013.64 1451.55 1016.09 1450.97 Q1018.54 1450.39 1020.58 1450.39 Q1025.95 1450.39 1029.15 1453.08 Q1032.34 1455.77 1032.34 1460.26 Q1032.34 1462.39 1031.53 1464.31 Q1030.74 1466.2 1028.64 1468.8 Q1028.06 1469.47 1024.96 1472.69 Q1021.85 1475.88 1016.21 1481.64 Z" fill="#000000" fill-rule="nonzero" fill-opacity="1"></path><path clip-path="url(#clip790)" d="M1555.32 1466.95 Q1558.67 1467.66 1560.55 1469.93 Q1562.45 1472.2 1562.45 1475.53 Q1562.45 1480.65 1558.93 1483.45 Q1555.41 1486.25 1548.93 1486.25 Q1546.75 1486.25 1544.44 1485.81 Q1542.15 1485.39 1539.69 1484.54 L1539.69 1480.02 Q1541.64 1481.16 1543.95 1481.74 Q1546.27 1482.32 1548.79 1482.32 Q1553.19 1482.32 1555.48 1480.58 Q1557.79 1478.84 1557.79 1475.53 Q1557.79 1472.48 1555.64 1470.77 Q1553.51 1469.03 1549.69 1469.03 L1545.66 1469.03 L1545.66 1465.19 L1549.88 1465.19 Q1553.33 1465.19 1555.15 1463.82 Q1556.98 1462.43 1556.98 1459.84 Q1556.98 1457.18 1555.09 1455.77 Q1553.21 1454.33 1549.69 1454.33 Q1547.77 1454.33 1545.57 1454.75 Q1543.37 1455.16 1540.73 1456.04 L1540.73 1451.88 Q1543.4 1451.14 1545.71 1450.77 Q1548.05 1450.39 1550.11 1450.39 Q1555.43 1450.39 1558.53 1452.83 Q1561.64 1455.23 1561.64 1459.35 Q1561.64 1462.22 1559.99 1464.21 Q1558.35 1466.18 1555.32 1466.95 Z" fill="#000000" fill-rule="nonzero" fill-opacity="1"></path><path clip-path="url(#clip790)" d="M2083.59 1455.09 L2071.79 1473.54 L2083.59 1473.54 L2083.59 1455.09 M2082.37 1451.02 L2088.25 1451.02 L2088.25 1473.54 L2093.18 1473.54 L2093.18 1477.43 L2088.25 1477.43 L2088.25 1485.58 L2083.59 1485.58 L2083.59 1477.43 L2067.99 1477.43 L2067.99 1472.92 L2082.37 1451.02 Z" fill="#000000" fill-rule="nonzero" fill-opacity="1"></path><path clip-path="url(#clip790)" d="M1218.82 1539.24 Q1221.01 1535.29 1224.07 1533.41 Q1227.13 1531.54 1231.26 1531.54 Q1236.83 1531.54 1239.86 1535.45 Q1242.88 1539.33 1242.88 1546.53 L1242.88 1568.04 L1236.99 1568.04 L1236.99 1546.72 Q1236.99 1541.59 1235.18 1539.11 Q1233.36 1536.63 1229.64 1536.63 Q1225.09 1536.63 1222.45 1539.65 Q1219.81 1542.68 1219.81 1547.9 L1219.81 1568.04 L1213.92 1568.04 L1213.92 1546.72 Q1213.92 1541.56 1212.1 1539.11 Q1210.29 1536.63 1206.5 1536.63 Q1202.01 1536.63 1199.37 1539.68 Q1196.73 1542.71 1196.73 1547.9 L1196.73 1568.04 L1190.84 1568.04 L1190.84 1532.4 L1196.73 1532.4 L1196.73 1537.93 Q1198.73 1534.66 1201.54 1533.1 Q1204.34 1531.54 1208.19 1531.54 Q1212.07 1531.54 1214.78 1533.51 Q1217.51 1535.48 1218.82 1539.24 Z" fill="#000000" fill-rule="nonzero" fill-opacity="1"></path><path clip-path="url(#clip790)" d="M1268.38 1536.5 Q1263.67 1536.5 1260.93 1540.19 Q1258.19 1543.85 1258.19 1550.25 Q1258.19 1556.65 1260.9 1560.34 Q1263.63 1564 1268.38 1564 Q1273.05 1564 1275.79 1560.31 Q1278.53 1556.62 1278.53 1550.25 Q1278.53 1543.92 1275.79 1540.23 Q1273.05 1536.5 1268.38 1536.5 M1268.38 1531.54 Q1276.01 1531.54 1280.38 1536.5 Q1284.74 1541.47 1284.74 1550.25 Q1284.74 1559 1280.38 1564 Q1276.01 1568.97 1268.38 1568.97 Q1260.71 1568.97 1256.34 1564 Q1252.02 1559 1252.02 1550.25 Q1252.02 1541.47 1256.34 1536.5 Q1260.71 1531.54 1268.38 1531.54 Z" fill="#000000" fill-rule="nonzero" fill-opacity="1"></path><path clip-path="url(#clip790)" d="M1317.9 1537.81 L1317.9 1518.52 L1323.76 1518.52 L1323.76 1568.04 L1317.9 1568.04 L1317.9 1562.7 Q1316.05 1565.88 1313.22 1567.44 Q1310.42 1568.97 1306.47 1568.97 Q1300.01 1568.97 1295.94 1563.81 Q1291.9 1558.65 1291.9 1550.25 Q1291.9 1541.85 1295.94 1536.69 Q1300.01 1531.54 1306.47 1531.54 Q1310.42 1531.54 1313.22 1533.1 Q1316.05 1534.62 1317.9 1537.81 M1297.94 1550.25 Q1297.94 1556.71 1300.59 1560.4 Q1303.26 1564.07 1307.91 1564.07 Q1312.55 1564.07 1315.23 1560.4 Q1317.9 1556.71 1317.9 1550.25 Q1317.9 1543.79 1315.23 1540.13 Q1312.55 1536.44 1307.91 1536.44 Q1303.26 1536.44 1300.59 1540.13 Q1297.94 1543.79 1297.94 1550.25 Z" fill="#000000" fill-rule="nonzero" fill-opacity="1"></path><path clip-path="url(#clip790)" d="M1366.31 1548.76 L1366.31 1551.62 L1339.39 1551.62 Q1339.77 1557.67 1343.01 1560.85 Q1346.29 1564 1352.12 1564 Q1355.49 1564 1358.64 1563.17 Q1361.82 1562.35 1364.94 1560.69 L1364.94 1566.23 Q1361.79 1567.57 1358.48 1568.27 Q1355.17 1568.97 1351.77 1568.97 Q1343.24 1568.97 1338.24 1564 Q1333.27 1559.04 1333.27 1550.57 Q1333.27 1541.82 1337.98 1536.69 Q1342.73 1531.54 1350.75 1531.54 Q1357.94 1531.54 1362.11 1536.18 Q1366.31 1540.8 1366.31 1548.76 M1360.46 1547.04 Q1360.39 1542.23 1357.75 1539.37 Q1355.14 1536.5 1350.81 1536.5 Q1345.91 1536.5 1342.95 1539.27 Q1340.02 1542.04 1339.58 1547.07 L1360.46 1547.04 Z" fill="#000000" fill-rule="nonzero" fill-opacity="1"></path><path clip-path="url(#clip790)" d="M1375.92 1518.52 L1381.78 1518.52 L1381.78 1568.04 L1375.92 1568.04 L1375.92 1518.52 Z" fill="#000000" fill-rule="nonzero" fill-opacity="1"></path><polyline clip-path="url(#clip792)" style="stroke:#000000; stroke-linecap:round; stroke-linejoin:round; stroke-width:2; stroke-opacity:0.1; fill:none" points="219.866,1409.82 2352.76,1409.82 "></polyline>
<polyline clip-path="url(#clip792)" style="stroke:#000000; stroke-linecap:round; stroke-linejoin:round; stroke-width:2; stroke-opacity:0.1; fill:none" points="219.866,1092.69 2352.76,1092.69 "></polyline>
<polyline clip-path="url(#clip792)" style="stroke:#000000; stroke-linecap:round; stroke-linejoin:round; stroke-width:2; stroke-opacity:0.1; fill:none" points="219.866,775.57 2352.76,775.57 "></polyline>
<polyline clip-path="url(#clip792)" style="stroke:#000000; stroke-linecap:round; stroke-linejoin:round; stroke-width:2; stroke-opacity:0.1; fill:none" points="219.866,458.445 2352.76,458.445 "></polyline>
<polyline clip-path="url(#clip792)" style="stroke:#000000; stroke-linecap:round; stroke-linejoin:round; stroke-width:2; stroke-opacity:0.1; fill:none" points="219.866,141.321 2352.76,141.321 "></polyline>
<polyline clip-path="url(#clip790)" style="stroke:#000000; stroke-linecap:round; stroke-linejoin:round; stroke-width:4; stroke-opacity:1; fill:none" points="219.866,1423.18 219.866,123.472 "></polyline>
<polyline clip-path="url(#clip790)" style="stroke:#000000; stroke-linecap:round; stroke-linejoin:round; stroke-width:4; stroke-opacity:1; fill:none" points="219.866,1409.82 238.764,1409.82 "></polyline>
<polyline clip-path="url(#clip790)" style="stroke:#000000; stroke-linecap:round; stroke-linejoin:round; stroke-width:4; stroke-opacity:1; fill:none" points="219.866,1092.69 238.764,1092.69 "></polyline>
<polyline clip-path="url(#clip790)" style="stroke:#000000; stroke-linecap:round; stroke-linejoin:round; stroke-width:4; stroke-opacity:1; fill:none" points="219.866,775.57 238.764,775.57 "></polyline>
<polyline clip-path="url(#clip790)" style="stroke:#000000; stroke-linecap:round; stroke-linejoin:round; stroke-width:4; stroke-opacity:1; fill:none" points="219.866,458.445 238.764,458.445 "></polyline>
<polyline clip-path="url(#clip790)" style="stroke:#000000; stroke-linecap:round; stroke-linejoin:round; stroke-width:4; stroke-opacity:1; fill:none" points="219.866,141.321 238.764,141.321 "></polyline>
<path clip-path="url(#clip790)" d="M128.288 1395.62 Q124.677 1395.62 122.848 1399.18 Q121.043 1402.72 121.043 1409.85 Q121.043 1416.96 122.848 1420.53 Q124.677 1424.07 128.288 1424.07 Q131.922 1424.07 133.728 1420.53 Q135.556 1416.96 135.556 1409.85 Q135.556 1402.72 133.728 1399.18 Q131.922 1395.62 128.288 1395.62 M128.288 1391.91 Q134.098 1391.91 137.154 1396.52 Q140.232 1401.1 140.232 1409.85 Q140.232 1418.58 137.154 1423.19 Q134.098 1427.77 128.288 1427.77 Q122.478 1427.77 119.399 1423.19 Q116.343 1418.58 116.343 1409.85 Q116.343 1401.1 119.399 1396.52 Q122.478 1391.91 128.288 1391.91 Z" fill="#000000" fill-rule="nonzero" fill-opacity="1"></path><path clip-path="url(#clip790)" d="M148.45 1421.22 L153.334 1421.22 L153.334 1427.1 L148.45 1427.1 L148.45 1421.22 Z" fill="#000000" fill-rule="nonzero" fill-opacity="1"></path><path clip-path="url(#clip790)" d="M167.547 1423.16 L183.866 1423.16 L183.866 1427.1 L161.922 1427.1 L161.922 1423.16 Q164.584 1420.41 169.167 1415.78 Q173.774 1411.13 174.954 1409.78 Q177.2 1407.26 178.079 1405.53 Q178.982 1403.77 178.982 1402.08 Q178.982 1399.32 177.038 1397.59 Q175.116 1395.85 172.014 1395.85 Q169.815 1395.85 167.362 1396.61 Q164.931 1397.38 162.153 1398.93 L162.153 1394.21 Q164.977 1393.07 167.431 1392.49 Q169.885 1391.91 171.922 1391.91 Q177.292 1391.91 180.487 1394.6 Q183.681 1397.28 183.681 1401.78 Q183.681 1403.9 182.871 1405.83 Q182.084 1407.72 179.977 1410.32 Q179.399 1410.99 176.297 1414.21 Q173.195 1417.4 167.547 1423.16 Z" fill="#000000" fill-rule="nonzero" fill-opacity="1"></path><path clip-path="url(#clip790)" d="M126.205 1078.49 Q122.593 1078.49 120.765 1082.06 Q118.959 1085.6 118.959 1092.73 Q118.959 1099.84 120.765 1103.4 Q122.593 1106.94 126.205 1106.94 Q129.839 1106.94 131.644 1103.4 Q133.473 1099.84 133.473 1092.73 Q133.473 1085.6 131.644 1082.06 Q129.839 1078.49 126.205 1078.49 M126.205 1074.79 Q132.015 1074.79 135.07 1079.4 Q138.149 1083.98 138.149 1092.73 Q138.149 1101.46 135.07 1106.06 Q132.015 1110.65 126.205 1110.65 Q120.394 1110.65 117.316 1106.06 Q114.26 1101.46 114.26 1092.73 Q114.26 1083.98 117.316 1079.4 Q120.394 1074.79 126.205 1074.79 Z" fill="#000000" fill-rule="nonzero" fill-opacity="1"></path><path clip-path="url(#clip790)" d="M146.366 1104.09 L151.251 1104.09 L151.251 1109.97 L146.366 1109.97 L146.366 1104.09 Z" fill="#000000" fill-rule="nonzero" fill-opacity="1"></path><path clip-path="url(#clip790)" d="M174.283 1079.49 L162.477 1097.94 L174.283 1097.94 L174.283 1079.49 M173.056 1075.41 L178.936 1075.41 L178.936 1097.94 L183.866 1097.94 L183.866 1101.83 L178.936 1101.83 L178.936 1109.97 L174.283 1109.97 L174.283 1101.83 L158.681 1101.83 L158.681 1097.31 L173.056 1075.41 Z" fill="#000000" fill-rule="nonzero" fill-opacity="1"></path><path clip-path="url(#clip790)" d="M126.529 761.369 Q122.918 761.369 121.089 764.933 Q119.283 768.475 119.283 775.605 Q119.283 782.711 121.089 786.276 Q122.918 789.818 126.529 789.818 Q130.163 789.818 131.968 786.276 Q133.797 782.711 133.797 775.605 Q133.797 768.475 131.968 764.933 Q130.163 761.369 126.529 761.369 M126.529 757.665 Q132.339 757.665 135.394 762.271 Q138.473 766.855 138.473 775.605 Q138.473 784.331 135.394 788.938 Q132.339 793.521 126.529 793.521 Q120.718 793.521 117.64 788.938 Q114.584 784.331 114.584 775.605 Q114.584 766.855 117.64 762.271 Q120.718 757.665 126.529 757.665 Z" fill="#000000" fill-rule="nonzero" fill-opacity="1"></path><path clip-path="url(#clip790)" d="M146.691 786.97 L151.575 786.97 L151.575 792.85 L146.691 792.85 L146.691 786.97 Z" fill="#000000" fill-rule="nonzero" fill-opacity="1"></path><path clip-path="url(#clip790)" d="M172.339 773.707 Q169.19 773.707 167.339 775.859 Q165.51 778.012 165.51 781.762 Q165.51 785.489 167.339 787.665 Q169.19 789.818 172.339 789.818 Q175.487 789.818 177.315 787.665 Q179.167 785.489 179.167 781.762 Q179.167 778.012 177.315 775.859 Q175.487 773.707 172.339 773.707 M181.621 759.054 L181.621 763.313 Q179.862 762.48 178.056 762.04 Q176.274 761.6 174.514 761.6 Q169.885 761.6 167.431 764.725 Q165.001 767.85 164.653 774.169 Q166.019 772.156 168.079 771.091 Q170.139 770.003 172.616 770.003 Q177.825 770.003 180.834 773.174 Q183.866 776.322 183.866 781.762 Q183.866 787.086 180.718 790.304 Q177.57 793.521 172.339 793.521 Q166.343 793.521 163.172 788.938 Q160.001 784.331 160.001 775.605 Q160.001 767.41 163.89 762.549 Q167.778 757.665 174.329 757.665 Q176.089 757.665 177.871 758.012 Q179.676 758.359 181.621 759.054 Z" fill="#000000" fill-rule="nonzero" fill-opacity="1"></path><path clip-path="url(#clip790)" d="M126.783 444.244 Q123.172 444.244 121.343 447.809 Q119.538 451.35 119.538 458.48 Q119.538 465.586 121.343 469.151 Q123.172 472.693 126.783 472.693 Q130.417 472.693 132.223 469.151 Q134.052 465.586 134.052 458.48 Q134.052 451.35 132.223 447.809 Q130.417 444.244 126.783 444.244 M126.783 440.54 Q132.593 440.54 135.649 445.147 Q138.728 449.73 138.728 458.48 Q138.728 467.207 135.649 471.813 Q132.593 476.397 126.783 476.397 Q120.973 476.397 117.894 471.813 Q114.839 467.207 114.839 458.48 Q114.839 449.73 117.894 445.147 Q120.973 440.54 126.783 440.54 Z" fill="#000000" fill-rule="nonzero" fill-opacity="1"></path><path clip-path="url(#clip790)" d="M146.945 469.846 L151.829 469.846 L151.829 475.725 L146.945 475.725 L146.945 469.846 Z" fill="#000000" fill-rule="nonzero" fill-opacity="1"></path><path clip-path="url(#clip790)" d="M172.014 459.313 Q168.681 459.313 166.76 461.096 Q164.862 462.878 164.862 466.003 Q164.862 469.128 166.76 470.911 Q168.681 472.693 172.014 472.693 Q175.348 472.693 177.269 470.911 Q179.19 469.105 179.19 466.003 Q179.19 462.878 177.269 461.096 Q175.371 459.313 172.014 459.313 M167.339 457.323 Q164.329 456.582 162.64 454.522 Q160.973 452.462 160.973 449.499 Q160.973 445.355 163.913 442.948 Q166.876 440.54 172.014 440.54 Q177.176 440.54 180.116 442.948 Q183.056 445.355 183.056 449.499 Q183.056 452.462 181.366 454.522 Q179.7 456.582 176.714 457.323 Q180.093 458.11 181.968 460.401 Q183.866 462.693 183.866 466.003 Q183.866 471.026 180.788 473.711 Q177.732 476.397 172.014 476.397 Q166.297 476.397 163.218 473.711 Q160.163 471.026 160.163 466.003 Q160.163 462.693 162.061 460.401 Q163.959 458.11 167.339 457.323 M165.626 449.938 Q165.626 452.624 167.292 454.128 Q168.982 455.633 172.014 455.633 Q175.024 455.633 176.714 454.128 Q178.426 452.624 178.426 449.938 Q178.426 447.253 176.714 445.749 Q175.024 444.244 172.014 444.244 Q168.982 444.244 167.292 445.749 Q165.626 447.253 165.626 449.938 Z" fill="#000000" fill-rule="nonzero" fill-opacity="1"></path><path clip-path="url(#clip790)" d="M117.501 154.666 L125.14 154.666 L125.14 128.3 L116.83 129.967 L116.83 125.707 L125.093 124.041 L129.769 124.041 L129.769 154.666 L137.408 154.666 L137.408 158.601 L117.501 158.601 L117.501 154.666 Z" fill="#000000" fill-rule="nonzero" fill-opacity="1"></path><path clip-path="url(#clip790)" d="M146.853 152.721 L151.737 152.721 L151.737 158.601 L146.853 158.601 L146.853 152.721 Z" fill="#000000" fill-rule="nonzero" fill-opacity="1"></path><path clip-path="url(#clip790)" d="M171.922 127.119 Q168.311 127.119 166.482 130.684 Q164.677 134.226 164.677 141.355 Q164.677 148.462 166.482 152.027 Q168.311 155.568 171.922 155.568 Q175.556 155.568 177.362 152.027 Q179.19 148.462 179.19 141.355 Q179.19 134.226 177.362 130.684 Q175.556 127.119 171.922 127.119 M171.922 123.416 Q177.732 123.416 180.788 128.022 Q183.866 132.605 183.866 141.355 Q183.866 150.082 180.788 154.689 Q177.732 159.272 171.922 159.272 Q166.112 159.272 163.033 154.689 Q159.978 150.082 159.978 141.355 Q159.978 132.605 163.033 128.022 Q166.112 123.416 171.922 123.416 Z" fill="#000000" fill-rule="nonzero" fill-opacity="1"></path><path clip-path="url(#clip790)" d="M45.7664 805.091 Q39.4007 805.091 35.8996 807.733 Q32.3984 810.343 32.3984 815.085 Q32.3984 819.796 35.8996 822.437 Q39.4007 825.047 45.7664 825.047 Q52.1003 825.047 55.6014 822.437 Q59.1026 819.796 59.1026 815.085 Q59.1026 810.343 55.6014 807.733 Q52.1003 805.091 45.7664 805.091 M59.58 799.234 Q68.683 799.234 73.1071 803.277 Q77.5631 807.319 77.5631 815.658 Q77.5631 818.745 77.0857 821.483 Q76.6401 824.22 75.6852 826.798 L69.9879 826.798 Q71.3884 824.22 72.0568 821.705 Q72.7252 819.191 72.7252 816.581 Q72.7252 810.82 69.7015 807.955 Q66.7096 805.091 60.6303 805.091 L57.7339 805.091 Q60.885 806.905 62.4446 809.738 Q64.0042 812.571 64.0042 816.517 Q64.0042 823.074 59.0071 827.084 Q54.01 831.095 45.7664 831.095 Q37.491 831.095 32.4939 827.084 Q27.4968 823.074 27.4968 816.517 Q27.4968 812.571 29.0564 809.738 Q30.616 806.905 33.7671 805.091 L28.3562 805.091 L28.3562 799.234 L59.58 799.234 Z" fill="#000000" fill-rule="nonzero" fill-opacity="1"></path><path clip-path="url(#clip790)" d="M46.0847 770.971 Q46.0847 778.068 47.7079 780.806 Q49.3312 783.543 53.2461 783.543 Q56.3653 783.543 58.2114 781.506 Q60.0256 779.437 60.0256 775.904 Q60.0256 771.034 56.5881 768.106 Q53.1188 765.146 47.3897 765.146 L46.0847 765.146 L46.0847 770.971 M43.6657 759.29 L64.0042 759.29 L64.0042 765.146 L58.5933 765.146 Q61.8398 767.151 63.3994 770.143 Q64.9272 773.135 64.9272 777.464 Q64.9272 782.938 61.8716 786.185 Q58.7843 789.399 53.6281 789.399 Q47.6125 789.399 44.5569 785.389 Q41.5014 781.347 41.5014 773.358 L41.5014 765.146 L40.9285 765.146 Q36.8862 765.146 34.6901 767.82 Q32.4621 770.461 32.4621 775.268 Q32.4621 778.323 33.1941 781.219 Q33.9262 784.116 35.3903 786.789 L29.9795 786.789 Q28.7381 783.575 28.1334 780.551 Q27.4968 777.527 27.4968 774.663 Q27.4968 766.928 31.5072 763.109 Q35.5176 759.29 43.6657 759.29 Z" fill="#000000" fill-rule="nonzero" fill-opacity="1"></path><path clip-path="url(#clip790)" d="M58.657 741.561 L77.5631 741.561 L77.5631 747.449 L28.3562 747.449 L28.3562 741.561 L33.7671 741.561 Q30.5842 739.715 29.0564 736.914 Q27.4968 734.081 27.4968 730.166 Q27.4968 723.673 32.6531 719.631 Q37.8093 715.557 46.212 715.557 Q54.6147 715.557 59.771 719.631 Q64.9272 723.673 64.9272 730.166 Q64.9272 734.081 63.3994 736.914 Q61.8398 739.715 58.657 741.561 M46.212 721.636 Q39.7508 721.636 36.0905 724.31 Q32.3984 726.952 32.3984 731.599 Q32.3984 736.246 36.0905 738.919 Q39.7508 741.561 46.212 741.561 Q52.6732 741.561 56.3653 738.919 Q60.0256 736.246 60.0256 731.599 Q60.0256 726.952 56.3653 724.31 Q52.6732 721.636 46.212 721.636 Z" fill="#000000" fill-rule="nonzero" fill-opacity="1"></path><path clip-path="url(#clip790)" d="M977.936 43.6931 L977.936 65.8515 L991.061 65.8515 Q997.664 65.8515 1000.82 63.1374 Q1004.02 60.3828 1004.02 54.752 Q1004.02 49.0808 1000.82 46.4072 Q997.664 43.6931 991.061 43.6931 L977.936 43.6931 M977.936 18.8205 L977.936 37.0496 L990.048 37.0496 Q996.044 37.0496 998.96 34.8216 Q1001.92 32.5531 1001.92 27.935 Q1001.92 23.3575 998.96 21.089 Q996.044 18.8205 990.048 18.8205 L977.936 18.8205 M969.753 12.096 L990.656 12.096 Q1000.01 12.096 1005.08 15.9849 Q1010.14 19.8737 1010.14 27.0438 Q1010.14 32.5936 1007.55 35.8748 Q1004.96 39.156 999.932 39.9662 Q1005.97 41.2625 1009.29 45.3944 Q1012.65 49.4858 1012.65 55.6432 Q1012.65 63.745 1007.14 68.1605 Q1001.63 72.576 991.466 72.576 L969.753 72.576 L969.753 12.096 Z" fill="#000000" fill-rule="nonzero" fill-opacity="1"></path><path clip-path="url(#clip790)" d="M1043.93 32.4315 Q1037.93 32.4315 1034.45 37.1306 Q1030.96 41.7891 1030.96 49.9314 Q1030.96 58.0738 1034.41 62.7728 Q1037.89 67.4314 1043.93 67.4314 Q1049.88 67.4314 1053.36 62.7323 Q1056.85 58.0333 1056.85 49.9314 Q1056.85 41.8701 1053.36 37.1711 Q1049.88 32.4315 1043.93 32.4315 M1043.93 26.1121 Q1053.65 26.1121 1059.2 32.4315 Q1064.75 38.7509 1064.75 49.9314 Q1064.75 61.0714 1059.2 67.4314 Q1053.65 73.7508 1043.93 73.7508 Q1034.16 73.7508 1028.61 67.4314 Q1023.1 61.0714 1023.1 49.9314 Q1023.1 38.7509 1028.61 32.4315 Q1034.16 26.1121 1043.93 26.1121 Z" fill="#000000" fill-rule="nonzero" fill-opacity="1"></path><path clip-path="url(#clip790)" d="M1112.26 27.2059 L1095.86 49.2833 L1113.11 72.576 L1104.32 72.576 L1091.12 54.752 L1077.91 72.576 L1069.12 72.576 L1086.74 48.8377 L1070.62 27.2059 L1079.41 27.2059 L1091.44 43.369 L1103.47 27.2059 L1112.26 27.2059 Z" fill="#000000" fill-rule="nonzero" fill-opacity="1"></path><path clip-path="url(#clip790)" d="M1130.86 65.7705 L1130.86 89.8329 L1123.36 89.8329 L1123.36 27.2059 L1130.86 27.2059 L1130.86 34.0924 Q1133.21 30.0415 1136.77 28.0971 Q1140.38 26.1121 1145.36 26.1121 Q1153.62 26.1121 1158.77 32.6746 Q1163.95 39.2371 1163.95 49.9314 Q1163.95 60.6258 1158.77 67.1883 Q1153.62 73.7508 1145.36 73.7508 Q1140.38 73.7508 1136.77 71.8063 Q1133.21 69.8214 1130.86 65.7705 M1156.22 49.9314 Q1156.22 41.7081 1152.81 37.0496 Q1149.45 32.3505 1143.54 32.3505 Q1137.62 32.3505 1134.22 37.0496 Q1130.86 41.7081 1130.86 49.9314 Q1130.86 58.1548 1134.22 62.8538 Q1137.62 67.5124 1143.54 67.5124 Q1149.45 67.5124 1152.81 62.8538 Q1156.22 58.1548 1156.22 49.9314 Z" fill="#000000" fill-rule="nonzero" fill-opacity="1"></path><path clip-path="url(#clip790)" d="M1176.31 9.54393 L1183.76 9.54393 L1183.76 72.576 L1176.31 72.576 L1176.31 9.54393 Z" fill="#000000" fill-rule="nonzero" fill-opacity="1"></path><path clip-path="url(#clip790)" d="M1216.94 32.4315 Q1210.94 32.4315 1207.46 37.1306 Q1203.98 41.7891 1203.98 49.9314 Q1203.98 58.0738 1207.42 62.7728 Q1210.9 67.4314 1216.94 67.4314 Q1222.89 67.4314 1226.38 62.7323 Q1229.86 58.0333 1229.86 49.9314 Q1229.86 41.8701 1226.38 37.1711 Q1222.89 32.4315 1216.94 32.4315 M1216.94 26.1121 Q1226.66 26.1121 1232.21 32.4315 Q1237.76 38.7509 1237.76 49.9314 Q1237.76 61.0714 1232.21 67.4314 Q1226.66 73.7508 1216.94 73.7508 Q1207.18 73.7508 1201.63 67.4314 Q1196.12 61.0714 1196.12 49.9314 Q1196.12 38.7509 1201.63 32.4315 Q1207.18 26.1121 1216.94 26.1121 Z" fill="#000000" fill-rule="nonzero" fill-opacity="1"></path><path clip-path="url(#clip790)" d="M1257.49 14.324 L1257.49 27.2059 L1272.84 27.2059 L1272.84 32.9987 L1257.49 32.9987 L1257.49 57.6282 Q1257.49 63.1779 1258.99 64.7578 Q1260.53 66.3376 1265.19 66.3376 L1272.84 66.3376 L1272.84 72.576 L1265.19 72.576 Q1256.56 72.576 1253.28 69.3758 Q1249.99 66.1351 1249.99 57.6282 L1249.99 32.9987 L1244.53 32.9987 L1244.53 27.2059 L1249.99 27.2059 L1249.99 14.324 L1257.49 14.324 Z" fill="#000000" fill-rule="nonzero" fill-opacity="1"></path><path clip-path="url(#clip790)" d="M1326.6 32.4315 Q1320.6 32.4315 1317.12 37.1306 Q1313.63 41.7891 1313.63 49.9314 Q1313.63 58.0738 1317.08 62.7728 Q1320.56 67.4314 1326.6 67.4314 Q1332.55 67.4314 1336.04 62.7323 Q1339.52 58.0333 1339.52 49.9314 Q1339.52 41.8701 1336.04 37.1711 Q1332.55 32.4315 1326.6 32.4315 M1326.6 26.1121 Q1336.32 26.1121 1341.87 32.4315 Q1347.42 38.7509 1347.42 49.9314 Q1347.42 61.0714 1341.87 67.4314 Q1336.32 73.7508 1326.6 73.7508 Q1316.83 73.7508 1311.28 67.4314 Q1305.78 61.0714 1305.78 49.9314 Q1305.78 38.7509 1311.28 32.4315 Q1316.83 26.1121 1326.6 26.1121 Z" fill="#000000" fill-rule="nonzero" fill-opacity="1"></path><path clip-path="url(#clip790)" d="M1382.74 9.54393 L1382.74 15.7418 L1375.61 15.7418 Q1371.6 15.7418 1370.02 17.3622 Q1368.48 18.9825 1368.48 23.1955 L1368.48 27.2059 L1380.76 27.2059 L1380.76 32.9987 L1368.48 32.9987 L1368.48 72.576 L1360.99 72.576 L1360.99 32.9987 L1353.86 32.9987 L1353.86 27.2059 L1360.99 27.2059 L1360.99 24.0462 Q1360.99 16.471 1364.51 13.0277 Q1368.04 9.54393 1375.69 9.54393 L1382.74 9.54393 Z" fill="#000000" fill-rule="nonzero" fill-opacity="1"></path><path clip-path="url(#clip790)" d="M1445.21 49.3643 Q1445.21 41.2625 1441.85 36.8065 Q1438.52 32.3505 1432.49 32.3505 Q1426.49 32.3505 1423.13 36.8065 Q1419.81 41.2625 1419.81 49.3643 Q1419.81 57.4256 1423.13 61.8816 Q1426.49 66.3376 1432.49 66.3376 Q1438.52 66.3376 1441.85 61.8816 Q1445.21 57.4256 1445.21 49.3643 M1452.66 66.9452 Q1452.66 78.5308 1447.52 84.1616 Q1442.37 89.8329 1431.76 89.8329 Q1427.83 89.8329 1424.35 89.2252 Q1420.86 88.6581 1417.58 87.4428 L1417.58 80.1917 Q1420.86 81.9741 1424.06 82.8248 Q1427.26 83.6755 1430.58 83.6755 Q1437.92 83.6755 1441.56 79.8271 Q1445.21 76.0193 1445.21 68.282 L1445.21 64.5957 Q1442.9 68.6061 1439.29 70.5911 Q1435.69 72.576 1430.67 72.576 Q1422.32 72.576 1417.22 66.2161 Q1412.11 59.8562 1412.11 49.3643 Q1412.11 38.832 1417.22 32.472 Q1422.32 26.1121 1430.67 26.1121 Q1435.69 26.1121 1439.29 28.0971 Q1442.9 30.082 1445.21 34.0924 L1445.21 27.2059 L1452.66 27.2059 L1452.66 66.9452 Z" fill="#000000" fill-rule="nonzero" fill-opacity="1"></path><path clip-path="url(#clip790)" d="M1488.63 49.7694 Q1479.6 49.7694 1476.12 51.8354 Q1472.63 53.9013 1472.63 58.8839 Q1472.63 62.8538 1475.23 65.2034 Q1477.86 67.5124 1482.35 67.5124 Q1488.55 67.5124 1492.28 63.1374 Q1496.05 58.7219 1496.05 51.4303 L1496.05 49.7694 L1488.63 49.7694 M1503.5 46.6907 L1503.5 72.576 L1496.05 72.576 L1496.05 65.6895 Q1493.49 69.8214 1489.69 71.8063 Q1485.88 73.7508 1480.37 73.7508 Q1473.4 73.7508 1469.27 69.8619 Q1465.18 65.9325 1465.18 59.3701 Q1465.18 51.7138 1470.28 47.825 Q1475.43 43.9361 1485.6 43.9361 L1496.05 43.9361 L1496.05 43.2069 Q1496.05 38.0623 1492.64 35.2672 Q1489.28 32.4315 1483.16 32.4315 Q1479.28 32.4315 1475.59 33.3632 Q1471.9 34.295 1468.5 36.1584 L1468.5 29.2718 Q1472.59 27.692 1476.44 26.9223 Q1480.29 26.1121 1483.93 26.1121 Q1493.78 26.1121 1498.64 31.2163 Q1503.5 36.3204 1503.5 46.6907 Z" fill="#000000" fill-rule="nonzero" fill-opacity="1"></path><path clip-path="url(#clip790)" d="M1526.06 65.7705 L1526.06 89.8329 L1518.57 89.8329 L1518.57 27.2059 L1526.06 27.2059 L1526.06 34.0924 Q1528.41 30.0415 1531.98 28.0971 Q1535.58 26.1121 1540.57 26.1121 Q1548.83 26.1121 1553.97 32.6746 Q1559.16 39.2371 1559.16 49.9314 Q1559.16 60.6258 1553.97 67.1883 Q1548.83 73.7508 1540.57 73.7508 Q1535.58 73.7508 1531.98 71.8063 Q1528.41 69.8214 1526.06 65.7705 M1551.42 49.9314 Q1551.42 41.7081 1548.02 37.0496 Q1544.66 32.3505 1538.74 32.3505 Q1532.83 32.3505 1529.43 37.0496 Q1526.06 41.7081 1526.06 49.9314 Q1526.06 58.1548 1529.43 62.8538 Q1532.83 67.5124 1538.74 67.5124 Q1544.66 67.5124 1548.02 62.8538 Q1551.42 58.1548 1551.42 49.9314 Z" fill="#000000" fill-rule="nonzero" fill-opacity="1"></path><path clip-path="url(#clip790)" d="M1600.44 28.5427 L1600.44 35.5912 Q1597.28 33.9709 1593.88 33.1607 Q1590.47 32.3505 1586.83 32.3505 Q1581.28 32.3505 1578.48 34.0519 Q1575.73 35.7533 1575.73 39.156 Q1575.73 41.7486 1577.71 43.2475 Q1579.7 44.7058 1585.69 46.0426 L1588.25 46.6097 Q1596.19 48.3111 1599.51 51.4303 Q1602.87 54.509 1602.87 60.0587 Q1602.87 66.3781 1597.85 70.0644 Q1592.86 73.7508 1584.11 73.7508 Q1580.47 73.7508 1576.5 73.0216 Q1572.57 72.3329 1568.19 70.9151 L1568.19 63.2184 Q1572.33 65.3654 1576.34 66.4591 Q1580.35 67.5124 1584.28 67.5124 Q1589.54 67.5124 1592.38 65.73 Q1595.21 63.9071 1595.21 60.6258 Q1595.21 57.5877 1593.15 55.9673 Q1591.12 54.3469 1584.19 52.8481 L1581.6 52.2405 Q1574.67 50.7821 1571.6 47.7845 Q1568.52 44.7463 1568.52 39.4801 Q1568.52 33.0797 1573.05 29.5959 Q1577.59 26.1121 1585.94 26.1121 Q1590.07 26.1121 1593.71 26.7198 Q1597.36 27.3274 1600.44 28.5427 Z" fill="#000000" fill-rule="nonzero" fill-opacity="1"></path><path clip-path="url(#clip792)" d="M492.037 1217.08 L386.134 1217.08 L597.941 1217.08 L492.037 1217.08 L492.037 912.966 L492.037 1217.08  Z" fill="#009af9" fill-rule="evenodd" fill-opacity="1"></path>
<polyline clip-path="url(#clip792)" style="stroke:#000000; stroke-linecap:round; stroke-linejoin:round; stroke-width:4; stroke-opacity:1; fill:none" points="492.037,1217.08 386.134,1217.08 597.941,1217.08 492.037,1217.08 492.037,912.966 492.037,1217.08 "></polyline>
<path clip-path="url(#clip792)" d="M703.844 912.966 L703.844 785.32 L280.231 785.32 L280.231 912.966 L703.844 912.966 L703.844 785.32 L703.844 912.966  Z" fill="#009af9" fill-rule="evenodd" fill-opacity="1"></path>
<polyline clip-path="url(#clip792)" style="stroke:#000000; stroke-linecap:round; stroke-linejoin:round; stroke-width:4; stroke-opacity:1; fill:none" points="703.844,912.966 703.844,785.32 280.231,785.32 280.231,912.966 703.844,912.966 703.844,785.32 703.844,912.966 "></polyline>
<path clip-path="url(#clip792)" d="M703.844 627.222 L280.231 627.222 L280.231 785.32 L703.844 785.32 L703.844 627.222 L492.037 627.222 L703.844 627.222  Z" fill="#009af9" fill-rule="evenodd" fill-opacity="1"></path>
<polyline clip-path="url(#clip792)" style="stroke:#000000; stroke-linecap:round; stroke-linejoin:round; stroke-width:4; stroke-opacity:1; fill:none" points="703.844,627.222 280.231,627.222 280.231,785.32 703.844,785.32 703.844,627.222 492.037,627.222 703.844,627.222 "></polyline>
<path clip-path="url(#clip792)" d="M492.037 269.448 L386.134 269.448 L597.941 269.448 L492.037 269.448 L492.037 627.222 L492.037 269.448  Z" fill="#009af9" fill-rule="evenodd" fill-opacity="1"></path>
<polyline clip-path="url(#clip792)" style="stroke:#000000; stroke-linecap:round; stroke-linejoin:round; stroke-width:4; stroke-opacity:1; fill:none" points="492.037,269.448 386.134,269.448 597.941,269.448 492.037,269.448 492.037,627.222 492.037,269.448 "></polyline>
<circle clip-path="url(#clip792)" cx="492.037" cy="160.256" r="14.4" fill="#009af9" fill-rule="evenodd" fill-opacity="1" stroke="#000000" stroke-opacity="1" stroke-width="3.2"></circle>
<polyline clip-path="url(#clip792)" style="stroke:#009af9; stroke-linecap:round; stroke-linejoin:round; stroke-width:0; stroke-opacity:1; fill:none" points="492.037,1217.08 386.134,1217.08 597.941,1217.08 492.037,1217.08 492.037,912.966 "></polyline>
<polyline clip-path="url(#clip792)" style="stroke:#009af9; stroke-linecap:round; stroke-linejoin:round; stroke-width:0; stroke-opacity:1; fill:none" points="703.844,912.966 703.844,785.32 280.231,785.32 280.231,912.966 703.844,912.966 703.844,785.32 "></polyline>
<polyline clip-path="url(#clip792)" style="stroke:#009af9; stroke-linecap:round; stroke-linejoin:round; stroke-width:0; stroke-opacity:1; fill:none" points="703.844,627.222 280.231,627.222 280.231,785.32 703.844,785.32 703.844,627.222 492.037,627.222 "></polyline>
<polyline clip-path="url(#clip792)" style="stroke:#009af9; stroke-linecap:round; stroke-linejoin:round; stroke-width:0; stroke-opacity:1; fill:none" points="492.037,269.448 386.134,269.448 597.941,269.448 492.037,269.448 492.037,627.222 "></polyline>
<path clip-path="url(#clip792)" d="M1021.55 1386.4 L915.65 1386.4 L1127.46 1386.4 L1021.55 1386.4 L1021.55 1053.1 L1021.55 1386.4  Z" fill="#e26f46" fill-rule="evenodd" fill-opacity="1"></path>
<polyline clip-path="url(#clip792)" style="stroke:#000000; stroke-linecap:round; stroke-linejoin:round; stroke-width:4; stroke-opacity:1; fill:none" points="1021.55,1386.4 915.65,1386.4 1127.46,1386.4 1021.55,1386.4 1021.55,1053.1 1021.55,1386.4 "></polyline>
<path clip-path="url(#clip792)" d="M1233.36 1053.1 L1233.36 924.954 L809.747 924.954 L809.747 1053.1 L1233.36 1053.1 L1233.36 924.954 L1233.36 1053.1  Z" fill="#e26f46" fill-rule="evenodd" fill-opacity="1"></path>
<polyline clip-path="url(#clip792)" style="stroke:#000000; stroke-linecap:round; stroke-linejoin:round; stroke-width:4; stroke-opacity:1; fill:none" points="1233.36,1053.1 1233.36,924.954 809.747,924.954 809.747,1053.1 1233.36,1053.1 1233.36,924.954 1233.36,1053.1 "></polyline>
<path clip-path="url(#clip792)" d="M1233.36 790.04 L809.747 790.04 L809.747 924.954 L1233.36 924.954 L1233.36 790.04 L1021.55 790.04 L1233.36 790.04  Z" fill="#e26f46" fill-rule="evenodd" fill-opacity="1"></path>
<polyline clip-path="url(#clip792)" style="stroke:#000000; stroke-linecap:round; stroke-linejoin:round; stroke-width:4; stroke-opacity:1; fill:none" points="1233.36,790.04 809.747,790.04 809.747,924.954 1233.36,924.954 1233.36,790.04 1021.55,790.04 1233.36,790.04 "></polyline>
<path clip-path="url(#clip792)" d="M1021.55 459.767 L915.65 459.767 L1127.46 459.767 L1021.55 459.767 L1021.55 790.04 L1021.55 459.767  Z" fill="#e26f46" fill-rule="evenodd" fill-opacity="1"></path>
<polyline clip-path="url(#clip792)" style="stroke:#000000; stroke-linecap:round; stroke-linejoin:round; stroke-width:4; stroke-opacity:1; fill:none" points="1021.55,459.767 915.65,459.767 1127.46,459.767 1021.55,459.767 1021.55,790.04 1021.55,459.767 "></polyline>
<circle clip-path="url(#clip792)" cx="1021.55" cy="340.225" r="14.4" fill="#e26f46" fill-rule="evenodd" fill-opacity="1" stroke="#000000" stroke-opacity="1" stroke-width="3.2"></circle>
<circle clip-path="url(#clip792)" cx="1021.55" cy="359.247" r="14.4" fill="#e26f46" fill-rule="evenodd" fill-opacity="1" stroke="#000000" stroke-opacity="1" stroke-width="3.2"></circle>
<polyline clip-path="url(#clip792)" style="stroke:#e26f46; stroke-linecap:round; stroke-linejoin:round; stroke-width:0; stroke-opacity:1; fill:none" points="1021.55,1386.4 915.65,1386.4 1127.46,1386.4 1021.55,1386.4 1021.55,1053.1 "></polyline>
<polyline clip-path="url(#clip792)" style="stroke:#e26f46; stroke-linecap:round; stroke-linejoin:round; stroke-width:0; stroke-opacity:1; fill:none" points="1233.36,1053.1 1233.36,924.954 809.747,924.954 809.747,1053.1 1233.36,1053.1 1233.36,924.954 "></polyline>
<polyline clip-path="url(#clip792)" style="stroke:#e26f46; stroke-linecap:round; stroke-linejoin:round; stroke-width:0; stroke-opacity:1; fill:none" points="1233.36,790.04 809.747,790.04 809.747,924.954 1233.36,924.954 1233.36,790.04 1021.55,790.04 "></polyline>
<polyline clip-path="url(#clip792)" style="stroke:#e26f46; stroke-linecap:round; stroke-linejoin:round; stroke-width:0; stroke-opacity:1; fill:none" points="1021.55,459.767 915.65,459.767 1127.46,459.767 1021.55,459.767 1021.55,790.04 "></polyline>
<path clip-path="url(#clip792)" d="M1551.07 1313.92 L1445.17 1313.92 L1656.97 1313.92 L1551.07 1313.92 L1551.07 1169.78 L1551.07 1313.92  Z" fill="#3da44d" fill-rule="evenodd" fill-opacity="1"></path>
<polyline clip-path="url(#clip792)" style="stroke:#000000; stroke-linecap:round; stroke-linejoin:round; stroke-width:4; stroke-opacity:1; fill:none" points="1551.07,1313.92 1445.17,1313.92 1656.97,1313.92 1551.07,1313.92 1551.07,1169.78 1551.07,1313.92 "></polyline>
<path clip-path="url(#clip792)" d="M1762.88 1169.78 L1762.88 1068.51 L1339.26 1068.51 L1339.26 1169.78 L1762.88 1169.78 L1762.88 1068.51 L1762.88 1169.78  Z" fill="#3da44d" fill-rule="evenodd" fill-opacity="1"></path>
<polyline clip-path="url(#clip792)" style="stroke:#000000; stroke-linecap:round; stroke-linejoin:round; stroke-width:4; stroke-opacity:1; fill:none" points="1762.88,1169.78 1762.88,1068.51 1339.26,1068.51 1339.26,1169.78 1762.88,1169.78 1762.88,1068.51 1762.88,1169.78 "></polyline>
<path clip-path="url(#clip792)" d="M1762.88 978.028 L1339.26 978.028 L1339.26 1068.51 L1762.88 1068.51 L1762.88 978.028 L1551.07 978.028 L1762.88 978.028  Z" fill="#3da44d" fill-rule="evenodd" fill-opacity="1"></path>
<polyline clip-path="url(#clip792)" style="stroke:#000000; stroke-linecap:round; stroke-linejoin:round; stroke-width:4; stroke-opacity:1; fill:none" points="1762.88,978.028 1339.26,978.028 1339.26,1068.51 1762.88,1068.51 1762.88,978.028 1551.07,978.028 1762.88,978.028 "></polyline>
<path clip-path="url(#clip792)" d="M1551.07 714.121 L1445.17 714.121 L1656.97 714.121 L1551.07 714.121 L1551.07 978.028 L1551.07 714.121  Z" fill="#3da44d" fill-rule="evenodd" fill-opacity="1"></path>
<polyline clip-path="url(#clip792)" style="stroke:#000000; stroke-linecap:round; stroke-linejoin:round; stroke-width:4; stroke-opacity:1; fill:none" points="1551.07,714.121 1445.17,714.121 1656.97,714.121 1551.07,714.121 1551.07,978.028 1551.07,714.121 "></polyline>
<circle clip-path="url(#clip792)" cx="1551.07" cy="584.863" r="14.4" fill="#3da44d" fill-rule="evenodd" fill-opacity="1" stroke="#000000" stroke-opacity="1" stroke-width="3.2"></circle>
<circle clip-path="url(#clip792)" cx="1551.07" cy="680.828" r="14.4" fill="#3da44d" fill-rule="evenodd" fill-opacity="1" stroke="#000000" stroke-opacity="1" stroke-width="3.2"></circle>
<polyline clip-path="url(#clip792)" style="stroke:#3da44d; stroke-linecap:round; stroke-linejoin:round; stroke-width:0; stroke-opacity:1; fill:none" points="1551.07,1313.92 1445.17,1313.92 1656.97,1313.92 1551.07,1313.92 1551.07,1169.78 "></polyline>
<polyline clip-path="url(#clip792)" style="stroke:#3da44d; stroke-linecap:round; stroke-linejoin:round; stroke-width:0; stroke-opacity:1; fill:none" points="1762.88,1169.78 1762.88,1068.51 1339.26,1068.51 1339.26,1169.78 1762.88,1169.78 1762.88,1068.51 "></polyline>
<polyline clip-path="url(#clip792)" style="stroke:#3da44d; stroke-linecap:round; stroke-linejoin:round; stroke-width:0; stroke-opacity:1; fill:none" points="1762.88,978.028 1339.26,978.028 1339.26,1068.51 1762.88,1068.51 1762.88,978.028 1551.07,978.028 "></polyline>
<polyline clip-path="url(#clip792)" style="stroke:#3da44d; stroke-linecap:round; stroke-linejoin:round; stroke-width:0; stroke-opacity:1; fill:none" points="1551.07,714.121 1445.17,714.121 1656.97,714.121 1551.07,714.121 1551.07,978.028 "></polyline>
<path clip-path="url(#clip792)" d="M2080.58 1283.2 L1974.68 1283.2 L2186.49 1283.2 L2080.58 1283.2 L2080.58 1052.22 L2080.58 1283.2  Z" fill="#c271d2" fill-rule="evenodd" fill-opacity="1"></path>
<polyline clip-path="url(#clip792)" style="stroke:#000000; stroke-linecap:round; stroke-linejoin:round; stroke-width:4; stroke-opacity:1; fill:none" points="2080.58,1283.2 1974.68,1283.2 2186.49,1283.2 2080.58,1283.2 2080.58,1052.22 2080.58,1283.2 "></polyline>
<path clip-path="url(#clip792)" d="M2292.39 1052.22 L2292.39 885.347 L1868.78 885.347 L1868.78 1052.22 L2292.39 1052.22 L2292.39 885.347 L2292.39 1052.22  Z" fill="#c271d2" fill-rule="evenodd" fill-opacity="1"></path>
<polyline clip-path="url(#clip792)" style="stroke:#000000; stroke-linecap:round; stroke-linejoin:round; stroke-width:4; stroke-opacity:1; fill:none" points="2292.39,1052.22 2292.39,885.347 1868.78,885.347 1868.78,1052.22 2292.39,1052.22 2292.39,885.347 2292.39,1052.22 "></polyline>
<path clip-path="url(#clip792)" d="M2292.39 778.084 L1868.78 778.084 L1868.78 885.347 L2292.39 885.347 L2292.39 778.084 L2080.58 778.084 L2292.39 778.084  Z" fill="#c271d2" fill-rule="evenodd" fill-opacity="1"></path>
<polyline clip-path="url(#clip792)" style="stroke:#000000; stroke-linecap:round; stroke-linejoin:round; stroke-width:4; stroke-opacity:1; fill:none" points="2292.39,778.084 1868.78,778.084 1868.78,885.347 2292.39,885.347 2292.39,778.084 2080.58,778.084 2292.39,778.084 "></polyline>
<path clip-path="url(#clip792)" d="M2080.58 564.196 L1974.68 564.196 L2186.49 564.196 L2080.58 564.196 L2080.58 778.084 L2080.58 564.196  Z" fill="#c271d2" fill-rule="evenodd" fill-opacity="1"></path>
<polyline clip-path="url(#clip792)" style="stroke:#000000; stroke-linecap:round; stroke-linejoin:round; stroke-width:4; stroke-opacity:1; fill:none" points="2080.58,564.196 1974.68,564.196 2186.49,564.196 2080.58,564.196 2080.58,778.084 2080.58,564.196 "></polyline>
<polyline clip-path="url(#clip792)" style="stroke:#c271d2; stroke-linecap:round; stroke-linejoin:round; stroke-width:0; stroke-opacity:1; fill:none" points="2080.58,1283.2 1974.68,1283.2 2186.49,1283.2 2080.58,1283.2 2080.58,1052.22 "></polyline>
<polyline clip-path="url(#clip792)" style="stroke:#c271d2; stroke-linecap:round; stroke-linejoin:round; stroke-width:0; stroke-opacity:1; fill:none" points="2292.39,1052.22 2292.39,885.347 1868.78,885.347 1868.78,1052.22 2292.39,1052.22 2292.39,885.347 "></polyline>
<polyline clip-path="url(#clip792)" style="stroke:#c271d2; stroke-linecap:round; stroke-linejoin:round; stroke-width:0; stroke-opacity:1; fill:none" points="2292.39,778.084 1868.78,778.084 1868.78,885.347 2292.39,885.347 2292.39,778.084 2080.58,778.084 "></polyline>
<polyline clip-path="url(#clip792)" style="stroke:#c271d2; stroke-linecap:round; stroke-linejoin:round; stroke-width:0; stroke-opacity:1; fill:none" points="2080.58,564.196 1974.68,564.196 2186.49,564.196 2080.58,564.196 2080.58,778.084 "></polyline>
<path clip-path="url(#clip790)" d="M1869.74 425.996 L2281.66 425.996 L2281.66 166.796 L1869.74 166.796  Z" fill="#ffffff" fill-rule="evenodd" fill-opacity="1"></path>
<polyline clip-path="url(#clip790)" style="stroke:#000000; stroke-linecap:round; stroke-linejoin:round; stroke-width:4; stroke-opacity:1; fill:none" points="1869.74,425.996 2281.66,425.996 2281.66,166.796 1869.74,166.796 1869.74,425.996 "></polyline>
<path clip-path="url(#clip790)" d="M1893.44 239.372 L2035.63 239.372 L2035.63 197.9 L1893.44 197.9 L1893.44 239.372  Z" fill="#009af9" fill-rule="evenodd" fill-opacity="1"></path>
<polyline clip-path="url(#clip790)" style="stroke:#000000; stroke-linecap:round; stroke-linejoin:round; stroke-width:4; stroke-opacity:1; fill:none" points="1893.44,239.372 2035.63,239.372 2035.63,197.9 1893.44,197.9 1893.44,239.372 "></polyline>
<path clip-path="url(#clip790)" d="M2059.33 201.356 L2081.18 201.356 L2081.18 205.291 L2064 205.291 L2064 215.522 L2080.46 215.522 L2080.46 219.457 L2064 219.457 L2064 231.981 L2081.6 231.981 L2081.6 235.916 L2059.33 235.916 L2059.33 201.356 Z" fill="#000000" fill-rule="nonzero" fill-opacity="1"></path><path clip-path="url(#clip790)" d="M2110.65 209.99 L2101.27 222.606 L2111.13 235.916 L2106.11 235.916 L2098.56 225.731 L2091.02 235.916 L2085.99 235.916 L2096.06 222.351 L2086.85 209.99 L2091.87 209.99 L2098.75 219.226 L2105.62 209.99 L2110.65 209.99 Z" fill="#000000" fill-rule="nonzero" fill-opacity="1"></path><path clip-path="url(#clip790)" d="M2121.27 232.027 L2121.27 245.777 L2116.99 245.777 L2116.99 209.99 L2121.27 209.99 L2121.27 213.925 Q2122.61 211.61 2124.65 210.499 Q2126.71 209.365 2129.56 209.365 Q2134.28 209.365 2137.22 213.115 Q2140.18 216.865 2140.18 222.976 Q2140.18 229.087 2137.22 232.837 Q2134.28 236.587 2129.56 236.587 Q2126.71 236.587 2124.65 235.476 Q2122.61 234.342 2121.27 232.027 M2135.76 222.976 Q2135.76 218.277 2133.82 215.615 Q2131.9 212.93 2128.52 212.93 Q2125.14 212.93 2123.19 215.615 Q2121.27 218.277 2121.27 222.976 Q2121.27 227.675 2123.19 230.36 Q2125.14 233.022 2128.52 233.022 Q2131.9 233.022 2133.82 230.36 Q2135.76 227.675 2135.76 222.976 Z" fill="#000000" fill-rule="nonzero" fill-opacity="1"></path><path clip-path="url(#clip790)" d="M2147.85 230.036 L2152.73 230.036 L2152.73 235.916 L2147.85 235.916 L2147.85 230.036 Z" fill="#000000" fill-rule="nonzero" fill-opacity="1"></path><path clip-path="url(#clip790)" d="M2198.29 202.49 L2198.29 207.05 Q2195.62 205.777 2193.26 205.152 Q2190.9 204.527 2188.7 204.527 Q2184.88 204.527 2182.8 206.008 Q2180.74 207.49 2180.74 210.221 Q2180.74 212.513 2182.1 213.694 Q2183.49 214.851 2187.34 215.569 L2190.16 216.147 Q2195.39 217.143 2197.87 219.666 Q2200.37 222.166 2200.37 226.379 Q2200.37 231.402 2196.99 233.994 Q2193.63 236.587 2187.13 236.587 Q2184.67 236.587 2181.9 236.031 Q2179.14 235.476 2176.18 234.388 L2176.18 229.573 Q2179.03 231.17 2181.76 231.981 Q2184.49 232.791 2187.13 232.791 Q2191.13 232.791 2193.31 231.217 Q2195.48 229.643 2195.48 226.726 Q2195.48 224.18 2193.91 222.744 Q2192.36 221.309 2188.79 220.592 L2185.95 220.036 Q2180.72 218.995 2178.38 216.772 Q2176.04 214.55 2176.04 210.592 Q2176.04 206.008 2179.26 203.37 Q2182.5 200.731 2188.17 200.731 Q2190.6 200.731 2193.12 201.171 Q2195.65 201.61 2198.29 202.49 Z" fill="#000000" fill-rule="nonzero" fill-opacity="1"></path><path clip-path="url(#clip790)" d="M2229.65 221.888 L2229.65 223.971 L2210.07 223.971 Q2210.35 228.369 2212.71 230.684 Q2215.09 232.976 2219.33 232.976 Q2221.78 232.976 2224.07 232.374 Q2226.39 231.772 2228.66 230.569 L2228.66 234.596 Q2226.36 235.568 2223.96 236.078 Q2221.55 236.587 2219.07 236.587 Q2212.87 236.587 2209.23 232.976 Q2205.62 229.365 2205.62 223.207 Q2205.62 216.842 2209.05 213.115 Q2212.5 209.365 2218.33 209.365 Q2223.56 209.365 2226.6 212.745 Q2229.65 216.101 2229.65 221.888 M2225.39 220.638 Q2225.35 217.143 2223.42 215.059 Q2221.53 212.976 2218.38 212.976 Q2214.81 212.976 2212.66 214.99 Q2210.53 217.004 2210.21 220.661 L2225.39 220.638 Z" fill="#000000" fill-rule="nonzero" fill-opacity="1"></path><path clip-path="url(#clip790)" d="M2239.19 222.976 Q2239.19 227.675 2241.11 230.36 Q2243.05 233.022 2246.43 233.022 Q2249.81 233.022 2251.76 230.36 Q2253.7 227.675 2253.7 222.976 Q2253.7 218.277 2251.76 215.615 Q2249.81 212.93 2246.43 212.93 Q2243.05 212.93 2241.11 215.615 Q2239.19 218.277 2239.19 222.976 M2253.7 232.027 Q2252.36 234.342 2250.3 235.476 Q2248.26 236.587 2245.39 236.587 Q2240.69 236.587 2237.73 232.837 Q2234.79 229.087 2234.79 222.976 Q2234.79 216.865 2237.73 213.115 Q2240.69 209.365 2245.39 209.365 Q2248.26 209.365 2250.3 210.499 Q2252.36 211.61 2253.7 213.925 L2253.7 209.99 L2257.96 209.99 L2257.96 245.777 L2253.7 245.777 L2253.7 232.027 Z" fill="#000000" fill-rule="nonzero" fill-opacity="1"></path><path clip-path="url(#clip790)" d="M1893.44 291.212 L2035.63 291.212 L2035.63 249.74 L1893.44 249.74 L1893.44 291.212  Z" fill="#e26f46" fill-rule="evenodd" fill-opacity="1"></path>
<polyline clip-path="url(#clip790)" style="stroke:#000000; stroke-linecap:round; stroke-linejoin:round; stroke-width:4; stroke-opacity:1; fill:none" points="1893.44,291.212 2035.63,291.212 2035.63,249.74 1893.44,249.74 1893.44,291.212 "></polyline>
<path clip-path="url(#clip790)" d="M2081.57 254.33 L2081.57 258.89 Q2078.91 257.617 2076.55 256.992 Q2074.19 256.367 2071.99 256.367 Q2068.17 256.367 2066.09 257.848 Q2064.03 259.33 2064.03 262.061 Q2064.03 264.353 2065.39 265.534 Q2066.78 266.691 2070.62 267.409 L2073.45 267.987 Q2078.68 268.983 2081.16 271.506 Q2083.66 274.006 2083.66 278.219 Q2083.66 283.242 2080.28 285.834 Q2076.92 288.427 2070.42 288.427 Q2067.96 288.427 2065.18 287.871 Q2062.43 287.316 2059.47 286.228 L2059.47 281.413 Q2062.31 283.01 2065.05 283.821 Q2067.78 284.631 2070.42 284.631 Q2074.42 284.631 2076.6 283.057 Q2078.77 281.483 2078.77 278.566 Q2078.77 276.02 2077.2 274.584 Q2075.65 273.149 2072.08 272.432 L2069.23 271.876 Q2064 270.835 2061.67 268.612 Q2059.33 266.39 2059.33 262.432 Q2059.33 257.848 2062.55 255.21 Q2065.79 252.571 2071.46 252.571 Q2073.89 252.571 2076.41 253.011 Q2078.93 253.45 2081.57 254.33 Z" fill="#000000" fill-rule="nonzero" fill-opacity="1"></path><path clip-path="url(#clip790)" d="M2095.62 257.038 L2095.62 270.024 L2101.5 270.024 Q2104.77 270.024 2106.55 268.335 Q2108.33 266.645 2108.33 263.52 Q2108.33 260.418 2106.55 258.728 Q2104.77 257.038 2101.5 257.038 L2095.62 257.038 M2090.95 253.196 L2101.5 253.196 Q2107.31 253.196 2110.28 255.835 Q2113.26 258.45 2113.26 263.52 Q2113.26 268.635 2110.28 271.251 Q2107.31 273.867 2101.5 273.867 L2095.62 273.867 L2095.62 287.756 L2090.95 287.756 L2090.95 253.196 Z" fill="#000000" fill-rule="nonzero" fill-opacity="1"></path><path clip-path="url(#clip790)" d="M2114.74 253.196 L2143.98 253.196 L2143.98 257.131 L2131.71 257.131 L2131.71 287.756 L2127.01 287.756 L2127.01 257.131 L2114.74 257.131 L2114.74 253.196 Z" fill="#000000" fill-rule="nonzero" fill-opacity="1"></path><path clip-path="url(#clip790)" d="M1893.44 343.052 L2035.63 343.052 L2035.63 301.58 L1893.44 301.58 L1893.44 343.052  Z" fill="#3da44d" fill-rule="evenodd" fill-opacity="1"></path>
<polyline clip-path="url(#clip790)" style="stroke:#000000; stroke-linecap:round; stroke-linejoin:round; stroke-width:4; stroke-opacity:1; fill:none" points="1893.44,343.052 2035.63,343.052 2035.63,301.58 1893.44,301.58 1893.44,343.052 "></polyline>
<path clip-path="url(#clip790)" d="M2084.88 334.665 L2084.88 325.383 L2077.24 325.383 L2077.24 321.54 L2089.51 321.54 L2089.51 336.378 Q2086.8 338.299 2083.54 339.295 Q2080.28 340.267 2076.57 340.267 Q2068.47 340.267 2063.89 335.545 Q2059.33 330.799 2059.33 322.35 Q2059.33 313.878 2063.89 309.156 Q2068.47 304.411 2076.57 304.411 Q2079.95 304.411 2082.98 305.244 Q2086.04 306.077 2088.61 307.698 L2088.61 312.675 Q2086.02 310.476 2083.1 309.364 Q2080.18 308.253 2076.97 308.253 Q2070.62 308.253 2067.43 311.795 Q2064.26 315.337 2064.26 322.35 Q2064.26 329.341 2067.43 332.883 Q2070.62 336.424 2076.97 336.424 Q2079.44 336.424 2081.39 336.008 Q2083.33 335.568 2084.88 334.665 Z" fill="#000000" fill-rule="nonzero" fill-opacity="1"></path><path clip-path="url(#clip790)" d="M2102.73 308.878 L2102.73 321.864 L2108.61 321.864 Q2111.87 321.864 2113.66 320.175 Q2115.44 318.485 2115.44 315.36 Q2115.44 312.258 2113.66 310.568 Q2111.87 308.878 2108.61 308.878 L2102.73 308.878 M2098.05 305.036 L2108.61 305.036 Q2114.42 305.036 2117.38 307.675 Q2120.37 310.29 2120.37 315.36 Q2120.37 320.475 2117.38 323.091 Q2114.42 325.707 2108.61 325.707 L2102.73 325.707 L2102.73 339.596 L2098.05 339.596 L2098.05 305.036 Z" fill="#000000" fill-rule="nonzero" fill-opacity="1"></path><path clip-path="url(#clip790)" d="M1893.44 394.892 L2035.63 394.892 L2035.63 353.42 L1893.44 353.42 L1893.44 394.892  Z" fill="#c271d2" fill-rule="evenodd" fill-opacity="1"></path>
<polyline clip-path="url(#clip790)" style="stroke:#000000; stroke-linecap:round; stroke-linejoin:round; stroke-width:4; stroke-opacity:1; fill:none" points="1893.44,394.892 2035.63,394.892 2035.63,353.42 1893.44,353.42 1893.44,394.892 "></polyline>
<path clip-path="url(#clip790)" d="M2064 360.718 L2064 387.593 L2069.65 387.593 Q2076.8 387.593 2080.11 384.352 Q2083.45 381.112 2083.45 374.121 Q2083.45 367.177 2080.11 363.959 Q2076.8 360.718 2069.65 360.718 L2064 360.718 M2059.33 356.876 L2068.93 356.876 Q2078.98 356.876 2083.68 361.066 Q2088.38 365.232 2088.38 374.121 Q2088.38 383.056 2083.66 387.246 Q2078.93 391.436 2068.93 391.436 L2059.33 391.436 L2059.33 356.876 Z" fill="#000000" fill-rule="nonzero" fill-opacity="1"></path><path clip-path="url(#clip790)" d="M2112.22 375.232 Q2113.73 375.741 2115.14 377.408 Q2116.57 379.075 2118.01 381.991 L2122.75 391.436 L2117.73 391.436 L2113.31 382.57 Q2111.6 379.098 2109.98 377.964 Q2108.38 376.829 2105.6 376.829 L2100.51 376.829 L2100.51 391.436 L2095.83 391.436 L2095.83 356.876 L2106.39 356.876 Q2112.31 356.876 2115.23 359.353 Q2118.15 361.829 2118.15 366.829 Q2118.15 370.093 2116.62 372.246 Q2115.11 374.399 2112.22 375.232 M2100.51 360.718 L2100.51 372.987 L2106.39 372.987 Q2109.77 372.987 2111.48 371.436 Q2113.22 369.862 2113.22 366.829 Q2113.22 363.797 2111.48 362.269 Q2109.77 360.718 2106.39 360.718 L2100.51 360.718 Z" fill="#000000" fill-rule="nonzero" fill-opacity="1"></path><path clip-path="url(#clip790)" d="M2128.77 356.876 L2133.45 356.876 L2133.45 387.501 L2150.28 387.501 L2150.28 391.436 L2128.77 391.436 L2128.77 356.876 Z" fill="#000000" fill-rule="nonzero" fill-opacity="1"></path></svg>