<svg xmlns="http://www.w3.org/2000/svg" xmlns:xlink="http://www.w3.org/1999/xlink" width="600" height="400" viewBox="0 0 2400 1600">
<defs>
  <clipPath id="clip460">
    <rect x="0" y="0" width="2400" height="1600"></rect>
  </clipPath>
</defs>
<path clip-path="url(#clip460)" d="M0 1600 L2400 1600 L2400 0 L0 0  Z" fill="#ffffff" fill-rule="evenodd" fill-opacity="1"></path>
<defs>
  <clipPath id="clip461">
    <rect x="480" y="0" width="1681" height="1600"></rect>
  </clipPath>
</defs>
<path clip-path="url(#clip460)" d="M292.713 1423.18 L2352.76 1423.18 L2352.76 123.472 L292.713 123.472  Z" fill="#ffffff" fill-rule="evenodd" fill-opacity="1"></path>
<defs>
  <clipPath id="clip462">
    <rect x="292" y="123" width="2061" height="1301"></rect>
  </clipPath>
</defs>
<polyline clip-path="url(#clip462)" style="stroke:#000000; stroke-linecap:round; stroke-linejoin:round; stroke-width:2; stroke-opacity:0.1; fill:none" points="628.65,1423.18 628.65,123.472 "></polyline>
<polyline clip-path="url(#clip462)" style="stroke:#000000; stroke-linecap:round; stroke-linejoin:round; stroke-width:2; stroke-opacity:0.1; fill:none" points="975.692,1423.18 975.692,123.472 "></polyline>
<polyline clip-path="url(#clip462)" style="stroke:#000000; stroke-linecap:round; stroke-linejoin:round; stroke-width:2; stroke-opacity:0.1; fill:none" points="1322.73,1423.18 1322.73,123.472 "></polyline>
<polyline clip-path="url(#clip462)" style="stroke:#000000; stroke-linecap:round; stroke-linejoin:round; stroke-width:2; stroke-opacity:0.1; fill:none" points="1669.78,1423.18 1669.78,123.472 "></polyline>
<polyline clip-path="url(#clip462)" style="stroke:#000000; stroke-linecap:round; stroke-linejoin:round; stroke-width:2; stroke-opacity:0.1; fill:none" points="2016.82,1423.18 2016.82,123.472 "></polyline>
<polyline clip-path="url(#clip460)" style="stroke:#000000; stroke-linecap:round; stroke-linejoin:round; stroke-width:4; stroke-opacity:1; fill:none" points="292.713,1423.18 2352.76,1423.18 "></polyline>
<polyline clip-path="url(#clip460)" style="stroke:#000000; stroke-linecap:round; stroke-linejoin:round; stroke-width:4; stroke-opacity:1; fill:none" points="628.65,1423.18 628.65,1404.28 "></polyline>
<polyline clip-path="url(#clip460)" style="stroke:#000000; stroke-linecap:round; stroke-linejoin:round; stroke-width:4; stroke-opacity:1; fill:none" points="975.692,1423.18 975.692,1404.28 "></polyline>
<polyline clip-path="url(#clip460)" style="stroke:#000000; stroke-linecap:round; stroke-linejoin:round; stroke-width:4; stroke-opacity:1; fill:none" points="1322.73,1423.18 1322.73,1404.28 "></polyline>
<polyline clip-path="url(#clip460)" style="stroke:#000000; stroke-linecap:round; stroke-linejoin:round; stroke-width:4; stroke-opacity:1; fill:none" points="1669.78,1423.18 1669.78,1404.28 "></polyline>
<polyline clip-path="url(#clip460)" style="stroke:#000000; stroke-linecap:round; stroke-linejoin:round; stroke-width:4; stroke-opacity:1; fill:none" points="2016.82,1423.18 2016.82,1404.28 "></polyline>
<path clip-path="url(#clip460)" d="M595.803 1481.64 L603.442 1481.64 L603.442 1455.28 L595.132 1456.95 L595.132 1452.69 L603.396 1451.02 L608.071 1451.02 L608.071 1481.64 L615.71 1481.64 L615.71 1485.58 L595.803 1485.58 L595.803 1481.64 Z" fill="#000000" fill-rule="nonzero" fill-opacity="1"></path><path clip-path="url(#clip460)" d="M625.155 1479.7 L630.039 1479.7 L630.039 1485.58 L625.155 1485.58 L625.155 1479.7 Z" fill="#000000" fill-rule="nonzero" fill-opacity="1"></path><path clip-path="url(#clip460)" d="M650.224 1454.1 Q646.613 1454.1 644.784 1457.66 Q642.979 1461.2 642.979 1468.33 Q642.979 1475.44 644.784 1479.01 Q646.613 1482.55 650.224 1482.55 Q653.858 1482.55 655.664 1479.01 Q657.492 1475.44 657.492 1468.33 Q657.492 1461.2 655.664 1457.66 Q653.858 1454.1 650.224 1454.1 M650.224 1450.39 Q656.034 1450.39 659.09 1455 Q662.168 1459.58 662.168 1468.33 Q662.168 1477.06 659.09 1481.67 Q656.034 1486.25 650.224 1486.25 Q644.414 1486.25 641.335 1481.67 Q638.28 1477.06 638.28 1468.33 Q638.28 1459.58 641.335 1455 Q644.414 1450.39 650.224 1450.39 Z" fill="#000000" fill-rule="nonzero" fill-opacity="1"></path><path clip-path="url(#clip460)" d="M943.343 1481.64 L950.982 1481.64 L950.982 1455.28 L942.672 1456.95 L942.672 1452.69 L950.935 1451.02 L955.611 1451.02 L955.611 1481.64 L963.25 1481.64 L963.25 1485.58 L943.343 1485.58 L943.343 1481.64 Z" fill="#000000" fill-rule="nonzero" fill-opacity="1"></path><path clip-path="url(#clip460)" d="M972.695 1479.7 L977.579 1479.7 L977.579 1485.58 L972.695 1485.58 L972.695 1479.7 Z" fill="#000000" fill-rule="nonzero" fill-opacity="1"></path><path clip-path="url(#clip460)" d="M987.81 1451.02 L1006.17 1451.02 L1006.17 1454.96 L992.093 1454.96 L992.093 1463.43 Q993.111 1463.08 994.13 1462.92 Q995.148 1462.73 996.167 1462.73 Q1001.95 1462.73 1005.33 1465.9 Q1008.71 1469.08 1008.71 1474.49 Q1008.71 1480.07 1005.24 1483.17 Q1001.77 1486.25 995.449 1486.25 Q993.273 1486.25 991.005 1485.88 Q988.759 1485.51 986.352 1484.77 L986.352 1480.07 Q988.435 1481.2 990.657 1481.76 Q992.88 1482.32 995.356 1482.32 Q999.361 1482.32 1001.7 1480.21 Q1004.04 1478.1 1004.04 1474.49 Q1004.04 1470.88 1001.7 1468.77 Q999.361 1466.67 995.356 1466.67 Q993.482 1466.67 991.607 1467.08 Q989.755 1467.5 987.81 1468.38 L987.81 1451.02 Z" fill="#000000" fill-rule="nonzero" fill-opacity="1"></path><path clip-path="url(#clip460)" d="M1293.97 1481.64 L1310.29 1481.64 L1310.29 1485.58 L1288.35 1485.58 L1288.35 1481.64 Q1291.01 1478.89 1295.59 1474.26 Q1300.2 1469.61 1301.38 1468.27 Q1303.63 1465.74 1304.51 1464.01 Q1305.41 1462.25 1305.41 1460.56 Q1305.41 1457.8 1303.46 1456.07 Q1301.54 1454.33 1298.44 1454.33 Q1296.24 1454.33 1293.79 1455.09 Q1291.36 1455.86 1288.58 1457.41 L1288.58 1452.69 Q1291.4 1451.55 1293.86 1450.97 Q1296.31 1450.39 1298.35 1450.39 Q1303.72 1450.39 1306.91 1453.08 Q1310.11 1455.77 1310.11 1460.26 Q1310.11 1462.39 1309.3 1464.31 Q1308.51 1466.2 1306.4 1468.8 Q1305.82 1469.47 1302.72 1472.69 Q1299.62 1475.88 1293.97 1481.64 Z" fill="#000000" fill-rule="nonzero" fill-opacity="1"></path><path clip-path="url(#clip460)" d="M1320.11 1479.7 L1324.99 1479.7 L1324.99 1485.58 L1320.11 1485.58 L1320.11 1479.7 Z" fill="#000000" fill-rule="nonzero" fill-opacity="1"></path><path clip-path="url(#clip460)" d="M1345.18 1454.1 Q1341.57 1454.1 1339.74 1457.66 Q1337.93 1461.2 1337.93 1468.33 Q1337.93 1475.44 1339.74 1479.01 Q1341.57 1482.55 1345.18 1482.55 Q1348.81 1482.55 1350.62 1479.01 Q1352.44 1475.44 1352.44 1468.33 Q1352.44 1461.2 1350.62 1457.66 Q1348.81 1454.1 1345.18 1454.1 M1345.18 1450.39 Q1350.99 1450.39 1354.04 1455 Q1357.12 1459.58 1357.12 1468.33 Q1357.12 1477.06 1354.04 1481.67 Q1350.99 1486.25 1345.18 1486.25 Q1339.37 1486.25 1336.29 1481.67 Q1333.23 1477.06 1333.23 1468.33 Q1333.23 1459.58 1336.29 1455 Q1339.37 1450.39 1345.18 1450.39 Z" fill="#000000" fill-rule="nonzero" fill-opacity="1"></path><path clip-path="url(#clip460)" d="M1641.51 1481.64 L1657.83 1481.64 L1657.83 1485.58 L1635.89 1485.58 L1635.89 1481.64 Q1638.55 1478.89 1643.13 1474.26 Q1647.74 1469.61 1648.92 1468.27 Q1651.17 1465.74 1652.05 1464.01 Q1652.95 1462.25 1652.95 1460.56 Q1652.95 1457.8 1651 1456.07 Q1649.08 1454.33 1645.98 1454.33 Q1643.78 1454.33 1641.33 1455.09 Q1638.9 1455.86 1636.12 1457.41 L1636.12 1452.69 Q1638.94 1451.55 1641.4 1450.97 Q1643.85 1450.39 1645.89 1450.39 Q1651.26 1450.39 1654.45 1453.08 Q1657.65 1455.77 1657.65 1460.26 Q1657.65 1462.39 1656.84 1464.31 Q1656.05 1466.2 1653.94 1468.8 Q1653.36 1469.47 1650.26 1472.69 Q1647.16 1475.88 1641.51 1481.64 Z" fill="#000000" fill-rule="nonzero" fill-opacity="1"></path><path clip-path="url(#clip460)" d="M1667.65 1479.7 L1672.53 1479.7 L1672.53 1485.58 L1667.65 1485.58 L1667.65 1479.7 Z" fill="#000000" fill-rule="nonzero" fill-opacity="1"></path><path clip-path="url(#clip460)" d="M1682.76 1451.02 L1701.12 1451.02 L1701.12 1454.96 L1687.05 1454.96 L1687.05 1463.43 Q1688.06 1463.08 1689.08 1462.92 Q1690.1 1462.73 1691.12 1462.73 Q1696.91 1462.73 1700.29 1465.9 Q1703.67 1469.08 1703.67 1474.49 Q1703.67 1480.07 1700.19 1483.17 Q1696.72 1486.25 1690.4 1486.25 Q1688.23 1486.25 1685.96 1485.88 Q1683.71 1485.51 1681.3 1484.77 L1681.3 1480.07 Q1683.39 1481.2 1685.61 1481.76 Q1687.83 1482.32 1690.31 1482.32 Q1694.31 1482.32 1696.65 1480.21 Q1698.99 1478.1 1698.99 1474.49 Q1698.99 1470.88 1696.65 1468.77 Q1694.31 1466.67 1690.31 1466.67 Q1688.43 1466.67 1686.56 1467.08 Q1684.71 1467.5 1682.76 1468.38 L1682.76 1451.02 Z" fill="#000000" fill-rule="nonzero" fill-opacity="1"></path><path clip-path="url(#clip460)" d="M1998.13 1466.95 Q2001.48 1467.66 2003.36 1469.93 Q2005.26 1472.2 2005.26 1475.53 Q2005.26 1480.65 2001.74 1483.45 Q1998.22 1486.25 1991.74 1486.25 Q1989.56 1486.25 1987.25 1485.81 Q1984.96 1485.39 1982.5 1484.54 L1982.5 1480.02 Q1984.45 1481.16 1986.76 1481.74 Q1989.08 1482.32 1991.6 1482.32 Q1996 1482.32 1998.29 1480.58 Q2000.6 1478.84 2000.6 1475.53 Q2000.6 1472.48 1998.45 1470.77 Q1996.32 1469.03 1992.5 1469.03 L1988.47 1469.03 L1988.47 1465.19 L1992.69 1465.19 Q1996.14 1465.19 1997.96 1463.82 Q1999.79 1462.43 1999.79 1459.84 Q1999.79 1457.18 1997.9 1455.77 Q1996.02 1454.33 1992.5 1454.33 Q1990.58 1454.33 1988.38 1454.75 Q1986.18 1455.16 1983.54 1456.04 L1983.54 1451.88 Q1986.21 1451.14 1988.52 1450.77 Q1990.86 1450.39 1992.92 1450.39 Q1998.24 1450.39 2001.34 1452.83 Q2004.45 1455.23 2004.45 1459.35 Q2004.45 1462.22 2002.8 1464.21 Q2001.16 1466.18 1998.13 1466.95 Z" fill="#000000" fill-rule="nonzero" fill-opacity="1"></path><path clip-path="url(#clip460)" d="M2014.12 1479.7 L2019.01 1479.7 L2019.01 1485.58 L2014.12 1485.58 L2014.12 1479.7 Z" fill="#000000" fill-rule="nonzero" fill-opacity="1"></path><path clip-path="url(#clip460)" d="M2039.19 1454.1 Q2035.58 1454.1 2033.75 1457.66 Q2031.95 1461.2 2031.95 1468.33 Q2031.95 1475.44 2033.75 1479.01 Q2035.58 1482.55 2039.19 1482.55 Q2042.83 1482.55 2044.63 1479.01 Q2046.46 1475.44 2046.46 1468.33 Q2046.46 1461.2 2044.63 1457.66 Q2042.83 1454.1 2039.19 1454.1 M2039.19 1450.39 Q2045 1450.39 2048.06 1455 Q2051.14 1459.58 2051.14 1468.33 Q2051.14 1477.06 2048.06 1481.67 Q2045 1486.25 2039.19 1486.25 Q2033.38 1486.25 2030.3 1481.67 Q2027.25 1477.06 2027.25 1468.33 Q2027.25 1459.58 2030.3 1455 Q2033.38 1450.39 2039.19 1450.39 Z" fill="#000000" fill-rule="nonzero" fill-opacity="1"></path><path clip-path="url(#clip460)" d="M1255.24 1539.24 Q1257.44 1535.29 1260.49 1533.41 Q1263.55 1531.54 1267.69 1531.54 Q1273.26 1531.54 1276.28 1535.45 Q1279.3 1539.33 1279.3 1546.53 L1279.3 1568.04 L1273.42 1568.04 L1273.42 1546.72 Q1273.42 1541.59 1271.6 1539.11 Q1269.79 1536.63 1266.06 1536.63 Q1261.51 1536.63 1258.87 1539.65 Q1256.23 1542.68 1256.23 1547.9 L1256.23 1568.04 L1250.34 1568.04 L1250.34 1546.72 Q1250.34 1541.56 1248.53 1539.11 Q1246.71 1536.63 1242.92 1536.63 Q1238.44 1536.63 1235.79 1539.68 Q1233.15 1542.71 1233.15 1547.9 L1233.15 1568.04 L1227.26 1568.04 L1227.26 1532.4 L1233.15 1532.4 L1233.15 1537.93 Q1235.16 1534.66 1237.96 1533.1 Q1240.76 1531.54 1244.61 1531.54 Q1248.49 1531.54 1251.2 1533.51 Q1253.94 1535.48 1255.24 1539.24 Z" fill="#000000" fill-rule="nonzero" fill-opacity="1"></path><path clip-path="url(#clip460)" d="M1304.8 1536.5 Q1300.09 1536.5 1297.35 1540.19 Q1294.61 1543.85 1294.61 1550.25 Q1294.61 1556.65 1297.32 1560.34 Q1300.06 1564 1304.8 1564 Q1309.48 1564 1312.22 1560.31 Q1314.95 1556.62 1314.95 1550.25 Q1314.95 1543.92 1312.22 1540.23 Q1309.48 1536.5 1304.8 1536.5 M1304.8 1531.54 Q1312.44 1531.54 1316.8 1536.5 Q1321.16 1541.47 1321.16 1550.25 Q1321.16 1559 1316.8 1564 Q1312.44 1568.97 1304.8 1568.97 Q1297.13 1568.97 1292.77 1564 Q1288.44 1559 1288.44 1550.25 Q1288.44 1541.47 1292.77 1536.5 Q1297.13 1531.54 1304.8 1531.54 Z" fill="#000000" fill-rule="nonzero" fill-opacity="1"></path><path clip-path="url(#clip460)" d="M1354.32 1537.81 L1354.32 1518.52 L1360.18 1518.52 L1360.18 1568.04 L1354.32 1568.04 L1354.32 1562.7 Q1352.48 1565.88 1349.65 1567.44 Q1346.84 1568.97 1342.9 1568.97 Q1336.44 1568.97 1332.36 1563.81 Q1328.32 1558.65 1328.32 1550.25 Q1328.32 1541.85 1332.36 1536.69 Q1336.44 1531.54 1342.9 1531.54 Q1346.84 1531.54 1349.65 1533.1 Q1352.48 1534.62 1354.32 1537.81 M1334.37 1550.25 Q1334.37 1556.71 1337.01 1560.4 Q1339.68 1564.07 1344.33 1564.07 Q1348.98 1564.07 1351.65 1560.4 Q1354.32 1556.71 1354.32 1550.25 Q1354.32 1543.79 1351.65 1540.13 Q1348.98 1536.44 1344.33 1536.44 Q1339.68 1536.44 1337.01 1540.13 Q1334.37 1543.79 1334.37 1550.25 Z" fill="#000000" fill-rule="nonzero" fill-opacity="1"></path><path clip-path="url(#clip460)" d="M1402.74 1548.76 L1402.74 1551.62 L1375.81 1551.62 Q1376.19 1557.67 1379.44 1560.85 Q1382.72 1564 1388.54 1564 Q1391.91 1564 1395.06 1563.17 Q1398.25 1562.35 1401.37 1560.69 L1401.37 1566.23 Q1398.22 1567.57 1394.91 1568.27 Q1391.6 1568.97 1388.19 1568.97 Q1379.66 1568.97 1374.66 1564 Q1369.7 1559.04 1369.7 1550.57 Q1369.7 1541.82 1374.41 1536.69 Q1379.15 1531.54 1387.17 1531.54 Q1394.36 1531.54 1398.53 1536.18 Q1402.74 1540.8 1402.74 1548.76 M1396.88 1547.04 Q1396.82 1542.23 1394.17 1539.37 Q1391.56 1536.5 1387.24 1536.5 Q1382.33 1536.5 1379.37 1539.27 Q1376.45 1542.04 1376 1547.07 L1396.88 1547.04 Z" fill="#000000" fill-rule="nonzero" fill-opacity="1"></path><path clip-path="url(#clip460)" d="M1412.35 1518.52 L1418.2 1518.52 L1418.2 1568.04 L1412.35 1568.04 L1412.35 1518.52 Z" fill="#000000" fill-rule="nonzero" fill-opacity="1"></path><polyline clip-path="url(#clip462)" style="stroke:#000000; stroke-linecap:round; stroke-linejoin:round; stroke-width:2; stroke-opacity:0.1; fill:none" points="292.713,1386.4 2352.76,1386.4 "></polyline>
<polyline clip-path="url(#clip462)" style="stroke:#000000; stroke-linecap:round; stroke-linejoin:round; stroke-width:2; stroke-opacity:0.1; fill:none" points="292.713,1112.08 2352.76,1112.08 "></polyline>
<polyline clip-path="url(#clip462)" style="stroke:#000000; stroke-linecap:round; stroke-linejoin:round; stroke-width:2; stroke-opacity:0.1; fill:none" points="292.713,837.771 2352.76,837.771 "></polyline>
<polyline clip-path="url(#clip462)" style="stroke:#000000; stroke-linecap:round; stroke-linejoin:round; stroke-width:2; stroke-opacity:0.1; fill:none" points="292.713,563.458 2352.76,563.458 "></polyline>
<polyline clip-path="url(#clip462)" style="stroke:#000000; stroke-linecap:round; stroke-linejoin:round; stroke-width:2; stroke-opacity:0.1; fill:none" points="292.713,289.146 2352.76,289.146 "></polyline>
<polyline clip-path="url(#clip460)" style="stroke:#000000; stroke-linecap:round; stroke-linejoin:round; stroke-width:4; stroke-opacity:1; fill:none" points="292.713,1423.18 292.713,123.472 "></polyline>
<polyline clip-path="url(#clip460)" style="stroke:#000000; stroke-linecap:round; stroke-linejoin:round; stroke-width:4; stroke-opacity:1; fill:none" points="292.713,1386.4 311.611,1386.4 "></polyline>
<polyline clip-path="url(#clip460)" style="stroke:#000000; stroke-linecap:round; stroke-linejoin:round; stroke-width:4; stroke-opacity:1; fill:none" points="292.713,1112.08 311.611,1112.08 "></polyline>
<polyline clip-path="url(#clip460)" style="stroke:#000000; stroke-linecap:round; stroke-linejoin:round; stroke-width:4; stroke-opacity:1; fill:none" points="292.713,837.771 311.611,837.771 "></polyline>
<polyline clip-path="url(#clip460)" style="stroke:#000000; stroke-linecap:round; stroke-linejoin:round; stroke-width:4; stroke-opacity:1; fill:none" points="292.713,563.458 311.611,563.458 "></polyline>
<polyline clip-path="url(#clip460)" style="stroke:#000000; stroke-linecap:round; stroke-linejoin:round; stroke-width:4; stroke-opacity:1; fill:none" points="292.713,289.146 311.611,289.146 "></polyline>
<path clip-path="url(#clip460)" d="M244.769 1372.19 Q241.158 1372.19 239.329 1375.76 Q237.523 1379.3 237.523 1386.43 Q237.523 1393.54 239.329 1397.1 Q241.158 1400.64 244.769 1400.64 Q248.403 1400.64 250.209 1397.1 Q252.037 1393.54 252.037 1386.43 Q252.037 1379.3 250.209 1375.76 Q248.403 1372.19 244.769 1372.19 M244.769 1368.49 Q250.579 1368.49 253.634 1373.1 Q256.713 1377.68 256.713 1386.43 Q256.713 1395.16 253.634 1399.76 Q250.579 1404.35 244.769 1404.35 Q238.959 1404.35 235.88 1399.76 Q232.824 1395.16 232.824 1386.43 Q232.824 1377.68 235.88 1373.1 Q238.959 1368.49 244.769 1368.49 Z" fill="#000000" fill-rule="nonzero" fill-opacity="1"></path><path clip-path="url(#clip460)" d="M148.311 1125.43 L164.63 1125.43 L164.63 1129.36 L142.686 1129.36 L142.686 1125.43 Q145.348 1122.67 149.931 1118.04 Q154.538 1113.39 155.718 1112.05 Q157.964 1109.53 158.843 1107.79 Q159.746 1106.03 159.746 1104.34 Q159.746 1101.59 157.802 1099.85 Q155.88 1098.11 152.778 1098.11 Q150.579 1098.11 148.126 1098.88 Q145.695 1099.64 142.917 1101.19 L142.917 1096.47 Q145.741 1095.34 148.195 1094.76 Q150.649 1094.18 152.686 1094.18 Q158.056 1094.18 161.251 1096.86 Q164.445 1099.55 164.445 1104.04 Q164.445 1106.17 163.635 1108.09 Q162.848 1109.99 160.741 1112.58 Q160.163 1113.25 157.061 1116.47 Q153.959 1119.66 148.311 1125.43 Z" fill="#000000" fill-rule="nonzero" fill-opacity="1"></path><path clip-path="url(#clip460)" d="M174.491 1094.8 L192.848 1094.8 L192.848 1098.74 L178.774 1098.74 L178.774 1107.21 Q179.792 1106.86 180.811 1106.7 Q181.829 1106.52 182.848 1106.52 Q188.635 1106.52 192.014 1109.69 Q195.394 1112.86 195.394 1118.28 Q195.394 1123.85 191.922 1126.96 Q188.45 1130.03 182.13 1130.03 Q179.954 1130.03 177.686 1129.66 Q175.44 1129.29 173.033 1128.55 L173.033 1123.85 Q175.116 1124.99 177.339 1125.54 Q179.561 1126.1 182.038 1126.1 Q186.042 1126.1 188.38 1123.99 Q190.718 1121.89 190.718 1118.28 Q190.718 1114.66 188.38 1112.56 Q186.042 1110.45 182.038 1110.45 Q180.163 1110.45 178.288 1110.87 Q176.436 1111.28 174.491 1112.16 L174.491 1094.8 Z" fill="#000000" fill-rule="nonzero" fill-opacity="1"></path><path clip-path="url(#clip460)" d="M214.607 1097.88 Q210.996 1097.88 209.167 1101.45 Q207.362 1104.99 207.362 1112.12 Q207.362 1119.22 209.167 1122.79 Q210.996 1126.33 214.607 1126.33 Q218.241 1126.33 220.047 1122.79 Q221.875 1119.22 221.875 1112.12 Q221.875 1104.99 220.047 1101.45 Q218.241 1097.88 214.607 1097.88 M214.607 1094.18 Q220.417 1094.18 223.473 1098.78 Q226.551 1103.37 226.551 1112.12 Q226.551 1120.84 223.473 1125.45 Q220.417 1130.03 214.607 1130.03 Q208.797 1130.03 205.718 1125.45 Q202.662 1120.84 202.662 1112.12 Q202.662 1103.37 205.718 1098.78 Q208.797 1094.18 214.607 1094.18 Z" fill="#000000" fill-rule="nonzero" fill-opacity="1"></path><path clip-path="url(#clip460)" d="M244.769 1097.88 Q241.158 1097.88 239.329 1101.45 Q237.523 1104.99 237.523 1112.12 Q237.523 1119.22 239.329 1122.79 Q241.158 1126.33 244.769 1126.33 Q248.403 1126.33 250.209 1122.79 Q252.037 1119.22 252.037 1112.12 Q252.037 1104.99 250.209 1101.45 Q248.403 1097.88 244.769 1097.88 M244.769 1094.18 Q250.579 1094.18 253.634 1098.78 Q256.713 1103.37 256.713 1112.12 Q256.713 1120.84 253.634 1125.45 Q250.579 1130.03 244.769 1130.03 Q238.959 1130.03 235.88 1125.45 Q232.824 1120.84 232.824 1112.12 Q232.824 1103.37 235.88 1098.78 Q238.959 1094.18 244.769 1094.18 Z" fill="#000000" fill-rule="nonzero" fill-opacity="1"></path><path clip-path="url(#clip460)" d="M144.329 820.491 L162.686 820.491 L162.686 824.426 L148.612 824.426 L148.612 832.898 Q149.63 832.551 150.649 832.389 Q151.667 832.204 152.686 832.204 Q158.473 832.204 161.852 835.375 Q165.232 838.546 165.232 843.963 Q165.232 849.541 161.76 852.643 Q158.288 855.722 151.968 855.722 Q149.792 855.722 147.524 855.352 Q145.279 854.981 142.871 854.24 L142.871 849.541 Q144.954 850.676 147.177 851.231 Q149.399 851.787 151.876 851.787 Q155.88 851.787 158.218 849.68 Q160.556 847.574 160.556 843.963 Q160.556 840.352 158.218 838.245 Q155.88 836.139 151.876 836.139 Q150.001 836.139 148.126 836.555 Q146.274 836.972 144.329 837.852 L144.329 820.491 Z" fill="#000000" fill-rule="nonzero" fill-opacity="1"></path><path clip-path="url(#clip460)" d="M184.445 823.569 Q180.834 823.569 179.005 827.134 Q177.2 830.676 177.2 837.805 Q177.2 844.912 179.005 848.477 Q180.834 852.018 184.445 852.018 Q188.079 852.018 189.885 848.477 Q191.713 844.912 191.713 837.805 Q191.713 830.676 189.885 827.134 Q188.079 823.569 184.445 823.569 M184.445 819.866 Q190.255 819.866 193.311 824.472 Q196.389 829.055 196.389 837.805 Q196.389 846.532 193.311 851.139 Q190.255 855.722 184.445 855.722 Q178.635 855.722 175.556 851.139 Q172.501 846.532 172.501 837.805 Q172.501 829.055 175.556 824.472 Q178.635 819.866 184.445 819.866 Z" fill="#000000" fill-rule="nonzero" fill-opacity="1"></path><path clip-path="url(#clip460)" d="M214.607 823.569 Q210.996 823.569 209.167 827.134 Q207.362 830.676 207.362 837.805 Q207.362 844.912 209.167 848.477 Q210.996 852.018 214.607 852.018 Q218.241 852.018 220.047 848.477 Q221.875 844.912 221.875 837.805 Q221.875 830.676 220.047 827.134 Q218.241 823.569 214.607 823.569 M214.607 819.866 Q220.417 819.866 223.473 824.472 Q226.551 829.055 226.551 837.805 Q226.551 846.532 223.473 851.139 Q220.417 855.722 214.607 855.722 Q208.797 855.722 205.718 851.139 Q202.662 846.532 202.662 837.805 Q202.662 829.055 205.718 824.472 Q208.797 819.866 214.607 819.866 Z" fill="#000000" fill-rule="nonzero" fill-opacity="1"></path><path clip-path="url(#clip460)" d="M244.769 823.569 Q241.158 823.569 239.329 827.134 Q237.523 830.676 237.523 837.805 Q237.523 844.912 239.329 848.477 Q241.158 852.018 244.769 852.018 Q248.403 852.018 250.209 848.477 Q252.037 844.912 252.037 837.805 Q252.037 830.676 250.209 827.134 Q248.403 823.569 244.769 823.569 M244.769 819.866 Q250.579 819.866 253.634 824.472 Q256.713 829.055 256.713 837.805 Q256.713 846.532 253.634 851.139 Q250.579 855.722 244.769 855.722 Q238.959 855.722 235.88 851.139 Q232.824 846.532 232.824 837.805 Q232.824 829.055 235.88 824.472 Q238.959 819.866 244.769 819.866 Z" fill="#000000" fill-rule="nonzero" fill-opacity="1"></path><path clip-path="url(#clip460)" d="M143.103 546.178 L165.325 546.178 L165.325 548.169 L152.778 580.738 L147.894 580.738 L159.7 550.113 L143.103 550.113 L143.103 546.178 Z" fill="#000000" fill-rule="nonzero" fill-opacity="1"></path><path clip-path="url(#clip460)" d="M174.491 546.178 L192.848 546.178 L192.848 550.113 L178.774 550.113 L178.774 558.585 Q179.792 558.238 180.811 558.076 Q181.829 557.891 182.848 557.891 Q188.635 557.891 192.014 561.062 Q195.394 564.234 195.394 569.65 Q195.394 575.229 191.922 578.331 Q188.45 581.409 182.13 581.409 Q179.954 581.409 177.686 581.039 Q175.44 580.669 173.033 579.928 L173.033 575.229 Q175.116 576.363 177.339 576.919 Q179.561 577.474 182.038 577.474 Q186.042 577.474 188.38 575.368 Q190.718 573.261 190.718 569.65 Q190.718 566.039 188.38 563.933 Q186.042 561.826 182.038 561.826 Q180.163 561.826 178.288 562.243 Q176.436 562.66 174.491 563.539 L174.491 546.178 Z" fill="#000000" fill-rule="nonzero" fill-opacity="1"></path><path clip-path="url(#clip460)" d="M214.607 549.257 Q210.996 549.257 209.167 552.822 Q207.362 556.363 207.362 563.493 Q207.362 570.599 209.167 574.164 Q210.996 577.706 214.607 577.706 Q218.241 577.706 220.047 574.164 Q221.875 570.599 221.875 563.493 Q221.875 556.363 220.047 552.822 Q218.241 549.257 214.607 549.257 M214.607 545.553 Q220.417 545.553 223.473 550.16 Q226.551 554.743 226.551 563.493 Q226.551 572.22 223.473 576.826 Q220.417 581.409 214.607 581.409 Q208.797 581.409 205.718 576.826 Q202.662 572.22 202.662 563.493 Q202.662 554.743 205.718 550.16 Q208.797 545.553 214.607 545.553 Z" fill="#000000" fill-rule="nonzero" fill-opacity="1"></path><path clip-path="url(#clip460)" d="M244.769 549.257 Q241.158 549.257 239.329 552.822 Q237.523 556.363 237.523 563.493 Q237.523 570.599 239.329 574.164 Q241.158 577.706 244.769 577.706 Q248.403 577.706 250.209 574.164 Q252.037 570.599 252.037 563.493 Q252.037 556.363 250.209 552.822 Q248.403 549.257 244.769 549.257 M244.769 545.553 Q250.579 545.553 253.634 550.16 Q256.713 554.743 256.713 563.493 Q256.713 572.22 253.634 576.826 Q250.579 581.409 244.769 581.409 Q238.959 581.409 235.88 576.826 Q232.824 572.22 232.824 563.493 Q232.824 554.743 235.88 550.16 Q238.959 545.553 244.769 545.553 Z" fill="#000000" fill-rule="nonzero" fill-opacity="1"></path><path clip-path="url(#clip460)" d="M114.931 302.49 L122.57 302.49 L122.57 276.125 L114.26 277.791 L114.26 273.532 L122.524 271.866 L127.2 271.866 L127.2 302.49 L134.839 302.49 L134.839 306.426 L114.931 306.426 L114.931 302.49 Z" fill="#000000" fill-rule="nonzero" fill-opacity="1"></path><path clip-path="url(#clip460)" d="M154.283 274.944 Q150.672 274.944 148.843 278.509 Q147.038 282.051 147.038 289.18 Q147.038 296.287 148.843 299.852 Q150.672 303.393 154.283 303.393 Q157.917 303.393 159.723 299.852 Q161.552 296.287 161.552 289.18 Q161.552 282.051 159.723 278.509 Q157.917 274.944 154.283 274.944 M154.283 271.241 Q160.093 271.241 163.149 275.847 Q166.227 280.43 166.227 289.18 Q166.227 297.907 163.149 302.514 Q160.093 307.097 154.283 307.097 Q148.473 307.097 145.394 302.514 Q142.339 297.907 142.339 289.18 Q142.339 280.43 145.394 275.847 Q148.473 271.241 154.283 271.241 Z" fill="#000000" fill-rule="nonzero" fill-opacity="1"></path><path clip-path="url(#clip460)" d="M184.445 274.944 Q180.834 274.944 179.005 278.509 Q177.2 282.051 177.2 289.18 Q177.2 296.287 179.005 299.852 Q180.834 303.393 184.445 303.393 Q188.079 303.393 189.885 299.852 Q191.713 296.287 191.713 289.18 Q191.713 282.051 189.885 278.509 Q188.079 274.944 184.445 274.944 M184.445 271.241 Q190.255 271.241 193.311 275.847 Q196.389 280.43 196.389 289.18 Q196.389 297.907 193.311 302.514 Q190.255 307.097 184.445 307.097 Q178.635 307.097 175.556 302.514 Q172.501 297.907 172.501 289.18 Q172.501 280.43 175.556 275.847 Q178.635 271.241 184.445 271.241 Z" fill="#000000" fill-rule="nonzero" fill-opacity="1"></path><path clip-path="url(#clip460)" d="M214.607 274.944 Q210.996 274.944 209.167 278.509 Q207.362 282.051 207.362 289.18 Q207.362 296.287 209.167 299.852 Q210.996 303.393 214.607 303.393 Q218.241 303.393 220.047 299.852 Q221.875 296.287 221.875 289.18 Q221.875 282.051 220.047 278.509 Q218.241 274.944 214.607 274.944 M214.607 271.241 Q220.417 271.241 223.473 275.847 Q226.551 280.43 226.551 289.18 Q226.551 297.907 223.473 302.514 Q220.417 307.097 214.607 307.097 Q208.797 307.097 205.718 302.514 Q202.662 297.907 202.662 289.18 Q202.662 280.43 205.718 275.847 Q208.797 271.241 214.607 271.241 Z" fill="#000000" fill-rule="nonzero" fill-opacity="1"></path><path clip-path="url(#clip460)" d="M244.769 274.944 Q241.158 274.944 239.329 278.509 Q237.523 282.051 237.523 289.18 Q237.523 296.287 239.329 299.852 Q241.158 303.393 244.769 303.393 Q248.403 303.393 250.209 299.852 Q252.037 296.287 252.037 289.18 Q252.037 282.051 250.209 278.509 Q248.403 274.944 244.769 274.944 M244.769 271.241 Q250.579 271.241 253.634 275.847 Q256.713 280.43 256.713 289.18 Q256.713 297.907 253.634 302.514 Q250.579 307.097 244.769 307.097 Q238.959 307.097 235.88 302.514 Q232.824 297.907 232.824 289.18 Q232.824 280.43 235.88 275.847 Q238.959 271.241 244.769 271.241 Z" fill="#000000" fill-rule="nonzero" fill-opacity="1"></path><path clip-path="url(#clip460)" d="M45.7664 805.091 Q39.4007 805.091 35.8996 807.733 Q32.3984 810.343 32.3984 815.085 Q32.3984 819.796 35.8996 822.437 Q39.4007 825.047 45.7664 825.047 Q52.1003 825.047 55.6014 822.437 Q59.1026 819.796 59.1026 815.085 Q59.1026 810.343 55.6014 807.733 Q52.1003 805.091 45.7664 805.091 M59.58 799.234 Q68.683 799.234 73.1071 803.277 Q77.5631 807.319 77.5631 815.658 Q77.5631 818.745 77.0857 821.483 Q76.6401 824.22 75.6852 826.798 L69.9879 826.798 Q71.3884 824.22 72.0568 821.705 Q72.7252 819.191 72.7252 816.581 Q72.7252 810.82 69.7015 807.955 Q66.7096 805.091 60.6303 805.091 L57.7339 805.091 Q60.885 806.905 62.4446 809.738 Q64.0042 812.571 64.0042 816.517 Q64.0042 823.074 59.0071 827.084 Q54.01 831.095 45.7664 831.095 Q37.491 831.095 32.4939 827.084 Q27.4968 823.074 27.4968 816.517 Q27.4968 812.571 29.0564 809.738 Q30.616 806.905 33.7671 805.091 L28.3562 805.091 L28.3562 799.234 L59.58 799.234 Z" fill="#000000" fill-rule="nonzero" fill-opacity="1"></path><path clip-path="url(#clip460)" d="M46.0847 770.971 Q46.0847 778.068 47.7079 780.806 Q49.3312 783.543 53.2461 783.543 Q56.3653 783.543 58.2114 781.506 Q60.0256 779.437 60.0256 775.904 Q60.0256 771.034 56.5881 768.106 Q53.1188 765.146 47.3897 765.146 L46.0847 765.146 L46.0847 770.971 M43.6657 759.29 L64.0042 759.29 L64.0042 765.146 L58.5933 765.146 Q61.8398 767.151 63.3994 770.143 Q64.9272 773.135 64.9272 777.464 Q64.9272 782.938 61.8716 786.185 Q58.7843 789.399 53.6281 789.399 Q47.6125 789.399 44.5569 785.389 Q41.5014 781.347 41.5014 773.358 L41.5014 765.146 L40.9285 765.146 Q36.8862 765.146 34.6901 767.82 Q32.4621 770.461 32.4621 775.268 Q32.4621 778.323 33.1941 781.219 Q33.9262 784.116 35.3903 786.789 L29.9795 786.789 Q28.7381 783.575 28.1334 780.551 Q27.4968 777.527 27.4968 774.663 Q27.4968 766.928 31.5072 763.109 Q35.5176 759.29 43.6657 759.29 Z" fill="#000000" fill-rule="nonzero" fill-opacity="1"></path><path clip-path="url(#clip460)" d="M58.657 741.561 L77.5631 741.561 L77.5631 747.449 L28.3562 747.449 L28.3562 741.561 L33.7671 741.561 Q30.5842 739.715 29.0564 736.914 Q27.4968 734.081 27.4968 730.166 Q27.4968 723.673 32.6531 719.631 Q37.8093 715.557 46.212 715.557 Q54.6147 715.557 59.771 719.631 Q64.9272 723.673 64.9272 730.166 Q64.9272 734.081 63.3994 736.914 Q61.8398 739.715 58.657 741.561 M46.212 721.636 Q39.7508 721.636 36.0905 724.31 Q32.3984 726.952 32.3984 731.599 Q32.3984 736.246 36.0905 738.919 Q39.7508 741.561 46.212 741.561 Q52.6732 741.561 56.3653 738.919 Q60.0256 736.246 60.0256 731.599 Q60.0256 726.952 56.3653 724.31 Q52.6732 721.636 46.212 721.636 Z" fill="#000000" fill-rule="nonzero" fill-opacity="1"></path><path clip-path="url(#clip460)" d="M1014.36 43.6931 L1014.36 65.8515 L1027.48 65.8515 Q1034.09 65.8515 1037.25 63.1374 Q1040.45 60.3828 1040.45 54.752 Q1040.45 49.0808 1037.25 46.4072 Q1034.09 43.6931 1027.48 43.6931 L1014.36 43.6931 M1014.36 18.8205 L1014.36 37.0496 L1026.47 37.0496 Q1032.47 37.0496 1035.38 34.8216 Q1038.34 32.5531 1038.34 27.935 Q1038.34 23.3575 1035.38 21.089 Q1032.47 18.8205 1026.47 18.8205 L1014.36 18.8205 M1006.18 12.096 L1027.08 12.096 Q1036.44 12.096 1041.5 15.9849 Q1046.56 19.8737 1046.56 27.0438 Q1046.56 32.5936 1043.97 35.8748 Q1041.38 39.156 1036.36 39.9662 Q1042.39 41.2625 1045.71 45.3944 Q1049.08 49.4858 1049.08 55.6432 Q1049.08 63.745 1043.57 68.1605 Q1038.06 72.576 1027.89 72.576 L1006.18 72.576 L1006.18 12.096 Z" fill="#000000" fill-rule="nonzero" fill-opacity="1"></path><path clip-path="url(#clip460)" d="M1080.35 32.4315 Q1074.35 32.4315 1070.87 37.1306 Q1067.39 41.7891 1067.39 49.9314 Q1067.39 58.0738 1070.83 62.7728 Q1074.31 67.4314 1080.35 67.4314 Q1086.3 67.4314 1089.79 62.7323 Q1093.27 58.0333 1093.27 49.9314 Q1093.27 41.8701 1089.79 37.1711 Q1086.3 32.4315 1080.35 32.4315 M1080.35 26.1121 Q1090.07 26.1121 1095.62 32.4315 Q1101.17 38.7509 1101.17 49.9314 Q1101.17 61.0714 1095.62 67.4314 Q1090.07 73.7508 1080.35 73.7508 Q1070.59 73.7508 1065.04 67.4314 Q1059.53 61.0714 1059.53 49.9314 Q1059.53 38.7509 1065.04 32.4315 Q1070.59 26.1121 1080.35 26.1121 Z" fill="#000000" fill-rule="nonzero" fill-opacity="1"></path><path clip-path="url(#clip460)" d="M1148.69 27.2059 L1132.28 49.2833 L1149.54 72.576 L1140.75 72.576 L1127.54 54.752 L1114.34 72.576 L1105.55 72.576 L1123.17 48.8377 L1107.04 27.2059 L1115.83 27.2059 L1127.87 43.369 L1139.9 27.2059 L1148.69 27.2059 Z" fill="#000000" fill-rule="nonzero" fill-opacity="1"></path><path clip-path="url(#clip460)" d="M1167.28 65.7705 L1167.28 89.8329 L1159.79 89.8329 L1159.79 27.2059 L1167.28 27.2059 L1167.28 34.0924 Q1169.63 30.0415 1173.2 28.0971 Q1176.8 26.1121 1181.78 26.1121 Q1190.05 26.1121 1195.19 32.6746 Q1200.38 39.2371 1200.38 49.9314 Q1200.38 60.6258 1195.19 67.1883 Q1190.05 73.7508 1181.78 73.7508 Q1176.8 73.7508 1173.2 71.8063 Q1169.63 69.8214 1167.28 65.7705 M1192.64 49.9314 Q1192.64 41.7081 1189.24 37.0496 Q1185.87 32.3505 1179.96 32.3505 Q1174.05 32.3505 1170.64 37.0496 Q1167.28 41.7081 1167.28 49.9314 Q1167.28 58.1548 1170.64 62.8538 Q1174.05 67.5124 1179.96 67.5124 Q1185.87 67.5124 1189.24 62.8538 Q1192.64 58.1548 1192.64 49.9314 Z" fill="#000000" fill-rule="nonzero" fill-opacity="1"></path><path clip-path="url(#clip460)" d="M1212.73 9.54393 L1220.19 9.54393 L1220.19 72.576 L1212.73 72.576 L1212.73 9.54393 Z" fill="#000000" fill-rule="nonzero" fill-opacity="1"></path><path clip-path="url(#clip460)" d="M1253.36 32.4315 Q1247.37 32.4315 1243.88 37.1306 Q1240.4 41.7891 1240.4 49.9314 Q1240.4 58.0738 1243.84 62.7728 Q1247.33 67.4314 1253.36 67.4314 Q1259.32 67.4314 1262.8 62.7323 Q1266.29 58.0333 1266.29 49.9314 Q1266.29 41.8701 1262.8 37.1711 Q1259.32 32.4315 1253.36 32.4315 M1253.36 26.1121 Q1263.08 26.1121 1268.63 32.4315 Q1274.18 38.7509 1274.18 49.9314 Q1274.18 61.0714 1268.63 67.4314 Q1263.08 73.7508 1253.36 73.7508 Q1243.6 73.7508 1238.05 67.4314 Q1232.54 61.0714 1232.54 49.9314 Q1232.54 38.7509 1238.05 32.4315 Q1243.6 26.1121 1253.36 26.1121 Z" fill="#000000" fill-rule="nonzero" fill-opacity="1"></path><path clip-path="url(#clip460)" d="M1293.91 14.324 L1293.91 27.2059 L1309.27 27.2059 L1309.27 32.9987 L1293.91 32.9987 L1293.91 57.6282 Q1293.91 63.1779 1295.41 64.7578 Q1296.95 66.3376 1301.61 66.3376 L1309.27 66.3376 L1309.27 72.576 L1301.61 72.576 Q1292.98 72.576 1289.7 69.3758 Q1286.42 66.1351 1286.42 57.6282 L1286.42 32.9987 L1280.95 32.9987 L1280.95 27.2059 L1286.42 27.2059 L1286.42 14.324 L1293.91 14.324 Z" fill="#000000" fill-rule="nonzero" fill-opacity="1"></path><path clip-path="url(#clip460)" d="M1363.02 32.4315 Q1357.03 32.4315 1353.54 37.1306 Q1350.06 41.7891 1350.06 49.9314 Q1350.06 58.0738 1353.5 62.7728 Q1356.98 67.4314 1363.02 67.4314 Q1368.98 67.4314 1372.46 62.7323 Q1375.94 58.0333 1375.94 49.9314 Q1375.94 41.8701 1372.46 37.1711 Q1368.98 32.4315 1363.02 32.4315 M1363.02 26.1121 Q1372.74 26.1121 1378.29 32.4315 Q1383.84 38.7509 1383.84 49.9314 Q1383.84 61.0714 1378.29 67.4314 Q1372.74 73.7508 1363.02 73.7508 Q1353.26 73.7508 1347.71 67.4314 Q1342.2 61.0714 1342.2 49.9314 Q1342.2 38.7509 1347.71 32.4315 Q1353.26 26.1121 1363.02 26.1121 Z" fill="#000000" fill-rule="nonzero" fill-opacity="1"></path><path clip-path="url(#clip460)" d="M1419.17 9.54393 L1419.17 15.7418 L1412.04 15.7418 Q1408.03 15.7418 1406.45 17.3622 Q1404.91 18.9825 1404.91 23.1955 L1404.91 27.2059 L1417.18 27.2059 L1417.18 32.9987 L1404.91 32.9987 L1404.91 72.576 L1397.41 72.576 L1397.41 32.9987 L1390.28 32.9987 L1390.28 27.2059 L1397.41 27.2059 L1397.41 24.0462 Q1397.41 16.471 1400.94 13.0277 Q1404.46 9.54393 1412.12 9.54393 L1419.17 9.54393 Z" fill="#000000" fill-rule="nonzero" fill-opacity="1"></path><path clip-path="url(#clip460)" d="M1481.63 49.3643 Q1481.63 41.2625 1478.27 36.8065 Q1474.95 32.3505 1468.91 32.3505 Q1462.92 32.3505 1459.55 36.8065 Q1456.23 41.2625 1456.23 49.3643 Q1456.23 57.4256 1459.55 61.8816 Q1462.92 66.3376 1468.91 66.3376 Q1474.95 66.3376 1478.27 61.8816 Q1481.63 57.4256 1481.63 49.3643 M1489.08 66.9452 Q1489.08 78.5308 1483.94 84.1616 Q1478.8 89.8329 1468.18 89.8329 Q1464.25 89.8329 1460.77 89.2252 Q1457.29 88.6581 1454 87.4428 L1454 80.1917 Q1457.29 81.9741 1460.49 82.8248 Q1463.69 83.6755 1467.01 83.6755 Q1474.34 83.6755 1477.99 79.8271 Q1481.63 76.0193 1481.63 68.282 L1481.63 64.5957 Q1479.32 68.6061 1475.72 70.5911 Q1472.11 72.576 1467.09 72.576 Q1458.74 72.576 1453.64 66.2161 Q1448.54 59.8562 1448.54 49.3643 Q1448.54 38.832 1453.64 32.472 Q1458.74 26.1121 1467.09 26.1121 Q1472.11 26.1121 1475.72 28.0971 Q1479.32 30.082 1481.63 34.0924 L1481.63 27.2059 L1489.08 27.2059 L1489.08 66.9452 Z" fill="#000000" fill-rule="nonzero" fill-opacity="1"></path><path clip-path="url(#clip460)" d="M1525.06 49.7694 Q1516.02 49.7694 1512.54 51.8354 Q1509.06 53.9013 1509.06 58.8839 Q1509.06 62.8538 1511.65 65.2034 Q1514.28 67.5124 1518.78 67.5124 Q1524.98 67.5124 1528.7 63.1374 Q1532.47 58.7219 1532.47 51.4303 L1532.47 49.7694 L1525.06 49.7694 M1539.92 46.6907 L1539.92 72.576 L1532.47 72.576 L1532.47 65.6895 Q1529.92 69.8214 1526.11 71.8063 Q1522.3 73.7508 1516.79 73.7508 Q1509.83 73.7508 1505.69 69.8619 Q1501.6 65.9325 1501.6 59.3701 Q1501.6 51.7138 1506.71 47.825 Q1511.85 43.9361 1522.02 43.9361 L1532.47 43.9361 L1532.47 43.2069 Q1532.47 38.0623 1529.07 35.2672 Q1525.71 32.4315 1519.59 32.4315 Q1515.7 32.4315 1512.01 33.3632 Q1508.33 34.295 1504.92 36.1584 L1504.92 29.2718 Q1509.02 27.692 1512.86 26.9223 Q1516.71 26.1121 1520.36 26.1121 Q1530.2 26.1121 1535.06 31.2163 Q1539.92 36.3204 1539.92 46.6907 Z" fill="#000000" fill-rule="nonzero" fill-opacity="1"></path><path clip-path="url(#clip460)" d="M1562.49 65.7705 L1562.49 89.8329 L1554.99 89.8329 L1554.99 27.2059 L1562.49 27.2059 L1562.49 34.0924 Q1564.84 30.0415 1568.4 28.0971 Q1572.01 26.1121 1576.99 26.1121 Q1585.25 26.1121 1590.4 32.6746 Q1595.58 39.2371 1595.58 49.9314 Q1595.58 60.6258 1590.4 67.1883 Q1585.25 73.7508 1576.99 73.7508 Q1572.01 73.7508 1568.4 71.8063 Q1564.84 69.8214 1562.49 65.7705 M1587.85 49.9314 Q1587.85 41.7081 1584.44 37.0496 Q1581.08 32.3505 1575.17 32.3505 Q1569.25 32.3505 1565.85 37.0496 Q1562.49 41.7081 1562.49 49.9314 Q1562.49 58.1548 1565.85 62.8538 Q1569.25 67.5124 1575.17 67.5124 Q1581.08 67.5124 1584.44 62.8538 Q1587.85 58.1548 1587.85 49.9314 Z" fill="#000000" fill-rule="nonzero" fill-opacity="1"></path><path clip-path="url(#clip460)" d="M1636.86 28.5427 L1636.86 35.5912 Q1633.7 33.9709 1630.3 33.1607 Q1626.9 32.3505 1623.25 32.3505 Q1617.7 32.3505 1614.91 34.0519 Q1612.15 35.7533 1612.15 39.156 Q1612.15 41.7486 1614.14 43.2475 Q1616.12 44.7058 1622.12 46.0426 L1624.67 46.6097 Q1632.61 48.3111 1635.93 51.4303 Q1639.29 54.509 1639.29 60.0587 Q1639.29 66.3781 1634.27 70.0644 Q1629.29 73.7508 1620.54 73.7508 Q1616.89 73.7508 1612.92 73.0216 Q1608.99 72.3329 1604.62 70.9151 L1604.62 63.2184 Q1608.75 65.3654 1612.76 66.4591 Q1616.77 67.5124 1620.7 67.5124 Q1625.96 67.5124 1628.8 65.73 Q1631.64 63.9071 1631.64 60.6258 Q1631.64 57.5877 1629.57 55.9673 Q1627.54 54.3469 1620.62 52.8481 L1618.03 52.2405 Q1611.1 50.7821 1608.02 47.7845 Q1604.94 44.7463 1604.94 39.4801 Q1604.94 33.0797 1609.48 29.5959 Q1614.01 26.1121 1622.36 26.1121 Q1626.49 26.1121 1630.14 26.7198 Q1633.78 27.3274 1636.86 28.5427 Z" fill="#000000" fill-rule="nonzero" fill-opacity="1"></path><path clip-path="url(#clip462)" d="M628.65 1386.4 L489.833 1386.4 L767.467 1386.4 L628.65 1386.4 L628.65 1329.61 L628.65 1386.4  Z" fill="#009af9" fill-rule="evenodd" fill-opacity="1"></path>
<polyline clip-path="url(#clip462)" style="stroke:#000000; stroke-linecap:round; stroke-linejoin:round; stroke-width:4; stroke-opacity:1; fill:none" points="628.65,1386.4 489.833,1386.4 767.467,1386.4 628.65,1386.4 628.65,1329.61 628.65,1386.4 "></polyline>
<path clip-path="url(#clip462)" d="M906.284 1329.61 L906.284 1271.58 L351.016 1271.58 L351.016 1329.61 L906.284 1329.61 L906.284 1271.58 L906.284 1329.61  Z" fill="#009af9" fill-rule="evenodd" fill-opacity="1"></path>
<polyline clip-path="url(#clip462)" style="stroke:#000000; stroke-linecap:round; stroke-linejoin:round; stroke-width:4; stroke-opacity:1; fill:none" points="906.284,1329.61 906.284,1271.58 351.016,1271.58 351.016,1329.61 906.284,1329.61 906.284,1271.58 906.284,1329.61 "></polyline>
<path clip-path="url(#clip462)" d="M906.284 1150.32 L351.016 1150.32 L351.016 1271.58 L906.284 1271.58 L906.284 1150.32 L628.65 1150.32 L906.284 1150.32  Z" fill="#009af9" fill-rule="evenodd" fill-opacity="1"></path>
<polyline clip-path="url(#clip462)" style="stroke:#000000; stroke-linecap:round; stroke-linejoin:round; stroke-width:4; stroke-opacity:1; fill:none" points="906.284,1150.32 351.016,1150.32 351.016,1271.58 906.284,1271.58 906.284,1150.32 628.65,1150.32 906.284,1150.32 "></polyline>
<path clip-path="url(#clip462)" d="M628.65 966.663 L489.833 966.663 L767.467 966.663 L628.65 966.663 L628.65 1150.32 L628.65 966.663  Z" fill="#009af9" fill-rule="evenodd" fill-opacity="1"></path>
<polyline clip-path="url(#clip462)" style="stroke:#000000; stroke-linecap:round; stroke-linejoin:round; stroke-width:4; stroke-opacity:1; fill:none" points="628.65,966.663 489.833,966.663 767.467,966.663 628.65,966.663 628.65,1150.32 628.65,966.663 "></polyline>
<circle clip-path="url(#clip462)" cx="628.65" cy="778.57" r="14.4" fill="#009af9" fill-rule="evenodd" fill-opacity="1" stroke="#000000" stroke-opacity="1" stroke-width="3.2"></circle>
<circle clip-path="url(#clip462)" cx="628.65" cy="838.206" r="14.4" fill="#009af9" fill-rule="evenodd" fill-opacity="1" stroke="#000000" stroke-opacity="1" stroke-width="3.2"></circle>
<circle clip-path="url(#clip462)" cx="628.65" cy="460.487" r="14.4" fill="#009af9" fill-rule="evenodd" fill-opacity="1" stroke="#000000" stroke-opacity="1" stroke-width="3.2"></circle>
<circle clip-path="url(#clip462)" cx="628.65" cy="802.408" r="14.4" fill="#009af9" fill-rule="evenodd" fill-opacity="1" stroke="#000000" stroke-opacity="1" stroke-width="3.2"></circle>
<circle clip-path="url(#clip462)" cx="628.65" cy="580.822" r="14.4" fill="#009af9" fill-rule="evenodd" fill-opacity="1" stroke="#000000" stroke-opacity="1" stroke-width="3.2"></circle>
<circle clip-path="url(#clip462)" cx="628.65" cy="874.321" r="14.4" fill="#009af9" fill-rule="evenodd" fill-opacity="1" stroke="#000000" stroke-opacity="1" stroke-width="3.2"></circle>
<polyline clip-path="url(#clip462)" style="stroke:#009af9; stroke-linecap:round; stroke-linejoin:round; stroke-width:0; stroke-opacity:1; fill:none" points="628.65,1386.4 489.833,1386.4 767.467,1386.4 628.65,1386.4 628.65,1329.61 "></polyline>
<polyline clip-path="url(#clip462)" style="stroke:#009af9; stroke-linecap:round; stroke-linejoin:round; stroke-width:0; stroke-opacity:1; fill:none" points="906.284,1329.61 906.284,1271.58 351.016,1271.58 351.016,1329.61 906.284,1329.61 906.284,1271.58 "></polyline>
<polyline clip-path="url(#clip462)" style="stroke:#009af9; stroke-linecap:round; stroke-linejoin:round; stroke-width:0; stroke-opacity:1; fill:none" points="906.284,1150.32 351.016,1150.32 351.016,1271.58 906.284,1271.58 906.284,1150.32 628.65,1150.32 "></polyline>
<polyline clip-path="url(#clip462)" style="stroke:#009af9; stroke-linecap:round; stroke-linejoin:round; stroke-width:0; stroke-opacity:1; fill:none" points="628.65,966.663 489.833,966.663 767.467,966.663 628.65,966.663 628.65,1150.32 "></polyline>
<path clip-path="url(#clip462)" d="M1322.73 1128.63 L1183.92 1128.63 L1461.55 1128.63 L1322.73 1128.63 L1322.73 898.975 L1322.73 1128.63  Z" fill="#e26f46" fill-rule="evenodd" fill-opacity="1"></path>
<polyline clip-path="url(#clip462)" style="stroke:#000000; stroke-linecap:round; stroke-linejoin:round; stroke-width:4; stroke-opacity:1; fill:none" points="1322.73,1128.63 1183.92,1128.63 1461.55,1128.63 1322.73,1128.63 1322.73,898.975 1322.73,1128.63 "></polyline>
<path clip-path="url(#clip462)" d="M1600.37 898.975 L1600.37 766.685 L1045.1 766.685 L1045.1 898.975 L1600.37 898.975 L1600.37 766.685 L1600.37 898.975  Z" fill="#e26f46" fill-rule="evenodd" fill-opacity="1"></path>
<polyline clip-path="url(#clip462)" style="stroke:#000000; stroke-linecap:round; stroke-linejoin:round; stroke-width:4; stroke-opacity:1; fill:none" points="1600.37,898.975 1600.37,766.685 1045.1,766.685 1045.1,898.975 1600.37,898.975 1600.37,766.685 1600.37,898.975 "></polyline>
<path clip-path="url(#clip462)" d="M1600.37 588.523 L1045.1 588.523 L1045.1 766.685 L1600.37 766.685 L1600.37 588.523 L1322.73 588.523 L1600.37 588.523  Z" fill="#e26f46" fill-rule="evenodd" fill-opacity="1"></path>
<polyline clip-path="url(#clip462)" style="stroke:#000000; stroke-linecap:round; stroke-linejoin:round; stroke-width:4; stroke-opacity:1; fill:none" points="1600.37,588.523 1045.1,588.523 1045.1,766.685 1600.37,766.685 1600.37,588.523 1322.73,588.523 1600.37,588.523 "></polyline>
<path clip-path="url(#clip462)" d="M1322.73 160.256 L1183.92 160.256 L1461.55 160.256 L1322.73 160.256 L1322.73 588.523 L1322.73 160.256  Z" fill="#e26f46" fill-rule="evenodd" fill-opacity="1"></path>
<polyline clip-path="url(#clip462)" style="stroke:#000000; stroke-linecap:round; stroke-linejoin:round; stroke-width:4; stroke-opacity:1; fill:none" points="1322.73,160.256 1183.92,160.256 1461.55,160.256 1322.73,160.256 1322.73,588.523 1322.73,160.256 "></polyline>
<polyline clip-path="url(#clip462)" style="stroke:#e26f46; stroke-linecap:round; stroke-linejoin:round; stroke-width:0; stroke-opacity:1; fill:none" points="1322.73,1128.63 1183.92,1128.63 1461.55,1128.63 1322.73,1128.63 1322.73,898.975 "></polyline>
<polyline clip-path="url(#clip462)" style="stroke:#e26f46; stroke-linecap:round; stroke-linejoin:round; stroke-width:0; stroke-opacity:1; fill:none" points="1600.37,898.975 1600.37,766.685 1045.1,766.685 1045.1,898.975 1600.37,898.975 1600.37,766.685 "></polyline>
<polyline clip-path="url(#clip462)" style="stroke:#e26f46; stroke-linecap:round; stroke-linejoin:round; stroke-width:0; stroke-opacity:1; fill:none" points="1600.37,588.523 1045.1,588.523 1045.1,766.685 1600.37,766.685 1600.37,588.523 1322.73,588.523 "></polyline>
<polyline clip-path="url(#clip462)" style="stroke:#e26f46; stroke-linecap:round; stroke-linejoin:round; stroke-width:0; stroke-opacity:1; fill:none" points="1322.73,160.256 1183.92,160.256 1461.55,160.256 1322.73,160.256 1322.73,588.523 "></polyline>
<path clip-path="url(#clip462)" d="M2016.82 1373.51 L1878 1373.51 L2155.64 1373.51 L2016.82 1373.51 L2016.82 1321.44 L2016.82 1373.51  Z" fill="#3da44d" fill-rule="evenodd" fill-opacity="1"></path>
<polyline clip-path="url(#clip462)" style="stroke:#000000; stroke-linecap:round; stroke-linejoin:round; stroke-width:4; stroke-opacity:1; fill:none" points="2016.82,1373.51 1878,1373.51 2155.64,1373.51 2016.82,1373.51 2016.82,1321.44 2016.82,1373.51 "></polyline>
<path clip-path="url(#clip462)" d="M2294.45 1321.44 L2294.45 1270.49 L1739.19 1270.49 L1739.19 1321.44 L2294.45 1321.44 L2294.45 1270.49 L2294.45 1321.44  Z" fill="#3da44d" fill-rule="evenodd" fill-opacity="1"></path>
<polyline clip-path="url(#clip462)" style="stroke:#000000; stroke-linecap:round; stroke-linejoin:round; stroke-width:4; stroke-opacity:1; fill:none" points="2294.45,1321.44 2294.45,1270.49 1739.19,1270.49 1739.19,1321.44 2294.45,1321.44 2294.45,1270.49 2294.45,1321.44 "></polyline>
<path clip-path="url(#clip462)" d="M2294.45 1168.32 L1739.19 1168.32 L1739.19 1270.49 L2294.45 1270.49 L2294.45 1168.32 L2016.82 1168.32 L2294.45 1168.32  Z" fill="#3da44d" fill-rule="evenodd" fill-opacity="1"></path>
<polyline clip-path="url(#clip462)" style="stroke:#000000; stroke-linecap:round; stroke-linejoin:round; stroke-width:4; stroke-opacity:1; fill:none" points="2294.45,1168.32 1739.19,1168.32 1739.19,1270.49 2294.45,1270.49 2294.45,1168.32 2016.82,1168.32 2294.45,1168.32 "></polyline>
<path clip-path="url(#clip462)" d="M2016.82 944.387 L1878 944.387 L2155.64 944.387 L2016.82 944.387 L2016.82 1168.32 L2016.82 944.387  Z" fill="#3da44d" fill-rule="evenodd" fill-opacity="1"></path>
<polyline clip-path="url(#clip462)" style="stroke:#000000; stroke-linecap:round; stroke-linejoin:round; stroke-width:4; stroke-opacity:1; fill:none" points="2016.82,944.387 1878,944.387 2155.64,944.387 2016.82,944.387 2016.82,1168.32 2016.82,944.387 "></polyline>
<circle clip-path="url(#clip462)" cx="2016.82" cy="867.369" r="14.4" fill="#3da44d" fill-rule="evenodd" fill-opacity="1" stroke="#000000" stroke-opacity="1" stroke-width="3.2"></circle>
<circle clip-path="url(#clip462)" cx="2016.82" cy="923.577" r="14.4" fill="#3da44d" fill-rule="evenodd" fill-opacity="1" stroke="#000000" stroke-opacity="1" stroke-width="3.2"></circle>
<circle clip-path="url(#clip462)" cx="2016.82" cy="937.928" r="14.4" fill="#3da44d" fill-rule="evenodd" fill-opacity="1" stroke="#000000" stroke-opacity="1" stroke-width="3.2"></circle>
<circle clip-path="url(#clip462)" cx="2016.82" cy="770.456" r="14.4" fill="#3da44d" fill-rule="evenodd" fill-opacity="1" stroke="#000000" stroke-opacity="1" stroke-width="3.2"></circle>
<polyline clip-path="url(#clip462)" style="stroke:#3da44d; stroke-linecap:round; stroke-linejoin:round; stroke-width:0; stroke-opacity:1; fill:none" points="2016.82,1373.51 1878,1373.51 2155.64,1373.51 2016.82,1373.51 2016.82,1321.44 "></polyline>
<polyline clip-path="url(#clip462)" style="stroke:#3da44d; stroke-linecap:round; stroke-linejoin:round; stroke-width:0; stroke-opacity:1; fill:none" points="2294.45,1321.44 2294.45,1270.49 1739.19,1270.49 1739.19,1321.44 2294.45,1321.44 2294.45,1270.49 "></polyline>
<polyline clip-path="url(#clip462)" style="stroke:#3da44d; stroke-linecap:round; stroke-linejoin:round; stroke-width:0; stroke-opacity:1; fill:none" points="2294.45,1168.32 1739.19,1168.32 1739.19,1270.49 2294.45,1270.49 2294.45,1168.32 2016.82,1168.32 "></polyline>
<polyline clip-path="url(#clip462)" style="stroke:#3da44d; stroke-linecap:round; stroke-linejoin:round; stroke-width:0; stroke-opacity:1; fill:none" points="2016.82,944.387 1878,944.387 2155.64,944.387 2016.82,944.387 2016.82,1168.32 "></polyline>
<path clip-path="url(#clip460)" d="M1879.45 374.156 L2284.09 374.156 L2284.09 166.796 L1879.45 166.796  Z" fill="#ffffff" fill-rule="evenodd" fill-opacity="1"></path>
<polyline clip-path="url(#clip460)" style="stroke:#000000; stroke-linecap:round; stroke-linejoin:round; stroke-width:4; stroke-opacity:1; fill:none" points="1879.45,374.156 2284.09,374.156 2284.09,166.796 1879.45,166.796 1879.45,374.156 "></polyline>
<path clip-path="url(#clip460)" d="M1902.34 239.372 L2039.68 239.372 L2039.68 197.9 L1902.34 197.9 L1902.34 239.372  Z" fill="#009af9" fill-rule="evenodd" fill-opacity="1"></path>
<polyline clip-path="url(#clip460)" style="stroke:#000000; stroke-linecap:round; stroke-linejoin:round; stroke-width:4; stroke-opacity:1; fill:none" points="1902.34,239.372 2039.68,239.372 2039.68,197.9 1902.34,197.9 1902.34,239.372 "></polyline>
<path clip-path="url(#clip460)" d="M2062.57 201.356 L2084.42 201.356 L2084.42 205.291 L2067.24 205.291 L2067.24 215.522 L2083.7 215.522 L2083.7 219.457 L2067.24 219.457 L2067.24 231.981 L2084.83 231.981 L2084.83 235.916 L2062.57 235.916 L2062.57 201.356 Z" fill="#000000" fill-rule="nonzero" fill-opacity="1"></path><path clip-path="url(#clip460)" d="M2113.88 209.99 L2104.51 222.606 L2114.37 235.916 L2109.35 235.916 L2101.8 225.731 L2094.25 235.916 L2089.23 235.916 L2099.3 222.351 L2090.09 209.99 L2095.11 209.99 L2101.99 219.226 L2108.86 209.99 L2113.88 209.99 Z" fill="#000000" fill-rule="nonzero" fill-opacity="1"></path><path clip-path="url(#clip460)" d="M2124.51 232.027 L2124.51 245.777 L2120.23 245.777 L2120.23 209.99 L2124.51 209.99 L2124.51 213.925 Q2125.85 211.61 2127.89 210.499 Q2129.95 209.365 2132.8 209.365 Q2137.52 209.365 2140.46 213.115 Q2143.42 216.865 2143.42 222.976 Q2143.42 229.087 2140.46 232.837 Q2137.52 236.587 2132.8 236.587 Q2129.95 236.587 2127.89 235.476 Q2125.85 234.342 2124.51 232.027 M2139 222.976 Q2139 218.277 2137.06 215.615 Q2135.13 212.93 2131.75 212.93 Q2128.38 212.93 2126.43 215.615 Q2124.51 218.277 2124.51 222.976 Q2124.51 227.675 2126.43 230.36 Q2128.38 233.022 2131.75 233.022 Q2135.13 233.022 2137.06 230.36 Q2139 227.675 2139 222.976 Z" fill="#000000" fill-rule="nonzero" fill-opacity="1"></path><path clip-path="url(#clip460)" d="M2151.08 230.036 L2155.97 230.036 L2155.97 235.916 L2151.08 235.916 L2151.08 230.036 Z" fill="#000000" fill-rule="nonzero" fill-opacity="1"></path><path clip-path="url(#clip460)" d="M2201.52 202.49 L2201.52 207.05 Q2198.86 205.777 2196.5 205.152 Q2194.14 204.527 2191.94 204.527 Q2188.12 204.527 2186.04 206.008 Q2183.98 207.49 2183.98 210.221 Q2183.98 212.513 2185.34 213.694 Q2186.73 214.851 2190.57 215.569 L2193.4 216.147 Q2198.63 217.143 2201.11 219.666 Q2203.61 222.166 2203.61 226.379 Q2203.61 231.402 2200.23 233.994 Q2196.87 236.587 2190.37 236.587 Q2187.91 236.587 2185.13 236.031 Q2182.38 235.476 2179.42 234.388 L2179.42 229.573 Q2182.26 231.17 2185 231.981 Q2187.73 232.791 2190.37 232.791 Q2194.37 232.791 2196.55 231.217 Q2198.72 229.643 2198.72 226.726 Q2198.72 224.18 2197.15 222.744 Q2195.6 221.309 2192.03 220.592 L2189.18 220.036 Q2183.95 218.995 2181.62 216.772 Q2179.28 214.55 2179.28 210.592 Q2179.28 206.008 2182.5 203.37 Q2185.74 200.731 2191.41 200.731 Q2193.84 200.731 2196.36 201.171 Q2198.88 201.61 2201.52 202.49 Z" fill="#000000" fill-rule="nonzero" fill-opacity="1"></path><path clip-path="url(#clip460)" d="M2232.89 221.888 L2232.89 223.971 L2213.31 223.971 Q2213.58 228.369 2215.94 230.684 Q2218.33 232.976 2222.56 232.976 Q2225.02 232.976 2227.31 232.374 Q2229.62 231.772 2231.89 230.569 L2231.89 234.596 Q2229.6 235.568 2227.19 236.078 Q2224.79 236.587 2222.31 236.587 Q2216.11 236.587 2212.47 232.976 Q2208.86 229.365 2208.86 223.207 Q2208.86 216.842 2212.29 213.115 Q2215.74 209.365 2221.57 209.365 Q2226.8 209.365 2229.83 212.745 Q2232.89 216.101 2232.89 221.888 M2228.63 220.638 Q2228.58 217.143 2226.66 215.059 Q2224.76 212.976 2221.62 212.976 Q2218.05 212.976 2215.9 214.99 Q2213.77 217.004 2213.44 220.661 L2228.63 220.638 Z" fill="#000000" fill-rule="nonzero" fill-opacity="1"></path><path clip-path="url(#clip460)" d="M2242.43 222.976 Q2242.43 227.675 2244.35 230.36 Q2246.29 233.022 2249.67 233.022 Q2253.05 233.022 2254.99 230.36 Q2256.94 227.675 2256.94 222.976 Q2256.94 218.277 2254.99 215.615 Q2253.05 212.93 2249.67 212.93 Q2246.29 212.93 2244.35 215.615 Q2242.43 218.277 2242.43 222.976 M2256.94 232.027 Q2255.6 234.342 2253.54 235.476 Q2251.5 236.587 2248.63 236.587 Q2243.93 236.587 2240.97 232.837 Q2238.03 229.087 2238.03 222.976 Q2238.03 216.865 2240.97 213.115 Q2243.93 209.365 2248.63 209.365 Q2251.5 209.365 2253.54 210.499 Q2255.6 211.61 2256.94 213.925 L2256.94 209.99 L2261.2 209.99 L2261.2 245.777 L2256.94 245.777 L2256.94 232.027 Z" fill="#000000" fill-rule="nonzero" fill-opacity="1"></path><path clip-path="url(#clip460)" d="M1902.34 291.212 L2039.68 291.212 L2039.68 249.74 L1902.34 249.74 L1902.34 291.212  Z" fill="#e26f46" fill-rule="evenodd" fill-opacity="1"></path>
<polyline clip-path="url(#clip460)" style="stroke:#000000; stroke-linecap:round; stroke-linejoin:round; stroke-width:4; stroke-opacity:1; fill:none" points="1902.34,291.212 2039.68,291.212 2039.68,249.74 1902.34,249.74 1902.34,291.212 "></polyline>
<path clip-path="url(#clip460)" d="M2062.57 253.196 L2084.42 253.196 L2084.42 257.131 L2067.24 257.131 L2067.24 267.362 L2083.7 267.362 L2083.7 271.297 L2067.24 271.297 L2067.24 283.821 L2084.83 283.821 L2084.83 287.756 L2062.57 287.756 L2062.57 253.196 Z" fill="#000000" fill-rule="nonzero" fill-opacity="1"></path><path clip-path="url(#clip460)" d="M2097.19 257.038 L2097.19 283.913 L2102.84 283.913 Q2110 283.913 2113.31 280.672 Q2116.64 277.432 2116.64 270.441 Q2116.64 263.497 2113.31 260.279 Q2110 257.038 2102.84 257.038 L2097.19 257.038 M2092.52 253.196 L2102.13 253.196 Q2112.17 253.196 2116.87 257.386 Q2121.57 261.552 2121.57 270.441 Q2121.57 279.376 2116.85 283.566 Q2112.13 287.756 2102.13 287.756 L2092.52 287.756 L2092.52 253.196 Z" fill="#000000" fill-rule="nonzero" fill-opacity="1"></path><path clip-path="url(#clip460)" d="M2133.7 257.038 L2133.7 283.913 L2139.35 283.913 Q2146.5 283.913 2149.81 280.672 Q2153.14 277.432 2153.14 270.441 Q2153.14 263.497 2149.81 260.279 Q2146.5 257.038 2139.35 257.038 L2133.7 257.038 M2129.02 253.196 L2138.63 253.196 Q2148.68 253.196 2153.37 257.386 Q2158.07 261.552 2158.07 270.441 Q2158.07 279.376 2153.35 283.566 Q2148.63 287.756 2138.63 287.756 L2129.02 287.756 L2129.02 253.196 Z" fill="#000000" fill-rule="nonzero" fill-opacity="1"></path><path clip-path="url(#clip460)" d="M1902.34 343.052 L2039.68 343.052 L2039.68 301.58 L1902.34 301.58 L1902.34 343.052  Z" fill="#3da44d" fill-rule="evenodd" fill-opacity="1"></path>
<polyline clip-path="url(#clip460)" style="stroke:#000000; stroke-linecap:round; stroke-linejoin:round; stroke-width:4; stroke-opacity:1; fill:none" points="1902.34,343.052 2039.68,343.052 2039.68,301.58 1902.34,301.58 1902.34,343.052 "></polyline>
<path clip-path="url(#clip460)" d="M2088.12 334.665 L2088.12 325.383 L2080.48 325.383 L2080.48 321.54 L2092.75 321.54 L2092.75 336.378 Q2090.04 338.299 2086.78 339.295 Q2083.51 340.267 2079.81 340.267 Q2071.71 340.267 2067.13 335.545 Q2062.57 330.799 2062.57 322.35 Q2062.57 313.878 2067.13 309.156 Q2071.71 304.411 2079.81 304.411 Q2083.19 304.411 2086.22 305.244 Q2089.28 306.077 2091.85 307.698 L2091.85 312.675 Q2089.25 310.476 2086.34 309.364 Q2083.42 308.253 2080.2 308.253 Q2073.86 308.253 2070.67 311.795 Q2067.5 315.337 2067.5 322.35 Q2067.5 329.341 2070.67 332.883 Q2073.86 336.424 2080.2 336.424 Q2082.68 336.424 2084.63 336.008 Q2086.57 335.568 2088.12 334.665 Z" fill="#000000" fill-rule="nonzero" fill-opacity="1"></path><path clip-path="url(#clip460)" d="M2105.97 308.878 L2105.97 321.864 L2111.85 321.864 Q2115.11 321.864 2116.89 320.175 Q2118.68 318.485 2118.68 315.36 Q2118.68 312.258 2116.89 310.568 Q2115.11 308.878 2111.85 308.878 L2105.97 308.878 M2101.29 305.036 L2111.85 305.036 Q2117.66 305.036 2120.62 307.675 Q2123.61 310.29 2123.61 315.36 Q2123.61 320.475 2120.62 323.091 Q2117.66 325.707 2111.85 325.707 L2105.97 325.707 L2105.97 339.596 L2101.29 339.596 L2101.29 305.036 Z" fill="#000000" fill-rule="nonzero" fill-opacity="1"></path></svg>