<?xml version="1.0" encoding="UTF-8" standalone="no"?>
<svg
   width="600"
   height="400"
   viewBox="0 0 2400 1600"
   version="1.1"
   id="svg131"
   sodipodi:docname="usecase2_DD_AIA_GP.svg"
   inkscape:version="1.3 (0e150ed6c4, 2023-07-21)"
   xmlns:inkscape="http://www.inkscape.org/namespaces/inkscape"
   xmlns:sodipodi="http://sodipodi.sourceforge.net/DTD/sodipodi-0.dtd"
   xmlns="http://www.w3.org/2000/svg"
   xmlns:svg="http://www.w3.org/2000/svg">
  <sodipodi:namedview
     id="namedview131"
     pagecolor="#ffffff"
     bordercolor="#000000"
     borderopacity="0.25"
     inkscape:showpageshadow="2"
     inkscape:pageopacity="0.0"
     inkscape:pagecheckerboard="0"
     inkscape:deskcolor="#d1d1d1"
     inkscape:zoom="2"
     inkscape:cx="449.75"
     inkscape:cy="58.75"
     inkscape:window-width="1920"
     inkscape:window-height="1017"
     inkscape:window-x="1912"
     inkscape:window-y="-8"
     inkscape:window-maximized="1"
     inkscape:current-layer="svg131" />
  <defs
     id="defs1">
    <clipPath
       id="clip730">
      <rect
         x="0"
         y="0"
         width="2400"
         height="1600"
         id="rect1" />
    </clipPath>
  </defs>
  <path
     clip-path="url(#clip730)"
     d="M0 1600 L2400 1600 L2400 0 L0 0  Z"
     fill="#ffffff"
     fill-rule="evenodd"
     fill-opacity="1"
     id="path1" />
  <defs
     id="defs2">
    <clipPath
       id="clip731">
      <rect
         x="480"
         y="0"
         width="1681"
         height="1600"
         id="rect2" />
    </clipPath>
  </defs>
  <path
     clip-path="url(#clip730)"
     d="M265.445 1423.18 L2352.76 1423.18 L2352.76 123.472 L265.445 123.472  Z"
     fill="#ffffff"
     fill-rule="evenodd"
     fill-opacity="1"
     id="path2" />
  <defs
     id="defs3">
    <clipPath
       id="clip732">
      <rect
         x="265"
         y="123"
         width="2088"
         height="1301"
         id="rect3" />
    </clipPath>
  </defs>
  <polyline
     clip-path="url(#clip732)"
     style="stroke:#000000; stroke-linecap:round; stroke-linejoin:round; stroke-width:2; stroke-opacity:0.1; fill:none"
     points="488.616,1423.18 488.616,123.472 "
     id="polyline3" />
  <polyline
     clip-path="url(#clip732)"
     style="stroke:#000000; stroke-linecap:round; stroke-linejoin:round; stroke-width:2; stroke-opacity:0.1; fill:none"
     points="762.111,1423.18 762.111,123.472 "
     id="polyline4" />
  <polyline
     clip-path="url(#clip732)"
     style="stroke:#000000; stroke-linecap:round; stroke-linejoin:round; stroke-width:2; stroke-opacity:0.1; fill:none"
     points="1035.61,1423.18 1035.61,123.472 "
     id="polyline5" />
  <polyline
     clip-path="url(#clip732)"
     style="stroke:#000000; stroke-linecap:round; stroke-linejoin:round; stroke-width:2; stroke-opacity:0.1; fill:none"
     points="1309.1,1423.18 1309.1,123.472 "
     id="polyline6" />
  <polyline
     clip-path="url(#clip732)"
     style="stroke:#000000; stroke-linecap:round; stroke-linejoin:round; stroke-width:2; stroke-opacity:0.1; fill:none"
     points="1582.59,1423.18 1582.59,123.472 "
     id="polyline7" />
  <polyline
     clip-path="url(#clip732)"
     style="stroke:#000000; stroke-linecap:round; stroke-linejoin:round; stroke-width:2; stroke-opacity:0.1; fill:none"
     points="1856.09,1423.18 1856.09,123.472 "
     id="polyline8" />
  <polyline
     clip-path="url(#clip732)"
     style="stroke:#000000; stroke-linecap:round; stroke-linejoin:round; stroke-width:2; stroke-opacity:0.1; fill:none"
     points="2129.58,1423.18 2129.58,123.472 "
     id="polyline9" />
  <polyline
     clip-path="url(#clip730)"
     style="stroke:#000000; stroke-linecap:round; stroke-linejoin:round; stroke-width:4; stroke-opacity:1; fill:none"
     points="265.445,1423.18 2352.76,1423.18 "
     id="polyline10" />
  <polyline
     clip-path="url(#clip730)"
     style="stroke:#000000; stroke-linecap:round; stroke-linejoin:round; stroke-width:4; stroke-opacity:1; fill:none"
     points="488.616,1423.18 488.616,1404.28 "
     id="polyline11" />
  <polyline
     clip-path="url(#clip730)"
     style="stroke:#000000; stroke-linecap:round; stroke-linejoin:round; stroke-width:4; stroke-opacity:1; fill:none"
     points="762.111,1423.18 762.111,1404.28 "
     id="polyline12" />
  <polyline
     clip-path="url(#clip730)"
     style="stroke:#000000; stroke-linecap:round; stroke-linejoin:round; stroke-width:4; stroke-opacity:1; fill:none"
     points="1035.61,1423.18 1035.61,1404.28 "
     id="polyline13" />
  <polyline
     clip-path="url(#clip730)"
     style="stroke:#000000; stroke-linecap:round; stroke-linejoin:round; stroke-width:4; stroke-opacity:1; fill:none"
     points="1309.1,1423.18 1309.1,1404.28 "
     id="polyline14" />
  <polyline
     clip-path="url(#clip730)"
     style="stroke:#000000; stroke-linecap:round; stroke-linejoin:round; stroke-width:4; stroke-opacity:1; fill:none"
     points="1582.59,1423.18 1582.59,1404.28 "
     id="polyline15" />
  <polyline
     clip-path="url(#clip730)"
     style="stroke:#000000; stroke-linecap:round; stroke-linejoin:round; stroke-width:4; stroke-opacity:1; fill:none"
     points="1856.09,1423.18 1856.09,1404.28 "
     id="polyline16" />
  <polyline
     clip-path="url(#clip730)"
     style="stroke:#000000; stroke-linecap:round; stroke-linejoin:round; stroke-width:4; stroke-opacity:1; fill:none"
     points="2129.58,1423.18 2129.58,1404.28 "
     id="polyline17" />
  <path
     clip-path="url(#clip730)"
     d="M451.417 1454.1 Q447.806 1454.1 445.978 1457.66 Q444.172 1461.2 444.172 1468.33 Q444.172 1475.44 445.978 1479.01 Q447.806 1482.55 451.417 1482.55 Q455.052 1482.55 456.857 1479.01 Q458.686 1475.44 458.686 1468.33 Q458.686 1461.2 456.857 1457.66 Q455.052 1454.1 451.417 1454.1 M451.417 1450.39 Q457.228 1450.39 460.283 1455 Q463.362 1459.58 463.362 1468.33 Q463.362 1477.06 460.283 1481.67 Q457.228 1486.25 451.417 1486.25 Q445.607 1486.25 442.529 1481.67 Q439.473 1477.06 439.473 1468.33 Q439.473 1459.58 442.529 1455 Q445.607 1450.39 451.417 1450.39 Z"
     fill="#000000"
     fill-rule="nonzero"
     fill-opacity="1"
     id="path17" />
  <path
     clip-path="url(#clip730)"
     d="M471.579 1479.7 L476.464 1479.7 L476.464 1485.58 L471.579 1485.58 L471.579 1479.7 Z"
     fill="#000000"
     fill-rule="nonzero"
     fill-opacity="1"
     id="path18" />
  <path
     clip-path="url(#clip730)"
     d="M485.468 1451.02 L507.69 1451.02 L507.69 1453.01 L495.144 1485.58 L490.26 1485.58 L502.065 1454.96 L485.468 1454.96 L485.468 1451.02 Z"
     fill="#000000"
     fill-rule="nonzero"
     fill-opacity="1"
     id="path19" />
  <path
     clip-path="url(#clip730)"
     d="M516.857 1451.02 L535.213 1451.02 L535.213 1454.96 L521.139 1454.96 L521.139 1463.43 Q522.158 1463.08 523.176 1462.92 Q524.195 1462.73 525.213 1462.73 Q531 1462.73 534.38 1465.9 Q537.76 1469.08 537.76 1474.49 Q537.76 1480.07 534.287 1483.17 Q530.815 1486.25 524.496 1486.25 Q522.32 1486.25 520.051 1485.88 Q517.806 1485.51 515.399 1484.77 L515.399 1480.07 Q517.482 1481.2 519.704 1481.76 Q521.926 1482.32 524.403 1482.32 Q528.408 1482.32 530.746 1480.21 Q533.084 1478.1 533.084 1474.49 Q533.084 1470.88 530.746 1468.77 Q528.408 1466.67 524.403 1466.67 Q522.528 1466.67 520.653 1467.08 Q518.801 1467.5 516.857 1468.38 L516.857 1451.02 Z"
     fill="#000000"
     fill-rule="nonzero"
     fill-opacity="1"
     id="path20" />
  <path
     clip-path="url(#clip730)"
     d="M714.183 1481.64 L721.822 1481.64 L721.822 1455.28 L713.512 1456.95 L713.512 1452.69 L721.776 1451.02 L726.451 1451.02 L726.451 1481.64 L734.09 1481.64 L734.09 1485.58 L714.183 1485.58 L714.183 1481.64 Z"
     fill="#000000"
     fill-rule="nonzero"
     fill-opacity="1"
     id="path21" />
  <path
     clip-path="url(#clip730)"
     d="M743.535 1479.7 L748.419 1479.7 L748.419 1485.58 L743.535 1485.58 L743.535 1479.7 Z"
     fill="#000000"
     fill-rule="nonzero"
     fill-opacity="1"
     id="path22" />
  <path
     clip-path="url(#clip730)"
     d="M768.604 1454.1 Q764.993 1454.1 763.164 1457.66 Q761.359 1461.2 761.359 1468.33 Q761.359 1475.44 763.164 1479.01 Q764.993 1482.55 768.604 1482.55 Q772.238 1482.55 774.044 1479.01 Q775.873 1475.44 775.873 1468.33 Q775.873 1461.2 774.044 1457.66 Q772.238 1454.1 768.604 1454.1 M768.604 1450.39 Q774.414 1450.39 777.47 1455 Q780.548 1459.58 780.548 1468.33 Q780.548 1477.06 777.47 1481.67 Q774.414 1486.25 768.604 1486.25 Q762.794 1486.25 759.715 1481.67 Q756.66 1477.06 756.66 1468.33 Q756.66 1459.58 759.715 1455 Q762.794 1450.39 768.604 1450.39 Z"
     fill="#000000"
     fill-rule="nonzero"
     fill-opacity="1"
     id="path23" />
  <path
     clip-path="url(#clip730)"
     d="M798.766 1454.1 Q795.155 1454.1 793.326 1457.66 Q791.521 1461.2 791.521 1468.33 Q791.521 1475.44 793.326 1479.01 Q795.155 1482.55 798.766 1482.55 Q802.4 1482.55 804.206 1479.01 Q806.034 1475.44 806.034 1468.33 Q806.034 1461.2 804.206 1457.66 Q802.4 1454.1 798.766 1454.1 M798.766 1450.39 Q804.576 1450.39 807.632 1455 Q810.71 1459.58 810.71 1468.33 Q810.71 1477.06 807.632 1481.67 Q804.576 1486.25 798.766 1486.25 Q792.956 1486.25 789.877 1481.67 Q786.822 1477.06 786.822 1468.33 Q786.822 1459.58 789.877 1455 Q792.956 1450.39 798.766 1450.39 Z"
     fill="#000000"
     fill-rule="nonzero"
     fill-opacity="1"
     id="path24" />
  <path
     clip-path="url(#clip730)"
     d="M988.175 1481.64 L995.814 1481.64 L995.814 1455.28 L987.504 1456.95 L987.504 1452.69 L995.768 1451.02 L1000.44 1451.02 L1000.44 1481.64 L1008.08 1481.64 L1008.08 1485.58 L988.175 1485.58 L988.175 1481.64 Z"
     fill="#000000"
     fill-rule="nonzero"
     fill-opacity="1"
     id="path25" />
  <path
     clip-path="url(#clip730)"
     d="M1017.53 1479.7 L1022.41 1479.7 L1022.41 1485.58 L1017.53 1485.58 L1017.53 1479.7 Z"
     fill="#000000"
     fill-rule="nonzero"
     fill-opacity="1"
     id="path26" />
  <path
     clip-path="url(#clip730)"
     d="M1036.62 1481.64 L1052.94 1481.64 L1052.94 1485.58 L1031 1485.58 L1031 1481.64 Q1033.66 1478.89 1038.24 1474.26 Q1042.85 1469.61 1044.03 1468.27 Q1046.28 1465.74 1047.16 1464.01 Q1048.06 1462.25 1048.06 1460.56 Q1048.06 1457.8 1046.11 1456.07 Q1044.19 1454.33 1041.09 1454.33 Q1038.89 1454.33 1036.44 1455.09 Q1034.01 1455.86 1031.23 1457.41 L1031.23 1452.69 Q1034.05 1451.55 1036.51 1450.97 Q1038.96 1450.39 1041 1450.39 Q1046.37 1450.39 1049.56 1453.08 Q1052.76 1455.77 1052.76 1460.26 Q1052.76 1462.39 1051.95 1464.31 Q1051.16 1466.2 1049.05 1468.8 Q1048.48 1469.47 1045.37 1472.69 Q1042.27 1475.88 1036.62 1481.64 Z"
     fill="#000000"
     fill-rule="nonzero"
     fill-opacity="1"
     id="path27" />
  <path
     clip-path="url(#clip730)"
     d="M1062.8 1451.02 L1081.16 1451.02 L1081.16 1454.96 L1067.09 1454.96 L1067.09 1463.43 Q1068.11 1463.08 1069.12 1462.92 Q1070.14 1462.73 1071.16 1462.73 Q1076.95 1462.73 1080.33 1465.9 Q1083.71 1469.08 1083.71 1474.49 Q1083.71 1480.07 1080.24 1483.17 Q1076.76 1486.25 1070.44 1486.25 Q1068.27 1486.25 1066 1485.88 Q1063.75 1485.51 1061.35 1484.77 L1061.35 1480.07 Q1063.43 1481.2 1065.65 1481.76 Q1067.87 1482.32 1070.35 1482.32 Q1074.36 1482.32 1076.69 1480.21 Q1079.03 1478.1 1079.03 1474.49 Q1079.03 1470.88 1076.69 1468.77 Q1074.36 1466.67 1070.35 1466.67 Q1068.48 1466.67 1066.6 1467.08 Q1064.75 1467.5 1062.8 1468.38 L1062.8 1451.02 Z"
     fill="#000000"
     fill-rule="nonzero"
     fill-opacity="1"
     id="path28" />
  <path
     clip-path="url(#clip730)"
     d="M1261.17 1481.64 L1268.81 1481.64 L1268.81 1455.28 L1260.5 1456.95 L1260.5 1452.69 L1268.76 1451.02 L1273.44 1451.02 L1273.44 1481.64 L1281.08 1481.64 L1281.08 1485.58 L1261.17 1485.58 L1261.17 1481.64 Z"
     fill="#000000"
     fill-rule="nonzero"
     fill-opacity="1"
     id="path29" />
  <path
     clip-path="url(#clip730)"
     d="M1290.52 1479.7 L1295.41 1479.7 L1295.41 1485.58 L1290.52 1485.58 L1290.52 1479.7 Z"
     fill="#000000"
     fill-rule="nonzero"
     fill-opacity="1"
     id="path30" />
  <path
     clip-path="url(#clip730)"
     d="M1305.64 1451.02 L1324 1451.02 L1324 1454.96 L1309.92 1454.96 L1309.92 1463.43 Q1310.94 1463.08 1311.96 1462.92 Q1312.98 1462.73 1314 1462.73 Q1319.78 1462.73 1323.16 1465.9 Q1326.54 1469.08 1326.54 1474.49 Q1326.54 1480.07 1323.07 1483.17 Q1319.6 1486.25 1313.28 1486.25 Q1311.1 1486.25 1308.83 1485.88 Q1306.59 1485.51 1304.18 1484.77 L1304.18 1480.07 Q1306.26 1481.2 1308.49 1481.76 Q1310.71 1482.32 1313.19 1482.32 Q1317.19 1482.32 1319.53 1480.21 Q1321.87 1478.1 1321.87 1474.49 Q1321.87 1470.88 1319.53 1468.77 Q1317.19 1466.67 1313.19 1466.67 Q1311.31 1466.67 1309.44 1467.08 Q1307.58 1467.5 1305.64 1468.38 L1305.64 1451.02 Z"
     fill="#000000"
     fill-rule="nonzero"
     fill-opacity="1"
     id="path31" />
  <path
     clip-path="url(#clip730)"
     d="M1345.76 1454.1 Q1342.14 1454.1 1340.32 1457.66 Q1338.51 1461.2 1338.51 1468.33 Q1338.51 1475.44 1340.32 1479.01 Q1342.14 1482.55 1345.76 1482.55 Q1349.39 1482.55 1351.19 1479.01 Q1353.02 1475.44 1353.02 1468.33 Q1353.02 1461.2 1351.19 1457.66 Q1349.39 1454.1 1345.76 1454.1 M1345.76 1450.39 Q1351.57 1450.39 1354.62 1455 Q1357.7 1459.58 1357.7 1468.33 Q1357.7 1477.06 1354.62 1481.67 Q1351.57 1486.25 1345.76 1486.25 Q1339.95 1486.25 1336.87 1481.67 Q1333.81 1477.06 1333.81 1468.33 Q1333.81 1459.58 1336.87 1455 Q1339.95 1450.39 1345.76 1450.39 Z"
     fill="#000000"
     fill-rule="nonzero"
     fill-opacity="1"
     id="path32" />
  <path
     clip-path="url(#clip730)"
     d="M1535.16 1481.64 L1542.8 1481.64 L1542.8 1455.28 L1534.49 1456.95 L1534.49 1452.69 L1542.76 1451.02 L1547.43 1451.02 L1547.43 1481.64 L1555.07 1481.64 L1555.07 1485.58 L1535.16 1485.58 L1535.16 1481.64 Z"
     fill="#000000"
     fill-rule="nonzero"
     fill-opacity="1"
     id="path33" />
  <path
     clip-path="url(#clip730)"
     d="M1564.52 1479.7 L1569.4 1479.7 L1569.4 1485.58 L1564.52 1485.58 L1564.52 1479.7 Z"
     fill="#000000"
     fill-rule="nonzero"
     fill-opacity="1"
     id="path34" />
  <path
     clip-path="url(#clip730)"
     d="M1578.41 1451.02 L1600.63 1451.02 L1600.63 1453.01 L1588.08 1485.58 L1583.2 1485.58 L1595 1454.96 L1578.41 1454.96 L1578.41 1451.02 Z"
     fill="#000000"
     fill-rule="nonzero"
     fill-opacity="1"
     id="path35" />
  <path
     clip-path="url(#clip730)"
     d="M1609.79 1451.02 L1628.15 1451.02 L1628.15 1454.96 L1614.08 1454.96 L1614.08 1463.43 Q1615.09 1463.08 1616.11 1462.92 Q1617.13 1462.73 1618.15 1462.73 Q1623.94 1462.73 1627.32 1465.9 Q1630.7 1469.08 1630.7 1474.49 Q1630.7 1480.07 1627.22 1483.17 Q1623.75 1486.25 1617.43 1486.25 Q1615.26 1486.25 1612.99 1485.88 Q1610.74 1485.51 1608.34 1484.77 L1608.34 1480.07 Q1610.42 1481.2 1612.64 1481.76 Q1614.86 1482.32 1617.34 1482.32 Q1621.34 1482.32 1623.68 1480.21 Q1626.02 1478.1 1626.02 1474.49 Q1626.02 1470.88 1623.68 1468.77 Q1621.34 1466.67 1617.34 1466.67 Q1615.47 1466.67 1613.59 1467.08 Q1611.74 1467.5 1609.79 1468.38 L1609.79 1451.02 Z"
     fill="#000000"
     fill-rule="nonzero"
     fill-opacity="1"
     id="path36" />
  <path
     clip-path="url(#clip730)"
     d="M1812.25 1481.64 L1828.57 1481.64 L1828.57 1485.58 L1806.62 1485.58 L1806.62 1481.64 Q1809.28 1478.89 1813.87 1474.26 Q1818.47 1469.61 1819.65 1468.27 Q1821.9 1465.74 1822.78 1464.01 Q1823.68 1462.25 1823.68 1460.56 Q1823.68 1457.8 1821.74 1456.07 Q1819.82 1454.33 1816.71 1454.33 Q1814.52 1454.33 1812.06 1455.09 Q1809.63 1455.86 1806.85 1457.41 L1806.85 1452.69 Q1809.68 1451.55 1812.13 1450.97 Q1814.59 1450.39 1816.62 1450.39 Q1821.99 1450.39 1825.19 1453.08 Q1828.38 1455.77 1828.38 1460.26 Q1828.38 1462.39 1827.57 1464.31 Q1826.78 1466.2 1824.68 1468.8 Q1824.1 1469.47 1821 1472.69 Q1817.9 1475.88 1812.25 1481.64 Z"
     fill="#000000"
     fill-rule="nonzero"
     fill-opacity="1"
     id="path37" />
  <path
     clip-path="url(#clip730)"
     d="M1838.38 1479.7 L1843.27 1479.7 L1843.27 1485.58 L1838.38 1485.58 L1838.38 1479.7 Z"
     fill="#000000"
     fill-rule="nonzero"
     fill-opacity="1"
     id="path38" />
  <path
     clip-path="url(#clip730)"
     d="M1863.45 1454.1 Q1859.84 1454.1 1858.01 1457.66 Q1856.21 1461.2 1856.21 1468.33 Q1856.21 1475.44 1858.01 1479.01 Q1859.84 1482.55 1863.45 1482.55 Q1867.08 1482.55 1868.89 1479.01 Q1870.72 1475.44 1870.72 1468.33 Q1870.72 1461.2 1868.89 1457.66 Q1867.08 1454.1 1863.45 1454.1 M1863.45 1450.39 Q1869.26 1450.39 1872.32 1455 Q1875.4 1459.58 1875.4 1468.33 Q1875.4 1477.06 1872.32 1481.67 Q1869.26 1486.25 1863.45 1486.25 Q1857.64 1486.25 1854.56 1481.67 Q1851.51 1477.06 1851.51 1468.33 Q1851.51 1459.58 1854.56 1455 Q1857.64 1450.39 1863.45 1450.39 Z"
     fill="#000000"
     fill-rule="nonzero"
     fill-opacity="1"
     id="path39" />
  <path
     clip-path="url(#clip730)"
     d="M1893.61 1454.1 Q1890 1454.1 1888.17 1457.66 Q1886.37 1461.2 1886.37 1468.33 Q1886.37 1475.44 1888.17 1479.01 Q1890 1482.55 1893.61 1482.55 Q1897.25 1482.55 1899.05 1479.01 Q1900.88 1475.44 1900.88 1468.33 Q1900.88 1461.2 1899.05 1457.66 Q1897.25 1454.1 1893.61 1454.1 M1893.61 1450.39 Q1899.42 1450.39 1902.48 1455 Q1905.56 1459.58 1905.56 1468.33 Q1905.56 1477.06 1902.48 1481.67 Q1899.42 1486.25 1893.61 1486.25 Q1887.8 1486.25 1884.72 1481.67 Q1881.67 1477.06 1881.67 1468.33 Q1881.67 1459.58 1884.72 1455 Q1887.8 1450.39 1893.61 1450.39 Z"
     fill="#000000"
     fill-rule="nonzero"
     fill-opacity="1"
     id="path40" />
  <path
     clip-path="url(#clip730)"
     d="M2086.24 1481.64 L2102.56 1481.64 L2102.56 1485.58 L2080.61 1485.58 L2080.61 1481.64 Q2083.28 1478.89 2087.86 1474.26 Q2092.47 1469.61 2093.65 1468.27 Q2095.89 1465.74 2096.77 1464.01 Q2097.67 1462.25 2097.67 1460.56 Q2097.67 1457.8 2095.73 1456.07 Q2093.81 1454.33 2090.71 1454.33 Q2088.51 1454.33 2086.05 1455.09 Q2083.62 1455.86 2080.85 1457.41 L2080.85 1452.69 Q2083.67 1451.55 2086.12 1450.97 Q2088.58 1450.39 2090.61 1450.39 Q2095.98 1450.39 2099.18 1453.08 Q2102.37 1455.77 2102.37 1460.26 Q2102.37 1462.39 2101.56 1464.31 Q2100.78 1466.2 2098.67 1468.8 Q2098.09 1469.47 2094.99 1472.69 Q2091.89 1475.88 2086.24 1481.64 Z"
     fill="#000000"
     fill-rule="nonzero"
     fill-opacity="1"
     id="path41" />
  <path
     clip-path="url(#clip730)"
     d="M2112.37 1479.7 L2117.26 1479.7 L2117.26 1485.58 L2112.37 1485.58 L2112.37 1479.7 Z"
     fill="#000000"
     fill-rule="nonzero"
     fill-opacity="1"
     id="path42" />
  <path
     clip-path="url(#clip730)"
     d="M2131.47 1481.64 L2147.79 1481.64 L2147.79 1485.58 L2125.85 1485.58 L2125.85 1481.64 Q2128.51 1478.89 2133.09 1474.26 Q2137.7 1469.61 2138.88 1468.27 Q2141.12 1465.74 2142 1464.01 Q2142.91 1462.25 2142.91 1460.56 Q2142.91 1457.8 2140.96 1456.07 Q2139.04 1454.33 2135.94 1454.33 Q2133.74 1454.33 2131.29 1455.09 Q2128.86 1455.86 2126.08 1457.41 L2126.08 1452.69 Q2128.9 1451.55 2131.36 1450.97 Q2133.81 1450.39 2135.85 1450.39 Q2141.22 1450.39 2144.41 1453.08 Q2147.61 1455.77 2147.61 1460.26 Q2147.61 1462.39 2146.79 1464.31 Q2146.01 1466.2 2143.9 1468.8 Q2143.32 1469.47 2140.22 1472.69 Q2137.12 1475.88 2131.47 1481.64 Z"
     fill="#000000"
     fill-rule="nonzero"
     fill-opacity="1"
     id="path43" />
  <path
     clip-path="url(#clip730)"
     d="M2157.65 1451.02 L2176.01 1451.02 L2176.01 1454.96 L2161.93 1454.96 L2161.93 1463.43 Q2162.95 1463.08 2163.97 1462.92 Q2164.99 1462.73 2166.01 1462.73 Q2171.79 1462.73 2175.17 1465.9 Q2178.55 1469.08 2178.55 1474.49 Q2178.55 1480.07 2175.08 1483.17 Q2171.61 1486.25 2165.29 1486.25 Q2163.11 1486.25 2160.85 1485.88 Q2158.6 1485.51 2156.19 1484.77 L2156.19 1480.07 Q2158.28 1481.2 2160.5 1481.76 Q2162.72 1482.32 2165.2 1482.32 Q2169.2 1482.32 2171.54 1480.21 Q2173.88 1478.1 2173.88 1474.49 Q2173.88 1470.88 2171.54 1468.77 Q2169.2 1466.67 2165.2 1466.67 Q2163.32 1466.67 2161.45 1467.08 Q2159.6 1467.5 2157.65 1468.38 L2157.65 1451.02 Z"
     fill="#000000"
     fill-rule="nonzero"
     fill-opacity="1"
     id="path44" />
  <path
     clip-path="url(#clip730)"
     d="M1241.61 1539.24 Q1243.8 1535.29 1246.86 1533.41 Q1249.92 1531.54 1254.05 1531.54 Q1259.62 1531.54 1262.65 1535.45 Q1265.67 1539.33 1265.67 1546.53 L1265.67 1568.04 L1259.78 1568.04 L1259.78 1546.72 Q1259.78 1541.59 1257.97 1539.11 Q1256.15 1536.63 1252.43 1536.63 Q1247.88 1536.63 1245.24 1539.65 Q1242.59 1542.68 1242.59 1547.9 L1242.59 1568.04 L1236.71 1568.04 L1236.71 1546.72 Q1236.71 1541.56 1234.89 1539.11 Q1233.08 1536.63 1229.29 1536.63 Q1224.8 1536.63 1222.16 1539.68 Q1219.52 1542.71 1219.52 1547.9 L1219.52 1568.04 L1213.63 1568.04 L1213.63 1532.4 L1219.52 1532.4 L1219.52 1537.93 Q1221.52 1534.66 1224.33 1533.1 Q1227.13 1531.54 1230.98 1531.54 Q1234.86 1531.54 1237.57 1533.51 Q1240.3 1535.48 1241.61 1539.24 Z"
     fill="#000000"
     fill-rule="nonzero"
     fill-opacity="1"
     id="path45" />
  <path
     clip-path="url(#clip730)"
     d="M1291.16 1536.5 Q1286.45 1536.5 1283.72 1540.19 Q1280.98 1543.85 1280.98 1550.25 Q1280.98 1556.65 1283.69 1560.34 Q1286.42 1564 1291.16 1564 Q1295.84 1564 1298.58 1560.31 Q1301.32 1556.62 1301.32 1550.25 Q1301.32 1543.92 1298.58 1540.23 Q1295.84 1536.5 1291.16 1536.5 M1291.16 1531.54 Q1298.8 1531.54 1303.16 1536.5 Q1307.52 1541.47 1307.52 1550.25 Q1307.52 1559 1303.16 1564 Q1298.8 1568.97 1291.16 1568.97 Q1283.49 1568.97 1279.13 1564 Q1274.81 1559 1274.81 1550.25 Q1274.81 1541.47 1279.13 1536.5 Q1283.49 1531.54 1291.16 1531.54 Z"
     fill="#000000"
     fill-rule="nonzero"
     fill-opacity="1"
     id="path46" />
  <path
     clip-path="url(#clip730)"
     d="M1340.69 1537.81 L1340.69 1518.52 L1346.55 1518.52 L1346.55 1568.04 L1340.69 1568.04 L1340.69 1562.7 Q1338.84 1565.88 1336.01 1567.44 Q1333.21 1568.97 1329.26 1568.97 Q1322.8 1568.97 1318.73 1563.81 Q1314.69 1558.65 1314.69 1550.25 Q1314.69 1541.85 1318.73 1536.69 Q1322.8 1531.54 1329.26 1531.54 Q1333.21 1531.54 1336.01 1533.1 Q1338.84 1534.62 1340.69 1537.81 M1320.73 1550.25 Q1320.73 1556.71 1323.38 1560.4 Q1326.05 1564.07 1330.7 1564.07 Q1335.34 1564.07 1338.02 1560.4 Q1340.69 1556.71 1340.69 1550.25 Q1340.69 1543.79 1338.02 1540.13 Q1335.34 1536.44 1330.7 1536.44 Q1326.05 1536.44 1323.38 1540.13 Q1320.73 1543.79 1320.73 1550.25 Z"
     fill="#000000"
     fill-rule="nonzero"
     fill-opacity="1"
     id="path47" />
  <path
     clip-path="url(#clip730)"
     d="M1389.1 1548.76 L1389.1 1551.62 L1362.17 1551.62 Q1362.56 1557.67 1365.8 1560.85 Q1369.08 1564 1374.91 1564 Q1378.28 1564 1381.43 1563.17 Q1384.61 1562.35 1387.73 1560.69 L1387.73 1566.23 Q1384.58 1567.57 1381.27 1568.27 Q1377.96 1568.97 1374.56 1568.97 Q1366.03 1568.97 1361.03 1564 Q1356.06 1559.04 1356.06 1550.57 Q1356.06 1541.82 1360.77 1536.69 Q1365.52 1531.54 1373.54 1531.54 Q1380.73 1531.54 1384.9 1536.18 Q1389.1 1540.8 1389.1 1548.76 M1383.24 1547.04 Q1383.18 1542.23 1380.54 1539.37 Q1377.93 1536.5 1373.6 1536.5 Q1368.7 1536.5 1365.74 1539.27 Q1362.81 1542.04 1362.37 1547.07 L1383.24 1547.04 Z"
     fill="#000000"
     fill-rule="nonzero"
     fill-opacity="1"
     id="path48" />
  <path
     clip-path="url(#clip730)"
     d="M1398.71 1518.52 L1404.57 1518.52 L1404.57 1568.04 L1398.71 1568.04 L1398.71 1518.52 Z"
     fill="#000000"
     fill-rule="nonzero"
     fill-opacity="1"
     id="path49" />
  <polyline
     clip-path="url(#clip732)"
     style="stroke:#000000; stroke-linecap:round; stroke-linejoin:round; stroke-width:2; stroke-opacity:0.1; fill:none"
     points="265.445,1385.15 2352.76,1385.15 "
     id="polyline49" />
  <polyline
     clip-path="url(#clip732)"
     style="stroke:#000000; stroke-linecap:round; stroke-linejoin:round; stroke-width:2; stroke-opacity:0.1; fill:none"
     points="265.445,1094.83 2352.76,1094.83 "
     id="polyline50" />
  <polyline
     clip-path="url(#clip732)"
     style="stroke:#000000; stroke-linecap:round; stroke-linejoin:round; stroke-width:2; stroke-opacity:0.1; fill:none"
     points="265.445,804.523 2352.76,804.523 "
     id="polyline51" />
  <polyline
     clip-path="url(#clip732)"
     style="stroke:#000000; stroke-linecap:round; stroke-linejoin:round; stroke-width:2; stroke-opacity:0.1; fill:none"
     points="265.445,514.211 2352.76,514.211 "
     id="polyline52" />
  <polyline
     clip-path="url(#clip732)"
     style="stroke:#000000; stroke-linecap:round; stroke-linejoin:round; stroke-width:2; stroke-opacity:0.1; fill:none"
     points="265.445,223.899 2352.76,223.899 "
     id="polyline53" />
  <polyline
     clip-path="url(#clip730)"
     style="stroke:#000000; stroke-linecap:round; stroke-linejoin:round; stroke-width:4; stroke-opacity:1; fill:none"
     points="265.445,1423.18 265.445,123.472 "
     id="polyline54" />
  <polyline
     clip-path="url(#clip730)"
     style="stroke:#000000; stroke-linecap:round; stroke-linejoin:round; stroke-width:4; stroke-opacity:1; fill:none"
     points="265.445,1385.15 284.342,1385.15 "
     id="polyline55" />
  <polyline
     clip-path="url(#clip730)"
     style="stroke:#000000; stroke-linecap:round; stroke-linejoin:round; stroke-width:4; stroke-opacity:1; fill:none"
     points="265.445,1094.83 284.342,1094.83 "
     id="polyline56" />
  <polyline
     clip-path="url(#clip730)"
     style="stroke:#000000; stroke-linecap:round; stroke-linejoin:round; stroke-width:4; stroke-opacity:1; fill:none"
     points="265.445,804.523 284.342,804.523 "
     id="polyline57" />
  <polyline
     clip-path="url(#clip730)"
     style="stroke:#000000; stroke-linecap:round; stroke-linejoin:round; stroke-width:4; stroke-opacity:1; fill:none"
     points="265.445,514.211 284.342,514.211 "
     id="polyline58" />
  <polyline
     clip-path="url(#clip730)"
     style="stroke:#000000; stroke-linecap:round; stroke-linejoin:round; stroke-width:4; stroke-opacity:1; fill:none"
     points="265.445,223.899 284.342,223.899 "
     id="polyline59" />
  <path
     clip-path="url(#clip730)"
     d="M217.5 1370.95 Q213.889 1370.95 212.061 1374.51 Q210.255 1378.05 210.255 1385.18 Q210.255 1392.29 212.061 1395.85 Q213.889 1399.39 217.5 1399.39 Q221.135 1399.39 222.94 1395.85 Q224.769 1392.29 224.769 1385.18 Q224.769 1378.05 222.94 1374.51 Q221.135 1370.95 217.5 1370.95 M217.5 1367.24 Q223.31 1367.24 226.366 1371.85 Q229.445 1376.43 229.445 1385.18 Q229.445 1393.91 226.366 1398.51 Q223.31 1403.1 217.5 1403.1 Q211.69 1403.1 208.612 1398.51 Q205.556 1393.91 205.556 1385.18 Q205.556 1376.43 208.612 1371.85 Q211.69 1367.24 217.5 1367.24 Z"
     fill="#000000"
     fill-rule="nonzero"
     fill-opacity="1"
     id="path59" />
  <path
     clip-path="url(#clip730)"
     d="M121.043 1108.18 L137.362 1108.18 L137.362 1112.11 L115.418 1112.11 L115.418 1108.18 Q118.08 1105.43 122.663 1100.8 Q127.269 1096.14 128.45 1094.8 Q130.695 1092.28 131.575 1090.54 Q132.478 1088.78 132.478 1087.09 Q132.478 1084.34 130.533 1082.6 Q128.612 1080.87 125.51 1080.87 Q123.311 1080.87 120.857 1081.63 Q118.427 1082.39 115.649 1083.94 L115.649 1079.22 Q118.473 1078.09 120.927 1077.51 Q123.38 1076.93 125.418 1076.93 Q130.788 1076.93 133.982 1079.62 Q137.177 1082.3 137.177 1086.79 Q137.177 1088.92 136.367 1090.84 Q135.579 1092.74 133.473 1095.33 Q132.894 1096 129.792 1099.22 Q126.691 1102.42 121.043 1108.18 Z"
     fill="#000000"
     fill-rule="nonzero"
     fill-opacity="1"
     id="path60" />
  <path
     clip-path="url(#clip730)"
     d="M157.177 1080.63 Q153.566 1080.63 151.737 1084.2 Q149.931 1087.74 149.931 1094.87 Q149.931 1101.98 151.737 1105.54 Q153.566 1109.08 157.177 1109.08 Q160.811 1109.08 162.616 1105.54 Q164.445 1101.98 164.445 1094.87 Q164.445 1087.74 162.616 1084.2 Q160.811 1080.63 157.177 1080.63 M157.177 1076.93 Q162.987 1076.93 166.042 1081.54 Q169.121 1086.12 169.121 1094.87 Q169.121 1103.6 166.042 1108.2 Q162.987 1112.79 157.177 1112.79 Q151.366 1112.79 148.288 1108.2 Q145.232 1103.6 145.232 1094.87 Q145.232 1086.12 148.288 1081.54 Q151.366 1076.93 157.177 1076.93 Z"
     fill="#000000"
     fill-rule="nonzero"
     fill-opacity="1"
     id="path61" />
  <path
     clip-path="url(#clip730)"
     d="M187.338 1080.63 Q183.727 1080.63 181.899 1084.2 Q180.093 1087.74 180.093 1094.87 Q180.093 1101.98 181.899 1105.54 Q183.727 1109.08 187.338 1109.08 Q190.973 1109.08 192.778 1105.54 Q194.607 1101.98 194.607 1094.87 Q194.607 1087.74 192.778 1084.2 Q190.973 1080.63 187.338 1080.63 M187.338 1076.93 Q193.149 1076.93 196.204 1081.54 Q199.283 1086.12 199.283 1094.87 Q199.283 1103.6 196.204 1108.2 Q193.149 1112.79 187.338 1112.79 Q181.528 1112.79 178.45 1108.2 Q175.394 1103.6 175.394 1094.87 Q175.394 1086.12 178.45 1081.54 Q181.528 1076.93 187.338 1076.93 Z"
     fill="#000000"
     fill-rule="nonzero"
     fill-opacity="1"
     id="path62" />
  <path
     clip-path="url(#clip730)"
     d="M217.5 1080.63 Q213.889 1080.63 212.061 1084.2 Q210.255 1087.74 210.255 1094.87 Q210.255 1101.98 212.061 1105.54 Q213.889 1109.08 217.5 1109.08 Q221.135 1109.08 222.94 1105.54 Q224.769 1101.98 224.769 1094.87 Q224.769 1087.74 222.94 1084.2 Q221.135 1080.63 217.5 1080.63 M217.5 1076.93 Q223.31 1076.93 226.366 1081.54 Q229.445 1086.12 229.445 1094.87 Q229.445 1103.6 226.366 1108.2 Q223.31 1112.79 217.5 1112.79 Q211.69 1112.79 208.612 1108.2 Q205.556 1103.6 205.556 1094.87 Q205.556 1086.12 208.612 1081.54 Q211.69 1076.93 217.5 1076.93 Z"
     fill="#000000"
     fill-rule="nonzero"
     fill-opacity="1"
     id="path63" />
  <path
     clip-path="url(#clip730)"
     d="M129.862 791.317 L118.056 809.766 L129.862 809.766 L129.862 791.317 M128.635 787.243 L134.515 787.243 L134.515 809.766 L139.445 809.766 L139.445 813.655 L134.515 813.655 L134.515 821.803 L129.862 821.803 L129.862 813.655 L114.26 813.655 L114.26 809.141 L128.635 787.243 Z"
     fill="#000000"
     fill-rule="nonzero"
     fill-opacity="1"
     id="path64" />
  <path
     clip-path="url(#clip730)"
     d="M157.177 790.322 Q153.566 790.322 151.737 793.886 Q149.931 797.428 149.931 804.558 Q149.931 811.664 151.737 815.229 Q153.566 818.771 157.177 818.771 Q160.811 818.771 162.616 815.229 Q164.445 811.664 164.445 804.558 Q164.445 797.428 162.616 793.886 Q160.811 790.322 157.177 790.322 M157.177 786.618 Q162.987 786.618 166.042 791.224 Q169.121 795.808 169.121 804.558 Q169.121 813.284 166.042 817.891 Q162.987 822.474 157.177 822.474 Q151.366 822.474 148.288 817.891 Q145.232 813.284 145.232 804.558 Q145.232 795.808 148.288 791.224 Q151.366 786.618 157.177 786.618 Z"
     fill="#000000"
     fill-rule="nonzero"
     fill-opacity="1"
     id="path65" />
  <path
     clip-path="url(#clip730)"
     d="M187.338 790.322 Q183.727 790.322 181.899 793.886 Q180.093 797.428 180.093 804.558 Q180.093 811.664 181.899 815.229 Q183.727 818.771 187.338 818.771 Q190.973 818.771 192.778 815.229 Q194.607 811.664 194.607 804.558 Q194.607 797.428 192.778 793.886 Q190.973 790.322 187.338 790.322 M187.338 786.618 Q193.149 786.618 196.204 791.224 Q199.283 795.808 199.283 804.558 Q199.283 813.284 196.204 817.891 Q193.149 822.474 187.338 822.474 Q181.528 822.474 178.45 817.891 Q175.394 813.284 175.394 804.558 Q175.394 795.808 178.45 791.224 Q181.528 786.618 187.338 786.618 Z"
     fill="#000000"
     fill-rule="nonzero"
     fill-opacity="1"
     id="path66" />
  <path
     clip-path="url(#clip730)"
     d="M217.5 790.322 Q213.889 790.322 212.061 793.886 Q210.255 797.428 210.255 804.558 Q210.255 811.664 212.061 815.229 Q213.889 818.771 217.5 818.771 Q221.135 818.771 222.94 815.229 Q224.769 811.664 224.769 804.558 Q224.769 797.428 222.94 793.886 Q221.135 790.322 217.5 790.322 M217.5 786.618 Q223.31 786.618 226.366 791.224 Q229.445 795.808 229.445 804.558 Q229.445 813.284 226.366 817.891 Q223.31 822.474 217.5 822.474 Q211.69 822.474 208.612 817.891 Q205.556 813.284 205.556 804.558 Q205.556 795.808 208.612 791.224 Q211.69 786.618 217.5 786.618 Z"
     fill="#000000"
     fill-rule="nonzero"
     fill-opacity="1"
     id="path67" />
  <path
     clip-path="url(#clip730)"
     d="M127.593 512.348 Q124.445 512.348 122.593 514.5 Q120.765 516.653 120.765 520.403 Q120.765 524.13 122.593 526.306 Q124.445 528.459 127.593 528.459 Q130.742 528.459 132.57 526.306 Q134.422 524.13 134.422 520.403 Q134.422 516.653 132.57 514.5 Q130.742 512.348 127.593 512.348 M136.876 497.695 L136.876 501.954 Q135.117 501.121 133.311 500.681 Q131.529 500.241 129.769 500.241 Q125.14 500.241 122.686 503.366 Q120.255 506.491 119.908 512.811 Q121.274 510.797 123.334 509.732 Q125.394 508.644 127.871 508.644 Q133.08 508.644 136.089 511.815 Q139.121 514.963 139.121 520.403 Q139.121 525.727 135.973 528.945 Q132.825 532.162 127.593 532.162 Q121.598 532.162 118.427 527.579 Q115.256 522.973 115.256 514.246 Q115.256 506.051 119.144 501.19 Q123.033 496.306 129.584 496.306 Q131.343 496.306 133.126 496.653 Q134.931 497 136.876 497.695 Z"
     fill="#000000"
     fill-rule="nonzero"
     fill-opacity="1"
     id="path68" />
  <path
     clip-path="url(#clip730)"
     d="M157.177 500.01 Q153.566 500.01 151.737 503.574 Q149.931 507.116 149.931 514.246 Q149.931 521.352 151.737 524.917 Q153.566 528.459 157.177 528.459 Q160.811 528.459 162.616 524.917 Q164.445 521.352 164.445 514.246 Q164.445 507.116 162.616 503.574 Q160.811 500.01 157.177 500.01 M157.177 496.306 Q162.987 496.306 166.042 500.912 Q169.121 505.496 169.121 514.246 Q169.121 522.973 166.042 527.579 Q162.987 532.162 157.177 532.162 Q151.366 532.162 148.288 527.579 Q145.232 522.973 145.232 514.246 Q145.232 505.496 148.288 500.912 Q151.366 496.306 157.177 496.306 Z"
     fill="#000000"
     fill-rule="nonzero"
     fill-opacity="1"
     id="path69" />
  <path
     clip-path="url(#clip730)"
     d="M187.338 500.01 Q183.727 500.01 181.899 503.574 Q180.093 507.116 180.093 514.246 Q180.093 521.352 181.899 524.917 Q183.727 528.459 187.338 528.459 Q190.973 528.459 192.778 524.917 Q194.607 521.352 194.607 514.246 Q194.607 507.116 192.778 503.574 Q190.973 500.01 187.338 500.01 M187.338 496.306 Q193.149 496.306 196.204 500.912 Q199.283 505.496 199.283 514.246 Q199.283 522.973 196.204 527.579 Q193.149 532.162 187.338 532.162 Q181.528 532.162 178.45 527.579 Q175.394 522.973 175.394 514.246 Q175.394 505.496 178.45 500.912 Q181.528 496.306 187.338 496.306 Z"
     fill="#000000"
     fill-rule="nonzero"
     fill-opacity="1"
     id="path70" />
  <path
     clip-path="url(#clip730)"
     d="M217.5 500.01 Q213.889 500.01 212.061 503.574 Q210.255 507.116 210.255 514.246 Q210.255 521.352 212.061 524.917 Q213.889 528.459 217.5 528.459 Q221.135 528.459 222.94 524.917 Q224.769 521.352 224.769 514.246 Q224.769 507.116 222.94 503.574 Q221.135 500.01 217.5 500.01 M217.5 496.306 Q223.31 496.306 226.366 500.912 Q229.445 505.496 229.445 514.246 Q229.445 522.973 226.366 527.579 Q223.31 532.162 217.5 532.162 Q211.69 532.162 208.612 527.579 Q205.556 522.973 205.556 514.246 Q205.556 505.496 208.612 500.912 Q211.69 496.306 217.5 496.306 Z"
     fill="#000000"
     fill-rule="nonzero"
     fill-opacity="1"
     id="path71" />
  <path
     clip-path="url(#clip730)"
     d="M127.015 224.767 Q123.681 224.767 121.76 226.549 Q119.862 228.332 119.862 231.457 Q119.862 234.582 121.76 236.364 Q123.681 238.147 127.015 238.147 Q130.348 238.147 132.269 236.364 Q134.191 234.559 134.191 231.457 Q134.191 228.332 132.269 226.549 Q130.371 224.767 127.015 224.767 M122.339 222.776 Q119.33 222.036 117.64 219.975 Q115.973 217.915 115.973 214.952 Q115.973 210.809 118.913 208.401 Q121.876 205.994 127.015 205.994 Q132.177 205.994 135.117 208.401 Q138.056 210.809 138.056 214.952 Q138.056 217.915 136.367 219.975 Q134.7 222.036 131.714 222.776 Q135.093 223.563 136.968 225.855 Q138.867 228.147 138.867 231.457 Q138.867 236.48 135.788 239.165 Q132.732 241.85 127.015 241.85 Q121.297 241.85 118.218 239.165 Q115.163 236.48 115.163 231.457 Q115.163 228.147 117.061 225.855 Q118.959 223.563 122.339 222.776 M120.626 215.392 Q120.626 218.077 122.293 219.582 Q123.982 221.087 127.015 221.087 Q130.024 221.087 131.714 219.582 Q133.427 218.077 133.427 215.392 Q133.427 212.707 131.714 211.202 Q130.024 209.698 127.015 209.698 Q123.982 209.698 122.293 211.202 Q120.626 212.707 120.626 215.392 Z"
     fill="#000000"
     fill-rule="nonzero"
     fill-opacity="1"
     id="path72" />
  <path
     clip-path="url(#clip730)"
     d="M157.177 209.698 Q153.566 209.698 151.737 213.262 Q149.931 216.804 149.931 223.934 Q149.931 231.04 151.737 234.605 Q153.566 238.147 157.177 238.147 Q160.811 238.147 162.616 234.605 Q164.445 231.04 164.445 223.934 Q164.445 216.804 162.616 213.262 Q160.811 209.698 157.177 209.698 M157.177 205.994 Q162.987 205.994 166.042 210.6 Q169.121 215.184 169.121 223.934 Q169.121 232.661 166.042 237.267 Q162.987 241.85 157.177 241.85 Q151.366 241.85 148.288 237.267 Q145.232 232.661 145.232 223.934 Q145.232 215.184 148.288 210.6 Q151.366 205.994 157.177 205.994 Z"
     fill="#000000"
     fill-rule="nonzero"
     fill-opacity="1"
     id="path73" />
  <path
     clip-path="url(#clip730)"
     d="M187.338 209.698 Q183.727 209.698 181.899 213.262 Q180.093 216.804 180.093 223.934 Q180.093 231.04 181.899 234.605 Q183.727 238.147 187.338 238.147 Q190.973 238.147 192.778 234.605 Q194.607 231.04 194.607 223.934 Q194.607 216.804 192.778 213.262 Q190.973 209.698 187.338 209.698 M187.338 205.994 Q193.149 205.994 196.204 210.6 Q199.283 215.184 199.283 223.934 Q199.283 232.661 196.204 237.267 Q193.149 241.85 187.338 241.85 Q181.528 241.85 178.45 237.267 Q175.394 232.661 175.394 223.934 Q175.394 215.184 178.45 210.6 Q181.528 205.994 187.338 205.994 Z"
     fill="#000000"
     fill-rule="nonzero"
     fill-opacity="1"
     id="path74" />
  <path
     clip-path="url(#clip730)"
     d="M217.5 209.698 Q213.889 209.698 212.061 213.262 Q210.255 216.804 210.255 223.934 Q210.255 231.04 212.061 234.605 Q213.889 238.147 217.5 238.147 Q221.135 238.147 222.94 234.605 Q224.769 231.04 224.769 223.934 Q224.769 216.804 222.94 213.262 Q221.135 209.698 217.5 209.698 M217.5 205.994 Q223.31 205.994 226.366 210.6 Q229.445 215.184 229.445 223.934 Q229.445 232.661 226.366 237.267 Q223.31 241.85 217.5 241.85 Q211.69 241.85 208.612 237.267 Q205.556 232.661 205.556 223.934 Q205.556 215.184 208.612 210.6 Q211.69 205.994 217.5 205.994 Z"
     fill="#000000"
     fill-rule="nonzero"
     fill-opacity="1"
     id="path75" />
  <path
     clip-path="url(#clip730)"
     d="M45.7664 805.091 Q39.4007 805.091 35.8996 807.733 Q32.3984 810.343 32.3984 815.085 Q32.3984 819.796 35.8996 822.437 Q39.4007 825.047 45.7664 825.047 Q52.1003 825.047 55.6014 822.437 Q59.1026 819.796 59.1026 815.085 Q59.1026 810.343 55.6014 807.733 Q52.1003 805.091 45.7664 805.091 M59.58 799.234 Q68.683 799.234 73.1071 803.277 Q77.5631 807.319 77.5631 815.658 Q77.5631 818.745 77.0857 821.483 Q76.6401 824.22 75.6852 826.798 L69.9879 826.798 Q71.3884 824.22 72.0568 821.705 Q72.7252 819.191 72.7252 816.581 Q72.7252 810.82 69.7015 807.955 Q66.7096 805.091 60.6303 805.091 L57.7339 805.091 Q60.885 806.905 62.4446 809.738 Q64.0042 812.571 64.0042 816.517 Q64.0042 823.074 59.0071 827.084 Q54.01 831.095 45.7664 831.095 Q37.491 831.095 32.4939 827.084 Q27.4968 823.074 27.4968 816.517 Q27.4968 812.571 29.0564 809.738 Q30.616 806.905 33.7671 805.091 L28.3562 805.091 L28.3562 799.234 L59.58 799.234 Z"
     fill="#000000"
     fill-rule="nonzero"
     fill-opacity="1"
     id="path76" />
  <path
     clip-path="url(#clip730)"
     d="M46.0847 770.971 Q46.0847 778.068 47.7079 780.806 Q49.3312 783.543 53.2461 783.543 Q56.3653 783.543 58.2114 781.506 Q60.0256 779.437 60.0256 775.904 Q60.0256 771.034 56.5881 768.106 Q53.1188 765.146 47.3897 765.146 L46.0847 765.146 L46.0847 770.971 M43.6657 759.29 L64.0042 759.29 L64.0042 765.146 L58.5933 765.146 Q61.8398 767.151 63.3994 770.143 Q64.9272 773.135 64.9272 777.464 Q64.9272 782.938 61.8716 786.185 Q58.7843 789.399 53.6281 789.399 Q47.6125 789.399 44.5569 785.389 Q41.5014 781.347 41.5014 773.358 L41.5014 765.146 L40.9285 765.146 Q36.8862 765.146 34.6901 767.82 Q32.4621 770.461 32.4621 775.268 Q32.4621 778.323 33.1941 781.219 Q33.9262 784.116 35.3903 786.789 L29.9795 786.789 Q28.7381 783.575 28.1334 780.551 Q27.4968 777.527 27.4968 774.663 Q27.4968 766.928 31.5072 763.109 Q35.5176 759.29 43.6657 759.29 Z"
     fill="#000000"
     fill-rule="nonzero"
     fill-opacity="1"
     id="path77" />
  <path
     clip-path="url(#clip730)"
     d="M58.657 741.561 L77.5631 741.561 L77.5631 747.449 L28.3562 747.449 L28.3562 741.561 L33.7671 741.561 Q30.5842 739.715 29.0564 736.914 Q27.4968 734.081 27.4968 730.166 Q27.4968 723.673 32.6531 719.631 Q37.8093 715.557 46.212 715.557 Q54.6147 715.557 59.771 719.631 Q64.9272 723.673 64.9272 730.166 Q64.9272 734.081 63.3994 736.914 Q61.8398 739.715 58.657 741.561 M46.212 721.636 Q39.7508 721.636 36.0905 724.31 Q32.3984 726.952 32.3984 731.599 Q32.3984 736.246 36.0905 738.919 Q39.7508 741.561 46.212 741.561 Q52.6732 741.561 56.3653 738.919 Q60.0256 736.246 60.0256 731.599 Q60.0256 726.952 56.3653 724.31 Q52.6732 721.636 46.212 721.636 Z"
     fill="#000000"
     fill-rule="nonzero"
     fill-opacity="1"
     id="path78" />
  <path
     clip-path="url(#clip730)"
     d="M1000.73 43.6931 L1000.73 65.8515 L1013.85 65.8515 Q1020.45 65.8515 1023.61 63.1374 Q1026.81 60.3828 1026.81 54.752 Q1026.81 49.0808 1023.61 46.4072 Q1020.45 43.6931 1013.85 43.6931 L1000.73 43.6931 M1000.73 18.8205 L1000.73 37.0496 L1012.84 37.0496 Q1018.83 37.0496 1021.75 34.8216 Q1024.71 32.5531 1024.71 27.935 Q1024.71 23.3575 1021.75 21.089 Q1018.83 18.8205 1012.84 18.8205 L1000.73 18.8205 M992.542 12.096 L1013.45 12.096 Q1022.8 12.096 1027.87 15.9849 Q1032.93 19.8737 1032.93 27.0438 Q1032.93 32.5936 1030.34 35.8748 Q1027.74 39.156 1022.72 39.9662 Q1028.76 41.2625 1032.08 45.3944 Q1035.44 49.4858 1035.44 55.6432 Q1035.44 63.745 1029.93 68.1605 Q1024.42 72.576 1014.26 72.576 L992.542 72.576 L992.542 12.096 Z"
     fill="#000000"
     fill-rule="nonzero"
     fill-opacity="1"
     id="path79" />
  <path
     clip-path="url(#clip730)"
     d="M1066.71 32.4315 Q1060.72 32.4315 1057.24 37.1306 Q1053.75 41.7891 1053.75 49.9314 Q1053.75 58.0738 1057.19 62.7728 Q1060.68 67.4314 1066.71 67.4314 Q1072.67 67.4314 1076.15 62.7323 Q1079.64 58.0333 1079.64 49.9314 Q1079.64 41.8701 1076.15 37.1711 Q1072.67 32.4315 1066.71 32.4315 M1066.71 26.1121 Q1076.44 26.1121 1081.99 32.4315 Q1087.54 38.7509 1087.54 49.9314 Q1087.54 61.0714 1081.99 67.4314 Q1076.44 73.7508 1066.71 73.7508 Q1056.95 73.7508 1051.4 67.4314 Q1045.89 61.0714 1045.89 49.9314 Q1045.89 38.7509 1051.4 32.4315 Q1056.95 26.1121 1066.71 26.1121 Z"
     fill="#000000"
     fill-rule="nonzero"
     fill-opacity="1"
     id="path80" />
  <path
     clip-path="url(#clip730)"
     d="M1135.05 27.2059 L1118.65 49.2833 L1135.9 72.576 L1127.11 72.576 L1113.91 54.752 L1100.7 72.576 L1091.91 72.576 L1109.53 48.8377 L1093.41 27.2059 L1102.2 27.2059 L1114.23 43.369 L1126.26 27.2059 L1135.05 27.2059 Z"
     fill="#000000"
     fill-rule="nonzero"
     fill-opacity="1"
     id="path81" />
  <path
     clip-path="url(#clip730)"
     d="M1153.65 65.7705 L1153.65 89.8329 L1146.15 89.8329 L1146.15 27.2059 L1153.65 27.2059 L1153.65 34.0924 Q1156 30.0415 1159.56 28.0971 Q1163.17 26.1121 1168.15 26.1121 Q1176.41 26.1121 1181.56 32.6746 Q1186.74 39.2371 1186.74 49.9314 Q1186.74 60.6258 1181.56 67.1883 Q1176.41 73.7508 1168.15 73.7508 Q1163.17 73.7508 1159.56 71.8063 Q1156 69.8214 1153.65 65.7705 M1179.01 49.9314 Q1179.01 41.7081 1175.6 37.0496 Q1172.24 32.3505 1166.33 32.3505 Q1160.41 32.3505 1157.01 37.0496 Q1153.65 41.7081 1153.65 49.9314 Q1153.65 58.1548 1157.01 62.8538 Q1160.41 67.5124 1166.33 67.5124 Q1172.24 67.5124 1175.6 62.8538 Q1179.01 58.1548 1179.01 49.9314 Z"
     fill="#000000"
     fill-rule="nonzero"
     fill-opacity="1"
     id="path82" />
  <path
     clip-path="url(#clip730)"
     d="M1199.1 9.54393 L1206.55 9.54393 L1206.55 72.576 L1199.1 72.576 L1199.1 9.54393 Z"
     fill="#000000"
     fill-rule="nonzero"
     fill-opacity="1"
     id="path83" />
  <path
     clip-path="url(#clip730)"
     d="M1239.73 32.4315 Q1233.73 32.4315 1230.25 37.1306 Q1226.77 41.7891 1226.77 49.9314 Q1226.77 58.0738 1230.21 62.7728 Q1233.69 67.4314 1239.73 67.4314 Q1245.68 67.4314 1249.17 62.7323 Q1252.65 58.0333 1252.65 49.9314 Q1252.65 41.8701 1249.17 37.1711 Q1245.68 32.4315 1239.73 32.4315 M1239.73 26.1121 Q1249.45 26.1121 1255 32.4315 Q1260.55 38.7509 1260.55 49.9314 Q1260.55 61.0714 1255 67.4314 Q1249.45 73.7508 1239.73 73.7508 Q1229.97 73.7508 1224.42 67.4314 Q1218.91 61.0714 1218.91 49.9314 Q1218.91 38.7509 1224.42 32.4315 Q1229.97 26.1121 1239.73 26.1121 Z"
     fill="#000000"
     fill-rule="nonzero"
     fill-opacity="1"
     id="path84" />
  <path
     clip-path="url(#clip730)"
     d="M1280.28 14.324 L1280.28 27.2059 L1295.63 27.2059 L1295.63 32.9987 L1280.28 32.9987 L1280.28 57.6282 Q1280.28 63.1779 1281.78 64.7578 Q1283.32 66.3376 1287.97 66.3376 L1295.63 66.3376 L1295.63 72.576 L1287.97 72.576 Q1279.35 72.576 1276.07 69.3758 Q1272.78 66.1351 1272.78 57.6282 L1272.78 32.9987 L1267.32 32.9987 L1267.32 27.2059 L1272.78 27.2059 L1272.78 14.324 L1280.28 14.324 Z"
     fill="#000000"
     fill-rule="nonzero"
     fill-opacity="1"
     id="path85" />
  <path
     clip-path="url(#clip730)"
     d="M1349.39 32.4315 Q1343.39 32.4315 1339.91 37.1306 Q1336.42 41.7891 1336.42 49.9314 Q1336.42 58.0738 1339.87 62.7728 Q1343.35 67.4314 1349.39 67.4314 Q1355.34 67.4314 1358.83 62.7323 Q1362.31 58.0333 1362.31 49.9314 Q1362.31 41.8701 1358.83 37.1711 Q1355.34 32.4315 1349.39 32.4315 M1349.39 26.1121 Q1359.11 26.1121 1364.66 32.4315 Q1370.21 38.7509 1370.21 49.9314 Q1370.21 61.0714 1364.66 67.4314 Q1359.11 73.7508 1349.39 73.7508 Q1339.62 73.7508 1334.07 67.4314 Q1328.56 61.0714 1328.56 49.9314 Q1328.56 38.7509 1334.07 32.4315 Q1339.62 26.1121 1349.39 26.1121 Z"
     fill="#000000"
     fill-rule="nonzero"
     fill-opacity="1"
     id="path86" />
  <path
     clip-path="url(#clip730)"
     d="M1405.53 9.54393 L1405.53 15.7418 L1398.4 15.7418 Q1394.39 15.7418 1392.81 17.3622 Q1391.27 18.9825 1391.27 23.1955 L1391.27 27.2059 L1403.55 27.2059 L1403.55 32.9987 L1391.27 32.9987 L1391.27 72.576 L1383.78 72.576 L1383.78 32.9987 L1376.65 32.9987 L1376.65 27.2059 L1383.78 27.2059 L1383.78 24.0462 Q1383.78 16.471 1387.3 13.0277 Q1390.83 9.54393 1398.48 9.54393 L1405.53 9.54393 Z"
     fill="#000000"
     fill-rule="nonzero"
     fill-opacity="1"
     id="path87" />
  <path
     clip-path="url(#clip730)"
     d="M1468 49.3643 Q1468 41.2625 1464.63 36.8065 Q1461.31 32.3505 1455.28 32.3505 Q1449.28 32.3505 1445.92 36.8065 Q1442.6 41.2625 1442.6 49.3643 Q1442.6 57.4256 1445.92 61.8816 Q1449.28 66.3376 1455.28 66.3376 Q1461.31 66.3376 1464.63 61.8816 Q1468 57.4256 1468 49.3643 M1475.45 66.9452 Q1475.45 78.5308 1470.31 84.1616 Q1465.16 89.8329 1454.55 89.8329 Q1450.62 89.8329 1447.13 89.2252 Q1443.65 88.6581 1440.37 87.4428 L1440.37 80.1917 Q1443.65 81.9741 1446.85 82.8248 Q1450.05 83.6755 1453.37 83.6755 Q1460.71 83.6755 1464.35 79.8271 Q1468 76.0193 1468 68.282 L1468 64.5957 Q1465.69 68.6061 1462.08 70.5911 Q1458.48 72.576 1453.45 72.576 Q1445.11 72.576 1440.01 66.2161 Q1434.9 59.8562 1434.9 49.3643 Q1434.9 38.832 1440.01 32.472 Q1445.11 26.1121 1453.45 26.1121 Q1458.48 26.1121 1462.08 28.0971 Q1465.69 30.082 1468 34.0924 L1468 27.2059 L1475.45 27.2059 L1475.45 66.9452 Z"
     fill="#000000"
     fill-rule="nonzero"
     fill-opacity="1"
     id="path88" />
  <path
     clip-path="url(#clip730)"
     d="M1511.42 49.7694 Q1502.39 49.7694 1498.91 51.8354 Q1495.42 53.9013 1495.42 58.8839 Q1495.42 62.8538 1498.01 65.2034 Q1500.65 67.5124 1505.14 67.5124 Q1511.34 67.5124 1515.07 63.1374 Q1518.84 58.7219 1518.84 51.4303 L1518.84 49.7694 L1511.42 49.7694 M1526.29 46.6907 L1526.29 72.576 L1518.84 72.576 L1518.84 65.6895 Q1516.28 69.8214 1512.48 71.8063 Q1508.67 73.7508 1503.16 73.7508 Q1496.19 73.7508 1492.06 69.8619 Q1487.97 65.9325 1487.97 59.3701 Q1487.97 51.7138 1493.07 47.825 Q1498.22 43.9361 1508.38 43.9361 L1518.84 43.9361 L1518.84 43.2069 Q1518.84 38.0623 1515.43 35.2672 Q1512.07 32.4315 1505.95 32.4315 Q1502.07 32.4315 1498.38 33.3632 Q1494.69 34.295 1491.29 36.1584 L1491.29 29.2718 Q1495.38 27.692 1499.23 26.9223 Q1503.08 26.1121 1506.72 26.1121 Q1516.57 26.1121 1521.43 31.2163 Q1526.29 36.3204 1526.29 46.6907 Z"
     fill="#000000"
     fill-rule="nonzero"
     fill-opacity="1"
     id="path89" />
  <path
     clip-path="url(#clip730)"
     d="M1548.85 65.7705 L1548.85 89.8329 L1541.36 89.8329 L1541.36 27.2059 L1548.85 27.2059 L1548.85 34.0924 Q1551.2 30.0415 1554.77 28.0971 Q1558.37 26.1121 1563.36 26.1121 Q1571.62 26.1121 1576.76 32.6746 Q1581.95 39.2371 1581.95 49.9314 Q1581.95 60.6258 1576.76 67.1883 Q1571.62 73.7508 1563.36 73.7508 Q1558.37 73.7508 1554.77 71.8063 Q1551.2 69.8214 1548.85 65.7705 M1574.21 49.9314 Q1574.21 41.7081 1570.81 37.0496 Q1567.45 32.3505 1561.53 32.3505 Q1555.62 32.3505 1552.22 37.0496 Q1548.85 41.7081 1548.85 49.9314 Q1548.85 58.1548 1552.22 62.8538 Q1555.62 67.5124 1561.53 67.5124 Q1567.45 67.5124 1570.81 62.8538 Q1574.21 58.1548 1574.21 49.9314 Z"
     fill="#000000"
     fill-rule="nonzero"
     fill-opacity="1"
     id="path90" />
  <path
     clip-path="url(#clip730)"
     d="M1623.23 28.5427 L1623.23 35.5912 Q1620.07 33.9709 1616.67 33.1607 Q1613.26 32.3505 1609.62 32.3505 Q1604.07 32.3505 1601.27 34.0519 Q1598.52 35.7533 1598.52 39.156 Q1598.52 41.7486 1600.5 43.2475 Q1602.49 44.7058 1608.48 46.0426 L1611.03 46.6097 Q1618.97 48.3111 1622.3 51.4303 Q1625.66 54.509 1625.66 60.0587 Q1625.66 66.3781 1620.64 70.0644 Q1615.65 73.7508 1606.9 73.7508 Q1603.26 73.7508 1599.29 73.0216 Q1595.36 72.3329 1590.98 70.9151 L1590.98 63.2184 Q1595.11 65.3654 1599.12 66.4591 Q1603.14 67.5124 1607.06 67.5124 Q1612.33 67.5124 1615.17 65.73 Q1618 63.9071 1618 60.6258 Q1618 57.5877 1615.94 55.9673 Q1613.91 54.3469 1606.98 52.8481 L1604.39 52.2405 Q1597.46 50.7821 1594.39 47.7845 Q1591.31 44.7463 1591.31 39.4801 Q1591.31 33.0797 1595.84 29.5959 Q1600.38 26.1121 1608.73 26.1121 Q1612.86 26.1121 1616.5 26.7198 Q1620.15 27.3274 1623.23 28.5427 Z"
     fill="#000000"
     fill-rule="nonzero"
     fill-opacity="1"
     id="path91" />
  <path
     clip-path="url(#clip732)"
     d="M762.111 1385.15 L543.315 1385.15 L980.907 1385.15 L762.111 1385.15 L762.111 1310.03 L762.111 1385.15  Z"
     fill="#009af9"
     fill-rule="evenodd"
     fill-opacity="1"
     id="path92" />
  <polyline
     clip-path="url(#clip732)"
     style="stroke:#000000; stroke-linecap:round; stroke-linejoin:round; stroke-width:4; stroke-opacity:1; fill:none"
     points="762.111,1385.15 543.315,1385.15 980.907,1385.15 762.111,1385.15 762.111,1310.03 762.111,1385.15 "
     id="polyline92" />
  <path
     clip-path="url(#clip732)"
     d="M1199.7 1310.03 L1199.7 1233.26 L324.52 1233.26 L324.52 1310.03 L1199.7 1310.03 L1199.7 1233.26 L1199.7 1310.03  Z"
     fill="#009af9"
     fill-rule="evenodd"
     fill-opacity="1"
     id="path93" />
  <polyline
     clip-path="url(#clip732)"
     style="stroke:#000000; stroke-linecap:round; stroke-linejoin:round; stroke-width:4; stroke-opacity:1; fill:none"
     points="1199.7,1310.03 1199.7,1233.26 324.52,1233.26 324.52,1310.03 1199.7,1310.03 1199.7,1233.26 1199.7,1310.03 "
     id="polyline93" />
  <path
     clip-path="url(#clip732)"
     d="M1199.7 1072.84 L324.52 1072.84 L324.52 1233.26 L1199.7 1233.26 L1199.7 1072.84 L762.111 1072.84 L1199.7 1072.84  Z"
     fill="#009af9"
     fill-rule="evenodd"
     fill-opacity="1"
     id="path94" />
  <polyline
     clip-path="url(#clip732)"
     style="stroke:#000000; stroke-linecap:round; stroke-linejoin:round; stroke-width:4; stroke-opacity:1; fill:none"
     points="1199.7,1072.84 324.52,1072.84 324.52,1233.26 1199.7,1233.26 1199.7,1072.84 762.111,1072.84 1199.7,1072.84 "
     id="polyline94" />
  <path
     clip-path="url(#clip732)"
     d="M762.111 829.879 L543.315 829.879 L980.907 829.879 L762.111 829.879 L762.111 1072.84 L762.111 829.879  Z"
     fill="#009af9"
     fill-rule="evenodd"
     fill-opacity="1"
     id="path95" />
  <polyline
     clip-path="url(#clip732)"
     style="stroke:#000000; stroke-linecap:round; stroke-linejoin:round; stroke-width:4; stroke-opacity:1; fill:none"
     points="762.111,829.879 543.315,829.879 980.907,829.879 762.111,829.879 762.111,1072.84 762.111,829.879 "
     id="polyline95" />
  <circle
     clip-path="url(#clip732)"
     cx="762.111"
     cy="581.05"
     r="14.4"
     fill="#009af9"
     fill-rule="evenodd"
     fill-opacity="1"
     stroke="#000000"
     stroke-opacity="1"
     stroke-width="3.2"
     id="circle95" />
  <circle
     clip-path="url(#clip732)"
     cx="762.111"
     cy="659.943"
     r="14.4"
     fill="#009af9"
     fill-rule="evenodd"
     fill-opacity="1"
     stroke="#000000"
     stroke-opacity="1"
     stroke-width="3.2"
     id="circle96" />
  <circle
     clip-path="url(#clip732)"
     cx="762.111"
     cy="160.256"
     r="14.4"
     fill="#009af9"
     fill-rule="evenodd"
     fill-opacity="1"
     stroke="#000000"
     stroke-opacity="1"
     stroke-width="3.2"
     id="circle97" />
  <circle
     clip-path="url(#clip732)"
     cx="762.111"
     cy="612.586"
     r="14.4"
     fill="#009af9"
     fill-rule="evenodd"
     fill-opacity="1"
     stroke="#000000"
     stroke-opacity="1"
     stroke-width="3.2"
     id="circle98" />
  <circle
     clip-path="url(#clip732)"
     cx="762.111"
     cy="319.447"
     r="14.4"
     fill="#009af9"
     fill-rule="evenodd"
     fill-opacity="1"
     stroke="#000000"
     stroke-opacity="1"
     stroke-width="3.2"
     id="circle99" />
  <circle
     clip-path="url(#clip732)"
     cx="762.111"
     cy="707.719"
     r="14.4"
     fill="#009af9"
     fill-rule="evenodd"
     fill-opacity="1"
     stroke="#000000"
     stroke-opacity="1"
     stroke-width="3.2"
     id="circle100" />
  <polyline
     clip-path="url(#clip732)"
     style="stroke:#009af9; stroke-linecap:round; stroke-linejoin:round; stroke-width:0; stroke-opacity:1; fill:none"
     points="762.111,1385.15 543.315,1385.15 980.907,1385.15 762.111,1385.15 762.111,1310.03 "
     id="polyline100" />
  <polyline
     clip-path="url(#clip732)"
     style="stroke:#009af9; stroke-linecap:round; stroke-linejoin:round; stroke-width:0; stroke-opacity:1; fill:none"
     points="1199.7,1310.03 1199.7,1233.26 324.52,1233.26 324.52,1310.03 1199.7,1310.03 1199.7,1233.26 "
     id="polyline101" />
  <polyline
     clip-path="url(#clip732)"
     style="stroke:#009af9; stroke-linecap:round; stroke-linejoin:round; stroke-width:0; stroke-opacity:1; fill:none"
     points="1199.7,1072.84 324.52,1072.84 324.52,1233.26 1199.7,1233.26 1199.7,1072.84 762.111,1072.84 "
     id="polyline102" />
  <polyline
     clip-path="url(#clip732)"
     style="stroke:#009af9; stroke-linecap:round; stroke-linejoin:round; stroke-width:0; stroke-opacity:1; fill:none"
     points="762.111,829.879 543.315,829.879 980.907,829.879 762.111,829.879 762.111,1072.84 "
     id="polyline103" />
  <path
     clip-path="url(#clip732)"
     d="M1856.09 1386.4 L1637.29 1386.4 L2074.89 1386.4 L1856.09 1386.4 L1856.09 1322.21 L1856.09 1386.4  Z"
     fill="#e26f46"
     fill-rule="evenodd"
     fill-opacity="1"
     id="path103" />
  <polyline
     clip-path="url(#clip732)"
     style="stroke:#000000; stroke-linecap:round; stroke-linejoin:round; stroke-width:4; stroke-opacity:1; fill:none"
     points="1856.09,1386.4 1637.29,1386.4 2074.89,1386.4 1856.09,1386.4 1856.09,1322.21 1856.09,1386.4 "
     id="polyline104" />
  <path
     clip-path="url(#clip732)"
     d="M2293.68 1322.21 L2293.68 1283.19 L1418.5 1283.19 L1418.5 1322.21 L2293.68 1322.21 L2293.68 1283.19 L2293.68 1322.21  Z"
     fill="#e26f46"
     fill-rule="evenodd"
     fill-opacity="1"
     id="path104" />
  <polyline
     clip-path="url(#clip732)"
     style="stroke:#000000;stroke-linecap:round;stroke-linejoin:round;stroke-width:4;stroke-opacity:1;fill:#3da34b;fill-opacity:1"
     points="2293.68,1322.21 2293.68,1283.19 1418.5,1283.19 1418.5,1322.21 2293.68,1322.21 2293.68,1283.19 2293.68,1322.21 "
     id="polyline105" />
  <path
     clip-path="url(#clip732)"
     d="M2293.68 1196.17 L1418.5 1196.17 L1418.5 1283.19 L2293.68 1283.19 L2293.68 1196.17 L1856.09 1196.17 L2293.68 1196.17  Z"
     fill="#e26f46"
     fill-rule="evenodd"
     fill-opacity="1"
     id="path105"
     style="fill:#3da34b;fill-opacity:1" />
  <polyline
     clip-path="url(#clip732)"
     style="stroke:#000000; stroke-linecap:round; stroke-linejoin:round; stroke-width:4; stroke-opacity:1; fill:none"
     points="2293.68,1196.17 1418.5,1196.17 1418.5,1283.19 2293.68,1283.19 2293.68,1196.17 1856.09,1196.17 2293.68,1196.17 "
     id="polyline106" />
  <path
     clip-path="url(#clip732)"
     d="M1856.09 1036.7 L1637.29 1036.7 L2074.89 1036.7 L1856.09 1036.7 L1856.09 1196.17 L1856.09 1036.7  Z"
     fill="#e26f46"
     fill-rule="evenodd"
     fill-opacity="1"
     id="path106" />
  <polyline
     clip-path="url(#clip732)"
     style="stroke:#000000; stroke-linecap:round; stroke-linejoin:round; stroke-width:4; stroke-opacity:1; fill:none"
     points="1856.09,1036.7 1637.29,1036.7 2074.89,1036.7 1856.09,1036.7 1856.09,1196.17 1856.09,1036.7 "
     id="polyline107" />
  <circle
     clip-path="url(#clip732)"
     cx="1856.09"
     cy="862.831"
     r="14.4"
     fill="#e26f46"
     fill-rule="evenodd"
     fill-opacity="1"
     stroke="#000000"
     stroke-opacity="1"
     stroke-width="3.2"
     id="circle107" />
  <circle
     clip-path="url(#clip732)"
     cx="1856.09"
     cy="850.519"
     r="14.4"
     fill="#e26f46"
     fill-rule="evenodd"
     fill-opacity="1"
     stroke="#000000"
     stroke-opacity="1"
     stroke-width="3.2"
     id="circle108"
     style="fill:#3da34b;fill-opacity:1" />
  <circle
     clip-path="url(#clip732)"
     cx="1856.09"
     cy="706.573"
     r="14.4"
     fill="#e26f46"
     fill-rule="evenodd"
     fill-opacity="1"
     stroke="#000000"
     stroke-opacity="1"
     stroke-width="3.2"
     id="circle109"
     style="fill:#3da34b;fill-opacity:1" />
  <circle
     clip-path="url(#clip732)"
     cx="1856.09"
     cy="960.876"
     r="14.4"
     fill="#e26f46"
     fill-rule="evenodd"
     fill-opacity="1"
     stroke="#000000"
     stroke-opacity="1"
     stroke-width="3.2"
     id="circle110"
     style="fill:#3da34b;fill-opacity:1" />
  <circle
     clip-path="url(#clip732)"
     cx="1856.09"
     cy="867.409"
     r="14.4"
     fill="#e26f46"
     fill-rule="evenodd"
     fill-opacity="1"
     stroke="#000000"
     stroke-opacity="1"
     stroke-width="3.2"
     id="circle111" />
  <circle
     clip-path="url(#clip732)"
     cx="1856.09"
     cy="872.645"
     r="14.4"
     fill="#e26f46"
     fill-rule="evenodd"
     fill-opacity="1"
     stroke="#000000"
     stroke-opacity="1"
     stroke-width="3.2"
     id="circle112"
     style="fill:#3da34b;fill-opacity:1" />
  <circle
     clip-path="url(#clip732)"
     cx="1856.09"
     cy="792.799"
     r="14.4"
     fill="#e26f46"
     fill-rule="evenodd"
     fill-opacity="1"
     stroke="#000000"
     stroke-opacity="1"
     stroke-width="3.2"
     id="circle113"
     style="fill:#3da34b;fill-opacity:1" />
  <circle
     clip-path="url(#clip732)"
     cx="1856.09"
     cy="641.6"
     r="14.4"
     fill="#e26f46"
     fill-rule="evenodd"
     fill-opacity="1"
     stroke="#000000"
     stroke-opacity="1"
     stroke-width="3.2"
     id="circle114"
     style="fill:#3da34b;fill-opacity:1" />
  <circle
     clip-path="url(#clip732)"
     cx="1856.09"
     cy="1003.08"
     r="14.4"
     fill="#e26f46"
     fill-rule="evenodd"
     fill-opacity="1"
     stroke="#000000"
     stroke-opacity="1"
     stroke-width="3.2"
     id="circle115"
     style="fill:#3da34b;fill-opacity:1" />
  <circle
     clip-path="url(#clip732)"
     cx="1856.09"
     cy="990.607"
     r="14.4"
     fill="#e26f46"
     fill-rule="evenodd"
     fill-opacity="1"
     stroke="#000000"
     stroke-opacity="1"
     stroke-width="3.2"
     id="circle116"
     style="fill:#3da34b;fill-opacity:1" />
  <circle
     clip-path="url(#clip732)"
     cx="1856.09"
     cy="855.473"
     r="14.4"
     fill="#e26f46"
     fill-rule="evenodd"
     fill-opacity="1"
     stroke="#000000"
     stroke-opacity="1"
     stroke-width="3.2"
     id="circle117"
     style="fill:#3da34b;fill-opacity:1" />
  <polyline
     clip-path="url(#clip732)"
     style="stroke:#e26f46; stroke-linecap:round; stroke-linejoin:round; stroke-width:0; stroke-opacity:1; fill:none"
     points="1856.09,1386.4 1637.29,1386.4 2074.89,1386.4 1856.09,1386.4 1856.09,1322.21 "
     id="polyline117" />
  <polyline
     clip-path="url(#clip732)"
     style="stroke:#e26f46;stroke-linecap:round;stroke-linejoin:round;stroke-width:0;stroke-opacity:1;fill:none;fill-opacity:1"
     points="2293.68,1322.21 2293.68,1283.19 1418.5,1283.19 1418.5,1322.21 2293.68,1322.21 2293.68,1283.19 "
     id="polyline118" />
  <polyline
     clip-path="url(#clip732)"
     style="stroke:#e26f46; stroke-linecap:round; stroke-linejoin:round; stroke-width:0; stroke-opacity:1; fill:none"
     points="2293.68,1196.17 1418.5,1196.17 1418.5,1283.19 2293.68,1283.19 2293.68,1196.17 1856.09,1196.17 "
     id="polyline119" />
  <polyline
     clip-path="url(#clip732)"
     style="stroke:#e26f46; stroke-linecap:round; stroke-linejoin:round; stroke-width:0; stroke-opacity:1; fill:none"
     points="1856.09,1036.7 1637.29,1036.7 2074.89,1036.7 1856.09,1036.7 1856.09,1196.17 "
     id="polyline120" />
  <path
     clip-path="url(#clip730)"
     d="M1875.81 322.316 L2283.18 322.316 L2283.18 166.796 L1875.81 166.796  Z"
     fill="#ffffff"
     fill-rule="evenodd"
     fill-opacity="1"
     id="path120" />
  <polyline
     clip-path="url(#clip730)"
     style="stroke:#000000; stroke-linecap:round; stroke-linejoin:round; stroke-width:4; stroke-opacity:1; fill:none"
     points="1875.81,322.316 2283.18,322.316 2283.18,166.796 1875.81,166.796 1875.81,322.316 "
     id="polyline121" />
  <path
     clip-path="url(#clip730)"
     d="M1899.01 239.372 L2038.16 239.372 L2038.16 197.9 L1899.01 197.9 L1899.01 239.372  Z"
     fill="#009af9"
     fill-rule="evenodd"
     fill-opacity="1"
     id="path121" />
  <polyline
     clip-path="url(#clip730)"
     style="stroke:#000000; stroke-linecap:round; stroke-linejoin:round; stroke-width:4; stroke-opacity:1; fill:none"
     points="1899.01,239.372 2038.16,239.372 2038.16,197.9 1899.01,197.9 1899.01,239.372 "
     id="polyline122" />
  <path
     clip-path="url(#clip730)"
     d="M2061.35 201.356 L2083.21 201.356 L2083.21 205.291 L2066.03 205.291 L2066.03 215.522 L2082.49 215.522 L2082.49 219.457 L2066.03 219.457 L2066.03 231.981 L2083.62 231.981 L2083.62 235.916 L2061.35 235.916 L2061.35 201.356 Z"
     fill="#000000"
     fill-rule="nonzero"
     fill-opacity="1"
     id="path122" />
  <path
     clip-path="url(#clip730)"
     d="M2112.67 209.99 L2103.3 222.606 L2113.16 235.916 L2108.14 235.916 L2100.59 225.731 L2093.04 235.916 L2088.02 235.916 L2098.09 222.351 L2088.88 209.99 L2093.9 209.99 L2100.77 219.226 L2107.65 209.99 L2112.67 209.99 Z"
     fill="#000000"
     fill-rule="nonzero"
     fill-opacity="1"
     id="path123" />
  <path
     clip-path="url(#clip730)"
     d="M2123.3 232.027 L2123.3 245.777 L2119.02 245.777 L2119.02 209.99 L2123.3 209.99 L2123.3 213.925 Q2124.64 211.61 2126.68 210.499 Q2128.74 209.365 2131.58 209.365 Q2136.31 209.365 2139.25 213.115 Q2142.21 216.865 2142.21 222.976 Q2142.21 229.087 2139.25 232.837 Q2136.31 236.587 2131.58 236.587 Q2128.74 236.587 2126.68 235.476 Q2124.64 234.342 2123.3 232.027 M2137.79 222.976 Q2137.79 218.277 2135.84 215.615 Q2133.92 212.93 2130.54 212.93 Q2127.16 212.93 2125.22 215.615 Q2123.3 218.277 2123.3 222.976 Q2123.3 227.675 2125.22 230.36 Q2127.16 233.022 2130.54 233.022 Q2133.92 233.022 2135.84 230.36 Q2137.79 227.675 2137.79 222.976 Z"
     fill="#000000"
     fill-rule="nonzero"
     fill-opacity="1"
     id="path124" />
  <path
     clip-path="url(#clip730)"
     d="M2149.87 230.036 L2154.76 230.036 L2154.76 235.916 L2149.87 235.916 L2149.87 230.036 Z"
     fill="#000000"
     fill-rule="nonzero"
     fill-opacity="1"
     id="path125" />
  <path
     clip-path="url(#clip730)"
     d="M2200.31 202.49 L2200.31 207.05 Q2197.65 205.777 2195.29 205.152 Q2192.93 204.527 2190.73 204.527 Q2186.91 204.527 2184.82 206.008 Q2182.76 207.49 2182.76 210.221 Q2182.76 212.513 2184.13 213.694 Q2185.52 214.851 2189.36 215.569 L2192.19 216.147 Q2197.42 217.143 2199.89 219.666 Q2202.39 222.166 2202.39 226.379 Q2202.39 231.402 2199.01 233.994 Q2195.66 236.587 2189.15 236.587 Q2186.7 236.587 2183.92 236.031 Q2181.17 235.476 2178.2 234.388 L2178.2 229.573 Q2181.05 231.17 2183.78 231.981 Q2186.51 232.791 2189.15 232.791 Q2193.16 232.791 2195.33 231.217 Q2197.51 229.643 2197.51 226.726 Q2197.51 224.18 2195.94 222.744 Q2194.39 221.309 2190.82 220.592 L2187.97 220.036 Q2182.74 218.995 2180.4 216.772 Q2178.07 214.55 2178.07 210.592 Q2178.07 206.008 2181.28 203.37 Q2184.52 200.731 2190.2 200.731 Q2192.63 200.731 2195.15 201.171 Q2197.67 201.61 2200.31 202.49 Z"
     fill="#000000"
     fill-rule="nonzero"
     fill-opacity="1"
     id="path126" />
  <path
     clip-path="url(#clip730)"
     d="M2231.68 221.888 L2231.68 223.971 L2212.09 223.971 Q2212.37 228.369 2214.73 230.684 Q2217.12 232.976 2221.35 232.976 Q2223.81 232.976 2226.1 232.374 Q2228.41 231.772 2230.68 230.569 L2230.68 234.596 Q2228.39 235.568 2225.98 236.078 Q2223.57 236.587 2221.1 236.587 Q2214.89 236.587 2211.26 232.976 Q2207.65 229.365 2207.65 223.207 Q2207.65 216.842 2211.07 213.115 Q2214.52 209.365 2220.36 209.365 Q2225.59 209.365 2228.62 212.745 Q2231.68 216.101 2231.68 221.888 M2227.42 220.638 Q2227.37 217.143 2225.45 215.059 Q2223.55 212.976 2220.4 212.976 Q2216.84 212.976 2214.69 214.99 Q2212.56 217.004 2212.23 220.661 L2227.42 220.638 Z"
     fill="#000000"
     fill-rule="nonzero"
     fill-opacity="1"
     id="path127" />
  <path
     clip-path="url(#clip730)"
     d="M2241.21 222.976 Q2241.21 227.675 2243.13 230.36 Q2245.08 233.022 2248.46 233.022 Q2251.84 233.022 2253.78 230.36 Q2255.73 227.675 2255.73 222.976 Q2255.73 218.277 2253.78 215.615 Q2251.84 212.93 2248.46 212.93 Q2245.08 212.93 2243.13 215.615 Q2241.21 218.277 2241.21 222.976 M2255.73 232.027 Q2254.38 234.342 2252.32 235.476 Q2250.29 236.587 2247.42 236.587 Q2242.72 236.587 2239.76 232.837 Q2236.82 229.087 2236.82 222.976 Q2236.82 216.865 2239.76 213.115 Q2242.72 209.365 2247.42 209.365 Q2250.29 209.365 2252.32 210.499 Q2254.38 211.61 2255.73 213.925 L2255.73 209.99 L2259.99 209.99 L2259.99 245.777 L2255.73 245.777 L2255.73 232.027 Z"
     fill="#000000"
     fill-rule="nonzero"
     fill-opacity="1"
     id="path128" />
  <path
     clip-path="url(#clip730)"
     d="M1899.01 291.212 L2038.16 291.212 L2038.16 249.74 L1899.01 249.74 L1899.01 291.212  Z"
     fill="#e26f46"
     fill-rule="evenodd"
     fill-opacity="1"
     id="path129" />
  <polyline
     clip-path="url(#clip730)"
     style="stroke:#000000;stroke-linecap:round;stroke-linejoin:round;stroke-width:4;stroke-opacity:1;fill:#3da34b;fill-opacity:1"
     points="1899.01,291.212 2038.16,291.212 2038.16,249.74 1899.01,249.74 1899.01,291.212 "
     id="polyline129" />
  <path
     clip-path="url(#clip730)"
     d="M2086.91 282.825 L2086.91 273.543 L2079.27 273.543 L2079.27 269.7 L2091.54 269.7 L2091.54 284.538 Q2088.83 286.459 2085.57 287.455 Q2082.3 288.427 2078.6 288.427 Q2070.5 288.427 2065.91 283.705 Q2061.35 278.959 2061.35 270.51 Q2061.35 262.038 2065.91 257.316 Q2070.5 252.571 2078.6 252.571 Q2081.98 252.571 2085.01 253.404 Q2088.07 254.237 2090.64 255.858 L2090.64 260.835 Q2088.04 258.636 2085.13 257.524 Q2082.21 256.413 2078.99 256.413 Q2072.65 256.413 2069.46 259.955 Q2066.28 263.497 2066.28 270.51 Q2066.28 277.501 2069.46 281.043 Q2072.65 284.584 2078.99 284.584 Q2081.47 284.584 2083.41 284.168 Q2085.36 283.728 2086.91 282.825 Z"
     fill="#000000"
     fill-rule="nonzero"
     fill-opacity="1"
     id="path130" />
  <path
     clip-path="url(#clip730)"
     d="M2104.76 257.038 L2104.76 270.024 L2110.64 270.024 Q2113.9 270.024 2115.68 268.335 Q2117.46 266.645 2117.46 263.52 Q2117.46 260.418 2115.68 258.728 Q2113.9 257.038 2110.64 257.038 L2104.76 257.038 M2100.08 253.196 L2110.64 253.196 Q2116.45 253.196 2119.41 255.835 Q2122.39 258.45 2122.39 263.52 Q2122.39 268.635 2119.41 271.251 Q2116.45 273.867 2110.64 273.867 L2104.76 273.867 L2104.76 287.756 L2100.08 287.756 L2100.08 253.196 Z"
     fill="#000000"
     fill-rule="nonzero"
     fill-opacity="1"
     id="path131" />
</svg>
